  0
SECTION
  2
BLOCKS
  0
ENDSEC
  0
SECTION
  2
ENTITIES
  0
LINE
  8
0
 10
8.25304
 20
14.0035
 11
8.51105
 21
14.2783
  0
LINE
  8
0
 10
8.51105
 20
14.2783
 11
8.75133
 21
14.5687
  0
LINE
  8
0
 10
8.75133
 20
14.5687
 11
8.97289
 21
14.8737
  0
LINE
  8
0
 10
8.97289
 20
14.8737
 11
9.17484
 21
15.1919
  0
LINE
  8
0
 10
9.17484
 20
15.1919
 11
9.35643
 21
15.5222
  0
LINE
  8
0
 10
9.35643
 20
15.5222
 11
9.51691
 21
15.8633
  0
LINE
  8
0
 10
9.51691
 20
15.8633
 11
9.65567
 21
16.2138
  0
LINE
  8
0
 10
9.65567
 20
16.2138
 11
9.77216
 21
16.5723
  0
LINE
  8
0
 10
9.77216
 20
16.5723
 11
9.86589
 21
16.9373
  0
LINE
  8
0
 10
9.86589
 20
16.9373
 11
9.93652
 21
17.3076
  0
LINE
  8
0
 10
9.93652
 20
17.3076
 11
9.98376
 21
17.6815
  0
LINE
  8
0
 10
9.98376
 20
17.6815
 11
10.0074
 21
18.0577
  0
LINE
  8
0
 10
10.0074
 20
18.0577
 11
10.0074
 21
18.4347
  0
LINE
  8
0
 10
10.0074
 20
18.4347
 11
9.98376
 21
18.8108
  0
LINE
  8
0
 10
9.98376
 20
18.8108
 11
9.93652
 21
19.1848
  0
LINE
  8
0
 10
9.93652
 20
19.1848
 11
9.86589
 21
19.5551
  0
LINE
  8
0
 10
9.86589
 20
19.5551
 11
9.77216
 21
19.9201
  0
LINE
  8
0
 10
9.77216
 20
19.9201
 11
9.65567
 21
20.2786
  0
LINE
  8
0
 10
9.65567
 20
20.2786
 11
9.51691
 21
20.6291
  0
LINE
  8
0
 10
9.51691
 20
20.6291
 11
9.35643
 21
20.9701
  0
LINE
  8
0
 10
9.35643
 20
20.9701
 11
9.17484
 21
21.3004
  0
LINE
  8
0
 10
9.17484
 20
21.3004
 11
8.97289
 21
21.6187
  0
LINE
  8
0
 10
8.97289
 20
21.6187
 11
8.75133
 21
21.9236
  0
LINE
  8
0
 10
8.75133
 20
21.9236
 11
8.51106
 21
22.2141
  0
LINE
  8
0
 10
8.51106
 20
22.2141
 11
8.25304
 21
22.4888
  0
LINE
  8
0
 10
8.25304
 20
22.4888
 11
4.01041
 21
18.2462
  0
LINE
  8
0
 10
4.01041
 20
18.2462
 11
6.57367
 21
15.6829
  0
LINE
  8
0
 10
6.57367
 20
15.6829
 11
6.65967
 21
15.5913
  0
LINE
  8
0
 10
6.65967
 20
15.5913
 11
6.73975
 21
15.4945
  0
LINE
  8
0
 10
6.73975
 20
15.4945
 11
6.8136
 21
15.3929
  0
LINE
  8
0
 10
6.8136
 20
15.3929
 11
6.88094
 21
15.2868
  0
LINE
  8
0
 10
6.88094
 20
15.2868
 11
6.94145
 21
15.1767
  0
LINE
  8
0
 10
6.94145
 20
15.1767
 11
6.99495
 21
15.063
  0
LINE
  8
0
 10
6.99495
 20
15.063
 11
7.0412
 21
14.9462
  0
LINE
  8
0
 10
7.0412
 20
14.9462
 11
7.08003
 21
14.8267
  0
LINE
  8
0
 10
7.08003
 20
14.8267
 11
7.11127
 21
14.705
  0
LINE
  8
0
 10
7.11127
 20
14.705
 11
7.13481
 21
14.5816
  0
LINE
  8
0
 10
7.13481
 20
14.5816
 11
7.15056
 21
14.4569
  0
LINE
  8
0
 10
7.15056
 20
14.4569
 11
7.15845
 21
14.3315
  0
LINE
  8
0
 10
7.15845
 20
14.3315
 11
7.15845
 21
14.2059
  0
LINE
  8
0
 10
7.15845
 20
14.2059
 11
7.15056
 21
14.0805
  0
LINE
  8
0
 10
7.15056
 20
14.0805
 11
7.13481
 21
13.9558
  0
LINE
  8
0
 10
7.13481
 20
13.9558
 11
7.11127
 21
13.8324
  0
LINE
  8
0
 10
7.11127
 20
13.8324
 11
7.08003
 21
13.7107
  0
LINE
  8
0
 10
7.08003
 20
13.7107
 11
7.0412
 21
13.5912
  0
LINE
  8
0
 10
7.0412
 20
13.5912
 11
6.99495
 21
13.4744
  0
LINE
  8
0
 10
6.99495
 20
13.4744
 11
6.94145
 21
13.3607
  0
LINE
  8
0
 10
6.94145
 20
13.3607
 11
6.88094
 21
13.2506
  0
LINE
  8
0
 10
6.88094
 20
13.2506
 11
6.8136
 21
13.1445
  0
LINE
  8
0
 10
6.8136
 20
13.1445
 11
6.73975
 21
13.0429
  0
LINE
  8
0
 10
6.73975
 20
13.0429
 11
6.65967
 21
12.9461
  0
LINE
  8
0
 10
6.65967
 20
12.9461
 11
6.57365
 21
12.8545
  0
LINE
  8
0
 10
6.57365
 20
12.8545
 11
3.74521
 21
10.0261
  0
LINE
  8
0
 10
3.74521
 20
10.0261
 11
4.01038
 21
9.76091
  0
LINE
  8
0
 10
4.01038
 20
9.76091
 11
8.25304
 21
14.0035
  0
LINE
  8
0
 10
8.72946
 20
21.5063
 11
8.70209
 21
21.5313
  0
LINE
  8
0
 10
8.70209
 20
21.5313
 11
8.68903
 21
21.5604
  0
LINE
  8
0
 10
8.68903
 20
21.5604
 11
8.68758
 21
21.5922
  0
LINE
  8
0
 10
8.68758
 20
21.5922
 11
8.69795
 21
21.6223
  0
LINE
  8
0
 10
8.69795
 20
21.6223
 11
8.72296
 21
21.6497
  0
LINE
  8
0
 10
8.72296
 20
21.6497
 11
8.752
 21
21.6628
  0
LINE
  8
0
 10
8.752
 20
21.6628
 11
8.78909
 21
21.6633
  0
LINE
  8
0
 10
8.78909
 20
21.6633
 11
8.82288
 21
21.648
  0
LINE
  8
0
 10
8.82288
 20
21.648
 11
8.84427
 21
21.6244
  0
LINE
  8
0
 10
8.84427
 20
21.6244
 11
8.853
 21
21.6049
  0
LINE
  8
0
 10
8.853
 20
21.6049
 11
8.85645
 21
21.5733
  0
LINE
  8
0
 10
8.85645
 20
21.5733
 11
8.84547
 21
21.5379
  0
LINE
  8
0
 10
8.84547
 20
21.5379
 11
8.82474
 21
21.5137
  0
LINE
  8
0
 10
8.82474
 20
21.5137
 11
8.79141
 21
21.4974
  0
LINE
  8
0
 10
8.79141
 20
21.4974
 11
8.7596
 21
21.496
  0
LINE
  8
0
 10
8.7596
 20
21.496
 11
8.72946
 21
21.5063
  0
LINE
  8
0
 10
6.84557
 20
20.6337
 11
6.81128
 21
20.6526
  0
LINE
  8
0
 10
6.81128
 20
20.6526
 11
6.78452
 21
20.681
  0
LINE
  8
0
 10
6.78452
 20
20.681
 11
6.76785
 21
20.7164
  0
LINE
  8
0
 10
6.76785
 20
20.7164
 11
6.76295
 21
20.7552
  0
LINE
  8
0
 10
6.76295
 20
20.7552
 11
6.77028
 21
20.7937
  0
LINE
  8
0
 10
6.77028
 20
20.7937
 11
6.78912
 21
20.8279
  0
LINE
  8
0
 10
6.78912
 20
20.8279
 11
6.81764
 21
20.8547
  0
LINE
  8
0
 10
6.81764
 20
20.8547
 11
6.85303
 21
20.8714
  0
LINE
  8
0
 10
6.85303
 20
20.8714
 11
6.89183
 21
20.8763
  0
LINE
  8
0
 10
6.89183
 20
20.8763
 11
6.93024
 21
20.8689
  0
LINE
  8
0
 10
6.93024
 20
20.8689
 11
6.96451
 21
20.8501
  0
LINE
  8
0
 10
6.96451
 20
20.8501
 11
6.99129
 21
20.8216
  0
LINE
  8
0
 10
6.99129
 20
20.8216
 11
7.00793
 21
20.7862
  0
LINE
  8
0
 10
7.00793
 20
20.7862
 11
7.01283
 21
20.7474
  0
LINE
  8
0
 10
7.01283
 20
20.7474
 11
7.00551
 21
20.709
  0
LINE
  8
0
 10
7.00551
 20
20.709
 11
6.98666
 21
20.6747
  0
LINE
  8
0
 10
6.98666
 20
20.6747
 11
6.95815
 21
20.6479
  0
LINE
  8
0
 10
6.95815
 20
20.6479
 11
6.92278
 21
20.6313
  0
LINE
  8
0
 10
6.92278
 20
20.6313
 11
6.88396
 21
20.6264
  0
LINE
  8
0
 10
6.88396
 20
20.6264
 11
6.84557
 21
20.6337
  0
LINE
  8
0
 10
9.60455
 20
19.668
 11
9.57559
 21
19.6813
  0
LINE
  8
0
 10
9.57559
 20
19.6813
 11
9.55077
 21
19.7088
  0
LINE
  8
0
 10
9.55077
 20
19.7088
 11
9.54007
 21
19.7443
  0
LINE
  8
0
 10
9.54007
 20
19.7443
 11
9.54373
 21
19.776
  0
LINE
  8
0
 10
9.54373
 20
19.776
 11
9.55878
 21
19.8041
  0
LINE
  8
0
 10
9.55878
 20
19.8041
 11
9.5831
 21
19.8246
  0
LINE
  8
0
 10
9.5831
 20
19.8246
 11
9.6133
 21
19.8348
  0
LINE
  8
0
 10
9.6133
 20
19.8348
 11
9.64511
 21
19.8331
  0
LINE
  8
0
 10
9.64511
 20
19.8331
 11
9.67833
 21
19.8166
  0
LINE
  8
0
 10
9.67833
 20
19.8166
 11
9.70135
 21
19.7876
  0
LINE
  8
0
 10
9.70135
 20
19.7876
 11
9.70961
 21
19.7568
  0
LINE
  8
0
 10
9.70961
 20
19.7568
 11
9.70595
 21
19.7252
  0
LINE
  8
0
 10
9.70595
 20
19.7252
 11
9.69089
 21
19.6971
  0
LINE
  8
0
 10
9.69089
 20
19.6971
 11
9.66656
 21
19.6765
  0
LINE
  8
0
 10
9.66656
 20
19.6765
 11
9.63637
 21
19.6664
  0
LINE
  8
0
 10
9.63637
 20
19.6664
 11
9.60455
 21
19.668
  0
LINE
  8
0
 10
5.17525
 20
18.9634
 11
5.14096
 21
18.9822
  0
LINE
  8
0
 10
5.14096
 20
18.9822
 11
5.1142
 21
19.0107
  0
LINE
  8
0
 10
5.1142
 20
19.0107
 11
5.09753
 21
19.0461
  0
LINE
  8
0
 10
5.09753
 20
19.0461
 11
5.09264
 21
19.0849
  0
LINE
  8
0
 10
5.09264
 20
19.0849
 11
5.09996
 21
19.1234
  0
LINE
  8
0
 10
5.09996
 20
19.1234
 11
5.1188
 21
19.1576
  0
LINE
  8
0
 10
5.1188
 20
19.1576
 11
5.14732
 21
19.1844
  0
LINE
  8
0
 10
5.14732
 20
19.1844
 11
5.18269
 21
19.201
  0
LINE
  8
0
 10
5.18269
 20
19.201
 11
5.22151
 21
19.2059
  0
LINE
  8
0
 10
5.22151
 20
19.2059
 11
5.25992
 21
19.1986
  0
LINE
  8
0
 10
5.25992
 20
19.1986
 11
5.29419
 21
19.1798
  0
LINE
  8
0
 10
5.29419
 20
19.1798
 11
5.32097
 21
19.1513
  0
LINE
  8
0
 10
5.32097
 20
19.1513
 11
5.33762
 21
19.1159
  0
LINE
  8
0
 10
5.33762
 20
19.1159
 11
5.34251
 21
19.0771
  0
LINE
  8
0
 10
5.34251
 20
19.0771
 11
5.33519
 21
19.0387
  0
LINE
  8
0
 10
5.33519
 20
19.0387
 11
5.31635
 21
19.0044
  0
LINE
  8
0
 10
5.31635
 20
19.0044
 11
5.28783
 21
18.9776
  0
LINE
  8
0
 10
5.28783
 20
18.9776
 11
5.25244
 21
18.961
  0
LINE
  8
0
 10
5.25244
 20
18.961
 11
5.21364
 21
18.9561
  0
LINE
  8
0
 10
5.21364
 20
18.9561
 11
5.17525
 21
18.9634
  0
LINE
  8
0
 10
9.26752
 20
18.2117
 11
9.23326
 21
18.2306
  0
LINE
  8
0
 10
9.23326
 20
18.2306
 11
9.20647
 21
18.2591
  0
LINE
  8
0
 10
9.20647
 20
18.2591
 11
9.18982
 21
18.2945
  0
LINE
  8
0
 10
9.18982
 20
18.2945
 11
9.18492
 21
18.3333
  0
LINE
  8
0
 10
9.18492
 20
18.3333
 11
9.19226
 21
18.3717
  0
LINE
  8
0
 10
9.19226
 20
18.3717
 11
9.21109
 21
18.406
  0
LINE
  8
0
 10
9.21109
 20
18.406
 11
9.23961
 21
18.4327
  0
LINE
  8
0
 10
9.23961
 20
18.4327
 11
9.27499
 21
18.4494
  0
LINE
  8
0
 10
9.27499
 20
18.4494
 11
9.3138
 21
18.4543
  0
LINE
  8
0
 10
9.3138
 20
18.4543
 11
9.3522
 21
18.447
  0
LINE
  8
0
 10
9.3522
 20
18.447
 11
9.38647
 21
18.4281
  0
LINE
  8
0
 10
9.38647
 20
18.4281
 11
9.41324
 21
18.3996
  0
LINE
  8
0
 10
9.41324
 20
18.3996
 11
9.4299
 21
18.3642
  0
LINE
  8
0
 10
9.4299
 20
18.3642
 11
9.4348
 21
18.3254
  0
LINE
  8
0
 10
9.4348
 20
18.3254
 11
9.42747
 21
18.287
  0
LINE
  8
0
 10
9.42747
 20
18.287
 11
9.40865
 21
18.2527
  0
LINE
  8
0
 10
9.40865
 20
18.2527
 11
9.38013
 21
18.226
  0
LINE
  8
0
 10
9.38013
 20
18.226
 11
9.34474
 21
18.2093
  0
LINE
  8
0
 10
9.34474
 20
18.2093
 11
9.30594
 21
18.2044
  0
LINE
  8
0
 10
9.30594
 20
18.2044
 11
9.26752
 21
18.2117
  0
LINE
  8
0
 10
9.75348
 20
17.669
 11
9.7308
 21
17.6913
  0
LINE
  8
0
 10
9.7308
 20
17.6913
 11
9.71794
 21
17.7205
  0
LINE
  8
0
 10
9.71794
 20
17.7205
 11
9.7177
 21
17.7576
  0
LINE
  8
0
 10
9.7177
 20
17.7576
 11
9.73013
 21
17.7869
  0
LINE
  8
0
 10
9.73013
 20
17.7869
 11
9.7525
 21
17.8096
  0
LINE
  8
0
 10
9.7525
 20
17.8096
 11
9.78165
 21
17.8224
  0
LINE
  8
0
 10
9.78165
 20
17.8224
 11
9.81874
 21
17.8227
  0
LINE
  8
0
 10
9.81874
 20
17.8227
 11
9.8524
 21
17.8071
  0
LINE
  8
0
 10
9.8524
 20
17.8071
 11
9.87624
 21
17.7787
  0
LINE
  8
0
 10
9.87624
 20
17.7787
 11
9.88054
 21
17.7689
  0
LINE
  8
0
 10
9.88054
 20
17.7689
 11
9.88545
 21
17.7322
  0
LINE
  8
0
 10
9.88545
 20
17.7322
 11
9.87677
 21
17.7015
  0
LINE
  8
0
 10
9.87677
 20
17.7015
 11
9.85335
 21
17.6728
  0
LINE
  8
0
 10
9.85335
 20
17.6728
 11
9.81989
 21
17.6568
  0
LINE
  8
0
 10
9.81989
 20
17.6568
 11
9.78281
 21
17.6565
  0
LINE
  8
0
 10
9.78281
 20
17.6565
 11
9.75348
 21
17.669
  0
LINE
  8
0
 10
7.5972
 20
16.5414
 11
7.56294
 21
16.5603
  0
LINE
  8
0
 10
7.56294
 20
16.5603
 11
7.53616
 21
16.5888
  0
LINE
  8
0
 10
7.53616
 20
16.5888
 11
7.51952
 21
16.6242
  0
LINE
  8
0
 10
7.51952
 20
16.6242
 11
7.51462
 21
16.6629
  0
LINE
  8
0
 10
7.51462
 20
16.6629
 11
7.52194
 21
16.7014
  0
LINE
  8
0
 10
7.52194
 20
16.7014
 11
7.54077
 21
16.7356
  0
LINE
  8
0
 10
7.54077
 20
16.7356
 11
7.56929
 21
16.7624
  0
LINE
  8
0
 10
7.56929
 20
16.7624
 11
7.60468
 21
16.7791
  0
LINE
  8
0
 10
7.60468
 20
16.7791
 11
7.64348
 21
16.784
  0
LINE
  8
0
 10
7.64348
 20
16.784
 11
7.68188
 21
16.7766
  0
LINE
  8
0
 10
7.68188
 20
16.7766
 11
7.71616
 21
16.7578
  0
LINE
  8
0
 10
7.71616
 20
16.7578
 11
7.74294
 21
16.7293
  0
LINE
  8
0
 10
7.74294
 20
16.7293
 11
7.75958
 21
16.6939
  0
LINE
  8
0
 10
7.75958
 20
16.6939
 11
7.76448
 21
16.6551
  0
LINE
  8
0
 10
7.76448
 20
16.6551
 11
7.75716
 21
16.6167
  0
LINE
  8
0
 10
7.75716
 20
16.6167
 11
7.73833
 21
16.5824
  0
LINE
  8
0
 10
7.73833
 20
16.5824
 11
7.70981
 21
16.5556
  0
LINE
  8
0
 10
7.70981
 20
16.5556
 11
7.67442
 21
16.539
  0
LINE
  8
0
 10
7.67442
 20
16.539
 11
7.63562
 21
16.5341
  0
LINE
  8
0
 10
7.63562
 20
16.5341
 11
7.5972
 21
16.5414
  0
LINE
  8
0
 10
9.233
 20
15.7178
 11
9.2067
 21
15.7439
  0
LINE
  8
0
 10
9.2067
 20
15.7439
 11
9.19487
 21
15.7735
  0
LINE
  8
0
 10
9.19487
 20
15.7735
 11
9.19475
 21
15.8054
  0
LINE
  8
0
 10
9.19475
 20
15.8054
 11
9.20937
 21
15.8394
  0
LINE
  8
0
 10
9.20937
 20
15.8394
 11
9.23709
 21
15.8641
  0
LINE
  8
0
 10
9.23709
 20
15.8641
 11
9.27267
 21
15.8745
  0
LINE
  8
0
 10
9.27267
 20
15.8745
 11
9.30428
 21
15.8707
  0
LINE
  8
0
 10
9.30428
 20
15.8707
 11
9.33226
 21
15.8554
  0
LINE
  8
0
 10
9.33226
 20
15.8554
 11
9.35507
 21
15.8262
  0
LINE
  8
0
 10
9.35507
 20
15.8262
 11
9.35722
 21
15.8213
  0
LINE
  8
0
 10
9.35722
 20
15.8213
 11
9.36314
 21
15.7847
  0
LINE
  8
0
 10
9.36314
 20
15.7847
 11
9.35294
 21
15.749
  0
LINE
  8
0
 10
9.35294
 20
15.749
 11
9.32851
 21
15.7211
  0
LINE
  8
0
 10
9.32851
 20
15.7211
 11
9.29453
 21
15.7063
  0
LINE
  8
0
 10
9.29453
 20
15.7063
 11
9.26266
 21
15.7062
  0
LINE
  8
0
 10
9.26266
 20
15.7062
 11
9.233
 21
15.7178
  0
LINE
  8
0
 10
8.1019
 20
14.0532
 11
8.06836
 21
14.069
  0
LINE
  8
0
 10
8.06836
 20
14.069
 11
8.04729
 21
14.0929
  0
LINE
  8
0
 10
8.04729
 20
14.0929
 11
8.0365
 21
14.1228
  0
LINE
  8
0
 10
8.0365
 20
14.1228
 11
8.03749
 21
14.1547
  0
LINE
  8
0
 10
8.03749
 20
14.1547
 11
8.05328
 21
14.1882
  0
LINE
  8
0
 10
8.05328
 20
14.1882
 11
8.07716
 21
14.2093
  0
LINE
  8
0
 10
8.07716
 20
14.2093
 11
8.10715
 21
14.2201
  0
LINE
  8
0
 10
8.10715
 20
14.2201
 11
8.13898
 21
14.2191
  0
LINE
  8
0
 10
8.13898
 20
14.2191
 11
8.17253
 21
14.2033
  0
LINE
  8
0
 10
8.17253
 20
14.2033
 11
8.1936
 21
14.1794
  0
LINE
  8
0
 10
8.1936
 20
14.1794
 11
8.20439
 21
14.1494
  0
LINE
  8
0
 10
8.20439
 20
14.1494
 11
8.20338
 21
14.1176
  0
LINE
  8
0
 10
8.20338
 20
14.1176
 11
8.18761
 21
14.084
  0
LINE
  8
0
 10
8.18761
 20
14.084
 11
8.16371
 21
14.063
  0
LINE
  8
0
 10
8.16371
 20
14.063
 11
8.13374
 21
14.0522
  0
LINE
  8
0
 10
8.13374
 20
14.0522
 11
8.1019
 21
14.0532
  0
LINE
  8
0
 10
6.64322
 20
12.629
 11
6.61932
 21
12.6501
  0
LINE
  8
0
 10
6.61932
 20
12.6501
 11
6.60486
 21
12.6785
  0
LINE
  8
0
 10
6.60486
 20
12.6785
 11
6.60187
 21
12.7102
  0
LINE
  8
0
 10
6.60187
 20
12.7102
 11
6.61334
 21
12.7455
  0
LINE
  8
0
 10
6.61334
 20
12.7455
 11
6.6344
 21
12.7693
  0
LINE
  8
0
 10
6.6344
 20
12.7693
 11
6.66795
 21
12.7851
  0
LINE
  8
0
 10
6.66795
 20
12.7851
 11
6.70503
 21
12.7851
  0
LINE
  8
0
 10
6.70503
 20
12.7851
 11
6.73859
 21
12.7693
  0
LINE
  8
0
 10
6.73859
 20
12.7693
 11
6.76224
 21
12.7408
  0
LINE
  8
0
 10
6.76224
 20
12.7408
 11
6.77145
 21
12.7048
  0
LINE
  8
0
 10
6.77145
 20
12.7048
 11
6.76451
 21
12.6684
  0
LINE
  8
0
 10
6.76451
 20
12.6684
 11
6.74271
 21
12.6384
  0
LINE
  8
0
 10
6.74271
 20
12.6384
 11
6.71021
 21
12.6205
  0
LINE
  8
0
 10
6.71021
 20
12.6205
 11
6.6732
 21
12.6182
  0
LINE
  8
0
 10
6.6732
 20
12.6182
 11
6.64322
 21
12.629
  0
LINE
  8
0
 10
5.23398
 20
11.1853
 11
5.20044
 21
11.2011
  0
LINE
  8
0
 10
5.20044
 20
11.2011
 11
5.17937
 21
11.225
  0
LINE
  8
0
 10
5.17937
 20
11.225
 11
5.16858
 21
11.2549
  0
LINE
  8
0
 10
5.16858
 20
11.2549
 11
5.16959
 21
11.2868
  0
LINE
  8
0
 10
5.16959
 20
11.2868
 11
5.18536
 21
11.3203
  0
LINE
  8
0
 10
5.18536
 20
11.3203
 11
5.20926
 21
11.3414
  0
LINE
  8
0
 10
5.20926
 20
11.3414
 11
5.23924
 21
11.3522
  0
LINE
  8
0
 10
5.23924
 20
11.3522
 11
5.27107
 21
11.3512
  0
LINE
  8
0
 10
5.27107
 20
11.3512
 11
5.30463
 21
11.3354
  0
LINE
  8
0
 10
5.30463
 20
11.3354
 11
5.3257
 21
11.3115
  0
LINE
  8
0
 10
5.3257
 20
11.3115
 11
5.33649
 21
11.2815
  0
LINE
  8
0
 10
5.33649
 20
11.2815
 11
5.33548
 21
11.2497
  0
LINE
  8
0
 10
5.33548
 20
11.2497
 11
5.3197
 21
11.2161
  0
LINE
  8
0
 10
5.3197
 20
11.2161
 11
5.29579
 21
11.1951
  0
LINE
  8
0
 10
5.29579
 20
11.1951
 11
5.26582
 21
11.1843
  0
LINE
  8
0
 10
5.26582
 20
11.1843
 11
5.23398
 21
11.1853
  0
LINE
  8
0
 10
6.48528
 20
13.65
 11
3.92201
 21
16.2133
  0
LINE
  8
0
 10
3.92201
 20
16.2133
 11
3.836
 21
16.3048
  0
LINE
  8
0
 10
3.836
 20
16.3048
 11
3.75592
 21
16.4016
  0
LINE
  8
0
 10
3.75592
 20
16.4016
 11
3.68207
 21
16.5033
  0
LINE
  8
0
 10
3.68207
 20
16.5033
 11
3.61473
 21
16.6094
  0
LINE
  8
0
 10
3.61473
 20
16.6094
 11
3.55421
 21
16.7195
  0
LINE
  8
0
 10
3.55421
 20
16.7195
 11
3.50072
 21
16.8332
  0
LINE
  8
0
 10
3.50072
 20
16.8332
 11
3.45447
 21
16.95
  0
LINE
  8
0
 10
3.45447
 20
16.95
 11
3.41563
 21
17.0695
  0
LINE
  8
0
 10
3.41563
 20
17.0695
 11
3.3844
 21
17.1912
  0
LINE
  8
0
 10
3.3844
 20
17.1912
 11
3.36084
 21
17.3146
  0
LINE
  8
0
 10
3.36084
 20
17.3146
 11
3.34511
 21
17.4392
  0
LINE
  8
0
 10
3.34511
 20
17.4392
 11
3.33722
 21
17.5646
  0
LINE
  8
0
 10
3.33722
 20
17.5646
 11
3.33722
 21
17.6903
  0
LINE
  8
0
 10
3.33722
 20
17.6903
 11
3.34511
 21
17.8157
  0
LINE
  8
0
 10
3.34511
 20
17.8157
 11
3.36084
 21
17.9403
  0
LINE
  8
0
 10
3.36084
 20
17.9403
 11
3.3844
 21
18.0638
  0
LINE
  8
0
 10
3.3844
 20
18.0638
 11
3.41563
 21
18.1854
  0
LINE
  8
0
 10
3.41563
 20
18.1854
 11
3.45447
 21
18.3049
  0
LINE
  8
0
 10
3.45447
 20
18.3049
 11
3.50072
 21
18.4218
  0
LINE
  8
0
 10
3.50072
 20
18.4218
 11
3.55421
 21
18.5354
  0
LINE
  8
0
 10
3.55421
 20
18.5354
 11
3.61473
 21
18.6455
  0
LINE
  8
0
 10
3.61473
 20
18.6455
 11
3.68207
 21
18.7516
  0
LINE
  8
0
 10
3.68207
 20
18.7516
 11
3.75592
 21
18.8533
  0
LINE
  8
0
 10
3.75592
 20
18.8533
 11
3.836
 21
18.9501
  0
LINE
  8
0
 10
3.836
 20
18.9501
 11
3.92201
 21
19.0417
  0
LINE
  8
0
 10
3.92201
 20
19.0417
 11
6.75044
 21
21.8701
  0
LINE
  8
0
 10
6.75044
 20
21.8701
 11
6.48528
 21
22.1353
  0
LINE
  8
0
 10
6.48528
 20
22.1353
 11
2.24263
 21
17.8926
  0
LINE
  8
0
 10
2.24263
 20
17.8926
 11
1.9846
 21
17.6179
  0
LINE
  8
0
 10
1.9846
 20
17.6179
 11
1.74435
 21
17.3274
  0
LINE
  8
0
 10
1.74435
 20
17.3274
 11
1.5228
 21
17.0225
  0
LINE
  8
0
 10
1.5228
 20
17.0225
 11
1.32083
 21
16.7042
  0
LINE
  8
0
 10
1.32083
 20
16.7042
 11
1.13925
 21
16.3739
  0
LINE
  8
0
 10
1.13925
 20
16.3739
 11
0.97876
 21
16.0329
  0
LINE
  8
0
 10
0.97876
 20
16.0329
 11
0.839996
 21
15.6824
  0
LINE
  8
0
 10
0.839996
 20
15.6824
 11
0.723526
 21
15.3239
  0
LINE
  8
0
 10
0.723526
 20
15.3239
 11
0.629776
 21
14.9589
  0
LINE
  8
0
 10
0.629776
 20
14.9589
 11
0.559158
 21
14.5886
  0
LINE
  8
0
 10
0.559158
 20
14.5886
 11
0.511902
 21
14.2146
  0
LINE
  8
0
 10
0.511902
 20
14.2146
 11
0.488251
 21
13.8385
  0
LINE
  8
0
 10
0.488251
 20
13.8385
 11
0.488251
 21
13.4615
  0
LINE
  8
0
 10
0.488251
 20
13.4615
 11
0.511902
 21
13.0853
  0
LINE
  8
0
 10
0.511902
 20
13.0853
 11
0.559158
 21
12.7114
  0
LINE
  8
0
 10
0.559158
 20
12.7114
 11
0.629776
 21
12.3411
  0
LINE
  8
0
 10
0.629776
 20
12.3411
 11
0.723526
 21
11.9761
  0
LINE
  8
0
 10
0.723526
 20
11.9761
 11
0.839996
 21
11.6176
  0
LINE
  8
0
 10
0.839996
 20
11.6176
 11
0.97876
 21
11.2671
  0
LINE
  8
0
 10
0.97876
 20
11.2671
 11
1.13925
 21
10.9261
  0
LINE
  8
0
 10
1.13925
 20
10.9261
 11
1.32083
 21
10.5957
  0
LINE
  8
0
 10
1.32083
 20
10.5957
 11
1.5228
 21
10.2775
  0
LINE
  8
0
 10
1.5228
 20
10.2775
 11
1.74435
 21
9.97255
  0
LINE
  8
0
 10
1.74435
 20
9.97255
 11
1.9846
 21
9.68211
  0
LINE
  8
0
 10
1.9846
 20
9.68211
 11
2.24263
 21
9.40735
  0
LINE
  8
0
 10
2.24263
 20
9.40735
 11
6.48528
 21
13.65
  0
LINE
  8
0
 10
5.22458
 20
20.545
 11
5.19102
 21
20.5608
  0
LINE
  8
0
 10
5.19102
 20
20.5608
 11
5.16995
 21
20.5847
  0
LINE
  8
0
 10
5.16995
 20
20.5847
 11
5.15916
 21
20.6147
  0
LINE
  8
0
 10
5.15916
 20
20.6147
 11
5.16017
 21
20.6465
  0
LINE
  8
0
 10
5.16017
 20
20.6465
 11
5.17595
 21
20.68
  0
LINE
  8
0
 10
5.17595
 20
20.68
 11
5.19986
 21
20.7011
  0
LINE
  8
0
 10
5.19986
 20
20.7011
 11
5.22983
 21
20.7119
  0
LINE
  8
0
 10
5.22983
 20
20.7119
 11
5.26167
 21
20.7109
  0
LINE
  8
0
 10
5.26167
 20
20.7109
 11
5.29521
 21
20.6951
  0
LINE
  8
0
 10
5.29521
 20
20.6951
 11
5.31628
 21
20.6712
  0
LINE
  8
0
 10
5.31628
 20
20.6712
 11
5.32707
 21
20.6412
  0
LINE
  8
0
 10
5.32707
 20
20.6412
 11
5.32607
 21
20.6094
  0
LINE
  8
0
 10
5.32607
 20
20.6094
 11
5.31029
 21
20.5759
  0
LINE
  8
0
 10
5.31029
 20
20.5759
 11
5.28639
 21
20.5548
  0
LINE
  8
0
 10
5.28639
 20
20.5548
 11
5.25641
 21
20.544
  0
LINE
  8
0
 10
5.25641
 20
20.544
 11
5.22458
 21
20.545
  0
LINE
  8
0
 10
3.79063
 20
19.1111
 11
3.75706
 21
19.1268
  0
LINE
  8
0
 10
3.75706
 20
19.1268
 11
3.73599
 21
19.1507
  0
LINE
  8
0
 10
3.73599
 20
19.1507
 11
3.73343
 21
19.1554
  0
LINE
  8
0
 10
3.73343
 20
19.1554
 11
3.72421
 21
19.1913
  0
LINE
  8
0
 10
3.72421
 20
19.1913
 11
3.73116
 21
19.2278
  0
LINE
  8
0
 10
3.73116
 20
19.2278
 11
3.75296
 21
19.2578
  0
LINE
  8
0
 10
3.75296
 20
19.2578
 11
3.78546
 21
19.2756
  0
LINE
  8
0
 10
3.78546
 20
19.2756
 11
3.82246
 21
19.278
  0
LINE
  8
0
 10
3.82246
 20
19.278
 11
3.85245
 21
19.2672
  0
LINE
  8
0
 10
3.85245
 20
19.2672
 11
3.87634
 21
19.2461
  0
LINE
  8
0
 10
3.87634
 20
19.2461
 11
3.89079
 21
19.2177
  0
LINE
  8
0
 10
3.89079
 20
19.2177
 11
3.8938
 21
19.186
  0
LINE
  8
0
 10
3.8938
 20
19.186
 11
3.88232
 21
19.1507
  0
LINE
  8
0
 10
3.88232
 20
19.1507
 11
3.86127
 21
19.1268
  0
LINE
  8
0
 10
3.86127
 20
19.1268
 11
3.82771
 21
19.111
  0
LINE
  8
0
 10
3.82771
 20
19.111
 11
3.79063
 21
19.1111
  0
LINE
  8
0
 10
2.35667
 20
17.6771
 11
2.32314
 21
17.6929
  0
LINE
  8
0
 10
2.32314
 20
17.6929
 11
2.30206
 21
17.7168
  0
LINE
  8
0
 10
2.30206
 20
17.7168
 11
2.29128
 21
17.7468
  0
LINE
  8
0
 10
2.29128
 20
17.7468
 11
2.29228
 21
17.7786
  0
LINE
  8
0
 10
2.29228
 20
17.7786
 11
2.30806
 21
17.8121
  0
LINE
  8
0
 10
2.30806
 20
17.8121
 11
2.33195
 21
17.8332
  0
LINE
  8
0
 10
2.33195
 20
17.8332
 11
2.36192
 21
17.844
  0
LINE
  8
0
 10
2.36192
 20
17.844
 11
2.39377
 21
17.843
  0
LINE
  8
0
 10
2.39377
 20
17.843
 11
2.42731
 21
17.8272
  0
LINE
  8
0
 10
2.42731
 20
17.8272
 11
2.44838
 21
17.8033
  0
LINE
  8
0
 10
2.44838
 20
17.8033
 11
2.45917
 21
17.7733
  0
LINE
  8
0
 10
2.45917
 20
17.7733
 11
2.45816
 21
17.7415
  0
LINE
  8
0
 10
2.45816
 20
17.7415
 11
2.44238
 21
17.7079
  0
LINE
  8
0
 10
2.44238
 20
17.7079
 11
2.41849
 21
17.6869
  0
LINE
  8
0
 10
2.41849
 20
17.6869
 11
2.38852
 21
17.6761
  0
LINE
  8
0
 10
2.38852
 20
17.6761
 11
2.35667
 21
17.6771
  0
LINE
  8
0
 10
1.19139
 20
16.0255
 11
1.16342
 21
16.0408
  0
LINE
  8
0
 10
1.16342
 20
16.0408
 11
1.14059
 21
16.07
  0
LINE
  8
0
 10
1.14059
 20
16.07
 11
1.13844
 21
16.0749
  0
LINE
  8
0
 10
1.13844
 20
16.0749
 11
1.13252
 21
16.1115
  0
LINE
  8
0
 10
1.13252
 20
16.1115
 11
1.14275
 21
16.1472
  0
LINE
  8
0
 10
1.14275
 20
16.1472
 11
1.16718
 21
16.1751
  0
LINE
  8
0
 10
1.16718
 20
16.1751
 11
1.20114
 21
16.1899
  0
LINE
  8
0
 10
1.20114
 20
16.1899
 11
1.233
 21
16.19
  0
LINE
  8
0
 10
1.233
 20
16.19
 11
1.26266
 21
16.1784
  0
LINE
  8
0
 10
1.26266
 20
16.1784
 11
1.28897
 21
16.1523
  0
LINE
  8
0
 10
1.28897
 20
16.1523
 11
1.30081
 21
16.1227
  0
LINE
  8
0
 10
1.30081
 20
16.1227
 11
1.30093
 21
16.0908
  0
LINE
  8
0
 10
1.30093
 20
16.0908
 11
1.2863
 21
16.0567
  0
LINE
  8
0
 10
1.2863
 20
16.0567
 11
1.25858
 21
16.0321
  0
LINE
  8
0
 10
1.25858
 20
16.0321
 11
1.22301
 21
16.0216
  0
LINE
  8
0
 10
1.22301
 20
16.0216
 11
1.19139
 21
16.0255
  0
LINE
  8
0
 10
2.8138
 20
15.1195
 11
2.77951
 21
15.1384
  0
LINE
  8
0
 10
2.77951
 20
15.1384
 11
2.75275
 21
15.1669
  0
LINE
  8
0
 10
2.75275
 20
15.1669
 11
2.73608
 21
15.2023
  0
LINE
  8
0
 10
2.73608
 20
15.2023
 11
2.73119
 21
15.2411
  0
LINE
  8
0
 10
2.73119
 20
15.2411
 11
2.73851
 21
15.2795
  0
LINE
  8
0
 10
2.73851
 20
15.2795
 11
2.75735
 21
15.3138
  0
LINE
  8
0
 10
2.75735
 20
15.3138
 11
2.78587
 21
15.3405
  0
LINE
  8
0
 10
2.78587
 20
15.3405
 11
2.82126
 21
15.3572
  0
LINE
  8
0
 10
2.82126
 20
15.3572
 11
2.86006
 21
15.3621
  0
LINE
  8
0
 10
2.86006
 20
15.3621
 11
2.89847
 21
15.3548
  0
LINE
  8
0
 10
2.89847
 20
15.3548
 11
2.93274
 21
15.3359
  0
LINE
  8
0
 10
2.93274
 20
15.3359
 11
2.95952
 21
15.3074
  0
LINE
  8
0
 10
2.95952
 20
15.3074
 11
2.97617
 21
15.272
  0
LINE
  8
0
 10
2.97617
 20
15.272
 11
2.98106
 21
15.2332
  0
LINE
  8
0
 10
2.98106
 20
15.2332
 11
2.97374
 21
15.1948
  0
LINE
  8
0
 10
2.97374
 20
15.1948
 11
2.9549
 21
15.1605
  0
LINE
  8
0
 10
2.9549
 20
15.1605
 11
2.92638
 21
15.1338
  0
LINE
  8
0
 10
2.92638
 20
15.1338
 11
2.89101
 21
15.1171
  0
LINE
  8
0
 10
2.89101
 20
15.1171
 11
2.85219
 21
15.1122
  0
LINE
  8
0
 10
2.85219
 20
15.1122
 11
2.8138
 21
15.1195
  0
LINE
  8
0
 10
0.643265
 20
14.0891
 11
0.619431
 21
14.1175
  0
LINE
  8
0
 10
0.619431
 20
14.1175
 11
0.615128
 21
14.1272
  0
LINE
  8
0
 10
0.615128
 20
14.1272
 11
0.610214
 21
14.164
  0
LINE
  8
0
 10
0.610214
 20
14.164
 11
0.618896
 21
14.1946
  0
LINE
  8
0
 10
0.618896
 20
14.1946
 11
0.642334
 21
14.2234
  0
LINE
  8
0
 10
0.642334
 20
14.2234
 11
0.675797
 21
14.2394
  0
LINE
  8
0
 10
0.675797
 20
14.2394
 11
0.71286
 21
14.2397
  0
LINE
  8
0
 10
0.71286
 20
14.2397
 11
0.742188
 21
14.2272
  0
LINE
  8
0
 10
0.742188
 20
14.2272
 11
0.764862
 21
14.2049
  0
LINE
  8
0
 10
0.764862
 20
14.2049
 11
0.777725
 21
14.1757
  0
LINE
  8
0
 10
0.777725
 20
14.1757
 11
0.777985
 21
14.1386
  0
LINE
  8
0
 10
0.777985
 20
14.1386
 11
0.765533
 21
14.1093
  0
LINE
  8
0
 10
0.765533
 20
14.1093
 11
0.743164
 21
14.0866
  0
LINE
  8
0
 10
0.743164
 20
14.0866
 11
0.714035
 21
14.0738
  0
LINE
  8
0
 10
0.714035
 20
14.0738
 11
0.676941
 21
14.0735
  0
LINE
  8
0
 10
0.676941
 20
14.0735
 11
0.643265
 21
14.0891
  0
LINE
  8
0
 10
1.14348
 20
13.4492
 11
1.10919
 21
13.4681
  0
LINE
  8
0
 10
1.10919
 20
13.4681
 11
1.08243
 21
13.4966
  0
LINE
  8
0
 10
1.08243
 20
13.4966
 11
1.06577
 21
13.532
  0
LINE
  8
0
 10
1.06577
 20
13.532
 11
1.06087
 21
13.5708
  0
LINE
  8
0
 10
1.06087
 20
13.5708
 11
1.06819
 21
13.6092
  0
LINE
  8
0
 10
1.06819
 20
13.6092
 11
1.08704
 21
13.6434
  0
LINE
  8
0
 10
1.08704
 20
13.6434
 11
1.11555
 21
13.6702
  0
LINE
  8
0
 10
1.11555
 20
13.6702
 11
1.15092
 21
13.6869
  0
LINE
  8
0
 10
1.15092
 20
13.6869
 11
1.18974
 21
13.6918
  0
LINE
  8
0
 10
1.18974
 20
13.6918
 11
1.22815
 21
13.6844
  0
LINE
  8
0
 10
1.22815
 20
13.6844
 11
1.26242
 21
13.6656
  0
LINE
  8
0
 10
1.26242
 20
13.6656
 11
1.2892
 21
13.6371
  0
LINE
  8
0
 10
1.2892
 20
13.6371
 11
1.30585
 21
13.6017
  0
LINE
  8
0
 10
1.30585
 20
13.6017
 11
1.31075
 21
13.5629
  0
LINE
  8
0
 10
1.31075
 20
13.5629
 11
1.30342
 21
13.5245
  0
LINE
  8
0
 10
1.30342
 20
13.5245
 11
1.28458
 21
13.4902
  0
LINE
  8
0
 10
1.28458
 20
13.4902
 11
1.25606
 21
13.4635
  0
LINE
  8
0
 10
1.25606
 20
13.4635
 11
1.22067
 21
13.4468
  0
LINE
  8
0
 10
1.22067
 20
13.4468
 11
1.18187
 21
13.4419
  0
LINE
  8
0
 10
1.18187
 20
13.4419
 11
1.14348
 21
13.4492
  0
LINE
  8
0
 10
5.23575
 20
12.6976
 11
5.20149
 21
12.7164
  0
LINE
  8
0
 10
5.20149
 20
12.7164
 11
5.1747
 21
12.7449
  0
LINE
  8
0
 10
5.1747
 20
12.7449
 11
5.15805
 21
12.7803
  0
LINE
  8
0
 10
5.15805
 20
12.7803
 11
5.15315
 21
12.8191
  0
LINE
  8
0
 10
5.15315
 20
12.8191
 11
5.16049
 21
12.8575
  0
LINE
  8
0
 10
5.16049
 20
12.8575
 11
5.17932
 21
12.8918
  0
LINE
  8
0
 10
5.17932
 20
12.8918
 11
5.20784
 21
12.9185
  0
LINE
  8
0
 10
5.20784
 20
12.9185
 11
5.24323
 21
12.9352
  0
LINE
  8
0
 10
5.24323
 20
12.9352
 11
5.28203
 21
12.9401
  0
LINE
  8
0
 10
5.28203
 20
12.9401
 11
5.32043
 21
12.9328
  0
LINE
  8
0
 10
5.32043
 20
12.9328
 11
5.35471
 21
12.9139
  0
LINE
  8
0
 10
5.35471
 20
12.9139
 11
5.38147
 21
12.8854
  0
LINE
  8
0
 10
5.38147
 20
12.8854
 11
5.39813
 21
12.8501
  0
LINE
  8
0
 10
5.39813
 20
12.8501
 11
5.40303
 21
12.8112
  0
LINE
  8
0
 10
5.40303
 20
12.8112
 11
5.39571
 21
12.7728
  0
LINE
  8
0
 10
5.39571
 20
12.7728
 11
5.37688
 21
12.7386
  0
LINE
  8
0
 10
5.37688
 20
12.7386
 11
5.34836
 21
12.7118
  0
LINE
  8
0
 10
5.34836
 20
12.7118
 11
5.31297
 21
12.6951
  0
LINE
  8
0
 10
5.31297
 20
12.6951
 11
5.27417
 21
12.6902
  0
LINE
  8
0
 10
5.27417
 20
12.6902
 11
5.23575
 21
12.6976
  0
LINE
  8
0
 10
0.850555
 20
12.0631
 11
0.817352
 21
12.0795
  0
LINE
  8
0
 10
0.817352
 20
12.0795
 11
0.794312
 21
12.1086
  0
LINE
  8
0
 10
0.794312
 20
12.1086
 11
0.786072
 21
12.1394
  0
LINE
  8
0
 10
0.786072
 20
12.1394
 11
0.789734
 21
12.171
  0
LINE
  8
0
 10
0.789734
 20
12.171
 11
0.804779
 21
12.1991
  0
LINE
  8
0
 10
0.804779
 20
12.1991
 11
0.829117
 21
12.2197
  0
LINE
  8
0
 10
0.829117
 20
12.2197
 11
0.859299
 21
12.2298
  0
LINE
  8
0
 10
0.859299
 20
12.2298
 11
0.891113
 21
12.2281
  0
LINE
  8
0
 10
0.891113
 20
12.2281
 11
0.92009
 21
12.2149
  0
LINE
  8
0
 10
0.92009
 20
12.2149
 11
0.944901
 21
12.1873
  0
LINE
  8
0
 10
0.944901
 20
12.1873
 11
0.955612
 21
12.1518
  0
LINE
  8
0
 10
0.955612
 20
12.1518
 11
0.95195
 21
12.1202
  0
LINE
  8
0
 10
0.95195
 20
12.1202
 11
0.936905
 21
12.0921
  0
LINE
  8
0
 10
0.936905
 20
12.0921
 11
0.912567
 21
12.0715
  0
LINE
  8
0
 10
0.912567
 20
12.0715
 11
0.882385
 21
12.0614
  0
LINE
  8
0
 10
0.882385
 20
12.0614
 11
0.850555
 21
12.0631
  0
LINE
  8
0
 10
3.56543
 20
11.0273
 11
3.53117
 21
11.0461
  0
LINE
  8
0
 10
3.53117
 20
11.0461
 11
3.50439
 21
11.0746
  0
LINE
  8
0
 10
3.50439
 20
11.0746
 11
3.48775
 21
11.11
  0
LINE
  8
0
 10
3.48775
 20
11.11
 11
3.48285
 21
11.1488
  0
LINE
  8
0
 10
3.48285
 20
11.1488
 11
3.49017
 21
11.1872
  0
LINE
  8
0
 10
3.49017
 20
11.1872
 11
3.509
 21
11.2215
  0
LINE
  8
0
 10
3.509
 20
11.2215
 11
3.53752
 21
11.2482
  0
LINE
  8
0
 10
3.53752
 20
11.2482
 11
3.57291
 21
11.2649
  0
LINE
  8
0
 10
3.57291
 20
11.2649
 11
3.61171
 21
11.2698
  0
LINE
  8
0
 10
3.61171
 20
11.2698
 11
3.65012
 21
11.2625
  0
LINE
  8
0
 10
3.65012
 20
11.2625
 11
3.68439
 21
11.2436
  0
LINE
  8
0
 10
3.68439
 20
11.2436
 11
3.71117
 21
11.2151
  0
LINE
  8
0
 10
3.71117
 20
11.2151
 11
3.72781
 21
11.1797
  0
LINE
  8
0
 10
3.72781
 20
11.1797
 11
3.73271
 21
11.1409
  0
LINE
  8
0
 10
3.73271
 20
11.1409
 11
3.72539
 21
11.1025
  0
LINE
  8
0
 10
3.72539
 20
11.1025
 11
3.70656
 21
11.0683
  0
LINE
  8
0
 10
3.70656
 20
11.0683
 11
3.67804
 21
11.0415
  0
LINE
  8
0
 10
3.67804
 20
11.0415
 11
3.64265
 21
11.0248
  0
LINE
  8
0
 10
3.64265
 20
11.0248
 11
3.60385
 21
11.0199
  0
LINE
  8
0
 10
3.60385
 20
11.0199
 11
3.56543
 21
11.0273
  0
LINE
  8
0
 10
1.67281
 20
10.2482
 11
1.65141
 21
10.2718
  0
LINE
  8
0
 10
1.65141
 20
10.2718
 11
1.64268
 21
10.2912
  0
LINE
  8
0
 10
1.64268
 20
10.2912
 11
1.63924
 21
10.3229
  0
LINE
  8
0
 10
1.63924
 20
10.3229
 11
1.65019
 21
10.3583
  0
LINE
  8
0
 10
1.65019
 20
10.3583
 11
1.67093
 21
10.3825
  0
LINE
  8
0
 10
1.67093
 20
10.3825
 11
1.70427
 21
10.3988
  0
LINE
  8
0
 10
1.70427
 20
10.3988
 11
1.73608
 21
10.4002
  0
LINE
  8
0
 10
1.73608
 20
10.4002
 11
1.7662
 21
10.3898
  0
LINE
  8
0
 10
1.7662
 20
10.3898
 11
1.79359
 21
10.3648
  0
LINE
  8
0
 10
1.79359
 20
10.3648
 11
1.80664
 21
10.3358
  0
LINE
  8
0
 10
1.80664
 20
10.3358
 11
1.80811
 21
10.304
  0
LINE
  8
0
 10
1.80811
 20
10.304
 11
1.79773
 21
10.2738
  0
LINE
  8
0
 10
1.79773
 20
10.2738
 11
1.77272
 21
10.2464
  0
LINE
  8
0
 10
1.77272
 20
10.2464
 11
1.74367
 21
10.2334
  0
LINE
  8
0
 10
1.74367
 20
10.2334
 11
1.70657
 21
10.2329
  0
LINE
  8
0
 10
1.70657
 20
10.2329
 11
1.67281
 21
10.2482
  0
LINE
  8
0
 10
6.48528
 20
5
 11
3.92201
 21
7.56325
  0
LINE
  8
0
 10
3.92201
 20
7.56325
 11
3.836
 21
7.65483
  0
LINE
  8
0
 10
3.836
 20
7.65483
 11
3.75592
 21
7.75165
  0
LINE
  8
0
 10
3.75592
 20
7.75165
 11
3.68207
 21
7.85329
  0
LINE
  8
0
 10
3.68207
 20
7.85329
 11
3.61473
 21
7.95937
  0
LINE
  8
0
 10
3.61473
 20
7.95937
 11
3.55421
 21
8.06947
  0
LINE
  8
0
 10
3.55421
 20
8.06947
 11
3.50072
 21
8.18317
  0
LINE
  8
0
 10
3.50072
 20
8.18317
 11
3.45447
 21
8.29997
  0
LINE
  8
0
 10
3.45447
 20
8.29997
 11
3.41563
 21
8.41948
  0
LINE
  8
0
 10
3.41563
 20
8.41948
 11
3.3844
 21
8.54117
  0
LINE
  8
0
 10
3.3844
 20
8.54117
 11
3.36084
 21
8.6646
  0
LINE
  8
0
 10
3.36084
 20
8.6646
 11
3.34511
 21
8.78925
  0
LINE
  8
0
 10
3.34511
 20
8.78925
 11
3.33722
 21
8.91463
  0
LINE
  8
0
 10
3.33722
 20
8.91463
 11
3.33722
 21
9.04028
  0
LINE
  8
0
 10
3.33722
 20
9.04028
 11
3.34511
 21
9.16566
  0
LINE
  8
0
 10
3.34511
 20
9.16566
 11
3.36084
 21
9.29033
  0
LINE
  8
0
 10
3.36084
 20
9.29033
 11
3.3844
 21
9.41374
  0
LINE
  8
0
 10
3.3844
 20
9.41374
 11
3.41563
 21
9.53545
  0
LINE
  8
0
 10
3.41563
 20
9.53545
 11
3.45447
 21
9.65494
  0
LINE
  8
0
 10
3.45447
 20
9.65494
 11
3.50072
 21
9.77176
  0
LINE
  8
0
 10
3.50072
 20
9.77176
 11
3.55421
 21
9.88544
  0
LINE
  8
0
 10
3.55421
 20
9.88544
 11
3.61473
 21
9.99554
  0
LINE
  8
0
 10
3.61473
 20
9.99554
 11
3.68207
 21
10.1016
  0
LINE
  8
0
 10
3.68207
 20
10.1016
 11
3.75592
 21
10.2033
  0
LINE
  8
0
 10
3.75592
 20
10.2033
 11
3.836
 21
10.3001
  0
LINE
  8
0
 10
3.836
 20
10.3001
 11
3.92201
 21
10.3917
  0
LINE
  8
0
 10
3.92201
 20
10.3917
 11
6.75044
 21
13.2201
  0
LINE
  8
0
 10
6.75044
 20
13.2201
 11
6.48528
 21
13.4853
  0
LINE
  8
0
 10
6.48528
 20
13.4853
 11
2.24263
 21
9.24263
  0
LINE
  8
0
 10
2.24263
 20
9.24263
 11
1.9846
 21
8.96786
  0
LINE
  8
0
 10
1.9846
 20
8.96786
 11
1.74435
 21
8.67743
  0
LINE
  8
0
 10
1.74435
 20
8.67743
 11
1.5228
 21
8.3725
  0
LINE
  8
0
 10
1.5228
 20
8.3725
 11
1.32083
 21
8.05424
  0
LINE
  8
0
 10
1.32083
 20
8.05424
 11
1.13925
 21
7.72394
  0
LINE
  8
0
 10
1.13925
 20
7.72394
 11
0.97876
 21
7.38287
  0
LINE
  8
0
 10
0.97876
 20
7.38287
 11
0.839996
 21
7.03241
  0
LINE
  8
0
 10
0.839996
 20
7.03241
 11
0.723526
 21
6.67393
  0
LINE
  8
0
 10
0.723526
 20
6.67393
 11
0.629776
 21
6.30885
  0
LINE
  8
0
 10
0.629776
 20
6.30885
 11
0.559158
 21
5.9386
  0
LINE
  8
0
 10
0.559158
 20
5.9386
 11
0.511902
 21
5.56465
  0
LINE
  8
0
 10
0.511902
 20
5.56465
 11
0.488251
 21
5.18846
  0
LINE
  8
0
 10
0.488251
 20
5.18846
 11
0.488251
 21
4.81152
  0
LINE
  8
0
 10
0.488251
 20
4.81152
 11
0.511902
 21
4.43533
  0
LINE
  8
0
 10
0.511902
 20
4.43533
 11
0.559158
 21
4.06139
  0
LINE
  8
0
 10
0.559158
 20
4.06139
 11
0.629776
 21
3.69113
  0
LINE
  8
0
 10
0.629776
 20
3.69113
 11
0.723526
 21
3.32605
  0
LINE
  8
0
 10
0.723526
 20
3.32605
 11
0.839996
 21
2.96758
  0
LINE
  8
0
 10
0.839996
 20
2.96758
 11
0.97876
 21
2.61711
  0
LINE
  8
0
 10
0.97876
 20
2.61711
 11
1.13925
 21
2.27605
  0
LINE
  8
0
 10
1.13925
 20
2.27605
 11
1.32083
 21
1.94574
  0
LINE
  8
0
 10
1.32083
 20
1.94574
 11
1.5228
 21
1.62749
  0
LINE
  8
0
 10
1.5228
 20
1.62749
 11
1.74435
 21
1.32256
  0
LINE
  8
0
 10
1.74435
 20
1.32256
 11
1.9846
 21
1.03212
  0
LINE
  8
0
 10
1.9846
 20
1.03212
 11
2.24263
 21
0.757355
  0
LINE
  8
0
 10
2.24263
 20
0.757355
 11
6.48528
 21
5
  0
LINE
  8
0
 10
5.22458
 20
11.895
 11
5.19102
 21
11.9108
  0
LINE
  8
0
 10
5.19102
 20
11.9108
 11
5.16995
 21
11.9347
  0
LINE
  8
0
 10
5.16995
 20
11.9347
 11
5.15916
 21
11.9647
  0
LINE
  8
0
 10
5.15916
 20
11.9647
 11
5.16017
 21
11.9965
  0
LINE
  8
0
 10
5.16017
 20
11.9965
 11
5.17595
 21
12.03
  0
LINE
  8
0
 10
5.17595
 20
12.03
 11
5.19986
 21
12.0511
  0
LINE
  8
0
 10
5.19986
 20
12.0511
 11
5.22983
 21
12.0619
  0
LINE
  8
0
 10
5.22983
 20
12.0619
 11
5.26167
 21
12.0609
  0
LINE
  8
0
 10
5.26167
 20
12.0609
 11
5.29521
 21
12.0451
  0
LINE
  8
0
 10
5.29521
 20
12.0451
 11
5.31628
 21
12.0212
  0
LINE
  8
0
 10
5.31628
 20
12.0212
 11
5.32707
 21
11.9912
  0
LINE
  8
0
 10
5.32707
 20
11.9912
 11
5.32607
 21
11.9594
  0
LINE
  8
0
 10
5.32607
 20
11.9594
 11
5.31029
 21
11.9259
  0
LINE
  8
0
 10
5.31029
 20
11.9259
 11
5.28639
 21
11.9048
  0
LINE
  8
0
 10
5.28639
 20
11.9048
 11
5.25641
 21
11.894
  0
LINE
  8
0
 10
5.25641
 20
11.894
 11
5.22458
 21
11.895
  0
LINE
  8
0
 10
3.79063
 20
10.461
 11
3.75706
 21
10.4768
  0
LINE
  8
0
 10
3.75706
 20
10.4768
 11
3.73599
 21
10.5007
  0
LINE
  8
0
 10
3.73599
 20
10.5007
 11
3.73343
 21
10.5054
  0
LINE
  8
0
 10
3.73343
 20
10.5054
 11
3.72421
 21
10.5413
  0
LINE
  8
0
 10
3.72421
 20
10.5413
 11
3.73116
 21
10.5777
  0
LINE
  8
0
 10
3.73116
 20
10.5777
 11
3.75296
 21
10.6078
  0
LINE
  8
0
 10
3.75296
 20
10.6078
 11
3.78546
 21
10.6256
  0
LINE
  8
0
 10
3.78546
 20
10.6256
 11
3.82246
 21
10.6279
  0
LINE
  8
0
 10
3.82246
 20
10.6279
 11
3.85245
 21
10.6172
  0
LINE
  8
0
 10
3.85245
 20
10.6172
 11
3.87634
 21
10.5961
  0
LINE
  8
0
 10
3.87634
 20
10.5961
 11
3.89079
 21
10.5677
  0
LINE
  8
0
 10
3.89079
 20
10.5677
 11
3.8938
 21
10.536
  0
LINE
  8
0
 10
3.8938
 20
10.536
 11
3.88232
 21
10.5007
  0
LINE
  8
0
 10
3.88232
 20
10.5007
 11
3.86127
 21
10.4768
  0
LINE
  8
0
 10
3.86127
 20
10.4768
 11
3.82771
 21
10.461
  0
LINE
  8
0
 10
3.82771
 20
10.461
 11
3.79063
 21
10.461
  0
LINE
  8
0
 10
2.35667
 20
9.0271
 11
2.32314
 21
9.04289
  0
LINE
  8
0
 10
2.32314
 20
9.04289
 11
2.30206
 21
9.06679
  0
LINE
  8
0
 10
2.30206
 20
9.06679
 11
2.29128
 21
9.09676
  0
LINE
  8
0
 10
2.29128
 20
9.09676
 11
2.29228
 21
9.1286
  0
LINE
  8
0
 10
2.29228
 20
9.1286
 11
2.30806
 21
9.16214
  0
LINE
  8
0
 10
2.30806
 20
9.16214
 11
2.33195
 21
9.1832
  0
LINE
  8
0
 10
2.33195
 20
9.1832
 11
2.36192
 21
9.194
  0
LINE
  8
0
 10
2.36192
 20
9.194
 11
2.39377
 21
9.19299
  0
LINE
  8
0
 10
2.39377
 20
9.19299
 11
2.42731
 21
9.1772
  0
LINE
  8
0
 10
2.42731
 20
9.1772
 11
2.44838
 21
9.15331
  0
LINE
  8
0
 10
2.44838
 20
9.15331
 11
2.45917
 21
9.12334
  0
LINE
  8
0
 10
2.45917
 20
9.12334
 11
2.45816
 21
9.09149
  0
LINE
  8
0
 10
2.45816
 20
9.09149
 11
2.44238
 21
9.05795
  0
LINE
  8
0
 10
2.44238
 20
9.05795
 11
2.41849
 21
9.03688
  0
LINE
  8
0
 10
2.41849
 20
9.03688
 11
2.38852
 21
9.02609
  0
LINE
  8
0
 10
2.38852
 20
9.02609
 11
2.35667
 21
9.0271
  0
LINE
  8
0
 10
1.19139
 20
7.37552
 11
1.16342
 21
7.39078
  0
LINE
  8
0
 10
1.16342
 20
7.39078
 11
1.14059
 21
7.42
  0
LINE
  8
0
 10
1.14059
 20
7.42
 11
1.13844
 21
7.4249
  0
LINE
  8
0
 10
1.13844
 20
7.4249
 11
1.13252
 21
7.4615
  0
LINE
  8
0
 10
1.13252
 20
7.4615
 11
1.14275
 21
7.49716
  0
LINE
  8
0
 10
1.14275
 20
7.49716
 11
1.16718
 21
7.52505
  0
LINE
  8
0
 10
1.16718
 20
7.52505
 11
1.20114
 21
7.5399
  0
LINE
  8
0
 10
1.20114
 20
7.5399
 11
1.233
 21
7.54001
  0
LINE
  8
0
 10
1.233
 20
7.54001
 11
1.26266
 21
7.5284
  0
LINE
  8
0
 10
1.26266
 20
7.5284
 11
1.28897
 21
7.50226
  0
LINE
  8
0
 10
1.28897
 20
7.50226
 11
1.30081
 21
7.47269
  0
LINE
  8
0
 10
1.30081
 20
7.47269
 11
1.30093
 21
7.44083
  0
LINE
  8
0
 10
1.30093
 20
7.44083
 11
1.2863
 21
7.40674
  0
LINE
  8
0
 10
1.2863
 20
7.40674
 11
1.25858
 21
7.38213
  0
LINE
  8
0
 10
1.25858
 20
7.38213
 11
1.22301
 21
7.37164
  0
LINE
  8
0
 10
1.22301
 20
7.37164
 11
1.19139
 21
7.37552
  0
LINE
  8
0
 10
2.8138
 20
6.46953
 11
2.77951
 21
6.48839
  0
LINE
  8
0
 10
2.77951
 20
6.48839
 11
2.75275
 21
6.51688
  0
LINE
  8
0
 10
2.75275
 20
6.51688
 11
2.73608
 21
6.55228
  0
LINE
  8
0
 10
2.73608
 20
6.55228
 11
2.73119
 21
6.59106
  0
LINE
  8
0
 10
2.73119
 20
6.59106
 11
2.73851
 21
6.62949
  0
LINE
  8
0
 10
2.73851
 20
6.62949
 11
2.75735
 21
6.66376
  0
LINE
  8
0
 10
2.75735
 20
6.66376
 11
2.78587
 21
6.69052
  0
LINE
  8
0
 10
2.78587
 20
6.69052
 11
2.82126
 21
6.70718
  0
LINE
  8
0
 10
2.82126
 20
6.70718
 11
2.86006
 21
6.71208
  0
LINE
  8
0
 10
2.86006
 20
6.71208
 11
2.89847
 21
6.70474
  0
LINE
  8
0
 10
2.89847
 20
6.70474
 11
2.93274
 21
6.68591
  0
LINE
  8
0
 10
2.93274
 20
6.68591
 11
2.95952
 21
6.65741
  0
LINE
  8
0
 10
2.95952
 20
6.65741
 11
2.97617
 21
6.62202
  0
LINE
  8
0
 10
2.97617
 20
6.62202
 11
2.98106
 21
6.58322
  0
LINE
  8
0
 10
2.98106
 20
6.58322
 11
2.97374
 21
6.5448
  0
LINE
  8
0
 10
2.97374
 20
6.5448
 11
2.9549
 21
6.51053
  0
LINE
  8
0
 10
2.9549
 20
6.51053
 11
2.92638
 21
6.48376
  0
LINE
  8
0
 10
2.92638
 20
6.48376
 11
2.89101
 21
6.46712
  0
LINE
  8
0
 10
2.89101
 20
6.46712
 11
2.85219
 21
6.4622
  0
LINE
  8
0
 10
2.85219
 20
6.4622
 11
2.8138
 21
6.46953
  0
LINE
  8
0
 10
0.643265
 20
5.43907
 11
0.619431
 21
5.46747
  0
LINE
  8
0
 10
0.619431
 20
5.46747
 11
0.615128
 21
5.47723
  0
LINE
  8
0
 10
0.615128
 20
5.47723
 11
0.610214
 21
5.51399
  0
LINE
  8
0
 10
0.610214
 20
5.51399
 11
0.618896
 21
5.54465
  0
LINE
  8
0
 10
0.618896
 20
5.54465
 11
0.642334
 21
5.57338
  0
LINE
  8
0
 10
0.642334
 20
5.57338
 11
0.675797
 21
5.5894
  0
LINE
  8
0
 10
0.675797
 20
5.5894
 11
0.71286
 21
5.58966
  0
LINE
  8
0
 10
0.71286
 20
5.58966
 11
0.742188
 21
5.57721
  0
LINE
  8
0
 10
0.742188
 20
5.57721
 11
0.764862
 21
5.55486
  0
LINE
  8
0
 10
0.764862
 20
5.55486
 11
0.777725
 21
5.52571
  0
LINE
  8
0
 10
0.777725
 20
5.52571
 11
0.777985
 21
5.48862
  0
LINE
  8
0
 10
0.777985
 20
5.48862
 11
0.765533
 21
5.4593
  0
LINE
  8
0
 10
0.765533
 20
5.4593
 11
0.743164
 21
5.43661
  0
LINE
  8
0
 10
0.743164
 20
5.43661
 11
0.714035
 21
5.42377
  0
LINE
  8
0
 10
0.714035
 20
5.42377
 11
0.676941
 21
5.42351
  0
LINE
  8
0
 10
0.676941
 20
5.42351
 11
0.643265
 21
5.43907
  0
LINE
  8
0
 10
1.14348
 20
4.79922
 11
1.10919
 21
4.81807
  0
LINE
  8
0
 10
1.10919
 20
4.81807
 11
1.08243
 21
4.84656
  0
LINE
  8
0
 10
1.08243
 20
4.84656
 11
1.06577
 21
4.88196
  0
LINE
  8
0
 10
1.06577
 20
4.88196
 11
1.06087
 21
4.92076
  0
LINE
  8
0
 10
1.06087
 20
4.92076
 11
1.06819
 21
4.95918
  0
LINE
  8
0
 10
1.06819
 20
4.95918
 11
1.08704
 21
4.99344
  0
LINE
  8
0
 10
1.08704
 20
4.99344
 11
1.11555
 21
5.02022
  0
LINE
  8
0
 10
1.11555
 20
5.02022
 11
1.15092
 21
5.03687
  0
LINE
  8
0
 10
1.15092
 20
5.03687
 11
1.18974
 21
5.04176
  0
LINE
  8
0
 10
1.18974
 20
5.04176
 11
1.22815
 21
5.03444
  0
LINE
  8
0
 10
1.22815
 20
5.03444
 11
1.26242
 21
5.01559
  0
LINE
  8
0
 10
1.26242
 20
5.01559
 11
1.2892
 21
4.98709
  0
LINE
  8
0
 10
1.2892
 20
4.98709
 11
1.30585
 21
4.95171
  0
LINE
  8
0
 10
1.30585
 20
4.95171
 11
1.31075
 21
4.9129
  0
LINE
  8
0
 10
1.31075
 20
4.9129
 11
1.30342
 21
4.87448
  0
LINE
  8
0
 10
1.30342
 20
4.87448
 11
1.28458
 21
4.84023
  0
LINE
  8
0
 10
1.28458
 20
4.84023
 11
1.25606
 21
4.81345
  0
LINE
  8
0
 10
1.25606
 20
4.81345
 11
1.22067
 21
4.7968
  0
LINE
  8
0
 10
1.22067
 20
4.7968
 11
1.18187
 21
4.7919
  0
LINE
  8
0
 10
1.18187
 20
4.7919
 11
1.14348
 21
4.79922
  0
LINE
  8
0
 10
5.23575
 20
4.04758
 11
5.20149
 21
4.06641
  0
LINE
  8
0
 10
5.20149
 20
4.06641
 11
5.1747
 21
4.09492
  0
LINE
  8
0
 10
5.1747
 20
4.09492
 11
5.15805
 21
4.13029
  0
LINE
  8
0
 10
5.15805
 20
4.13029
 11
5.15315
 21
4.1691
  0
LINE
  8
0
 10
5.15315
 20
4.1691
 11
5.16049
 21
4.20752
  0
LINE
  8
0
 10
5.16049
 20
4.20752
 11
5.17932
 21
4.24179
  0
LINE
  8
0
 10
5.17932
 20
4.24179
 11
5.20784
 21
4.26855
  0
LINE
  8
0
 10
5.20784
 20
4.26855
 11
5.24323
 21
4.28522
  0
LINE
  8
0
 10
5.24323
 20
4.28522
 11
5.28203
 21
4.29012
  0
LINE
  8
0
 10
5.28203
 20
4.29012
 11
5.32043
 21
4.28279
  0
LINE
  8
0
 10
5.32043
 20
4.28279
 11
5.35471
 21
4.26393
  0
LINE
  8
0
 10
5.35471
 20
4.26393
 11
5.38147
 21
4.23544
  0
LINE
  8
0
 10
5.38147
 20
4.23544
 11
5.39813
 21
4.20006
  0
LINE
  8
0
 10
5.39813
 20
4.20006
 11
5.40303
 21
4.16125
  0
LINE
  8
0
 10
5.40303
 20
4.16125
 11
5.39571
 21
4.12283
  0
LINE
  8
0
 10
5.39571
 20
4.12283
 11
5.37688
 21
4.08856
  0
LINE
  8
0
 10
5.37688
 20
4.08856
 11
5.34836
 21
4.0618
  0
LINE
  8
0
 10
5.34836
 20
4.0618
 11
5.31297
 21
4.04515
  0
LINE
  8
0
 10
5.31297
 20
4.04515
 11
5.27417
 21
4.04024
  0
LINE
  8
0
 10
5.27417
 20
4.04024
 11
5.23575
 21
4.04758
  0
LINE
  8
0
 10
0.850555
 20
3.41306
 11
0.817352
 21
3.42955
  0
LINE
  8
0
 10
0.817352
 20
3.42955
 11
0.794312
 21
3.4586
  0
LINE
  8
0
 10
0.794312
 20
3.4586
 11
0.786072
 21
3.48938
  0
LINE
  8
0
 10
0.786072
 20
3.48938
 11
0.789734
 21
3.52103
  0
LINE
  8
0
 10
0.789734
 20
3.52103
 11
0.804779
 21
3.5491
  0
LINE
  8
0
 10
0.804779
 20
3.5491
 11
0.829117
 21
3.56966
  0
LINE
  8
0
 10
0.829117
 20
3.56966
 11
0.859299
 21
3.57982
  0
LINE
  8
0
 10
0.859299
 20
3.57982
 11
0.891113
 21
3.57816
  0
LINE
  8
0
 10
0.891113
 20
3.57816
 11
0.92009
 21
3.5649
  0
LINE
  8
0
 10
0.92009
 20
3.5649
 11
0.944901
 21
3.53734
  0
LINE
  8
0
 10
0.944901
 20
3.53734
 11
0.955612
 21
3.50183
  0
LINE
  8
0
 10
0.955612
 20
3.50183
 11
0.95195
 21
3.47018
  0
LINE
  8
0
 10
0.95195
 20
3.47018
 11
0.936905
 21
3.44211
  0
LINE
  8
0
 10
0.936905
 20
3.44211
 11
0.912567
 21
3.42155
  0
LINE
  8
0
 10
0.912567
 20
3.42155
 11
0.882385
 21
3.41139
  0
LINE
  8
0
 10
0.882385
 20
3.41139
 11
0.850555
 21
3.41306
  0
LINE
  8
0
 10
3.56543
 20
2.37726
 11
3.53117
 21
2.3961
  0
LINE
  8
0
 10
3.53117
 20
2.3961
 11
3.50439
 21
2.42461
  0
LINE
  8
0
 10
3.50439
 20
2.42461
 11
3.48775
 21
2.45998
  0
LINE
  8
0
 10
3.48775
 20
2.45998
 11
3.48285
 21
2.49878
  0
LINE
  8
0
 10
3.48285
 20
2.49878
 11
3.49017
 21
2.5372
  0
LINE
  8
0
 10
3.49017
 20
2.5372
 11
3.509
 21
2.57147
  0
LINE
  8
0
 10
3.509
 20
2.57147
 11
3.53752
 21
2.59824
  0
LINE
  8
0
 10
3.53752
 20
2.59824
 11
3.57291
 21
2.61488
  0
LINE
  8
0
 10
3.57291
 20
2.61488
 11
3.61171
 21
2.6198
  0
LINE
  8
0
 10
3.61171
 20
2.6198
 11
3.65012
 21
2.61247
  0
LINE
  8
0
 10
3.65012
 20
2.61247
 11
3.68439
 21
2.59363
  0
LINE
  8
0
 10
3.68439
 20
2.59363
 11
3.71117
 21
2.56512
  0
LINE
  8
0
 10
3.71117
 20
2.56512
 11
3.72781
 21
2.52974
  0
LINE
  8
0
 10
3.72781
 20
2.52974
 11
3.73271
 21
2.49094
  0
LINE
  8
0
 10
3.73271
 20
2.49094
 11
3.72539
 21
2.45251
  0
LINE
  8
0
 10
3.72539
 20
2.45251
 11
3.70656
 21
2.41824
  0
LINE
  8
0
 10
3.70656
 20
2.41824
 11
3.67804
 21
2.39148
  0
LINE
  8
0
 10
3.67804
 20
2.39148
 11
3.64265
 21
2.37482
  0
LINE
  8
0
 10
3.64265
 20
2.37482
 11
3.60385
 21
2.36992
  0
LINE
  8
0
 10
3.60385
 20
2.36992
 11
3.56543
 21
2.37726
  0
LINE
  8
0
 10
1.67281
 20
1.59819
 11
1.65141
 21
1.6218
  0
LINE
  8
0
 10
1.65141
 20
1.6218
 11
1.64268
 21
1.64122
  0
LINE
  8
0
 10
1.64268
 20
1.64122
 11
1.63924
 21
1.6729
  0
LINE
  8
0
 10
1.63924
 20
1.6729
 11
1.65019
 21
1.70833
  0
LINE
  8
0
 10
1.65019
 20
1.70833
 11
1.67093
 21
1.73251
  0
LINE
  8
0
 10
1.67093
 20
1.73251
 11
1.70427
 21
1.74878
  0
LINE
  8
0
 10
1.70427
 20
1.74878
 11
1.73608
 21
1.75021
  0
LINE
  8
0
 10
1.73608
 20
1.75021
 11
1.7662
 21
1.73984
  0
LINE
  8
0
 10
1.7662
 20
1.73984
 11
1.79359
 21
1.71484
  0
LINE
  8
0
 10
1.79359
 20
1.71484
 11
1.80664
 21
1.68578
  0
LINE
  8
0
 10
1.80664
 20
1.68578
 11
1.80811
 21
1.65396
  0
LINE
  8
0
 10
1.80811
 20
1.65396
 11
1.79773
 21
1.62383
  0
LINE
  8
0
 10
1.79773
 20
1.62383
 11
1.77272
 21
1.59645
  0
LINE
  8
0
 10
1.77272
 20
1.59645
 11
1.74367
 21
1.58339
  0
LINE
  8
0
 10
1.74367
 20
1.58339
 11
1.70657
 21
1.58287
  0
LINE
  8
0
 10
1.70657
 20
1.58287
 11
1.67281
 21
1.59819
  0
LINE
  8
0
 10
7.7227
 20
4.82321
 11
7.98073
 21
5.09798
  0
LINE
  8
0
 10
7.98073
 20
5.09798
 11
8.22098
 21
5.38841
  0
LINE
  8
0
 10
8.22098
 20
5.38841
 11
8.44254
 21
5.69334
  0
LINE
  8
0
 10
8.44254
 20
5.69334
 11
8.64452
 21
6.0116
  0
LINE
  8
0
 10
8.64452
 20
6.0116
 11
8.8261
 21
6.34192
  0
LINE
  8
0
 10
8.8261
 20
6.34192
 11
8.98659
 21
6.68297
  0
LINE
  8
0
 10
8.98659
 20
6.68297
 11
9.12535
 21
7.03343
  0
LINE
  8
0
 10
9.12535
 20
7.03343
 11
9.24182
 21
7.39192
  0
LINE
  8
0
 10
9.24182
 20
7.39192
 11
9.33556
 21
7.75699
  0
LINE
  8
0
 10
9.33556
 20
7.75699
 11
9.40619
 21
8.12724
  0
LINE
  8
0
 10
9.40619
 20
8.12724
 11
9.45343
 21
8.50121
  0
LINE
  8
0
 10
9.45343
 20
8.50121
 11
9.4771
 21
8.87738
  0
LINE
  8
0
 10
9.4771
 20
8.87738
 11
9.4771
 21
9.25433
  0
LINE
  8
0
 10
9.4771
 20
9.25433
 11
9.45343
 21
9.63051
  0
LINE
  8
0
 10
9.45343
 20
9.63051
 11
9.40619
 21
10.0045
  0
LINE
  8
0
 10
9.40619
 20
10.0045
 11
9.33556
 21
10.3747
  0
LINE
  8
0
 10
9.33556
 20
10.3747
 11
9.24182
 21
10.7398
  0
LINE
  8
0
 10
9.24182
 20
10.7398
 11
9.12535
 21
11.0983
  0
LINE
  8
0
 10
9.12535
 20
11.0983
 11
8.98659
 21
11.4487
  0
LINE
  8
0
 10
8.98659
 20
11.4487
 11
8.8261
 21
11.7898
  0
LINE
  8
0
 10
8.8261
 20
11.7898
 11
8.64452
 21
12.1201
  0
LINE
  8
0
 10
8.64452
 20
12.1201
 11
8.44255
 21
12.4384
  0
LINE
  8
0
 10
8.44255
 20
12.4384
 11
8.22099
 21
12.7433
  0
LINE
  8
0
 10
8.22099
 20
12.7433
 11
7.98073
 21
13.0337
  0
LINE
  8
0
 10
7.98073
 20
13.0337
 11
7.72272
 21
13.3085
  0
LINE
  8
0
 10
7.72272
 20
13.3085
 11
3.48007
 21
9.06586
  0
LINE
  8
0
 10
3.48007
 20
9.06586
 11
6.04333
 21
6.50259
  0
LINE
  8
0
 10
6.04333
 20
6.50259
 11
6.12933
 21
6.411
  0
LINE
  8
0
 10
6.12933
 20
6.411
 11
6.20941
 21
6.31419
  0
LINE
  8
0
 10
6.20941
 20
6.31419
 11
6.28326
 21
6.21255
  0
LINE
  8
0
 10
6.28326
 20
6.21255
 11
6.3506
 21
6.10646
  0
LINE
  8
0
 10
6.3506
 20
6.10646
 11
6.41112
 21
5.99635
  0
LINE
  8
0
 10
6.41112
 20
5.99635
 11
6.46461
 21
5.88268
  0
LINE
  8
0
 10
6.46461
 20
5.88268
 11
6.51086
 21
5.76585
  0
LINE
  8
0
 10
6.51086
 20
5.76585
 11
6.5497
 21
5.64636
  0
LINE
  8
0
 10
6.5497
 20
5.64636
 11
6.58093
 21
5.52467
  0
LINE
  8
0
 10
6.58093
 20
5.52467
 11
6.60449
 21
5.40125
  0
LINE
  8
0
 10
6.60449
 20
5.40125
 11
6.62022
 21
5.2766
  0
LINE
  8
0
 10
6.62022
 20
5.2766
 11
6.62811
 21
5.15121
  0
LINE
  8
0
 10
6.62811
 20
5.15121
 11
6.62811
 21
5.02556
  0
LINE
  8
0
 10
6.62811
 20
5.02556
 11
6.62022
 21
4.90016
  0
LINE
  8
0
 10
6.62022
 20
4.90016
 11
6.60449
 21
4.77551
  0
LINE
  8
0
 10
6.60449
 20
4.77551
 11
6.58093
 21
4.6521
  0
LINE
  8
0
 10
6.58093
 20
4.6521
 11
6.5497
 21
4.5304
  0
LINE
  8
0
 10
6.5497
 20
4.5304
 11
6.51086
 21
4.4109
  0
LINE
  8
0
 10
6.51086
 20
4.4109
 11
6.46461
 21
4.29408
  0
LINE
  8
0
 10
6.46461
 20
4.29408
 11
6.41112
 21
4.1804
  0
LINE
  8
0
 10
6.41112
 20
4.1804
 11
6.3506
 21
4.0703
  0
LINE
  8
0
 10
6.3506
 20
4.0703
 11
6.28326
 21
3.96422
  0
LINE
  8
0
 10
6.28326
 20
3.96422
 11
6.20941
 21
3.86256
  0
LINE
  8
0
 10
6.20941
 20
3.86256
 11
6.12933
 21
3.76576
  0
LINE
  8
0
 10
6.12933
 20
3.76576
 11
6.04332
 21
3.67416
  0
LINE
  8
0
 10
6.04332
 20
3.67416
 11
3.21489
 21
0.845734
  0
LINE
  8
0
 10
3.21489
 20
0.845734
 11
3.48004
 21
0.580582
  0
LINE
  8
0
 10
3.48004
 20
0.580582
 11
7.7227
 21
4.82321
  0
LINE
  8
0
 10
8.19914
 20
12.326
 11
8.17175
 21
12.351
  0
LINE
  8
0
 10
8.17175
 20
12.351
 11
8.15869
 21
12.3801
  0
LINE
  8
0
 10
8.15869
 20
12.3801
 11
8.15724
 21
12.4119
  0
LINE
  8
0
 10
8.15724
 20
12.4119
 11
8.16762
 21
12.442
  0
LINE
  8
0
 10
8.16762
 20
12.442
 11
8.19263
 21
12.4694
  0
LINE
  8
0
 10
8.19263
 20
12.4694
 11
8.22168
 21
12.4825
  0
LINE
  8
0
 10
8.22168
 20
12.4825
 11
8.25877
 21
12.483
  0
LINE
  8
0
 10
8.25877
 20
12.483
 11
8.29254
 21
12.4677
  0
LINE
  8
0
 10
8.29254
 20
12.4677
 11
8.31393
 21
12.4441
  0
LINE
  8
0
 10
8.31393
 20
12.4441
 11
8.32266
 21
12.4246
  0
LINE
  8
0
 10
8.32266
 20
12.4246
 11
8.32611
 21
12.393
  0
LINE
  8
0
 10
8.32611
 20
12.393
 11
8.31514
 21
12.3575
  0
LINE
  8
0
 10
8.31514
 20
12.3575
 11
8.2944
 21
12.3333
  0
LINE
  8
0
 10
8.2944
 20
12.3333
 11
8.26108
 21
12.3171
  0
LINE
  8
0
 10
8.26108
 20
12.3171
 11
8.22926
 21
12.3156
  0
LINE
  8
0
 10
8.22926
 20
12.3156
 11
8.19914
 21
12.326
  0
LINE
  8
0
 10
6.31523
 20
11.4534
 11
6.28094
 21
11.4722
  0
LINE
  8
0
 10
6.28094
 20
11.4722
 11
6.25418
 21
11.5007
  0
LINE
  8
0
 10
6.25418
 20
11.5007
 11
6.23752
 21
11.5361
  0
LINE
  8
0
 10
6.23752
 20
11.5361
 11
6.23262
 21
11.5749
  0
LINE
  8
0
 10
6.23262
 20
11.5749
 11
6.23994
 21
11.6133
  0
LINE
  8
0
 10
6.23994
 20
11.6133
 11
6.25879
 21
11.6476
  0
LINE
  8
0
 10
6.25879
 20
11.6476
 11
6.28731
 21
11.6744
  0
LINE
  8
0
 10
6.28731
 20
11.6744
 11
6.32269
 21
11.691
  0
LINE
  8
0
 10
6.32269
 20
11.691
 11
6.3615
 21
11.6959
  0
LINE
  8
0
 10
6.3615
 20
11.6959
 11
6.3999
 21
11.6886
  0
LINE
  8
0
 10
6.3999
 20
11.6886
 11
6.43417
 21
11.6698
  0
LINE
  8
0
 10
6.43417
 20
11.6698
 11
6.46095
 21
11.6413
  0
LINE
  8
0
 10
6.46095
 20
11.6413
 11
6.4776
 21
11.6059
  0
LINE
  8
0
 10
6.4776
 20
11.6059
 11
6.4825
 21
11.5671
  0
LINE
  8
0
 10
6.4825
 20
11.5671
 11
6.47517
 21
11.5286
  0
LINE
  8
0
 10
6.47517
 20
11.5286
 11
6.45633
 21
11.4944
  0
LINE
  8
0
 10
6.45633
 20
11.4944
 11
6.42783
 21
11.4676
  0
LINE
  8
0
 10
6.42783
 20
11.4676
 11
6.39244
 21
11.451
  0
LINE
  8
0
 10
6.39244
 20
11.451
 11
6.35362
 21
11.446
  0
LINE
  8
0
 10
6.35362
 20
11.446
 11
6.31523
 21
11.4534
  0
LINE
  8
0
 10
9.07422
 20
10.4877
 11
9.04526
 21
10.501
  0
LINE
  8
0
 10
9.04526
 20
10.501
 11
9.02045
 21
10.5285
  0
LINE
  8
0
 10
9.02045
 20
10.5285
 11
9.00974
 21
10.564
  0
LINE
  8
0
 10
9.00974
 20
10.564
 11
9.0134
 21
10.5957
  0
LINE
  8
0
 10
9.0134
 20
10.5957
 11
9.02844
 21
10.6237
  0
LINE
  8
0
 10
9.02844
 20
10.6237
 11
9.05278
 21
10.6443
  0
LINE
  8
0
 10
9.05278
 20
10.6443
 11
9.08296
 21
10.6545
  0
LINE
  8
0
 10
9.08296
 20
10.6545
 11
9.11478
 21
10.6528
  0
LINE
  8
0
 10
9.11478
 20
10.6528
 11
9.14799
 21
10.6363
  0
LINE
  8
0
 10
9.14799
 20
10.6363
 11
9.17104
 21
10.6073
  0
LINE
  8
0
 10
9.17104
 20
10.6073
 11
9.17928
 21
10.5765
  0
LINE
  8
0
 10
9.17928
 20
10.5765
 11
9.17561
 21
10.5448
  0
LINE
  8
0
 10
9.17561
 20
10.5448
 11
9.16057
 21
10.5167
  0
LINE
  8
0
 10
9.16057
 20
10.5167
 11
9.13623
 21
10.4962
  0
LINE
  8
0
 10
9.13623
 20
10.4962
 11
9.10605
 21
10.486
  0
LINE
  8
0
 10
9.10605
 20
10.486
 11
9.07422
 21
10.4877
  0
LINE
  8
0
 10
4.64491
 20
9.78307
 11
4.61064
 21
9.80191
  0
LINE
  8
0
 10
4.61064
 20
9.80191
 11
4.58386
 21
9.83041
  0
LINE
  8
0
 10
4.58386
 20
9.83041
 11
4.56721
 21
9.8658
  0
LINE
  8
0
 10
4.56721
 20
9.8658
 11
4.56232
 21
9.9046
  0
LINE
  8
0
 10
4.56232
 20
9.9046
 11
4.56964
 21
9.94302
  0
LINE
  8
0
 10
4.56964
 20
9.94302
 11
4.58847
 21
9.97728
  0
LINE
  8
0
 10
4.58847
 20
9.97728
 11
4.61699
 21
10.0041
  0
LINE
  8
0
 10
4.61699
 20
10.0041
 11
4.65237
 21
10.0207
  0
LINE
  8
0
 10
4.65237
 20
10.0207
 11
4.69118
 21
10.0256
  0
LINE
  8
0
 10
4.69118
 20
10.0256
 11
4.72958
 21
10.0183
  0
LINE
  8
0
 10
4.72958
 20
10.0183
 11
4.76385
 21
9.99944
  0
LINE
  8
0
 10
4.76385
 20
9.99944
 11
4.79063
 21
9.97093
  0
LINE
  8
0
 10
4.79063
 20
9.97093
 11
4.80728
 21
9.93555
  0
LINE
  8
0
 10
4.80728
 20
9.93555
 11
4.81218
 21
9.89676
  0
LINE
  8
0
 10
4.81218
 20
9.89676
 11
4.80486
 21
9.85834
  0
LINE
  8
0
 10
4.80486
 20
9.85834
 11
4.78603
 21
9.82407
  0
LINE
  8
0
 10
4.78603
 20
9.82407
 11
4.75751
 21
9.79729
  0
LINE
  8
0
 10
4.75751
 20
9.79729
 11
4.72211
 21
9.78064
  0
LINE
  8
0
 10
4.72211
 20
9.78064
 11
4.68332
 21
9.77574
  0
LINE
  8
0
 10
4.68332
 20
9.77574
 11
4.64491
 21
9.78307
  0
LINE
  8
0
 10
8.7372
 20
9.03142
 11
8.70293
 21
9.05025
  0
LINE
  8
0
 10
8.70293
 20
9.05025
 11
8.67615
 21
9.07877
  0
LINE
  8
0
 10
8.67615
 20
9.07877
 11
8.6595
 21
9.11414
  0
LINE
  8
0
 10
8.6595
 20
9.11414
 11
8.6546
 21
9.15294
  0
LINE
  8
0
 10
8.6546
 20
9.15294
 11
8.66193
 21
9.19136
  0
LINE
  8
0
 10
8.66193
 20
9.19136
 11
8.68076
 21
9.22563
  0
LINE
  8
0
 10
8.68076
 20
9.22563
 11
8.70927
 21
9.2524
  0
LINE
  8
0
 10
8.70927
 20
9.2524
 11
8.74467
 21
9.26906
  0
LINE
  8
0
 10
8.74467
 20
9.26906
 11
8.78346
 21
9.27396
  0
LINE
  8
0
 10
8.78346
 20
9.27396
 11
8.82187
 21
9.26663
  0
LINE
  8
0
 10
8.82187
 20
9.26663
 11
8.85614
 21
9.24777
  0
LINE
  8
0
 10
8.85614
 20
9.24777
 11
8.88292
 21
9.21928
  0
LINE
  8
0
 10
8.88292
 20
9.21928
 11
8.89958
 21
9.1839
  0
LINE
  8
0
 10
8.89958
 20
9.1839
 11
8.90448
 21
9.1451
  0
LINE
  8
0
 10
8.90448
 20
9.1451
 11
8.89714
 21
9.10667
  0
LINE
  8
0
 10
8.89714
 20
9.10667
 11
8.87831
 21
9.0724
  0
LINE
  8
0
 10
8.87831
 20
9.0724
 11
8.84979
 21
9.04564
  0
LINE
  8
0
 10
8.84979
 20
9.04564
 11
8.81441
 21
9.02899
  0
LINE
  8
0
 10
8.81441
 20
9.02899
 11
8.7756
 21
9.02408
  0
LINE
  8
0
 10
8.7756
 20
9.02408
 11
8.7372
 21
9.03142
  0
LINE
  8
0
 10
9.22316
 20
8.48863
 11
9.20047
 21
8.51099
  0
LINE
  8
0
 10
9.20047
 20
8.51099
 11
9.18761
 21
8.54015
  0
LINE
  8
0
 10
9.18761
 20
8.54015
 11
9.18736
 21
8.57722
  0
LINE
  8
0
 10
9.18736
 20
8.57722
 11
9.1998
 21
8.60654
  0
LINE
  8
0
 10
9.1998
 20
8.60654
 11
9.22217
 21
8.62923
  0
LINE
  8
0
 10
9.22217
 20
8.62923
 11
9.25131
 21
8.64209
  0
LINE
  8
0
 10
9.25131
 20
8.64209
 11
9.28841
 21
8.64235
  0
LINE
  8
0
 10
9.28841
 20
8.64235
 11
9.32207
 21
8.62679
  0
LINE
  8
0
 10
9.32207
 20
8.62679
 11
9.3459
 21
8.59837
  0
LINE
  8
0
 10
9.3459
 20
8.59837
 11
9.35022
 21
8.58861
  0
LINE
  8
0
 10
9.35022
 20
8.58861
 11
9.35512
 21
8.55185
  0
LINE
  8
0
 10
9.35512
 20
8.55185
 11
9.34645
 21
8.52121
  0
LINE
  8
0
 10
9.34645
 20
8.52121
 11
9.32301
 21
8.49246
  0
LINE
  8
0
 10
9.32301
 20
8.49246
 11
9.28955
 21
8.47644
  0
LINE
  8
0
 10
9.28955
 20
8.47644
 11
9.25249
 21
8.47618
  0
LINE
  8
0
 10
9.25249
 20
8.47618
 11
9.22316
 21
8.48863
  0
LINE
  8
0
 10
7.06688
 20
7.3611
 11
7.03261
 21
7.37994
  0
LINE
  8
0
 10
7.03261
 20
7.37994
 11
7.00583
 21
7.40845
  0
LINE
  8
0
 10
7.00583
 20
7.40845
 11
6.98918
 21
7.44382
  0
LINE
  8
0
 10
6.98918
 20
7.44382
 11
6.98428
 21
7.48262
  0
LINE
  8
0
 10
6.98428
 20
7.48262
 11
6.99161
 21
7.52104
  0
LINE
  8
0
 10
6.99161
 20
7.52104
 11
7.01045
 21
7.55531
  0
LINE
  8
0
 10
7.01045
 20
7.55531
 11
7.03896
 21
7.58208
  0
LINE
  8
0
 10
7.03896
 20
7.58208
 11
7.07434
 21
7.59872
  0
LINE
  8
0
 10
7.07434
 20
7.59872
 11
7.11316
 21
7.60364
  0
LINE
  8
0
 10
7.11316
 20
7.60364
 11
7.15155
 21
7.59631
  0
LINE
  8
0
 10
7.15155
 20
7.59631
 11
7.18584
 21
7.57747
  0
LINE
  8
0
 10
7.18584
 20
7.57747
 11
7.2126
 21
7.54897
  0
LINE
  8
0
 10
7.2126
 20
7.54897
 11
7.22926
 21
7.51358
  0
LINE
  8
0
 10
7.22926
 20
7.51358
 11
7.23416
 21
7.47478
  0
LINE
  8
0
 10
7.23416
 20
7.47478
 11
7.22684
 21
7.43636
  0
LINE
  8
0
 10
7.22684
 20
7.43636
 11
7.20799
 21
7.40208
  0
LINE
  8
0
 10
7.20799
 20
7.40208
 11
7.17947
 21
7.37532
  0
LINE
  8
0
 10
7.17947
 20
7.37532
 11
7.14409
 21
7.35866
  0
LINE
  8
0
 10
7.14409
 20
7.35866
 11
7.10529
 21
7.35376
  0
LINE
  8
0
 10
7.10529
 20
7.35376
 11
7.06688
 21
7.3611
  0
LINE
  8
0
 10
8.70268
 20
6.53746
 11
8.67638
 21
6.56358
  0
LINE
  8
0
 10
8.67638
 20
6.56358
 11
8.66454
 21
6.59315
  0
LINE
  8
0
 10
8.66454
 20
6.59315
 11
8.66441
 21
6.62503
  0
LINE
  8
0
 10
8.66441
 20
6.62503
 11
8.67903
 21
6.6591
  0
LINE
  8
0
 10
8.67903
 20
6.6591
 11
8.70677
 21
6.68373
  0
LINE
  8
0
 10
8.70677
 20
6.68373
 11
8.74234
 21
6.69421
  0
LINE
  8
0
 10
8.74234
 20
6.69421
 11
8.77396
 21
6.69032
  0
LINE
  8
0
 10
8.77396
 20
6.69032
 11
8.80193
 21
6.67508
  0
LINE
  8
0
 10
8.80193
 20
6.67508
 11
8.82475
 21
6.64584
  0
LINE
  8
0
 10
8.82475
 20
6.64584
 11
8.82689
 21
6.64096
  0
LINE
  8
0
 10
8.82689
 20
6.64096
 11
8.83282
 21
6.60435
  0
LINE
  8
0
 10
8.83282
 20
6.60435
 11
8.8226
 21
6.5687
  0
LINE
  8
0
 10
8.8226
 20
6.5687
 11
8.79817
 21
6.54079
  0
LINE
  8
0
 10
8.79817
 20
6.54079
 11
8.76419
 21
6.52596
  0
LINE
  8
0
 10
8.76419
 20
6.52596
 11
8.73233
 21
6.52583
  0
LINE
  8
0
 10
8.73233
 20
6.52583
 11
8.70268
 21
6.53746
  0
LINE
  8
0
 10
7.57156
 20
4.87285
 11
7.53802
 21
4.88863
  0
LINE
  8
0
 10
7.53802
 20
4.88863
 11
7.51695
 21
4.91254
  0
LINE
  8
0
 10
7.51695
 20
4.91254
 11
7.50616
 21
4.9425
  0
LINE
  8
0
 10
7.50616
 20
4.9425
 11
7.50717
 21
4.97435
  0
LINE
  8
0
 10
7.50717
 20
4.97435
 11
7.52295
 21
5.00789
  0
LINE
  8
0
 10
7.52295
 20
5.00789
 11
7.54684
 21
5.02895
  0
LINE
  8
0
 10
7.54684
 20
5.02895
 11
7.57681
 21
5.03973
  0
LINE
  8
0
 10
7.57681
 20
5.03973
 11
7.60866
 21
5.03874
  0
LINE
  8
0
 10
7.60866
 20
5.03874
 11
7.6422
 21
5.02295
  0
LINE
  8
0
 10
7.6422
 20
5.02295
 11
7.66327
 21
4.99905
  0
LINE
  8
0
 10
7.66327
 20
4.99905
 11
7.67406
 21
4.96909
  0
LINE
  8
0
 10
7.67406
 20
4.96909
 11
7.67305
 21
4.93724
  0
LINE
  8
0
 10
7.67305
 20
4.93724
 11
7.65727
 21
4.9037
  0
LINE
  8
0
 10
7.65727
 20
4.9037
 11
7.63338
 21
4.88263
  0
LINE
  8
0
 10
7.63338
 20
4.88263
 11
7.60341
 21
4.87184
  0
LINE
  8
0
 10
7.60341
 20
4.87184
 11
7.57156
 21
4.87285
  0
LINE
  8
0
 10
6.1129
 20
3.44867
 11
6.08899
 21
3.46974
  0
LINE
  8
0
 10
6.08899
 20
3.46974
 11
6.07454
 21
3.49812
  0
LINE
  8
0
 10
6.07454
 20
3.49812
 11
6.07153
 21
3.52985
  0
LINE
  8
0
 10
6.07153
 20
3.52985
 11
6.08301
 21
3.56511
  0
LINE
  8
0
 10
6.08301
 20
3.56511
 11
6.10406
 21
3.589
  0
LINE
  8
0
 10
6.10406
 20
3.589
 11
6.13762
 21
3.6048
  0
LINE
  8
0
 10
6.13762
 20
3.6048
 11
6.17471
 21
3.6048
  0
LINE
  8
0
 10
6.17471
 20
3.6048
 11
6.20827
 21
3.58902
  0
LINE
  8
0
 10
6.20827
 20
3.58902
 11
6.22934
 21
3.56511
  0
LINE
  8
0
 10
6.22934
 20
3.56511
 11
6.2319
 21
3.56044
  0
LINE
  8
0
 10
6.2319
 20
3.56044
 11
6.24112
 21
3.52452
  0
LINE
  8
0
 10
6.24112
 20
3.52452
 11
6.23418
 21
3.48808
  0
LINE
  8
0
 10
6.23418
 20
3.48808
 11
6.21237
 21
3.45808
  0
LINE
  8
0
 10
6.21237
 20
3.45808
 11
6.17987
 21
3.44022
  0
LINE
  8
0
 10
6.17987
 20
3.44022
 11
6.14287
 21
3.43788
  0
LINE
  8
0
 10
6.14287
 20
3.43788
 11
6.1129
 21
3.44867
  0
LINE
  8
0
 10
4.70366
 20
2.00496
 11
4.6701
 21
2.02074
  0
LINE
  8
0
 10
4.6701
 20
2.02074
 11
4.64903
 21
2.04463
  0
LINE
  8
0
 10
4.64903
 20
2.04463
 11
4.63824
 21
2.07462
  0
LINE
  8
0
 10
4.63824
 20
2.07462
 11
4.63925
 21
2.10645
  0
LINE
  8
0
 10
4.63925
 20
2.10645
 11
4.65503
 21
2.14
  0
LINE
  8
0
 10
4.65503
 20
2.14
 11
4.67894
 21
2.16107
  0
LINE
  8
0
 10
4.67894
 20
2.16107
 11
4.70891
 21
2.17186
  0
LINE
  8
0
 10
4.70891
 20
2.17186
 11
4.74075
 21
2.17085
  0
LINE
  8
0
 10
4.74075
 20
2.17085
 11
4.77429
 21
2.15508
  0
LINE
  8
0
 10
4.77429
 20
2.15508
 11
4.79536
 21
2.13116
  0
LINE
  8
0
 10
4.79536
 20
2.13116
 11
4.80615
 21
2.1012
  0
LINE
  8
0
 10
4.80615
 20
2.1012
 11
4.80515
 21
2.06935
  0
LINE
  8
0
 10
4.80515
 20
2.06935
 11
4.78937
 21
2.03581
  0
LINE
  8
0
 10
4.78937
 20
2.03581
 11
4.76547
 21
2.01474
  0
LINE
  8
0
 10
4.76547
 20
2.01474
 11
4.73549
 21
2.00395
  0
LINE
  8
0
 10
4.73549
 20
2.00395
 11
4.70366
 21
2.00496
  0
ENDSEC
  0
SECTION
  2
OBJECTS
  0
DICTIONARY
  0
ENDSEC
  0
EOF
