  0
SECTION
  2
BLOCKS
  0
ENDSEC
  0
SECTION
  2
ENTITIES
  0
LINE
  8
0
 10
4.96114
 20
1.6875
 11
4.46115
 21
2.55351
  0
LINE
  8
0
 10
4.46115
 20
2.55351
 11
4.37579
 21
2.71268
  0
LINE
  8
0
 10
4.37579
 20
2.71268
 11
4.30061
 21
2.87689
  0
LINE
  8
0
 10
4.30061
 20
2.87689
 11
4.23589
 21
3.04552
  0
LINE
  8
0
 10
4.23589
 20
3.04552
 11
4.18187
 21
3.21786
  0
LINE
  8
0
 10
4.18187
 20
3.21786
 11
4.13879
 21
3.39325
  0
LINE
  8
0
 10
4.13879
 20
3.39325
 11
4.10681
 21
3.57101
  0
LINE
  8
0
 10
4.10681
 20
3.57101
 11
4.08606
 21
3.75043
  0
LINE
  8
0
 10
4.08606
 20
3.75043
 11
4.07658
 21
3.9308
  0
LINE
  8
0
 10
4.07658
 20
3.9308
 11
4.07849
 21
4.1114
  0
LINE
  8
0
 10
4.07849
 20
4.1114
 11
4.09172
 21
4.29153
  0
LINE
  8
0
 10
4.09172
 20
4.29153
 11
4.11623
 21
4.47046
  0
LINE
  8
0
 10
4.11623
 20
4.47046
 11
4.15193
 21
4.64751
  0
LINE
  8
0
 10
4.15193
 20
4.64751
 11
4.19867
 21
4.82198
  0
LINE
  8
0
 10
4.19867
 20
4.82198
 11
4.25629
 21
4.99316
  0
LINE
  8
0
 10
4.25629
 20
4.99316
 11
4.32452
 21
5.16037
  0
LINE
  8
0
 10
4.32452
 20
5.16037
 11
4.40314
 21
5.32298
  0
LINE
  8
0
 10
4.40314
 20
5.32298
 11
4.49179
 21
5.48033
  0
LINE
  8
0
 10
4.49179
 20
5.48033
 11
4.59016
 21
5.63181
  0
LINE
  8
0
 10
4.59016
 20
5.63181
 11
4.69785
 21
5.77681
  0
LINE
  8
0
 10
4.69785
 20
5.77681
 11
4.81442
 21
5.91476
  0
LINE
  8
0
 10
4.81442
 20
5.91476
 11
4.93944
 21
6.0451
  0
LINE
  8
0
 10
4.93944
 20
6.0451
 11
5.07239
 21
6.16736
  0
LINE
  8
0
 10
5.07239
 20
6.16736
 11
5.21275
 21
6.28102
  0
LINE
  8
0
 10
5.21275
 20
6.28102
 11
5.35997
 21
6.38565
  0
LINE
  8
0
 10
5.35997
 20
6.38565
 11
5.51347
 21
6.48082
  0
LINE
  8
0
 10
5.51347
 20
6.48082
 11
7.45096
 21
3.125
  0
LINE
  8
0
 10
7.45096
 20
3.125
 11
13.6582
 21
6.70874
  0
LINE
  8
0
 10
13.6582
 20
6.70874
 11
10.6582
 21
11.9049
  0
LINE
  8
0
 10
10.6582
 20
11.9049
 11
5.75
 21
9.07115
  0
LINE
  8
0
 10
5.75
 20
9.07115
 11
5.42966
 21
8.87253
  0
LINE
  8
0
 10
5.42966
 20
8.87253
 11
5.12242
 21
8.65417
  0
LINE
  8
0
 10
5.12242
 20
8.65417
 11
4.82948
 21
8.41696
  0
LINE
  8
0
 10
4.82948
 20
8.41696
 11
0.00482178
 21
4.02209
  0
LINE
  8
0
 10
0.00482178
 20
4.02209
 11
2.25481
 21
0.125
  0
LINE
  8
0
 10
2.25481
 20
0.125
 11
4.96114
 21
1.6875
  0
LINE
  8
0
 10
9.32164
 20
10.859
 11
9.29549
 21
10.8772
  0
LINE
  8
0
 10
9.29549
 20
10.8772
 11
9.27785
 21
10.9037
  0
LINE
  8
0
 10
9.27785
 20
10.9037
 11
9.27129
 21
10.9402
  0
LINE
  8
0
 10
9.27129
 20
10.9402
 11
9.27855
 21
10.9712
  0
LINE
  8
0
 10
9.27855
 20
10.9712
 11
9.29674
 21
10.9974
  0
LINE
  8
0
 10
9.29674
 20
10.9974
 11
9.32327
 21
11.015
  0
LINE
  8
0
 10
9.32327
 20
11.015
 11
9.35976
 21
11.0216
  0
LINE
  8
0
 10
9.35976
 20
11.0216
 11
9.39078
 21
11.0143
  0
LINE
  8
0
 10
9.39078
 20
11.0143
 11
9.41693
 21
10.9961
  0
LINE
  8
0
 10
9.41693
 20
10.9961
 11
9.43457
 21
10.9696
  0
LINE
  8
0
 10
9.43457
 20
10.9696
 11
9.44113
 21
10.9331
  0
LINE
  8
0
 10
9.44113
 20
10.9331
 11
9.43387
 21
10.9021
  0
LINE
  8
0
 10
9.43387
 20
10.9021
 11
9.41568
 21
10.8759
  0
LINE
  8
0
 10
9.41568
 20
10.8759
 11
9.38914
 21
10.8583
  0
LINE
  8
0
 10
9.38914
 20
10.8583
 11
9.35266
 21
10.8517
  0
LINE
  8
0
 10
9.35266
 20
10.8517
 11
9.32164
 21
10.859
  0
LINE
  8
0
 10
7.57541
 20
9.84134
 11
7.54311
 21
9.85954
  0
LINE
  8
0
 10
7.54311
 20
9.85954
 11
7.53925
 21
9.86324
  0
LINE
  8
0
 10
7.53925
 20
9.86324
 11
7.52162
 21
9.88977
  0
LINE
  8
0
 10
7.52162
 20
9.88977
 11
7.51506
 21
9.92627
  0
LINE
  8
0
 10
7.51506
 20
9.92627
 11
7.52466
 21
9.9621
  0
LINE
  8
0
 10
7.52466
 20
9.9621
 11
7.5486
 21
9.99042
  0
LINE
  8
0
 10
7.5486
 20
9.99042
 11
7.57712
 21
10.0046
  0
LINE
  8
0
 10
7.57712
 20
10.0046
 11
7.61415
 21
10.0065
  0
LINE
  8
0
 10
7.61415
 20
10.0065
 11
7.64403
 21
9.99542
  0
LINE
  8
0
 10
7.64403
 20
9.99542
 11
7.66769
 21
9.97411
  0
LINE
  8
0
 10
7.66769
 20
9.97411
 11
7.68185
 21
9.94557
  0
LINE
  8
0
 10
7.68185
 20
9.94557
 11
7.68452
 21
9.91383
  0
LINE
  8
0
 10
7.68452
 20
9.91383
 11
7.6727
 21
9.87868
  0
LINE
  8
0
 10
7.6727
 20
9.87868
 11
7.64702
 21
9.85191
  0
LINE
  8
0
 10
7.64702
 20
9.85191
 11
7.6124
 21
9.83862
  0
LINE
  8
0
 10
7.6124
 20
9.83862
 11
7.57541
 21
9.84134
  0
LINE
  8
0
 10
5.8092
 20
8.83112
 11
5.78304
 21
8.84929
  0
LINE
  8
0
 10
5.78304
 20
8.84929
 11
5.76541
 21
8.87582
  0
LINE
  8
0
 10
5.76541
 20
8.87582
 11
5.75885
 21
8.91232
  0
LINE
  8
0
 10
5.75885
 20
8.91232
 11
5.76611
 21
8.94333
  0
LINE
  8
0
 10
5.76611
 20
8.94333
 11
5.7843
 21
8.9695
  0
LINE
  8
0
 10
5.7843
 20
8.9695
 11
5.81082
 21
8.98711
  0
LINE
  8
0
 10
5.81082
 20
8.98711
 11
5.84731
 21
8.99368
  0
LINE
  8
0
 10
5.84731
 20
8.99368
 11
5.87833
 21
8.9864
  0
LINE
  8
0
 10
5.87833
 20
8.9864
 11
5.90448
 21
8.96823
  0
LINE
  8
0
 10
5.90448
 20
8.96823
 11
5.92212
 21
8.94168
  0
LINE
  8
0
 10
5.92212
 20
8.94168
 11
5.92868
 21
8.9052
  0
LINE
  8
0
 10
5.92868
 20
8.9052
 11
5.9214
 21
8.87419
  0
LINE
  8
0
 10
5.9214
 20
8.87419
 11
5.90323
 21
8.84802
  0
LINE
  8
0
 10
5.90323
 20
8.84802
 11
5.87671
 21
8.8304
  0
LINE
  8
0
 10
5.87671
 20
8.8304
 11
5.84021
 21
8.82384
  0
LINE
  8
0
 10
5.84021
 20
8.82384
 11
5.8092
 21
8.83112
  0
LINE
  8
0
 10
4.25134
 20
7.53972
 11
4.23502
 21
7.55342
  0
LINE
  8
0
 10
4.23502
 20
7.55342
 11
4.21812
 21
7.58043
  0
LINE
  8
0
 10
4.21812
 20
7.58043
 11
4.21259
 21
7.61711
  0
LINE
  8
0
 10
4.21259
 20
7.61711
 11
4.22318
 21
7.65265
  0
LINE
  8
0
 10
4.22318
 20
7.65265
 11
4.24367
 21
7.67705
  0
LINE
  8
0
 10
4.24367
 20
7.67705
 11
4.2717
 21
7.6922
  0
LINE
  8
0
 10
4.2717
 20
7.6922
 11
4.30331
 21
7.69597
  0
LINE
  8
0
 10
4.30331
 20
7.69597
 11
4.33411
 21
7.68784
  0
LINE
  8
0
 10
4.33411
 20
7.68784
 11
4.35976
 21
7.66893
  0
LINE
  8
0
 10
4.35976
 20
7.66893
 11
4.3784
 21
7.63689
  0
LINE
  8
0
 10
4.3784
 20
7.63689
 11
4.38219
 21
7.60526
  0
LINE
  8
0
 10
4.38219
 20
7.60526
 11
4.37405
 21
7.57445
  0
LINE
  8
0
 10
4.37405
 20
7.57445
 11
4.3511
 21
7.5453
  0
LINE
  8
0
 10
4.3511
 20
7.5453
 11
4.32309
 21
7.53015
  0
LINE
  8
0
 10
4.32309
 20
7.53015
 11
4.28615
 21
7.52692
  0
LINE
  8
0
 10
4.28615
 20
7.52692
 11
4.25134
 21
7.53972
  0
LINE
  8
0
 10
3.24919
 20
5.78738
 11
3.22774
 21
5.80309
  0
LINE
  8
0
 10
3.22774
 20
5.80309
 11
3.20992
 21
5.8295
  0
LINE
  8
0
 10
3.20992
 20
5.8295
 11
3.20309
 21
5.86061
  0
LINE
  8
0
 10
3.20309
 20
5.86061
 11
3.20818
 21
5.89206
  0
LINE
  8
0
 10
3.20818
 20
5.89206
 11
3.22449
 21
5.91942
  0
LINE
  8
0
 10
3.22449
 20
5.91942
 11
3.25456
 21
5.94112
  0
LINE
  8
0
 10
3.25456
 20
5.94112
 11
3.29103
 21
5.94792
  0
LINE
  8
0
 10
3.29103
 20
5.94792
 11
3.3269
 21
5.93858
  0
LINE
  8
0
 10
3.3269
 20
5.93858
 11
3.35201
 21
5.91896
  0
LINE
  8
0
 10
3.35201
 20
5.91896
 11
3.36813
 21
5.89149
  0
LINE
  8
0
 10
3.36813
 20
5.89149
 11
3.373
 21
5.86002
  0
LINE
  8
0
 10
3.373
 20
5.86002
 11
3.36365
 21
5.82413
  0
LINE
  8
0
 10
3.36365
 20
5.82413
 11
3.34404
 21
5.79903
  0
LINE
  8
0
 10
3.34404
 20
5.79903
 11
3.31657
 21
5.7829
  0
LINE
  8
0
 10
3.31657
 20
5.7829
 11
3.2851
 21
5.77803
  0
LINE
  8
0
 10
3.2851
 20
5.77803
 11
3.24919
 21
5.78738
  0
LINE
  8
0
 10
2.56686
 20
4.77554
 11
2.53065
 21
4.79033
  0
LINE
  8
0
 10
2.53065
 20
4.79033
 11
2.50079
 21
4.81557
  0
LINE
  8
0
 10
2.50079
 20
4.81557
 11
2.48019
 21
4.8488
  0
LINE
  8
0
 10
2.48019
 20
4.8488
 11
2.47086
 21
4.88678
  0
LINE
  8
0
 10
2.47086
 20
4.88678
 11
2.47371
 21
4.92578
  0
LINE
  8
0
 10
2.47371
 20
4.92578
 11
2.48849
 21
4.96201
  0
LINE
  8
0
 10
2.48849
 20
4.96201
 11
2.51373
 21
4.99187
  0
LINE
  8
0
 10
2.51373
 20
4.99187
 11
2.54698
 21
5.01248
  0
LINE
  8
0
 10
2.54698
 20
5.01248
 11
2.58495
 21
5.0218
  0
LINE
  8
0
 10
2.58495
 20
5.0218
 11
2.62396
 21
5.01894
  0
LINE
  8
0
 10
2.62396
 20
5.01894
 11
2.66017
 21
5.00417
  0
LINE
  8
0
 10
2.66017
 20
5.00417
 11
2.69005
 21
4.97891
  0
LINE
  8
0
 10
2.69005
 20
4.97891
 11
2.71063
 21
4.94568
  0
LINE
  8
0
 10
2.71063
 20
4.94568
 11
2.71997
 21
4.9077
  0
LINE
  8
0
 10
2.71997
 20
4.9077
 11
2.71712
 21
4.86871
  0
LINE
  8
0
 10
2.71712
 20
4.86871
 11
2.70233
 21
4.8325
  0
LINE
  8
0
 10
2.70233
 20
4.8325
 11
2.67709
 21
4.80263
  0
LINE
  8
0
 10
2.67709
 20
4.80263
 11
2.64384
 21
4.78201
  0
LINE
  8
0
 10
2.64384
 20
4.78201
 11
2.60588
 21
4.77267
  0
LINE
  8
0
 10
2.60588
 20
4.77267
 11
2.56686
 21
4.77554
  0
LINE
  8
0
 10
2.90134
 20
3.79807
 11
2.87933
 21
3.813
  0
LINE
  8
0
 10
2.87933
 20
3.813
 11
2.85849
 21
3.84367
  0
LINE
  8
0
 10
2.85849
 20
3.84367
 11
2.85268
 21
3.88031
  0
LINE
  8
0
 10
2.85268
 20
3.88031
 11
2.86061
 21
3.91116
  0
LINE
  8
0
 10
2.86061
 20
3.91116
 11
2.87933
 21
3.93694
  0
LINE
  8
0
 10
2.87933
 20
3.93694
 11
2.91125
 21
3.95581
  0
LINE
  8
0
 10
2.91125
 20
3.95581
 11
2.94817
 21
3.9593
  0
LINE
  8
0
 10
2.94817
 20
3.9593
 11
2.98306
 21
3.94675
  0
LINE
  8
0
 10
2.98306
 20
3.94675
 11
3.00929
 21
3.92053
  0
LINE
  8
0
 10
3.00929
 20
3.92053
 11
3.02101
 21
3.89093
  0
LINE
  8
0
 10
3.02101
 20
3.89093
 11
3.01985
 21
3.85385
  0
LINE
  8
0
 10
3.01985
 20
3.85385
 11
3.00302
 21
3.8208
  0
LINE
  8
0
 10
3.00302
 20
3.8208
 11
2.97371
 21
3.79805
  0
LINE
  8
0
 10
2.97371
 20
3.79805
 11
2.93752
 21
3.78998
  0
LINE
  8
0
 10
2.93752
 20
3.78998
 11
2.90134
 21
3.79807
  0
LINE
  8
0
 10
0.521149
 20
3.59444
 11
0.48494
 21
3.60922
  0
LINE
  8
0
 10
0.48494
 20
3.60922
 11
0.455078
 21
3.63446
  0
LINE
  8
0
 10
0.455078
 20
3.63446
 11
0.434479
 21
3.66769
  0
LINE
  8
0
 10
0.434479
 20
3.66769
 11
0.425156
 21
3.70567
  0
LINE
  8
0
 10
0.425156
 20
3.70567
 11
0.428009
 21
3.74467
  0
LINE
  8
0
 10
0.428009
 20
3.74467
 11
0.44278
 21
3.78088
  0
LINE
  8
0
 10
0.44278
 20
3.78088
 11
0.468033
 21
3.81076
  0
LINE
  8
0
 10
0.468033
 20
3.81076
 11
0.501266
 21
3.83138
  0
LINE
  8
0
 10
0.501266
 20
3.83138
 11
0.539246
 21
3.8407
  0
LINE
  8
0
 10
0.539246
 20
3.8407
 11
0.578247
 21
3.83783
  0
LINE
  8
0
 10
0.578247
 20
3.83783
 11
0.614456
 21
3.82306
  0
LINE
  8
0
 10
0.614456
 20
3.82306
 11
0.644333
 21
3.79781
  0
LINE
  8
0
 10
0.644333
 20
3.79781
 11
0.664932
 21
3.76457
  0
LINE
  8
0
 10
0.664932
 20
3.76457
 11
0.674271
 21
3.72659
  0
LINE
  8
0
 10
0.674271
 20
3.72659
 11
0.671402
 21
3.68761
  0
LINE
  8
0
 10
0.671402
 20
3.68761
 11
0.656616
 21
3.65138
  0
LINE
  8
0
 10
0.656616
 20
3.65138
 11
0.631378
 21
3.62152
  0
LINE
  8
0
 10
0.631378
 20
3.62152
 11
0.598145
 21
3.60091
  0
LINE
  8
0
 10
0.598145
 20
3.60091
 11
0.560165
 21
3.59157
  0
LINE
  8
0
 10
0.560165
 20
3.59157
 11
0.521149
 21
3.59444
  0
LINE
  8
0
 10
4.27945
 20
1.80925
 11
4.24324
 21
1.82402
  0
LINE
  8
0
 10
4.24324
 20
1.82402
 11
4.21336
 21
1.84927
  0
LINE
  8
0
 10
4.21336
 20
1.84927
 11
4.19276
 21
1.88251
  0
LINE
  8
0
 10
4.19276
 20
1.88251
 11
4.18343
 21
1.9205
  0
LINE
  8
0
 10
4.18343
 20
1.9205
 11
4.18629
 21
1.95949
  0
LINE
  8
0
 10
4.18629
 20
1.95949
 11
4.20108
 21
1.9957
  0
LINE
  8
0
 10
4.20108
 20
1.9957
 11
4.22633
 21
2.02556
  0
LINE
  8
0
 10
4.22633
 20
2.02556
 11
4.25957
 21
2.04619
  0
LINE
  8
0
 10
4.25957
 20
2.04619
 11
4.29755
 21
2.05551
  0
LINE
  8
0
 10
4.29755
 20
2.05551
 11
4.33655
 21
2.05264
  0
LINE
  8
0
 10
4.33655
 20
2.05264
 11
4.37276
 21
2.03787
  0
LINE
  8
0
 10
4.37276
 20
2.03787
 11
4.40263
 21
2.01263
  0
LINE
  8
0
 10
4.40263
 20
2.01263
 11
4.42322
 21
1.97939
  0
LINE
  8
0
 10
4.42322
 20
1.97939
 11
4.43254
 21
1.94141
  0
LINE
  8
0
 10
4.43254
 20
1.94141
 11
4.42969
 21
1.9024
  0
LINE
  8
0
 10
4.42969
 20
1.9024
 11
4.41492
 21
1.8662
  0
LINE
  8
0
 10
4.41492
 20
1.8662
 11
4.38966
 21
1.83633
  0
LINE
  8
0
 10
4.38966
 20
1.83633
 11
4.35643
 21
1.8157
  0
LINE
  8
0
 10
4.35643
 20
1.8157
 11
4.31845
 21
1.80638
  0
LINE
  8
0
 10
4.31845
 20
1.80638
 11
4.27945
 21
1.80925
  0
LINE
  8
0
 10
3.26979
 20
1.80397
 11
3.23618
 21
1.81964
  0
LINE
  8
0
 10
3.23618
 20
1.81964
 11
3.23204
 21
1.82304
  0
LINE
  8
0
 10
3.23204
 20
1.82304
 11
3.21014
 21
1.85297
  0
LINE
  8
0
 10
3.21014
 20
1.85297
 11
3.20309
 21
1.88403
  0
LINE
  8
0
 10
3.20309
 20
1.88403
 11
3.20796
 21
1.91551
  0
LINE
  8
0
 10
3.20796
 20
1.91551
 11
3.22772
 21
1.9469
  0
LINE
  8
0
 10
3.22772
 20
1.9469
 11
3.25401
 21
1.96489
  0
LINE
  8
0
 10
3.25401
 20
1.96489
 11
3.29042
 21
1.97197
  0
LINE
  8
0
 10
3.29042
 20
1.97197
 11
3.32637
 21
1.96286
  0
LINE
  8
0
 10
3.32637
 20
1.96286
 11
3.35503
 21
1.93933
  0
LINE
  8
0
 10
3.35503
 20
1.93933
 11
3.36958
 21
1.911
  0
LINE
  8
0
 10
3.36958
 20
1.911
 11
3.3727
 21
1.8793
  0
LINE
  8
0
 10
3.3727
 20
1.8793
 11
3.36136
 21
1.84398
  0
LINE
  8
0
 10
3.36136
 20
1.84398
 11
3.33606
 21
1.81686
  0
LINE
  8
0
 10
3.33606
 20
1.81686
 11
3.30164
 21
1.80309
  0
LINE
  8
0
 10
3.30164
 20
1.80309
 11
3.26979
 21
1.80397
  0
LINE
  8
0
 10
2.23373
 20
0.628159
 11
2.19753
 21
0.642929
  0
LINE
  8
0
 10
2.19753
 20
0.642929
 11
2.16765
 21
0.668182
  0
LINE
  8
0
 10
2.16765
 20
0.668182
 11
2.14705
 21
0.701416
  0
LINE
  8
0
 10
2.14705
 20
0.701416
 11
2.13773
 21
0.73941
  0
LINE
  8
0
 10
2.13773
 20
0.73941
 11
2.14058
 21
0.778397
  0
LINE
  8
0
 10
2.14058
 20
0.778397
 11
2.15535
 21
0.814606
  0
LINE
  8
0
 10
2.15535
 20
0.814606
 11
2.1806
 21
0.844467
  0
LINE
  8
0
 10
2.1806
 20
0.844467
 11
2.21385
 21
0.865097
  0
LINE
  8
0
 10
2.21385
 20
0.865097
 11
2.25182
 21
0.87442
  0
LINE
  8
0
 10
2.25182
 20
0.87442
 11
2.29083
 21
0.871552
  0
LINE
  8
0
 10
2.29083
 20
0.871552
 11
2.32704
 21
0.856781
  0
LINE
  8
0
 10
2.32704
 20
0.856781
 11
2.3569
 21
0.831543
  0
LINE
  8
0
 10
2.3569
 20
0.831543
 11
2.3775
 21
0.798294
  0
LINE
  8
0
 10
2.3775
 20
0.798294
 11
2.38684
 21
0.760315
  0
LINE
  8
0
 10
2.38684
 20
0.760315
 11
2.38399
 21
0.721313
  0
LINE
  8
0
 10
2.38399
 20
0.721313
 11
2.36919
 21
0.685104
  0
LINE
  8
0
 10
2.36919
 20
0.685104
 11
2.34395
 21
0.655243
  0
LINE
  8
0
 10
2.34395
 20
0.655243
 11
2.31071
 21
0.634613
  0
LINE
  8
0
 10
2.31071
 20
0.634613
 11
2.27274
 21
0.62529
  0
LINE
  8
0
 10
2.27274
 20
0.62529
 11
2.23373
 21
0.628159
  0
LINE
  8
0
 10
13.625
 20
1.22499
 11
13.6306
 21
1.4055
  0
LINE
  8
0
 10
13.6306
 20
1.4055
 11
13.6476
 21
1.58531
  0
LINE
  8
0
 10
13.6476
 20
1.58531
 11
13.6759
 21
1.7637
  0
LINE
  8
0
 10
13.6759
 20
1.7637
 11
13.7153
 21
1.93997
  0
LINE
  8
0
 10
13.7153
 20
1.93997
 11
13.7657
 21
2.1134
  0
LINE
  8
0
 10
13.7657
 20
2.1134
 11
13.8269
 21
2.28334
  0
LINE
  8
0
 10
13.8269
 20
2.28334
 11
13.8986
 21
2.4491
  0
LINE
  8
0
 10
13.8986
 20
2.4491
 11
13.9806
 21
2.61003
  0
LINE
  8
0
 10
13.9806
 20
2.61003
 11
14.0725
 21
2.76549
  0
LINE
  8
0
 10
14.0725
 20
2.76549
 11
14.1741
 21
2.91487
  0
LINE
  8
0
 10
14.1741
 20
2.91487
 11
14.2847
 21
3.05757
  0
LINE
  8
0
 10
14.2847
 20
3.05757
 11
14.4042
 21
3.19305
  0
LINE
  8
0
 10
14.4042
 20
3.19305
 11
14.5319
 21
3.32077
  0
LINE
  8
0
 10
14.5319
 20
3.32077
 11
14.6674
 21
3.44022
  0
LINE
  8
0
 10
14.6674
 20
3.44022
 11
14.8101
 21
3.5509
  0
LINE
  8
0
 10
14.8101
 20
3.5509
 11
14.9595
 21
3.65242
  0
LINE
  8
0
 10
14.9595
 20
3.65242
 11
15.1149
 21
3.74437
  0
LINE
  8
0
 10
15.1149
 20
3.74437
 11
15.2759
 21
3.82635
  0
LINE
  8
0
 10
15.2759
 20
3.82635
 11
15.4416
 21
3.89809
  0
LINE
  8
0
 10
15.4416
 20
3.89809
 11
15.6116
 21
3.95927
  0
LINE
  8
0
 10
15.6116
 20
3.95927
 11
15.785
 21
4.00966
  0
LINE
  8
0
 10
15.785
 20
4.00966
 11
15.9613
 21
4.04906
  0
LINE
  8
0
 10
15.9613
 20
4.04906
 11
16.1396
 21
4.07732
  0
LINE
  8
0
 10
16.1396
 20
4.07732
 11
16.3195
 21
4.09431
  0
LINE
  8
0
 10
16.3195
 20
4.09431
 11
16.5
 21
4.09999
  0
LINE
  8
0
 10
16.5
 20
4.09999
 11
16.5
 21
0.224991
  0
LINE
  8
0
 10
16.5
 20
0.224991
 11
23.6675
 21
0.224991
  0
LINE
  8
0
 10
23.6675
 20
0.224991
 11
23.6675
 21
6.22499
  0
LINE
  8
0
 10
23.6675
 20
6.22499
 11
18
 21
6.22499
  0
LINE
  8
0
 10
18
 20
6.22499
 11
17.6232
 21
6.21315
  0
LINE
  8
0
 10
17.6232
 20
6.21315
 11
17.248
 21
6.17767
  0
LINE
  8
0
 10
17.248
 20
6.17767
 11
16.8757
 21
6.11871
  0
LINE
  8
0
 10
16.8757
 20
6.11871
 11
10.5
 21
4.72499
  0
LINE
  8
0
 10
10.5
 20
4.72499
 11
10.5
 21
0.224991
  0
LINE
  8
0
 10
10.5
 20
0.224991
 11
13.625
 21
0.224991
  0
LINE
  8
0
 10
13.625
 20
0.224991
 11
13.625
 21
1.22499
  0
LINE
  8
0
 10
17.9545
 20
5.96571
 11
17.9312
 21
5.98752
  0
LINE
  8
0
 10
17.9312
 20
5.98752
 11
17.9177
 21
6.01634
  0
LINE
  8
0
 10
17.9177
 20
6.01634
 11
17.9157
 21
6.04814
  0
LINE
  8
0
 10
17.9157
 20
6.04814
 11
17.9282
 21
6.08302
  0
LINE
  8
0
 10
17.9282
 20
6.08302
 11
17.95
 21
6.10625
  0
LINE
  8
0
 10
17.95
 20
6.10625
 11
17.9789
 21
6.11981
  0
LINE
  8
0
 10
17.9789
 20
6.11981
 11
18.0106
 21
6.12181
  0
LINE
  8
0
 10
18.0106
 20
6.12181
 11
18.0455
 21
6.10925
  0
LINE
  8
0
 10
18.0455
 20
6.10925
 11
18.0687
 21
6.08745
  0
LINE
  8
0
 10
18.0687
 20
6.08745
 11
18.0823
 21
6.05862
  0
LINE
  8
0
 10
18.0823
 20
6.05862
 11
18.0843
 21
6.02682
  0
LINE
  8
0
 10
18.0843
 20
6.02682
 11
18.0717
 21
5.99194
  0
LINE
  8
0
 10
18.0717
 20
5.99194
 11
18.0499
 21
5.96872
  0
LINE
  8
0
 10
18.0499
 20
5.96872
 11
18.0211
 21
5.95515
  0
LINE
  8
0
 10
18.0211
 20
5.95515
 11
17.9893
 21
5.95316
  0
LINE
  8
0
 10
17.9893
 20
5.95316
 11
17.9545
 21
5.96571
  0
LINE
  8
0
 10
19.9966
 20
5.95845
 11
19.9659
 21
5.97929
  0
LINE
  8
0
 10
19.9659
 20
5.97929
 11
19.9471
 21
6.01122
  0
LINE
  8
0
 10
19.9471
 20
6.01122
 11
19.9456
 21
6.01634
  0
LINE
  8
0
 10
19.9456
 20
6.01634
 11
19.9436
 21
6.04814
  0
LINE
  8
0
 10
19.9436
 20
6.04814
 11
19.9561
 21
6.08302
  0
LINE
  8
0
 10
19.9561
 20
6.08302
 11
19.9823
 21
6.10925
  0
LINE
  8
0
 10
19.9823
 20
6.10925
 11
20.0172
 21
6.12181
  0
LINE
  8
0
 10
20.0172
 20
6.12181
 11
20.049
 21
6.11981
  0
LINE
  8
0
 10
20.049
 20
6.11981
 11
20.0821
 21
6.10298
  0
LINE
  8
0
 10
20.0821
 20
6.10298
 11
20.1024
 21
6.07843
  0
LINE
  8
0
 10
20.1024
 20
6.07843
 11
20.1122
 21
6.04814
  0
LINE
  8
0
 10
20.1122
 20
6.04814
 11
20.1102
 21
6.01634
  0
LINE
  8
0
 10
20.1102
 20
6.01634
 11
20.0967
 21
5.98752
  0
LINE
  8
0
 10
20.0967
 20
5.98752
 11
20.0688
 21
5.963
  0
LINE
  8
0
 10
20.0688
 20
5.963
 11
20.0332
 21
5.95265
  0
LINE
  8
0
 10
20.0332
 20
5.95265
 11
19.9966
 21
5.95845
  0
LINE
  8
0
 10
22.0103
 20
5.96571
 11
21.987
 21
5.98752
  0
LINE
  8
0
 10
21.987
 20
5.98752
 11
21.9735
 21
6.01634
  0
LINE
  8
0
 10
21.9735
 20
6.01634
 11
21.9715
 21
6.04814
  0
LINE
  8
0
 10
21.9715
 20
6.04814
 11
21.984
 21
6.08302
  0
LINE
  8
0
 10
21.984
 20
6.08302
 11
22.0058
 21
6.10625
  0
LINE
  8
0
 10
22.0058
 20
6.10625
 11
22.0347
 21
6.11981
  0
LINE
  8
0
 10
22.0347
 20
6.11981
 11
22.0665
 21
6.12181
  0
LINE
  8
0
 10
22.0665
 20
6.12181
 11
22.1013
 21
6.10925
  0
LINE
  8
0
 10
22.1013
 20
6.10925
 11
22.1246
 21
6.08745
  0
LINE
  8
0
 10
22.1246
 20
6.08745
 11
22.1381
 21
6.05862
  0
LINE
  8
0
 10
22.1381
 20
6.05862
 11
22.1401
 21
6.02682
  0
LINE
  8
0
 10
22.1401
 20
6.02682
 11
22.1276
 21
5.99194
  0
LINE
  8
0
 10
22.1276
 20
5.99194
 11
22.1058
 21
5.96872
  0
LINE
  8
0
 10
22.1058
 20
5.96872
 11
22.077
 21
5.95515
  0
LINE
  8
0
 10
22.077
 20
5.95515
 11
22.0452
 21
5.95316
  0
LINE
  8
0
 10
22.0452
 20
5.95316
 11
22.0103
 21
5.96571
  0
LINE
  8
0
 10
15.9937
 20
5.60393
 11
15.9601
 21
5.6196
  0
LINE
  8
0
 10
15.9601
 20
5.6196
 11
15.9364
 21
5.64809
  0
LINE
  8
0
 10
15.9364
 20
5.64809
 11
15.9291
 21
5.66812
  0
LINE
  8
0
 10
15.9291
 20
5.66812
 11
15.928
 21
5.69995
  0
LINE
  8
0
 10
15.928
 20
5.69995
 11
15.9415
 21
5.73448
  0
LINE
  8
0
 10
15.9415
 20
5.73448
 11
15.9685
 21
5.75996
  0
LINE
  8
0
 10
15.9685
 20
5.75996
 11
15.9984
 21
5.77086
  0
LINE
  8
0
 10
15.9984
 20
5.77086
 11
16.0303
 21
5.76996
  0
LINE
  8
0
 10
16.0303
 20
5.76996
 11
16.0595
 21
5.75742
  0
LINE
  8
0
 10
16.0595
 20
5.75742
 11
16.0821
 21
5.73497
  0
LINE
  8
0
 10
16.0821
 20
5.73497
 11
16.0949
 21
5.70578
  0
LINE
  8
0
 10
16.0949
 20
5.70578
 11
16.095
 21
5.6687
  0
LINE
  8
0
 10
16.095
 20
5.6687
 11
16.0825
 21
5.63942
  0
LINE
  8
0
 10
16.0825
 20
5.63942
 11
16.06
 21
5.61681
  0
LINE
  8
0
 10
16.06
 20
5.61681
 11
16.0256
 21
5.60304
  0
LINE
  8
0
 10
16.0256
 20
5.60304
 11
15.9937
 21
5.60393
  0
LINE
  8
0
 10
14.2188
 20
4.60553
 11
14.1923
 21
4.63158
  0
LINE
  8
0
 10
14.1923
 20
4.63158
 11
14.1816
 21
4.6559
  0
LINE
  8
0
 10
14.1816
 20
4.6559
 11
14.1794
 21
4.68768
  0
LINE
  8
0
 10
14.1794
 20
4.68768
 11
14.189
 21
4.71805
  0
LINE
  8
0
 10
14.189
 20
4.71805
 11
14.2092
 21
4.74274
  0
LINE
  8
0
 10
14.2092
 20
4.74274
 11
14.237
 21
4.75827
  0
LINE
  8
0
 10
14.237
 20
4.75827
 11
14.2738
 21
4.76202
  0
LINE
  8
0
 10
14.2738
 20
4.76202
 11
14.3088
 21
4.74969
  0
LINE
  8
0
 10
14.3088
 20
4.74969
 11
14.3352
 21
4.72366
  0
LINE
  8
0
 10
14.3352
 20
4.72366
 11
14.3472
 21
4.69412
  0
LINE
  8
0
 10
14.3472
 20
4.69412
 11
14.3474
 21
4.66228
  0
LINE
  8
0
 10
14.3474
 20
4.66228
 11
14.3359
 21
4.63257
  0
LINE
  8
0
 10
14.3359
 20
4.63257
 11
14.3098
 21
4.60617
  0
LINE
  8
0
 10
14.3098
 20
4.60617
 11
14.2803
 21
4.59424
  0
LINE
  8
0
 10
14.2803
 20
4.59424
 11
14.2484
 21
4.59401
  0
LINE
  8
0
 10
14.2484
 20
4.59401
 11
14.2188
 21
4.60553
  0
LINE
  8
0
 10
13.1279
 20
4.07448
 11
13.0955
 21
4.09647
  0
LINE
  8
0
 10
13.0955
 20
4.09647
 11
13.0715
 21
4.12737
  0
LINE
  8
0
 10
13.0715
 20
4.12737
 11
13.0583
 21
4.16415
  0
LINE
  8
0
 10
13.0583
 20
4.16415
 11
13.0571
 21
4.20325
  0
LINE
  8
0
 10
13.0571
 20
4.20325
 11
13.068
 21
4.2408
  0
LINE
  8
0
 10
13.068
 20
4.2408
 11
13.09
 21
4.27315
  0
LINE
  8
0
 10
13.09
 20
4.27315
 11
13.1209
 21
4.29712
  0
LINE
  8
0
 10
13.1209
 20
4.29712
 11
13.1577
 21
4.31036
  0
LINE
  8
0
 10
13.1577
 20
4.31036
 11
13.1967
 21
4.3116
  0
LINE
  8
0
 10
13.1967
 20
4.3116
 11
13.2343
 21
4.30069
  0
LINE
  8
0
 10
13.2343
 20
4.30069
 11
13.2666
 21
4.2787
  0
LINE
  8
0
 10
13.2666
 20
4.2787
 11
13.2906
 21
4.2478
  0
LINE
  8
0
 10
13.2906
 20
4.2478
 11
13.3039
 21
4.211
  0
LINE
  8
0
 10
13.3039
 20
4.211
 11
13.3051
 21
4.17192
  0
LINE
  8
0
 10
13.3051
 20
4.17192
 11
13.2942
 21
4.13435
  0
LINE
  8
0
 10
13.2942
 20
4.13435
 11
13.2722
 21
4.10202
  0
LINE
  8
0
 10
13.2722
 20
4.10202
 11
13.2413
 21
4.07805
  0
LINE
  8
0
 10
13.2413
 20
4.07805
 11
13.2045
 21
4.0648
  0
LINE
  8
0
 10
13.2045
 20
4.0648
 11
13.1654
 21
4.06357
  0
LINE
  8
0
 10
13.1654
 20
4.06357
 11
13.1279
 21
4.07448
  0
LINE
  8
0
 10
10.7657
 20
4.07448
 11
10.7333
 21
4.09647
  0
LINE
  8
0
 10
10.7333
 20
4.09647
 11
10.7094
 21
4.12737
  0
LINE
  8
0
 10
10.7094
 20
4.12737
 11
10.6961
 21
4.16415
  0
LINE
  8
0
 10
10.6961
 20
4.16415
 11
10.6949
 21
4.20325
  0
LINE
  8
0
 10
10.6949
 20
4.20325
 11
10.7058
 21
4.2408
  0
LINE
  8
0
 10
10.7058
 20
4.2408
 11
10.7278
 21
4.27315
  0
LINE
  8
0
 10
10.7278
 20
4.27315
 11
10.7587
 21
4.29712
  0
LINE
  8
0
 10
10.7587
 20
4.29712
 11
10.7955
 21
4.31036
  0
LINE
  8
0
 10
10.7955
 20
4.31036
 11
10.8346
 21
4.3116
  0
LINE
  8
0
 10
10.8346
 20
4.3116
 11
10.8721
 21
4.30069
  0
LINE
  8
0
 10
10.8721
 20
4.30069
 11
10.9045
 21
4.2787
  0
LINE
  8
0
 10
10.9045
 20
4.2787
 11
10.9285
 21
4.2478
  0
LINE
  8
0
 10
10.9285
 20
4.2478
 11
10.9417
 21
4.211
  0
LINE
  8
0
 10
10.9417
 20
4.211
 11
10.9429
 21
4.17192
  0
LINE
  8
0
 10
10.9429
 20
4.17192
 11
10.932
 21
4.13435
  0
LINE
  8
0
 10
10.932
 20
4.13435
 11
10.91
 21
4.10202
  0
LINE
  8
0
 10
10.91
 20
4.10202
 11
10.8791
 21
4.07805
  0
LINE
  8
0
 10
10.8791
 20
4.07805
 11
10.8423
 21
4.0648
  0
LINE
  8
0
 10
10.8423
 20
4.0648
 11
10.8032
 21
4.06357
  0
LINE
  8
0
 10
10.8032
 20
4.06357
 11
10.7657
 21
4.07448
  0
LINE
  8
0
 10
12.9237
 20
3.05762
 11
12.8964
 21
3.08272
  0
LINE
  8
0
 10
12.8964
 20
3.08272
 11
12.8848
 21
3.10666
  0
LINE
  8
0
 10
12.8848
 20
3.10666
 11
12.8821
 21
3.14365
  0
LINE
  8
0
 10
12.8821
 20
3.14365
 11
12.8954
 21
3.17827
  0
LINE
  8
0
 10
12.8954
 20
3.17827
 11
12.9177
 21
3.20103
  0
LINE
  8
0
 10
12.9177
 20
3.20103
 11
12.9468
 21
3.21399
  0
LINE
  8
0
 10
12.9468
 20
3.21399
 11
12.9839
 21
3.21437
  0
LINE
  8
0
 10
12.9839
 20
3.21437
 11
13.0176
 21
3.19894
  0
LINE
  8
0
 10
13.0176
 20
3.19894
 11
13.0415
 21
3.17061
  0
LINE
  8
0
 10
13.0415
 20
3.17061
 11
13.0511
 21
3.1348
  0
LINE
  8
0
 10
13.0511
 20
3.1348
 11
13.0465
 21
3.10329
  0
LINE
  8
0
 10
13.0465
 20
3.10329
 11
13.0269
 21
3.07176
  0
LINE
  8
0
 10
13.0269
 20
3.07176
 11
12.9958
 21
3.05156
  0
LINE
  8
0
 10
12.9958
 20
3.05156
 11
12.9591
 21
3.04652
  0
LINE
  8
0
 10
12.9591
 20
3.04652
 11
12.9237
 21
3.05762
  0
LINE
  8
0
 10
12.2456
 20
1.15485
 11
12.2185
 21
1.17154
  0
LINE
  8
0
 10
12.2185
 20
1.17154
 11
12.1972
 21
1.20192
  0
LINE
  8
0
 10
12.1972
 20
1.20192
 11
12.1953
 21
1.20692
  0
LINE
  8
0
 10
12.1953
 20
1.20692
 11
12.1913
 21
1.24379
  0
LINE
  8
0
 10
12.1913
 20
1.24379
 11
12.2007
 21
1.27422
  0
LINE
  8
0
 10
12.2007
 20
1.27422
 11
12.2207
 21
1.29904
  0
LINE
  8
0
 10
12.2207
 20
1.29904
 11
12.2535
 21
1.31635
  0
LINE
  8
0
 10
12.2535
 20
1.31635
 11
12.2853
 21
1.31879
  0
LINE
  8
0
 10
12.2853
 20
1.31879
 11
12.3203
 21
1.30672
  0
LINE
  8
0
 10
12.3203
 20
1.30672
 11
12.3469
 21
1.28085
  0
LINE
  8
0
 10
12.3469
 20
1.28085
 11
12.36
 21
1.24614
  0
LINE
  8
0
 10
12.36
 20
1.24614
 11
12.3584
 21
1.21432
  0
LINE
  8
0
 10
12.3584
 20
1.21432
 11
12.3453
 21
1.18532
  0
LINE
  8
0
 10
12.3453
 20
1.18532
 11
12.3178
 21
1.1604
  0
LINE
  8
0
 10
12.3178
 20
1.1604
 11
12.2823
 21
1.14957
  0
LINE
  8
0
 10
12.2823
 20
1.14957
 11
12.2456
 21
1.15485
  0
LINE
  8
0
 10
10.7657
 20
0.649292
 11
10.7333
 21
0.67128
  0
LINE
  8
0
 10
10.7333
 20
0.67128
 11
10.7094
 21
0.702179
  0
LINE
  8
0
 10
10.7094
 20
0.702179
 11
10.6961
 21
0.738983
  0
LINE
  8
0
 10
10.6961
 20
0.738983
 11
10.6949
 21
0.778061
  0
LINE
  8
0
 10
10.6949
 20
0.778061
 11
10.7058
 21
0.815628
  0
LINE
  8
0
 10
10.7058
 20
0.815628
 11
10.7278
 21
0.847961
  0
LINE
  8
0
 10
10.7278
 20
0.847961
 11
10.7587
 21
0.871933
  0
LINE
  8
0
 10
10.7587
 20
0.871933
 11
10.7955
 21
0.885178
  0
LINE
  8
0
 10
10.7955
 20
0.885178
 11
10.8346
 21
0.886414
  0
LINE
  8
0
 10
10.8346
 20
0.886414
 11
10.8721
 21
0.875504
  0
LINE
  8
0
 10
10.8721
 20
0.875504
 11
10.9045
 21
0.853516
  0
LINE
  8
0
 10
10.9045
 20
0.853516
 11
10.9284
 21
0.822617
  0
LINE
  8
0
 10
10.9284
 20
0.822617
 11
10.9417
 21
0.785828
  0
LINE
  8
0
 10
10.9417
 20
0.785828
 11
10.9429
 21
0.746735
  0
LINE
  8
0
 10
10.9429
 20
0.746735
 11
10.932
 21
0.709183
  0
LINE
  8
0
 10
10.932
 20
0.709183
 11
10.91
 21
0.676834
  0
LINE
  8
0
 10
10.91
 20
0.676834
 11
10.8791
 21
0.652863
  0
LINE
  8
0
 10
10.8791
 20
0.652863
 11
10.8423
 21
0.639618
  0
LINE
  8
0
 10
10.8423
 20
0.639618
 11
10.8032
 21
0.638382
  0
LINE
  8
0
 10
10.8032
 20
0.638382
 11
10.7657
 21
0.649292
  0
LINE
  8
0
 10
13.1279
 20
0.649292
 11
13.0955
 21
0.67128
  0
LINE
  8
0
 10
13.0955
 20
0.67128
 11
13.0715
 21
0.702179
  0
LINE
  8
0
 10
13.0715
 20
0.702179
 11
13.0583
 21
0.738983
  0
LINE
  8
0
 10
13.0583
 20
0.738983
 11
13.0571
 21
0.778061
  0
LINE
  8
0
 10
13.0571
 20
0.778061
 11
13.068
 21
0.815628
  0
LINE
  8
0
 10
13.068
 20
0.815628
 11
13.09
 21
0.847961
  0
LINE
  8
0
 10
13.09
 20
0.847961
 11
13.1209
 21
0.871933
  0
LINE
  8
0
 10
13.1209
 20
0.871933
 11
13.1577
 21
0.885178
  0
LINE
  8
0
 10
13.1577
 20
0.885178
 11
13.1967
 21
0.886414
  0
LINE
  8
0
 10
13.1967
 20
0.886414
 11
13.2343
 21
0.875504
  0
LINE
  8
0
 10
13.2343
 20
0.875504
 11
13.2666
 21
0.853516
  0
LINE
  8
0
 10
13.2666
 20
0.853516
 11
13.2906
 21
0.822617
  0
LINE
  8
0
 10
13.2906
 20
0.822617
 11
13.3039
 21
0.785828
  0
LINE
  8
0
 10
13.3039
 20
0.785828
 11
13.3051
 21
0.746735
  0
LINE
  8
0
 10
13.3051
 20
0.746735
 11
13.2942
 21
0.709183
  0
LINE
  8
0
 10
13.2942
 20
0.709183
 11
13.2722
 21
0.676834
  0
LINE
  8
0
 10
13.2722
 20
0.676834
 11
13.2413
 21
0.652863
  0
LINE
  8
0
 10
13.2413
 20
0.652863
 11
13.2045
 21
0.639618
  0
LINE
  8
0
 10
13.2045
 20
0.639618
 11
13.1654
 21
0.638382
  0
LINE
  8
0
 10
13.1654
 20
0.638382
 11
13.1279
 21
0.649292
  0
LINE
  8
0
 10
5.81276
 20
1.87762
 11
5.85956
 21
1.88304
  0
LINE
  8
0
 10
5.85956
 20
1.88304
 11
5.90593
 21
1.89139
  0
LINE
  8
0
 10
5.90593
 20
1.89139
 11
5.95169
 21
1.90263
  0
LINE
  8
0
 10
5.95169
 20
1.90263
 11
5.99664
 21
1.91672
  0
LINE
  8
0
 10
5.99664
 20
1.91672
 11
6.04063
 21
1.93361
  0
LINE
  8
0
 10
6.04063
 20
1.93361
 11
6.08347
 21
1.95322
  0
LINE
  8
0
 10
6.08347
 20
1.95322
 11
6.12498
 21
1.97548
  0
LINE
  8
0
 10
6.12498
 20
1.97548
 11
6.16504
 21
2.00031
  0
LINE
  8
0
 10
6.16504
 20
2.00031
 11
6.20343
 21
2.0276
  0
LINE
  8
0
 10
6.20343
 20
2.0276
 11
6.24005
 21
2.05725
  0
LINE
  8
0
 10
6.24005
 20
2.05725
 11
6.27472
 21
2.08914
  0
LINE
  8
0
 10
6.27472
 20
2.08914
 11
6.30734
 21
2.12314
  0
LINE
  8
0
 10
6.30734
 20
2.12314
 11
6.33775
 21
2.15913
  0
LINE
  8
0
 10
6.33775
 20
2.15913
 11
6.36584
 21
2.19695
  0
LINE
  8
0
 10
6.36584
 20
2.19695
 11
6.39151
 21
2.23648
  0
LINE
  8
0
 10
6.39151
 20
2.23648
 11
6.41463
 21
2.27751
  0
LINE
  8
0
 10
6.41463
 20
2.27751
 11
6.88666
 21
3.28125
  0
LINE
  8
0
 10
6.88666
 20
3.28125
 11
5.66792
 21
5.39218
  0
LINE
  8
0
 10
5.66792
 20
5.39218
 11
4.8019
 21
4.89218
  0
LINE
  8
0
 10
4.8019
 20
4.89218
 11
5.00264
 21
2.56223
  0
LINE
  8
0
 10
5.00264
 20
2.56223
 11
5.00806
 21
2.51543
  0
LINE
  8
0
 10
5.00806
 20
2.51543
 11
5.0164
 21
2.46906
  0
LINE
  8
0
 10
5.0164
 20
2.46906
 11
5.02765
 21
2.42329
  0
LINE
  8
0
 10
5.02765
 20
2.42329
 11
5.04173
 21
2.37834
  0
LINE
  8
0
 10
5.04173
 20
2.37834
 11
5.05862
 21
2.33435
  0
LINE
  8
0
 10
5.05862
 20
2.33435
 11
5.07823
 21
2.29152
  0
LINE
  8
0
 10
5.07823
 20
2.29152
 11
5.10049
 21
2.25
  0
LINE
  8
0
 10
5.10049
 20
2.25
 11
5.12532
 21
2.20995
  0
LINE
  8
0
 10
5.12532
 20
2.20995
 11
5.15262
 21
2.17155
  0
LINE
  8
0
 10
5.15262
 20
2.17155
 11
5.18227
 21
2.13493
  0
LINE
  8
0
 10
5.18227
 20
2.13493
 11
5.21416
 21
2.10027
  0
LINE
  8
0
 10
5.21416
 20
2.10027
 11
5.24815
 21
2.06764
  0
LINE
  8
0
 10
5.24815
 20
2.06764
 11
5.28415
 21
2.03723
  0
LINE
  8
0
 10
5.28415
 20
2.03723
 11
5.32196
 21
2.00914
  0
LINE
  8
0
 10
5.32196
 20
2.00914
 11
5.36148
 21
1.98347
  0
LINE
  8
0
 10
5.36148
 20
1.98347
 11
5.40251
 21
1.96036
  0
LINE
  8
0
 10
5.40251
 20
1.96036
 11
5.44495
 21
1.93985
  0
LINE
  8
0
 10
5.44495
 20
1.93985
 11
5.48856
 21
1.92204
  0
LINE
  8
0
 10
5.48856
 20
1.92204
 11
5.53322
 21
1.90701
  0
LINE
  8
0
 10
5.53322
 20
1.90701
 11
5.57874
 21
1.89482
  0
LINE
  8
0
 10
5.57874
 20
1.89482
 11
5.62492
 21
1.8855
  0
LINE
  8
0
 10
5.62492
 20
1.8855
 11
5.6716
 21
1.87912
  0
LINE
  8
0
 10
5.6716
 20
1.87912
 11
5.7186
 21
1.87566
  0
LINE
  8
0
 10
5.7186
 20
1.87566
 11
5.7657
 21
1.87517
  0
LINE
  8
0
 10
5.7657
 20
1.87517
 11
5.81276
 21
1.87762
  0
LINE
  8
0
 10
5.33752
 20
4.83026
 11
5.30397
 21
4.84518
  0
LINE
  8
0
 10
5.30397
 20
4.84518
 11
5.27827
 21
4.87143
  0
LINE
  8
0
 10
5.27827
 20
4.87143
 11
5.26404
 21
4.90529
  0
LINE
  8
0
 10
5.26404
 20
4.90529
 11
5.26328
 21
4.942
  0
LINE
  8
0
 10
5.26328
 20
4.942
 11
5.27606
 21
4.97643
  0
LINE
  8
0
 10
5.27606
 20
4.97643
 11
5.30066
 21
5.00372
  0
LINE
  8
0
 10
5.30066
 20
5.00372
 11
5.33356
 21
5.02005
  0
LINE
  8
0
 10
5.33356
 20
5.02005
 11
5.35785
 21
5.02365
  0
LINE
  8
0
 10
5.35785
 20
5.02365
 11
5.39406
 21
5.01752
  0
LINE
  8
0
 10
5.39406
 20
5.01752
 11
5.42548
 21
4.99849
  0
LINE
  8
0
 10
5.42548
 20
4.99849
 11
5.44768
 21
4.96924
  0
LINE
  8
0
 10
5.44768
 20
4.96924
 11
5.45757
 21
4.93387
  0
LINE
  8
0
 10
5.45757
 20
4.93387
 11
5.45372
 21
4.89734
  0
LINE
  8
0
 10
5.45372
 20
4.89734
 11
5.43671
 21
4.86479
  0
LINE
  8
0
 10
5.43671
 20
4.86479
 11
5.40891
 21
4.84079
  0
LINE
  8
0
 10
5.40891
 20
4.84079
 11
5.37421
 21
4.8287
  0
LINE
  8
0
 10
5.37421
 20
4.8287
 11
5.33752
 21
4.83026
  0
LINE
  8
0
 10
5.58752
 20
4.39725
 11
5.55397
 21
4.41217
  0
LINE
  8
0
 10
5.55397
 20
4.41217
 11
5.52827
 21
4.43842
  0
LINE
  8
0
 10
5.52827
 20
4.43842
 11
5.51404
 21
4.47227
  0
LINE
  8
0
 10
5.51404
 20
4.47227
 11
5.51328
 21
4.50899
  0
LINE
  8
0
 10
5.51328
 20
4.50899
 11
5.52606
 21
4.54341
  0
LINE
  8
0
 10
5.52606
 20
4.54341
 11
5.55066
 21
4.57071
  0
LINE
  8
0
 10
5.55066
 20
4.57071
 11
5.58356
 21
4.58704
  0
LINE
  8
0
 10
5.58356
 20
4.58704
 11
5.60785
 21
4.59064
  0
LINE
  8
0
 10
5.60785
 20
4.59064
 11
5.64406
 21
4.5845
  0
LINE
  8
0
 10
5.64406
 20
4.5845
 11
5.67548
 21
4.56548
  0
LINE
  8
0
 10
5.67548
 20
4.56548
 11
5.69768
 21
4.53622
  0
LINE
  8
0
 10
5.69768
 20
4.53622
 11
5.70757
 21
4.50085
  0
LINE
  8
0
 10
5.70757
 20
4.50085
 11
5.70372
 21
4.46432
  0
LINE
  8
0
 10
5.70372
 20
4.46432
 11
5.68671
 21
4.43178
  0
LINE
  8
0
 10
5.68671
 20
4.43178
 11
5.65891
 21
4.40779
  0
LINE
  8
0
 10
5.65891
 20
4.40779
 11
5.62421
 21
4.39571
  0
LINE
  8
0
 10
5.62421
 20
4.39571
 11
5.58752
 21
4.39725
  0
LINE
  8
0
 10
6.15331
 20
2.79556
 11
6.12334
 21
2.81244
  0
LINE
  8
0
 10
6.12334
 20
2.81244
 11
6.10344
 21
2.84045
  0
LINE
  8
0
 10
6.10344
 20
2.84045
 11
6.09734
 21
2.87428
  0
LINE
  8
0
 10
6.09734
 20
2.87428
 11
6.10623
 21
2.90749
  0
LINE
  8
0
 10
6.10623
 20
2.90749
 11
6.12843
 21
2.93375
  0
LINE
  8
0
 10
6.12843
 20
2.93375
 11
6.15968
 21
2.94806
  0
LINE
  8
0
 10
6.15968
 20
2.94806
 11
6.16948
 21
2.94951
  0
LINE
  8
0
 10
6.16948
 20
2.94951
 11
6.20354
 21
2.94484
  0
LINE
  8
0
 10
6.20354
 20
2.94484
 11
6.23238
 21
2.92612
  0
LINE
  8
0
 10
6.23238
 20
2.92612
 11
6.25049
 21
2.89691
  0
LINE
  8
0
 10
6.25049
 20
2.89691
 11
6.25444
 21
2.86276
  0
LINE
  8
0
 10
6.25444
 20
2.86276
 11
6.24347
 21
2.83017
  0
LINE
  8
0
 10
6.24347
 20
2.83017
 11
6.21967
 21
2.80536
  0
LINE
  8
0
 10
6.21967
 20
2.80536
 11
6.18758
 21
2.79305
  0
LINE
  8
0
 10
6.18758
 20
2.79305
 11
6.15331
 21
2.79556
  0
LINE
  8
0
 10
5.69293
 20
2.38161
 11
5.64833
 21
2.39662
  0
LINE
  8
0
 10
5.64833
 20
2.39662
 11
5.60733
 21
2.41972
  0
LINE
  8
0
 10
5.60733
 20
2.41972
 11
5.5714
 21
2.45009
  0
LINE
  8
0
 10
5.5714
 20
2.45009
 11
5.54178
 21
2.48666
  0
LINE
  8
0
 10
5.54178
 20
2.48666
 11
5.51956
 21
2.52811
  0
LINE
  8
0
 10
5.51956
 20
2.52811
 11
5.50548
 21
2.573
  0
LINE
  8
0
 10
5.50548
 20
2.573
 11
5.50006
 21
2.61977
  0
LINE
  8
0
 10
5.50006
 20
2.61977
 11
5.50351
 21
2.66667
  0
LINE
  8
0
 10
5.50351
 20
2.66667
 11
5.5157
 21
2.71214
  0
LINE
  8
0
 10
5.5157
 20
2.71214
 11
5.53616
 21
2.7545
  0
LINE
  8
0
 10
5.53616
 20
2.7545
 11
5.56424
 21
2.79228
  0
LINE
  8
0
 10
5.56424
 20
2.79228
 11
5.59888
 21
2.82411
  0
LINE
  8
0
 10
5.59888
 20
2.82411
 11
5.63884
 21
2.84891
  0
LINE
  8
0
 10
5.63884
 20
2.84891
 11
5.65312
 21
2.85544
  0
LINE
  8
0
 10
5.65312
 20
2.85544
 11
5.69801
 21
2.86952
  0
LINE
  8
0
 10
5.69801
 20
2.86952
 11
5.74478
 21
2.87494
  0
LINE
  8
0
 10
5.74478
 20
2.87494
 11
5.79169
 21
2.87149
  0
LINE
  8
0
 10
5.79169
 20
2.87149
 11
5.83716
 21
2.8593
  0
LINE
  8
0
 10
5.83716
 20
2.8593
 11
5.87952
 21
2.83884
  0
LINE
  8
0
 10
5.87952
 20
2.83884
 11
5.9173
 21
2.81076
  0
LINE
  8
0
 10
5.9173
 20
2.81076
 11
5.94913
 21
2.77612
  0
LINE
  8
0
 10
5.94913
 20
2.77612
 11
5.97392
 21
2.73616
  0
LINE
  8
0
 10
5.97392
 20
2.73616
 11
5.99078
 21
2.69223
  0
LINE
  8
0
 10
5.99078
 20
2.69223
 11
5.99911
 21
2.64592
  0
LINE
  8
0
 10
5.99911
 20
2.64592
 11
5.99863
 21
2.59886
  0
LINE
  8
0
 10
5.99863
 20
2.59886
 11
5.98932
 21
2.55273
  0
LINE
  8
0
 10
5.98932
 20
2.55273
 11
5.97154
 21
2.50917
  0
LINE
  8
0
 10
5.97154
 20
2.50917
 11
5.94592
 21
2.46971
  0
LINE
  8
0
 10
5.94592
 20
2.46971
 11
5.91336
 21
2.43576
  0
LINE
  8
0
 10
5.91336
 20
2.43576
 11
5.875
 21
2.40849
  0
LINE
  8
0
 10
5.875
 20
2.40849
 11
5.83221
 21
2.38892
  0
LINE
  8
0
 10
5.83221
 20
2.38892
 11
5.78653
 21
2.37769
  0
LINE
  8
0
 10
5.78653
 20
2.37769
 11
5.73955
 21
2.37523
  0
LINE
  8
0
 10
5.73955
 20
2.37523
 11
5.69293
 21
2.38161
  0
LINE
  8
0
 10
5.30115
 20
2.30356
 11
5.27119
 21
2.32045
  0
LINE
  8
0
 10
5.27119
 20
2.32045
 11
5.25128
 21
2.34845
  0
LINE
  8
0
 10
5.25128
 20
2.34845
 11
5.24519
 21
2.38229
  0
LINE
  8
0
 10
5.24519
 20
2.38229
 11
5.2541
 21
2.4155
  0
LINE
  8
0
 10
5.2541
 20
2.4155
 11
5.27629
 21
2.44176
  0
LINE
  8
0
 10
5.27629
 20
2.44176
 11
5.30756
 21
2.45607
  0
LINE
  8
0
 10
5.30756
 20
2.45607
 11
5.31735
 21
2.45752
  0
LINE
  8
0
 10
5.31735
 20
2.45752
 11
5.35141
 21
2.45285
  0
LINE
  8
0
 10
5.35141
 20
2.45285
 11
5.38023
 21
2.43413
  0
LINE
  8
0
 10
5.38023
 20
2.43413
 11
5.39835
 21
2.40492
  0
LINE
  8
0
 10
5.39835
 20
2.40492
 11
5.4023
 21
2.37077
  0
LINE
  8
0
 10
5.4023
 20
2.37077
 11
5.39133
 21
2.33818
  0
LINE
  8
0
 10
5.39133
 20
2.33818
 11
5.36754
 21
2.31337
  0
LINE
  8
0
 10
5.36754
 20
2.31337
 11
5.33543
 21
2.30106
  0
LINE
  8
0
 10
5.33543
 20
2.30106
 11
5.30115
 21
2.30356
  0
LINE
  8
0
 10
9.29707
 20
0.37648
 11
9.34398
 21
0.38092
  0
LINE
  8
0
 10
9.34398
 20
0.38092
 11
9.39052
 21
0.38829
  0
LINE
  8
0
 10
9.39052
 20
0.38829
 11
9.43649
 21
0.398575
  0
LINE
  8
0
 10
9.43649
 20
0.398575
 11
9.48174
 21
0.411713
  0
LINE
  8
0
 10
9.48174
 20
0.411713
 11
9.52608
 21
0.427673
  0
LINE
  8
0
 10
9.52608
 20
0.427673
 11
9.56931
 21
0.446381
  0
LINE
  8
0
 10
9.56931
 20
0.446381
 11
9.6113
 21
0.467773
  0
LINE
  8
0
 10
9.6113
 20
0.467773
 11
9.65184
 21
0.49176
  0
LINE
  8
0
 10
9.65184
 20
0.49176
 11
9.69081
 21
0.51825
  0
LINE
  8
0
 10
9.69081
 20
0.51825
 11
9.72804
 21
0.547119
  0
LINE
  8
0
 10
9.72804
 20
0.547119
 11
9.76338
 21
0.578278
  0
LINE
  8
0
 10
9.76338
 20
0.578278
 11
9.79671
 21
0.611603
  0
LINE
  8
0
 10
9.79671
 20
0.611603
 11
9.82787
 21
0.646942
  0
LINE
  8
0
 10
9.82787
 20
0.646942
 11
9.85674
 21
0.684174
  0
LINE
  8
0
 10
9.85674
 20
0.684174
 11
9.88322
 21
0.723145
  0
LINE
  8
0
 10
9.88322
 20
0.723145
 11
9.90721
 21
0.763687
  0
LINE
  8
0
 10
9.90721
 20
0.763687
 11
9.9286
 21
0.805679
  0
LINE
  8
0
 10
9.9286
 20
0.805679
 11
9.94731
 21
0.848907
  0
LINE
  8
0
 10
9.94731
 20
0.848907
 11
9.96327
 21
0.89325
  0
LINE
  8
0
 10
9.96327
 20
0.89325
 11
9.97641
 21
0.938492
  0
LINE
  8
0
 10
9.97641
 20
0.938492
 11
9.98669
 21
0.984467
  0
LINE
  8
0
 10
9.98669
 20
0.984467
 11
9.99406
 21
1.03101
  0
LINE
  8
0
 10
9.99406
 20
1.03101
 11
9.9985
 21
1.07791
  0
LINE
  8
0
 10
9.9985
 20
1.07791
 11
9.99998
 21
1.125
  0
LINE
  8
0
 10
9.99998
 20
1.125
 11
9.9985
 21
1.17209
  0
LINE
  8
0
 10
9.9985
 20
1.17209
 11
9.99406
 21
1.21899
  0
LINE
  8
0
 10
9.99406
 20
1.21899
 11
9.98669
 21
1.26553
  0
LINE
  8
0
 10
9.98669
 20
1.26553
 11
9.97641
 21
1.31151
  0
LINE
  8
0
 10
9.97641
 20
1.31151
 11
9.96327
 21
1.35675
  0
LINE
  8
0
 10
9.96327
 20
1.35675
 11
9.94731
 21
1.40109
  0
LINE
  8
0
 10
9.94731
 20
1.40109
 11
9.9286
 21
1.44432
  0
LINE
  8
0
 10
9.9286
 20
1.44432
 11
9.90721
 21
1.48631
  0
LINE
  8
0
 10
9.90721
 20
1.48631
 11
9.88322
 21
1.52686
  0
LINE
  8
0
 10
9.88322
 20
1.52686
 11
9.85674
 21
1.56583
  0
LINE
  8
0
 10
9.85674
 20
1.56583
 11
9.82787
 21
1.60306
  0
LINE
  8
0
 10
9.82787
 20
1.60306
 11
9.79671
 21
1.6384
  0
LINE
  8
0
 10
9.79671
 20
1.6384
 11
9.76338
 21
1.67172
  0
LINE
  8
0
 10
9.76338
 20
1.67172
 11
9.72804
 21
1.70288
  0
LINE
  8
0
 10
9.72804
 20
1.70288
 11
9.69081
 21
1.73175
  0
LINE
  8
0
 10
9.69081
 20
1.73175
 11
9.65184
 21
1.75824
  0
LINE
  8
0
 10
9.65184
 20
1.75824
 11
9.6113
 21
1.78223
  0
LINE
  8
0
 10
9.6113
 20
1.78223
 11
9.56931
 21
1.80362
  0
LINE
  8
0
 10
9.56931
 20
1.80362
 11
9.52608
 21
1.82233
  0
LINE
  8
0
 10
9.52608
 20
1.82233
 11
9.48174
 21
1.83829
  0
LINE
  8
0
 10
9.48174
 20
1.83829
 11
9.43649
 21
1.85143
  0
LINE
  8
0
 10
9.43649
 20
1.85143
 11
9.39052
 21
1.86171
  0
LINE
  8
0
 10
9.39052
 20
1.86171
 11
9.34398
 21
1.86908
  0
LINE
  8
0
 10
9.34398
 20
1.86908
 11
9.29707
 21
1.87352
  0
LINE
  8
0
 10
9.29707
 20
1.87352
 11
9.24998
 21
1.875
  0
LINE
  8
0
 10
9.24998
 20
1.875
 11
9.2029
 21
1.87352
  0
LINE
  8
0
 10
9.2029
 20
1.87352
 11
9.15599
 21
1.86908
  0
LINE
  8
0
 10
9.15599
 20
1.86908
 11
7.37498
 21
1.625
  0
LINE
  8
0
 10
7.37498
 20
1.625
 11
7.37498
 21
0.625
  0
LINE
  8
0
 10
7.37498
 20
0.625
 11
9.15599
 21
0.38092
  0
LINE
  8
0
 10
9.15599
 20
0.38092
 11
9.2029
 21
0.37648
  0
LINE
  8
0
 10
9.2029
 20
0.37648
 11
9.24998
 21
0.375
  0
LINE
  8
0
 10
9.24998
 20
0.375
 11
9.29707
 21
0.37648
  0
LINE
  8
0
 10
9.20776
 20
1.55046
 11
9.18346
 21
1.57477
  0
LINE
  8
0
 10
9.18346
 20
1.57477
 11
9.17181
 21
1.60712
  0
LINE
  8
0
 10
9.17181
 20
1.60712
 11
9.17505
 21
1.64134
  0
LINE
  8
0
 10
9.17505
 20
1.64134
 11
9.1787
 21
1.65054
  0
LINE
  8
0
 10
9.1787
 20
1.65054
 11
9.19977
 21
1.6777
  0
LINE
  8
0
 10
9.19977
 20
1.6777
 11
9.23039
 21
1.69331
  0
LINE
  8
0
 10
9.23039
 20
1.69331
 11
9.26474
 21
1.6944
  0
LINE
  8
0
 10
9.26474
 20
1.6944
 11
9.2963
 21
1.68074
  0
LINE
  8
0
 10
9.2963
 20
1.68074
 11
9.31903
 21
1.65495
  0
LINE
  8
0
 10
9.31903
 20
1.65495
 11
9.32863
 21
1.62193
  0
LINE
  8
0
 10
9.32863
 20
1.62193
 11
9.32324
 21
1.58798
  0
LINE
  8
0
 10
9.32324
 20
1.58798
 11
9.30392
 21
1.55956
  0
LINE
  8
0
 10
9.30392
 20
1.55956
 11
9.27432
 21
1.54205
  0
LINE
  8
0
 10
9.27432
 20
1.54205
 11
9.24011
 21
1.53882
  0
LINE
  8
0
 10
9.24011
 20
1.53882
 11
9.20776
 21
1.55046
  0
LINE
  8
0
 10
9.21866
 20
0.876984
 11
9.17274
 21
0.887238
  0
LINE
  8
0
 10
9.17274
 20
0.887238
 11
9.12955
 21
0.90593
  0
LINE
  8
0
 10
9.12955
 20
0.90593
 11
9.09064
 21
0.932373
  0
LINE
  8
0
 10
9.09064
 20
0.932373
 11
9.05736
 21
0.965652
  0
LINE
  8
0
 10
9.05736
 20
0.965652
 11
9.03091
 21
1.00456
  0
LINE
  8
0
 10
9.03091
 20
1.00456
 11
9.01222
 21
1.04776
  0
LINE
  8
0
 10
9.01222
 20
1.04776
 11
9.00197
 21
1.09367
  0
LINE
  8
0
 10
9.00197
 20
1.09367
 11
9.00049
 21
1.14069
  0
LINE
  8
0
 10
9.00049
 20
1.14069
 11
9.00197
 21
1.15633
  0
LINE
  8
0
 10
9.00197
 20
1.15633
 11
9.01222
 21
1.20224
  0
LINE
  8
0
 10
9.01222
 20
1.20224
 11
9.03091
 21
1.24544
  0
LINE
  8
0
 10
9.03091
 20
1.24544
 11
9.05736
 21
1.28435
  0
LINE
  8
0
 10
9.05736
 20
1.28435
 11
9.09064
 21
1.31763
  0
LINE
  8
0
 10
9.09064
 20
1.31763
 11
9.12955
 21
1.34407
  0
LINE
  8
0
 10
9.12955
 20
1.34407
 11
9.17274
 21
1.36276
  0
LINE
  8
0
 10
9.17274
 20
1.36276
 11
9.21866
 21
1.37302
  0
LINE
  8
0
 10
9.21866
 20
1.37302
 11
9.26567
 21
1.3745
  0
LINE
  8
0
 10
9.26567
 20
1.3745
 11
9.31215
 21
1.36714
  0
LINE
  8
0
 10
9.31215
 20
1.36714
 11
9.35641
 21
1.3512
  0
LINE
  8
0
 10
9.35641
 20
1.3512
 11
9.39693
 21
1.32724
  0
LINE
  8
0
 10
9.39693
 20
1.32724
 11
9.43222
 21
1.29613
  0
LINE
  8
0
 10
9.43222
 20
1.29613
 11
9.46106
 21
1.25894
  0
LINE
  8
0
 10
9.46106
 20
1.25894
 11
9.48242
 21
1.21703
  0
LINE
  8
0
 10
9.48242
 20
1.21703
 11
9.49554
 21
1.17184
  0
LINE
  8
0
 10
9.49554
 20
1.17184
 11
9.49998
 21
1.125
  0
LINE
  8
0
 10
9.49998
 20
1.125
 11
9.49554
 21
1.07816
  0
LINE
  8
0
 10
9.49554
 20
1.07816
 11
9.48242
 21
1.03297
  0
LINE
  8
0
 10
9.48242
 20
1.03297
 11
9.46106
 21
0.991058
  0
LINE
  8
0
 10
9.46106
 20
0.991058
 11
9.43222
 21
0.953873
  0
LINE
  8
0
 10
9.43222
 20
0.953873
 11
9.39693
 21
0.92276
  0
LINE
  8
0
 10
9.39693
 20
0.92276
 11
9.35641
 21
0.898804
  0
LINE
  8
0
 10
9.35641
 20
0.898804
 11
9.31215
 21
0.882858
  0
LINE
  8
0
 10
9.31215
 20
0.882858
 11
9.26567
 21
0.875504
  0
LINE
  8
0
 10
9.26567
 20
0.875504
 11
9.21866
 21
0.876984
  0
LINE
  8
0
 10
8.09471
 20
1.0318
 11
8.06253
 21
1.0495
  0
LINE
  8
0
 10
8.06253
 20
1.0495
 11
8.03911
 21
1.07779
  0
LINE
  8
0
 10
8.03911
 20
1.07779
 11
8.02777
 21
1.11273
  0
LINE
  8
0
 10
8.02777
 20
1.11273
 11
8.03008
 21
1.14937
  0
LINE
  8
0
 10
8.03008
 20
1.14937
 11
8.03911
 21
1.17221
  0
LINE
  8
0
 10
8.03911
 20
1.17221
 11
8.06253
 21
1.2005
  0
LINE
  8
0
 10
8.06253
 20
1.2005
 11
8.09471
 21
1.2182
  0
LINE
  8
0
 10
8.09471
 20
1.2182
 11
8.13115
 21
1.22279
  0
LINE
  8
0
 10
8.13115
 20
1.22279
 11
8.16672
 21
1.21367
  0
LINE
  8
0
 10
8.16672
 20
1.21367
 11
8.19643
 21
1.19208
  0
LINE
  8
0
 10
8.19643
 20
1.19208
 11
8.21611
 21
1.16107
  0
LINE
  8
0
 10
8.21611
 20
1.16107
 11
8.22299
 21
1.125
  0
LINE
  8
0
 10
8.22299
 20
1.125
 11
8.21611
 21
1.08893
  0
LINE
  8
0
 10
8.21611
 20
1.08893
 11
8.19643
 21
1.05792
  0
LINE
  8
0
 10
8.19643
 20
1.05792
 11
8.16672
 21
1.03633
  0
LINE
  8
0
 10
8.16672
 20
1.03633
 11
8.13115
 21
1.02721
  0
LINE
  8
0
 10
8.13115
 20
1.02721
 11
8.09471
 21
1.0318
  0
LINE
  8
0
 10
7.59471
 20
1.0318
 11
7.56253
 21
1.0495
  0
LINE
  8
0
 10
7.56253
 20
1.0495
 11
7.53911
 21
1.07779
  0
LINE
  8
0
 10
7.53911
 20
1.07779
 11
7.52777
 21
1.11273
  0
LINE
  8
0
 10
7.52777
 20
1.11273
 11
7.53008
 21
1.14937
  0
LINE
  8
0
 10
7.53008
 20
1.14937
 11
7.53911
 21
1.17221
  0
LINE
  8
0
 10
7.53911
 20
1.17221
 11
7.56253
 21
1.2005
  0
LINE
  8
0
 10
7.56253
 20
1.2005
 11
7.59471
 21
1.2182
  0
LINE
  8
0
 10
7.59471
 20
1.2182
 11
7.63115
 21
1.22279
  0
LINE
  8
0
 10
7.63115
 20
1.22279
 11
7.66672
 21
1.21367
  0
LINE
  8
0
 10
7.66672
 20
1.21367
 11
7.69643
 21
1.19208
  0
LINE
  8
0
 10
7.69643
 20
1.19208
 11
7.71611
 21
1.16107
  0
LINE
  8
0
 10
7.71611
 20
1.16107
 11
7.72299
 21
1.125
  0
LINE
  8
0
 10
7.72299
 20
1.125
 11
7.71611
 21
1.08893
  0
LINE
  8
0
 10
7.71611
 20
1.08893
 11
7.69643
 21
1.05792
  0
LINE
  8
0
 10
7.69643
 20
1.05792
 11
7.66672
 21
1.03633
  0
LINE
  8
0
 10
7.66672
 20
1.03633
 11
7.63115
 21
1.02721
  0
LINE
  8
0
 10
7.63115
 20
1.02721
 11
7.59471
 21
1.0318
  0
LINE
  8
0
 10
9.20776
 20
0.566467
 11
9.18346
 21
0.59079
  0
LINE
  8
0
 10
9.18346
 20
0.59079
 11
9.17181
 21
0.623138
  0
LINE
  8
0
 10
9.17181
 20
0.623138
 11
9.17505
 21
0.657364
  0
LINE
  8
0
 10
9.17505
 20
0.657364
 11
9.1787
 21
0.666565
  0
LINE
  8
0
 10
9.1787
 20
0.666565
 11
9.19977
 21
0.693726
  0
LINE
  8
0
 10
9.19977
 20
0.693726
 11
9.23039
 21
0.709335
  0
LINE
  8
0
 10
9.23039
 20
0.709335
 11
9.26474
 21
0.710419
  0
LINE
  8
0
 10
9.26474
 20
0.710419
 11
9.2963
 21
0.696762
  0
LINE
  8
0
 10
9.2963
 20
0.696762
 11
9.31903
 21
0.670975
  0
LINE
  8
0
 10
9.31903
 20
0.670975
 11
9.32863
 21
0.637955
  0
LINE
  8
0
 10
9.32863
 20
0.637955
 11
9.32324
 21
0.604004
  0
LINE
  8
0
 10
9.32324
 20
0.604004
 11
9.30392
 21
0.575562
  0
LINE
  8
0
 10
9.30392
 20
0.575562
 11
9.27432
 21
0.55806
  0
LINE
  8
0
 10
9.27432
 20
0.55806
 11
9.24011
 21
0.554825
  0
LINE
  8
0
 10
9.24011
 20
0.554825
 11
9.20776
 21
0.566467
  0
ENDSEC
  0
SECTION
  2
OBJECTS
  0
DICTIONARY
  0
ENDSEC
  0
EOF
