  0
SECTION
  2
BLOCKS
  0
ENDSEC
  0
SECTION
  2
ENTITIES
  0
LINE
  8
0
 10
0
 20
6.6875
 11
1.5
 21
6.6875
  0
LINE
  8
0
 10
1.5
 20
6.6875
 11
1.67505
 21
6.6852
  0
LINE
  8
0
 10
1.67505
 20
6.6852
 11
1.84999
 21
6.67833
  0
LINE
  8
0
 10
1.84999
 20
6.67833
 11
2.02469
 21
6.66687
  0
LINE
  8
0
 10
2.02469
 20
6.66687
 11
2.19902
 21
6.65086
  0
LINE
  8
0
 10
2.19902
 20
6.65086
 11
2.37288
 21
6.63028
  0
LINE
  8
0
 10
2.37288
 20
6.63028
 11
2.54614
 21
6.60516
  0
LINE
  8
0
 10
2.54614
 20
6.60516
 11
2.71869
 21
6.57552
  0
LINE
  8
0
 10
2.71869
 20
6.57552
 11
2.8904
 21
6.54135
  0
LINE
  8
0
 10
2.8904
 20
6.54135
 11
3.06116
 21
6.50272
  0
LINE
  8
0
 10
3.06116
 20
6.50272
 11
3.23085
 21
6.45963
  0
LINE
  8
0
 10
3.23085
 20
6.45963
 11
3.39934
 21
6.41209
  0
LINE
  8
0
 10
3.39934
 20
6.41209
 11
3.56654
 21
6.36018
  0
LINE
  8
0
 10
3.56654
 20
6.36018
 11
3.73233
 21
6.30391
  0
LINE
  8
0
 10
3.73233
 20
6.30391
 11
3.89658
 21
6.24332
  0
LINE
  8
0
 10
3.89658
 20
6.24332
 11
4.05919
 21
6.17844
  0
LINE
  8
0
 10
4.05919
 20
6.17844
 11
4.22005
 21
6.10933
  0
LINE
  8
0
 10
4.22005
 20
6.10933
 11
4.37903
 21
6.03603
  0
LINE
  8
0
 10
4.37903
 20
6.03603
 11
4.53606
 21
5.9586
  0
LINE
  8
0
 10
4.53606
 20
5.9586
 11
4.69099
 21
5.87708
  0
LINE
  8
0
 10
4.69099
 20
5.87708
 11
4.84375
 21
5.79153
  0
LINE
  8
0
 10
4.84375
 20
5.79153
 11
4.9942
 21
5.70203
  0
LINE
  8
0
 10
4.9942
 20
5.70203
 11
5.14227
 21
5.6086
  0
LINE
  8
0
 10
5.14227
 20
5.6086
 11
5.28783
 21
5.51134
  0
LINE
  8
0
 10
5.28783
 20
5.51134
 11
5.4308
 21
5.41029
  0
LINE
  8
0
 10
5.4308
 20
5.41029
 11
5.57109
 21
5.30554
  0
LINE
  8
0
 10
5.57109
 20
5.30554
 11
5.70857
 21
5.19716
  0
LINE
  8
0
 10
5.70857
 20
5.19716
 11
5.84317
 21
5.08521
  0
LINE
  8
0
 10
5.84317
 20
5.08521
 11
5.97481
 21
4.96977
  0
LINE
  8
0
 10
5.97481
 20
4.96977
 11
6.10336
 21
4.85094
  0
LINE
  8
0
 10
6.10336
 20
4.85094
 11
6.22878
 21
4.72878
  0
LINE
  8
0
 10
6.22878
 20
4.72878
 11
6.35094
 21
4.60336
  0
LINE
  8
0
 10
6.35094
 20
4.60336
 11
6.46977
 21
4.47481
  0
LINE
  8
0
 10
6.46977
 20
4.47481
 11
6.58521
 21
4.34317
  0
LINE
  8
0
 10
6.58521
 20
4.34317
 11
6.69716
 21
4.20857
  0
LINE
  8
0
 10
6.69716
 20
4.20857
 11
6.80554
 21
4.07109
  0
LINE
  8
0
 10
6.80554
 20
4.07109
 11
6.91029
 21
3.9308
  0
LINE
  8
0
 10
6.91029
 20
3.9308
 11
7.01134
 21
3.78783
  0
LINE
  8
0
 10
7.01134
 20
3.78783
 11
7.1086
 21
3.64227
  0
LINE
  8
0
 10
7.1086
 20
3.64227
 11
7.20203
 21
3.4942
  0
LINE
  8
0
 10
7.20203
 20
3.4942
 11
7.29153
 21
3.34373
  0
LINE
  8
0
 10
7.29153
 20
3.34373
 11
7.37708
 21
3.19099
  0
LINE
  8
0
 10
7.37708
 20
3.19099
 11
7.4586
 21
3.03606
  0
LINE
  8
0
 10
7.4586
 20
3.03606
 11
7.53603
 21
2.87903
  0
LINE
  8
0
 10
7.53603
 20
2.87903
 11
7.60933
 21
2.72005
  0
LINE
  8
0
 10
7.60933
 20
2.72005
 11
7.67844
 21
2.55919
  0
LINE
  8
0
 10
7.67844
 20
2.55919
 11
7.74332
 21
2.39658
  0
LINE
  8
0
 10
7.74332
 20
2.39658
 11
7.80391
 21
2.23233
  0
LINE
  8
0
 10
7.80391
 20
2.23233
 11
7.86018
 21
2.06654
  0
LINE
  8
0
 10
7.86018
 20
2.06654
 11
7.91209
 21
1.89934
  0
LINE
  8
0
 10
7.91209
 20
1.89934
 11
7.95963
 21
1.73085
  0
LINE
  8
0
 10
7.95963
 20
1.73085
 11
8.00272
 21
1.56116
  0
LINE
  8
0
 10
8.00272
 20
1.56116
 11
8.04135
 21
1.3904
  0
LINE
  8
0
 10
8.04135
 20
1.3904
 11
8.07552
 21
1.21869
  0
LINE
  8
0
 10
8.07552
 20
1.21869
 11
8.10516
 21
1.04614
  0
LINE
  8
0
 10
8.10516
 20
1.04614
 11
8.13028
 21
0.872879
  0
LINE
  8
0
 10
8.13028
 20
0.872879
 11
8.15086
 21
0.69902
  0
LINE
  8
0
 10
8.15086
 20
0.69902
 11
8.16687
 21
0.524689
  0
LINE
  8
0
 10
8.16687
 20
0.524689
 11
8.17833
 21
0.349991
  0
LINE
  8
0
 10
8.17833
 20
0.349991
 11
8.1852
 21
0.175049
  0
LINE
  8
0
 10
8.1852
 20
0.175049
 11
8.1875
 21
0
  0
LINE
  8
0
 10
8.1875
 20
0
 11
8.3125
 21
0
  0
LINE
  8
0
 10
8.3125
 20
0
 11
8.31017
 21
0.178329
  0
LINE
  8
0
 10
8.31017
 20
0.178329
 11
8.30316
 21
0.356537
  0
LINE
  8
0
 10
8.30316
 20
0.356537
 11
8.29149
 21
0.5345
  0
LINE
  8
0
 10
8.29149
 20
0.5345
 11
8.27518
 21
0.712097
  0
LINE
  8
0
 10
8.27518
 20
0.712097
 11
8.25421
 21
0.889206
  0
LINE
  8
0
 10
8.25421
 20
0.889206
 11
8.22862
 21
1.0657
  0
LINE
  8
0
 10
8.22862
 20
1.0657
 11
8.19841
 21
1.24147
  0
LINE
  8
0
 10
8.19841
 20
1.24147
 11
8.16362
 21
1.4164
  0
LINE
  8
0
 10
8.16362
 20
1.4164
 11
8.12427
 21
1.59033
  0
LINE
  8
0
 10
8.12427
 20
1.59033
 11
8.08037
 21
1.7632
  0
LINE
  8
0
 10
8.08037
 20
1.7632
 11
8.03195
 21
1.93484
  0
LINE
  8
0
 10
8.03195
 20
1.93484
 11
7.97906
 21
2.10516
  0
LINE
  8
0
 10
7.97906
 20
2.10516
 11
7.92174
 21
2.27405
  0
LINE
  8
0
 10
7.92174
 20
2.27405
 11
7.86002
 21
2.44138
  0
LINE
  8
0
 10
7.86002
 20
2.44138
 11
7.79391
 21
2.60703
  0
LINE
  8
0
 10
7.79391
 20
2.60703
 11
7.72353
 21
2.77089
  0
LINE
  8
0
 10
7.72353
 20
2.77089
 11
7.64885
 21
2.93285
  0
LINE
  8
0
 10
7.64885
 20
2.93285
 11
7.56998
 21
3.0928
  0
LINE
  8
0
 10
7.56998
 20
3.0928
 11
7.48694
 21
3.25064
  0
LINE
  8
0
 10
7.48694
 20
3.25064
 11
7.3998
 21
3.40623
  0
LINE
  8
0
 10
7.3998
 20
3.40623
 11
7.30861
 21
3.55951
  0
LINE
  8
0
 10
7.30861
 20
3.55951
 11
7.21344
 21
3.71034
  0
LINE
  8
0
 10
7.21344
 20
3.71034
 11
7.11435
 21
3.85863
  0
LINE
  8
0
 10
7.11435
 20
3.85863
 11
7.01141
 21
4.00427
  0
LINE
  8
0
 10
7.01141
 20
4.00427
 11
6.90471
 21
4.14719
  0
LINE
  8
0
 10
6.90471
 20
4.14719
 11
6.7943
 21
4.28723
  0
LINE
  8
0
 10
6.7943
 20
4.28723
 11
6.68025
 21
4.42436
  0
LINE
  8
0
 10
6.68025
 20
4.42436
 11
6.56267
 21
4.55844
  0
LINE
  8
0
 10
6.56267
 20
4.55844
 11
6.4416
 21
4.68941
  0
LINE
  8
0
 10
6.4416
 20
4.68941
 11
6.31715
 21
4.81715
  0
LINE
  8
0
 10
6.31715
 20
4.81715
 11
6.18941
 21
4.9416
  0
LINE
  8
0
 10
6.18941
 20
4.9416
 11
6.05844
 21
5.06267
  0
LINE
  8
0
 10
6.05844
 20
5.06267
 11
5.92436
 21
5.18025
  0
LINE
  8
0
 10
5.92436
 20
5.18025
 11
5.78723
 21
5.2943
  0
LINE
  8
0
 10
5.78723
 20
5.2943
 11
5.64719
 21
5.40471
  0
LINE
  8
0
 10
5.64719
 20
5.40471
 11
5.50427
 21
5.51141
  0
LINE
  8
0
 10
5.50427
 20
5.51141
 11
5.35863
 21
5.61435
  0
LINE
  8
0
 10
5.35863
 20
5.61435
 11
5.21034
 21
5.71344
  0
LINE
  8
0
 10
5.21034
 20
5.71344
 11
5.05951
 21
5.80861
  0
LINE
  8
0
 10
5.05951
 20
5.80861
 11
4.90625
 21
5.8998
  0
LINE
  8
0
 10
4.90625
 20
5.8998
 11
4.75064
 21
5.98694
  0
LINE
  8
0
 10
4.75064
 20
5.98694
 11
4.5928
 21
6.06998
  0
LINE
  8
0
 10
4.5928
 20
6.06998
 11
4.43285
 21
6.14885
  0
LINE
  8
0
 10
4.43285
 20
6.14885
 11
4.27089
 21
6.22353
  0
LINE
  8
0
 10
4.27089
 20
6.22353
 11
4.10703
 21
6.29391
  0
LINE
  8
0
 10
4.10703
 20
6.29391
 11
3.94138
 21
6.36002
  0
LINE
  8
0
 10
3.94138
 20
6.36002
 11
3.77405
 21
6.42174
  0
LINE
  8
0
 10
3.77405
 20
6.42174
 11
3.60516
 21
6.47906
  0
LINE
  8
0
 10
3.60516
 20
6.47906
 11
3.43484
 21
6.53195
  0
LINE
  8
0
 10
3.43484
 20
6.53195
 11
3.2632
 21
6.58037
  0
LINE
  8
0
 10
3.2632
 20
6.58037
 11
3.09033
 21
6.62427
  0
LINE
  8
0
 10
3.09033
 20
6.62427
 11
2.9164
 21
6.66362
  0
LINE
  8
0
 10
2.9164
 20
6.66362
 11
2.74147
 21
6.69841
  0
LINE
  8
0
 10
2.74147
 20
6.69841
 11
2.5657
 21
6.72862
  0
LINE
  8
0
 10
2.5657
 20
6.72862
 11
2.38921
 21
6.75421
  0
LINE
  8
0
 10
2.38921
 20
6.75421
 11
2.2121
 21
6.77518
  0
LINE
  8
0
 10
2.2121
 20
6.77518
 11
2.0345
 21
6.79149
  0
LINE
  8
0
 10
2.0345
 20
6.79149
 11
1.85654
 21
6.80316
  0
LINE
  8
0
 10
1.85654
 20
6.80316
 11
1.67833
 21
6.81017
  0
LINE
  8
0
 10
1.67833
 20
6.81017
 11
1.5
 21
6.8125
  0
LINE
  8
0
 10
1.5
 20
6.8125
 11
0
 21
6.8125
  0
LINE
  8
0
 10
0
 20
6.8125
 11
0
 21
6.6875
  0
ENDSEC
  0
SECTION
  2
OBJECTS
  0
DICTIONARY
  0
ENDSEC
  0
EOF
