  0
SECTION
  2
BLOCKS
  0
ENDSEC
  0
SECTION
  2
ENTITIES
  0
LINE
  8
0
 10
23.45
 20
4.0125
 11
23.4408
 21
4.36249
  0
LINE
  8
0
 10
23.4408
 20
4.36249
 11
23.4134
 21
4.71152
  0
LINE
  8
0
 10
23.4134
 20
4.71152
 11
23.3677
 21
5.05864
  0
LINE
  8
0
 10
23.3677
 20
5.05864
 11
23.3038
 21
5.40289
  0
LINE
  8
0
 10
23.3038
 20
5.40289
 11
23.2221
 21
5.74335
  0
LINE
  8
0
 10
23.2221
 20
5.74335
 11
23.1227
 21
6.07904
  0
LINE
  8
0
 10
23.1227
 20
6.07904
 11
23.0058
 21
6.40907
  0
LINE
  8
0
 10
23.0058
 20
6.40907
 11
22.8718
 21
6.73254
  0
LINE
  8
0
 10
22.8718
 20
6.73254
 11
22.7211
 21
7.04855
  0
LINE
  8
0
 10
22.7211
 20
7.04855
 11
22.554
 21
7.35625
  0
LINE
  8
0
 10
22.554
 20
7.35625
 11
22.3711
 21
7.65477
  0
LINE
  8
0
 10
22.3711
 20
7.65477
 11
22.1728
 21
7.9433
  0
LINE
  8
0
 10
22.1728
 20
7.9433
 11
21.9597
 21
8.22107
  0
LINE
  8
0
 10
21.9597
 20
8.22107
 11
21.7323
 21
8.4873
  0
LINE
  8
0
 10
21.7323
 20
8.4873
 11
21.4913
 21
8.74127
  0
LINE
  8
0
 10
21.4913
 20
8.74127
 11
21.2373
 21
8.98227
  0
LINE
  8
0
 10
21.2373
 20
8.98227
 11
20.9711
 21
9.20966
  0
LINE
  8
0
 10
20.9711
 20
9.20966
 11
20.6933
 21
9.42279
  0
LINE
  8
0
 10
20.6933
 20
9.42279
 11
20.4048
 21
9.62109
  0
LINE
  8
0
 10
20.4048
 20
9.62109
 11
20.1062
 21
9.80403
  0
LINE
  8
0
 10
20.1062
 20
9.80403
 11
19.7986
 21
9.9711
  0
LINE
  8
0
 10
19.7986
 20
9.9711
 11
19.4825
 21
10.1218
  0
LINE
  8
0
 10
19.4825
 20
10.1218
 11
19.1591
 21
10.2558
  0
LINE
  8
0
 10
19.1591
 20
10.2558
 11
18.829
 21
10.3727
  0
LINE
  8
0
 10
18.829
 20
10.3727
 11
18.4933
 21
10.4721
  0
LINE
  8
0
 10
18.4933
 20
10.4721
 11
18.1529
 21
10.5538
  0
LINE
  8
0
 10
18.1529
 20
10.5538
 11
17.8086
 21
10.6177
  0
LINE
  8
0
 10
17.8086
 20
10.6177
 11
17.4615
 21
10.6634
  0
LINE
  8
0
 10
17.4615
 20
10.6634
 11
17.1125
 21
10.6908
  0
LINE
  8
0
 10
17.1125
 20
10.6908
 11
16.7625
 21
10.7
  0
LINE
  8
0
 10
16.7625
 20
10.7
 11
8.8875
 21
10.7
  0
LINE
  8
0
 10
8.8875
 20
10.7
 11
8.8875
 21
5.7
  0
LINE
  8
0
 10
8.8875
 20
5.7
 11
15.2625
 21
5.7
  0
LINE
  8
0
 10
15.2625
 20
5.7
 11
15.2625
 21
2.12804
  0
LINE
  8
0
 10
15.2625
 20
2.12804
 11
23.45
 21
4.0125
  0
LINE
  8
0
 10
16.704
 20
3.45557
 11
16.6461
 21
3.46474
  0
LINE
  8
0
 10
16.6461
 20
3.46474
 11
16.5895
 21
3.47992
  0
LINE
  8
0
 10
16.5895
 20
3.47992
 11
16.5347
 21
3.50092
  0
LINE
  8
0
 10
16.5347
 20
3.50092
 11
16.4825
 21
3.52753
  0
LINE
  8
0
 10
16.4825
 20
3.52753
 11
16.4333
 21
3.55945
  0
LINE
  8
0
 10
16.4333
 20
3.55945
 11
16.3878
 21
3.59634
  0
LINE
  8
0
 10
16.3878
 20
3.59634
 11
16.3463
 21
3.63779
  0
LINE
  8
0
 10
16.3463
 20
3.63779
 11
16.3094
 21
3.68335
  0
LINE
  8
0
 10
16.3094
 20
3.68335
 11
16.2775
 21
3.7325
  0
LINE
  8
0
 10
16.2775
 20
3.7325
 11
16.2509
 21
3.78473
  0
LINE
  8
0
 10
16.2509
 20
3.78473
 11
16.2299
 21
3.83946
  0
LINE
  8
0
 10
16.2299
 20
3.83946
 11
16.2147
 21
3.89607
  0
LINE
  8
0
 10
16.2147
 20
3.89607
 11
16.2056
 21
3.95396
  0
LINE
  8
0
 10
16.2056
 20
3.95396
 11
16.2025
 21
4.0125
  0
LINE
  8
0
 10
16.2025
 20
4.0125
 11
16.2056
 21
4.07103
  0
LINE
  8
0
 10
16.2056
 20
4.07103
 11
16.2147
 21
4.12892
  0
LINE
  8
0
 10
16.2147
 20
4.12892
 11
16.2299
 21
4.18553
  0
LINE
  8
0
 10
16.2299
 20
4.18553
 11
16.2509
 21
4.24026
  0
LINE
  8
0
 10
16.2509
 20
4.24026
 11
16.2775
 21
4.2925
  0
LINE
  8
0
 10
16.2775
 20
4.2925
 11
16.3094
 21
4.34164
  0
LINE
  8
0
 10
16.3094
 20
4.34164
 11
16.3463
 21
4.38721
  0
LINE
  8
0
 10
16.3463
 20
4.38721
 11
16.3878
 21
4.42865
  0
LINE
  8
0
 10
16.3878
 20
4.42865
 11
16.4333
 21
4.46555
  0
LINE
  8
0
 10
16.4333
 20
4.46555
 11
16.4825
 21
4.49747
  0
LINE
  8
0
 10
16.4825
 20
4.49747
 11
16.5347
 21
4.52408
  0
LINE
  8
0
 10
16.5347
 20
4.52408
 11
16.5895
 21
4.54507
  0
LINE
  8
0
 10
16.5895
 20
4.54507
 11
16.6461
 21
4.56026
  0
LINE
  8
0
 10
16.6461
 20
4.56026
 11
16.704
 21
4.56943
  0
LINE
  8
0
 10
16.704
 20
4.56943
 11
16.7625
 21
4.57249
  0
LINE
  8
0
 10
16.7625
 20
4.57249
 11
16.821
 21
4.56943
  0
LINE
  8
0
 10
16.821
 20
4.56943
 11
16.8789
 21
4.56026
  0
LINE
  8
0
 10
16.8789
 20
4.56026
 11
16.9355
 21
4.54507
  0
LINE
  8
0
 10
16.9355
 20
4.54507
 11
16.9903
 21
4.52408
  0
LINE
  8
0
 10
16.9903
 20
4.52408
 11
17.0425
 21
4.49747
  0
LINE
  8
0
 10
17.0425
 20
4.49747
 11
17.0916
 21
4.46555
  0
LINE
  8
0
 10
17.0916
 20
4.46555
 11
17.1372
 21
4.42865
  0
LINE
  8
0
 10
17.1372
 20
4.42865
 11
17.1786
 21
4.38721
  0
LINE
  8
0
 10
17.1786
 20
4.38721
 11
17.2155
 21
4.34164
  0
LINE
  8
0
 10
17.2155
 20
4.34164
 11
17.2475
 21
4.2925
  0
LINE
  8
0
 10
17.2475
 20
4.2925
 11
17.2741
 21
4.24026
  0
LINE
  8
0
 10
17.2741
 20
4.24026
 11
17.2951
 21
4.18553
  0
LINE
  8
0
 10
17.2951
 20
4.18553
 11
17.3103
 21
4.12892
  0
LINE
  8
0
 10
17.3103
 20
4.12892
 11
17.3194
 21
4.07103
  0
LINE
  8
0
 10
17.3194
 20
4.07103
 11
17.3225
 21
4.0125
  0
LINE
  8
0
 10
17.3225
 20
4.0125
 11
17.3194
 21
3.95396
  0
LINE
  8
0
 10
17.3194
 20
3.95396
 11
17.3103
 21
3.89607
  0
LINE
  8
0
 10
17.3103
 20
3.89607
 11
17.2951
 21
3.83946
  0
LINE
  8
0
 10
17.2951
 20
3.83946
 11
17.2741
 21
3.78473
  0
LINE
  8
0
 10
17.2741
 20
3.78473
 11
17.2475
 21
3.7325
  0
LINE
  8
0
 10
17.2475
 20
3.7325
 11
17.2155
 21
3.68335
  0
LINE
  8
0
 10
17.2155
 20
3.68335
 11
17.1786
 21
3.63779
  0
LINE
  8
0
 10
17.1786
 20
3.63779
 11
17.1372
 21
3.59634
  0
LINE
  8
0
 10
17.1372
 20
3.59634
 11
17.0916
 21
3.55945
  0
LINE
  8
0
 10
17.0916
 20
3.55945
 11
17.0425
 21
3.52753
  0
LINE
  8
0
 10
17.0425
 20
3.52753
 11
16.9903
 21
3.50092
  0
LINE
  8
0
 10
16.9903
 20
3.50092
 11
16.9355
 21
3.47992
  0
LINE
  8
0
 10
16.9355
 20
3.47992
 11
16.8789
 21
3.46474
  0
LINE
  8
0
 10
16.8789
 20
3.46474
 11
16.821
 21
3.45557
  0
LINE
  8
0
 10
16.821
 20
3.45557
 11
16.7625
 21
3.4525
  0
LINE
  8
0
 10
16.7625
 20
3.4525
 11
16.704
 21
3.45557
  0
LINE
  8
0
 10
14.875
 20
5.3125
 11
8.49998
 21
5.3125
  0
LINE
  8
0
 10
8.49998
 20
5.3125
 11
8.5
 21
8.88445
  0
LINE
  8
0
 10
8.5
 20
8.88445
 11
0.312515
 21
7
  0
LINE
  8
0
 10
0.312515
 20
7
 11
0.321686
 21
6.65001
  0
LINE
  8
0
 10
0.321686
 20
6.65001
 11
0.349152
 21
6.30098
  0
LINE
  8
0
 10
0.349152
 20
6.30098
 11
0.394852
 21
5.95386
  0
LINE
  8
0
 10
0.394852
 20
5.95386
 11
0.458664
 21
5.6096
  0
LINE
  8
0
 10
0.458664
 20
5.6096
 11
0.54039
 21
5.26915
  0
LINE
  8
0
 10
0.54039
 20
5.26915
 11
0.639832
 21
4.93346
  0
LINE
  8
0
 10
0.639832
 20
4.93346
 11
0.756699
 21
4.60342
  0
LINE
  8
0
 10
0.756699
 20
4.60342
 11
0.890686
 21
4.27995
  0
LINE
  8
0
 10
0.890686
 20
4.27995
 11
1.0414
 21
3.96394
  0
LINE
  8
0
 10
1.0414
 20
3.96394
 11
1.20847
 21
3.65625
  0
LINE
  8
0
 10
1.20847
 20
3.65625
 11
1.3914
 21
3.35773
  0
LINE
  8
0
 10
1.3914
 20
3.35773
 11
1.58971
 21
3.0692
  0
LINE
  8
0
 10
1.58971
 20
3.0692
 11
1.80284
 21
2.79143
  0
LINE
  8
0
 10
1.80284
 20
2.79143
 11
2.03023
 21
2.52518
  0
LINE
  8
0
 10
2.03023
 20
2.52518
 11
2.27122
 21
2.27121
  0
LINE
  8
0
 10
2.27122
 20
2.27121
 11
2.52519
 21
2.03021
  0
LINE
  8
0
 10
2.52519
 20
2.03021
 11
2.79143
 21
1.80283
  0
LINE
  8
0
 10
2.79143
 20
1.80283
 11
3.0692
 21
1.58969
  0
LINE
  8
0
 10
3.0692
 20
1.58969
 11
3.35773
 21
1.39139
  0
LINE
  8
0
 10
3.35773
 20
1.39139
 11
3.65627
 21
1.20845
  0
LINE
  8
0
 10
3.65627
 20
1.20845
 11
3.96394
 21
1.04138
  0
LINE
  8
0
 10
3.96394
 20
1.04138
 11
4.27995
 21
0.890671
  0
LINE
  8
0
 10
4.27995
 20
0.890671
 11
4.60342
 21
0.756683
  0
LINE
  8
0
 10
4.60342
 20
0.756683
 11
4.93346
 21
0.639816
  0
LINE
  8
0
 10
4.93346
 20
0.639816
 11
5.26915
 21
0.540375
  0
LINE
  8
0
 10
5.26915
 20
0.540375
 11
5.6096
 21
0.458649
  0
LINE
  8
0
 10
5.6096
 20
0.458649
 11
5.95386
 21
0.394836
  0
LINE
  8
0
 10
5.95386
 20
0.394836
 11
6.30098
 21
0.349136
  0
LINE
  8
0
 10
6.30098
 20
0.349136
 11
6.65001
 21
0.321671
  0
LINE
  8
0
 10
6.65001
 20
0.321671
 11
7
 21
0.3125
  0
LINE
  8
0
 10
7
 20
0.3125
 11
14.875
 21
0.3125
  0
LINE
  8
0
 10
14.875
 20
0.3125
 11
14.875
 21
5.3125
  0
LINE
  8
0
 10
6.94147
 20
6.44307
 11
6.88358
 21
6.45224
  0
LINE
  8
0
 10
6.88358
 20
6.45224
 11
6.82697
 21
6.46742
  0
LINE
  8
0
 10
6.82697
 20
6.46742
 11
6.77223
 21
6.48842
  0
LINE
  8
0
 10
6.77223
 20
6.48842
 11
6.72
 21
6.51503
  0
LINE
  8
0
 10
6.72
 20
6.51503
 11
6.67085
 21
6.54695
  0
LINE
  8
0
 10
6.67085
 20
6.54695
 11
6.62529
 21
6.58385
  0
LINE
  8
0
 10
6.62529
 20
6.58385
 11
6.58386
 21
6.62527
  0
LINE
  8
0
 10
6.58386
 20
6.62527
 11
6.54697
 21
6.67084
  0
LINE
  8
0
 10
6.54697
 20
6.67084
 11
6.51505
 21
6.71999
  0
LINE
  8
0
 10
6.51505
 20
6.71999
 11
6.48843
 21
6.77222
  0
LINE
  8
0
 10
6.48843
 20
6.77222
 11
6.46744
 21
6.82695
  0
LINE
  8
0
 10
6.46744
 20
6.82695
 11
6.45226
 21
6.88356
  0
LINE
  8
0
 10
6.45226
 20
6.88356
 11
6.44308
 21
6.94145
  0
LINE
  8
0
 10
6.44308
 20
6.94145
 11
6.44002
 21
6.99998
  0
LINE
  8
0
 10
6.44002
 20
6.99998
 11
6.44308
 21
7.0585
  0
LINE
  8
0
 10
6.44308
 20
7.0585
 11
6.45226
 21
7.11639
  0
LINE
  8
0
 10
6.45226
 20
7.11639
 11
6.46744
 21
7.173
  0
LINE
  8
0
 10
6.46744
 20
7.173
 11
6.48843
 21
7.22774
  0
LINE
  8
0
 10
6.48843
 20
7.22774
 11
6.51505
 21
7.27997
  0
LINE
  8
0
 10
6.51505
 20
7.27997
 11
6.54697
 21
7.32912
  0
LINE
  8
0
 10
6.54697
 20
7.32912
 11
6.58386
 21
7.37468
  0
LINE
  8
0
 10
6.58386
 20
7.37468
 11
6.62531
 21
7.41612
  0
LINE
  8
0
 10
6.62531
 20
7.41612
 11
6.67087
 21
7.45302
  0
LINE
  8
0
 10
6.67087
 20
7.45302
 11
6.72002
 21
7.48494
  0
LINE
  8
0
 10
6.72002
 20
7.48494
 11
6.77225
 21
7.51155
  0
LINE
  8
0
 10
6.77225
 20
7.51155
 11
6.82698
 21
7.53255
  0
LINE
  8
0
 10
6.82698
 20
7.53255
 11
6.88359
 21
7.54773
  0
LINE
  8
0
 10
6.88359
 20
7.54773
 11
6.94148
 21
7.5569
  0
LINE
  8
0
 10
6.94148
 20
7.5569
 11
7
 21
7.55997
  0
LINE
  8
0
 10
7
 20
7.55997
 11
7.05853
 21
7.5569
  0
LINE
  8
0
 10
7.05853
 20
7.5569
 11
7.11642
 21
7.54773
  0
LINE
  8
0
 10
7.11642
 20
7.54773
 11
7.17303
 21
7.53255
  0
LINE
  8
0
 10
7.17303
 20
7.53255
 11
7.22777
 21
7.51155
  0
LINE
  8
0
 10
7.22777
 20
7.51155
 11
7.28
 21
7.48494
  0
LINE
  8
0
 10
7.28
 20
7.48494
 11
7.32915
 21
7.45302
  0
LINE
  8
0
 10
7.32915
 20
7.45302
 11
7.37471
 21
7.41612
  0
LINE
  8
0
 10
7.37471
 20
7.41612
 11
7.41614
 21
7.37469
  0
LINE
  8
0
 10
7.41614
 20
7.37469
 11
7.45303
 21
7.32913
  0
LINE
  8
0
 10
7.45303
 20
7.32913
 11
7.48495
 21
7.27998
  0
LINE
  8
0
 10
7.48495
 20
7.27998
 11
7.51157
 21
7.22775
  0
LINE
  8
0
 10
7.51157
 20
7.22775
 11
7.53256
 21
7.17302
  0
LINE
  8
0
 10
7.53256
 20
7.17302
 11
7.54774
 21
7.11641
  0
LINE
  8
0
 10
7.54774
 20
7.11641
 11
7.55692
 21
7.05852
  0
LINE
  8
0
 10
7.55692
 20
7.05852
 11
7.55998
 21
6.99998
  0
LINE
  8
0
 10
7.55998
 20
6.99998
 11
7.55692
 21
6.94147
  0
LINE
  8
0
 10
7.55692
 20
6.94147
 11
7.54774
 21
6.88358
  0
LINE
  8
0
 10
7.54774
 20
6.88358
 11
7.53256
 21
6.82697
  0
LINE
  8
0
 10
7.53256
 20
6.82697
 11
7.51157
 21
6.77223
  0
LINE
  8
0
 10
7.51157
 20
6.77223
 11
7.48495
 21
6.72
  0
LINE
  8
0
 10
7.48495
 20
6.72
 11
7.45303
 21
6.67085
  0
LINE
  8
0
 10
7.45303
 20
6.67085
 11
7.41614
 21
6.62529
  0
LINE
  8
0
 10
7.41614
 20
6.62529
 11
7.37469
 21
6.58385
  0
LINE
  8
0
 10
7.37469
 20
6.58385
 11
7.32913
 21
6.54695
  0
LINE
  8
0
 10
7.32913
 20
6.54695
 11
7.27998
 21
6.51503
  0
LINE
  8
0
 10
7.27998
 20
6.51503
 11
7.22775
 21
6.48842
  0
LINE
  8
0
 10
7.22775
 20
6.48842
 11
7.17302
 21
6.46742
  0
LINE
  8
0
 10
7.17302
 20
6.46742
 11
7.11641
 21
6.45224
  0
LINE
  8
0
 10
7.11641
 20
6.45224
 11
7.05852
 21
6.44307
  0
LINE
  8
0
 10
7.05852
 20
6.44307
 11
7
 21
6.44
  0
LINE
  8
0
 10
7
 20
6.44
 11
6.94147
 21
6.44307
  0
ENDSEC
  0
SECTION
  2
OBJECTS
  0
DICTIONARY
  0
ENDSEC
  0
EOF
