  0
SECTION
  2
BLOCKS
  0
ENDSEC
  0
SECTION
  2
ENTITIES
  0
LINE
  8
0
 10
8.01595
 20
6.37005
 11
7.58183
 21
8.83209
  0
LINE
  8
0
 10
7.58183
 20
8.83209
 11
6.10462
 21
8.57161
  0
LINE
  8
0
 10
6.10462
 20
8.57161
 11
5.76154
 21
8.50181
  0
LINE
  8
0
 10
5.76154
 20
8.50181
 11
5.42258
 21
8.41415
  0
LINE
  8
0
 10
5.42258
 20
8.41415
 11
5.08867
 21
8.30887
  0
LINE
  8
0
 10
5.08867
 20
8.30887
 11
4.76073
 21
8.18625
  0
LINE
  8
0
 10
4.76073
 20
8.18625
 11
4.43964
 21
8.04664
  0
LINE
  8
0
 10
4.43964
 20
8.04664
 11
4.12631
 21
7.89042
  0
LINE
  8
0
 10
4.12631
 20
7.89042
 11
3.82158
 21
7.71802
  0
LINE
  8
0
 10
3.82158
 20
7.71802
 11
3.52629
 21
7.5299
  0
LINE
  8
0
 10
3.52629
 20
7.5299
 11
3.24126
 21
7.32658
  0
LINE
  8
0
 10
3.24126
 20
7.32658
 11
2.96727
 21
7.10863
  0
LINE
  8
0
 10
2.96727
 20
7.10863
 11
2.70503
 21
6.87663
  0
LINE
  8
0
 10
2.70503
 20
6.87663
 11
2.45532
 21
6.63123
  0
LINE
  8
0
 10
2.45532
 20
6.63123
 11
2.21878
 21
6.3731
  0
LINE
  8
0
 10
2.21878
 20
6.3731
 11
1.99607
 21
6.10294
  0
LINE
  8
0
 10
1.99607
 20
6.10294
 11
1.78781
 21
5.8215
  0
LINE
  8
0
 10
1.78781
 20
5.8215
 11
1.59458
 21
5.52955
  0
LINE
  8
0
 10
1.59458
 20
5.52955
 11
1.41688
 21
5.22787
  0
LINE
  8
0
 10
1.41688
 20
5.22787
 11
1.25522
 21
4.91731
  0
LINE
  8
0
 10
1.25522
 20
4.91731
 11
1.11003
 21
4.59873
  0
LINE
  8
0
 10
1.11003
 20
4.59873
 11
0.981708
 21
4.27297
  0
LINE
  8
0
 10
0.981708
 20
4.27297
 11
0.870608
 21
3.94094
  0
LINE
  8
0
 10
0.870608
 20
3.94094
 11
0.777046
 21
3.60356
  0
LINE
  8
0
 10
0.777046
 20
3.60356
 11
0.701264
 21
3.26174
  0
LINE
  8
0
 10
0.701264
 20
3.26174
 11
0.643482
 21
2.91643
  0
LINE
  8
0
 10
0.643482
 20
2.91643
 11
0.603844
 21
2.56856
  0
LINE
  8
0
 10
0.603844
 20
2.56856
 11
0.582479
 21
2.21909
  0
LINE
  8
0
 10
0.582479
 20
2.21909
 11
0.579415
 21
1.86899
  0
LINE
  8
0
 10
0.579415
 20
1.86899
 11
0.594686
 21
1.5192
  0
LINE
  8
0
 10
0.594686
 20
1.5192
 11
0.628246
 21
1.17071
  0
LINE
  8
0
 10
0.628246
 20
1.17071
 11
0.67999
 21
0.824439
  0
LINE
  8
0
 10
0.67999
 20
0.824439
 11
9.07034
 21
0.390353
  0
LINE
  8
0
 10
9.07034
 20
0.390353
 11
8.45007
 21
3.90805
  0
LINE
  8
0
 10
8.45007
 20
3.90805
 11
15.5427
 21
5.15866
  0
LINE
  8
0
 10
15.5427
 20
5.15866
 11
15.1085
 21
7.62066
  0
LINE
  8
0
 10
15.1085
 20
7.62066
 11
8.01595
 21
6.37005
  0
LINE
  8
0
 10
6.38011
 20
1.79815
 11
6.3659
 21
1.75908
  0
LINE
  8
0
 10
6.3659
 20
1.75908
 11
6.33701
 21
1.72916
  0
LINE
  8
0
 10
6.33701
 20
1.72916
 11
6.29845
 21
1.71359
  0
LINE
  8
0
 10
6.29845
 20
1.71359
 11
6.2569
 21
1.71504
  0
LINE
  8
0
 10
6.2569
 20
1.71504
 11
6.21952
 21
1.73327
  0
LINE
  8
0
 10
6.21952
 20
1.73327
 11
6.1928
 21
1.76512
  0
LINE
  8
0
 10
6.1928
 20
1.76512
 11
6.18134
 21
1.80509
  0
LINE
  8
0
 10
6.18134
 20
1.80509
 11
6.18713
 21
1.84625
  0
LINE
  8
0
 10
6.18713
 20
1.84625
 11
6.20915
 21
1.88151
  0
LINE
  8
0
 10
6.20915
 20
1.88151
 11
6.24363
 21
1.90478
  0
LINE
  8
0
 10
6.24363
 20
1.90478
 11
6.28458
 21
1.912
  0
LINE
  8
0
 10
6.28458
 20
1.912
 11
6.32494
 21
1.90193
  0
LINE
  8
0
 10
6.32494
 20
1.90193
 11
6.3577
 21
1.87633
  0
LINE
  8
0
 10
6.3577
 20
1.87633
 11
6.37721
 21
1.83963
  0
LINE
  8
0
 10
6.37721
 20
1.83963
 11
6.38011
 21
1.79815
  0
LINE
  8
0
 10
7.82453
 20
2.02478
 11
7.82555
 21
1.96617
  0
LINE
  8
0
 10
7.82555
 20
1.96617
 11
7.82043
 21
1.90779
  0
LINE
  8
0
 10
7.82043
 20
1.90779
 11
7.80925
 21
1.85024
  0
LINE
  8
0
 10
7.80925
 20
1.85024
 11
7.79212
 21
1.79418
  0
LINE
  8
0
 10
7.79212
 20
1.79418
 11
7.76921
 21
1.74024
  0
LINE
  8
0
 10
7.76921
 20
1.74024
 11
7.74079
 21
1.68896
  0
LINE
  8
0
 10
7.74079
 20
1.68896
 11
7.70717
 21
1.64095
  0
LINE
  8
0
 10
7.70717
 20
1.64095
 11
7.66871
 21
1.5967
  0
LINE
  8
0
 10
7.66871
 20
1.5967
 11
7.62585
 21
1.55673
  0
LINE
  8
0
 10
7.62585
 20
1.55673
 11
7.57903
 21
1.52145
  0
LINE
  8
0
 10
7.57903
 20
1.52145
 11
7.52878
 21
1.49127
  0
LINE
  8
0
 10
7.52878
 20
1.49127
 11
7.47567
 21
1.46649
  0
LINE
  8
0
 10
7.47567
 20
1.46649
 11
7.42025
 21
1.44741
  0
LINE
  8
0
 10
7.42025
 20
1.44741
 11
7.36313
 21
1.43422
  0
LINE
  8
0
 10
7.36313
 20
1.43422
 11
7.30496
 21
1.42708
  0
LINE
  8
0
 10
7.30496
 20
1.42708
 11
7.24635
 21
1.42606
  0
LINE
  8
0
 10
7.24635
 20
1.42606
 11
7.18797
 21
1.43118
  0
LINE
  8
0
 10
7.18797
 20
1.43118
 11
7.13042
 21
1.44235
  0
LINE
  8
0
 10
7.13042
 20
1.44235
 11
7.07436
 21
1.45949
  0
LINE
  8
0
 10
7.07436
 20
1.45949
 11
7.02042
 21
1.48239
  0
LINE
  8
0
 10
7.02042
 20
1.48239
 11
6.96914
 21
1.51081
  0
LINE
  8
0
 10
6.96914
 20
1.51081
 11
6.92113
 21
1.54443
  0
LINE
  8
0
 10
6.92113
 20
1.54443
 11
6.87688
 21
1.58289
  0
LINE
  8
0
 10
6.87688
 20
1.58289
 11
6.83691
 21
1.62575
  0
LINE
  8
0
 10
6.83691
 20
1.62575
 11
6.80163
 21
1.67257
  0
LINE
  8
0
 10
6.80163
 20
1.67257
 11
6.77145
 21
1.72282
  0
LINE
  8
0
 10
6.77145
 20
1.72282
 11
6.74667
 21
1.77594
  0
LINE
  8
0
 10
6.74667
 20
1.77594
 11
6.72759
 21
1.83136
  0
LINE
  8
0
 10
6.72759
 20
1.83136
 11
6.7144
 21
1.88847
  0
LINE
  8
0
 10
6.7144
 20
1.88847
 11
6.70726
 21
1.94665
  0
LINE
  8
0
 10
6.70726
 20
1.94665
 11
6.70624
 21
2.00525
  0
LINE
  8
0
 10
6.70624
 20
2.00525
 11
6.71136
 21
2.06364
  0
LINE
  8
0
 10
6.71136
 20
2.06364
 11
6.72253
 21
2.12118
  0
LINE
  8
0
 10
6.72253
 20
2.12118
 11
6.73967
 21
2.17724
  0
LINE
  8
0
 10
6.73967
 20
2.17724
 11
6.76257
 21
2.23119
  0
LINE
  8
0
 10
6.76257
 20
2.23119
 11
6.79099
 21
2.28246
  0
LINE
  8
0
 10
6.79099
 20
2.28246
 11
6.82461
 21
2.33047
  0
LINE
  8
0
 10
6.82461
 20
2.33047
 11
6.86307
 21
2.37472
  0
LINE
  8
0
 10
6.86307
 20
2.37472
 11
6.90593
 21
2.41469
  0
LINE
  8
0
 10
6.90593
 20
2.41469
 11
6.95275
 21
2.44997
  0
LINE
  8
0
 10
6.95275
 20
2.44997
 11
7.003
 21
2.48015
  0
LINE
  8
0
 10
7.003
 20
2.48015
 11
7.05612
 21
2.50493
  0
LINE
  8
0
 10
7.05612
 20
2.50493
 11
7.11154
 21
2.52402
  0
LINE
  8
0
 10
7.11154
 20
2.52402
 11
7.16865
 21
2.5372
  0
LINE
  8
0
 10
7.16865
 20
2.5372
 11
7.22683
 21
2.54435
  0
LINE
  8
0
 10
7.22683
 20
2.54435
 11
7.28543
 21
2.54537
  0
LINE
  8
0
 10
7.28543
 20
2.54537
 11
7.34382
 21
2.54025
  0
LINE
  8
0
 10
7.34382
 20
2.54025
 11
7.40136
 21
2.52907
  0
LINE
  8
0
 10
7.40136
 20
2.52907
 11
7.45742
 21
2.51194
  0
LINE
  8
0
 10
7.45742
 20
2.51194
 11
7.51137
 21
2.48903
  0
LINE
  8
0
 10
7.51137
 20
2.48903
 11
7.56265
 21
2.46061
  0
LINE
  8
0
 10
7.56265
 20
2.46061
 11
7.61065
 21
2.42699
  0
LINE
  8
0
 10
7.61065
 20
2.42699
 11
7.6549
 21
2.38853
  0
LINE
  8
0
 10
7.6549
 20
2.38853
 11
7.69487
 21
2.34567
  0
LINE
  8
0
 10
7.69487
 20
2.34567
 11
7.73015
 21
2.29885
  0
LINE
  8
0
 10
7.73015
 20
2.29885
 11
7.76033
 21
2.2486
  0
LINE
  8
0
 10
7.76033
 20
2.2486
 11
7.78511
 21
2.19548
  0
LINE
  8
0
 10
7.78511
 20
2.19548
 11
7.8042
 21
2.14007
  0
LINE
  8
0
 10
7.8042
 20
2.14007
 11
7.81738
 21
2.08295
  0
LINE
  8
0
 10
7.81738
 20
2.08295
 11
7.82453
 21
2.02478
  0
LINE
  8
0
 10
7.53855
 20
0.986987
 11
7.52434
 21
0.947914
  0
LINE
  8
0
 10
7.52434
 20
0.947914
 11
7.49545
 21
0.917999
  0
LINE
  8
0
 10
7.49545
 20
0.917999
 11
7.4569
 21
0.902432
  0
LINE
  8
0
 10
7.4569
 20
0.902432
 11
7.41536
 21
0.903876
  0
LINE
  8
0
 10
7.41536
 20
0.903876
 11
7.37798
 21
0.922107
  0
LINE
  8
0
 10
7.37798
 20
0.922107
 11
7.35126
 21
0.953962
  0
LINE
  8
0
 10
7.35126
 20
0.953962
 11
7.33979
 21
0.993944
  0
LINE
  8
0
 10
7.33979
 20
0.993944
 11
7.34558
 21
1.03511
  0
LINE
  8
0
 10
7.34558
 20
1.03511
 11
7.36761
 21
1.07037
  0
LINE
  8
0
 10
7.36761
 20
1.07037
 11
7.40209
 21
1.09363
  0
LINE
  8
0
 10
7.40209
 20
1.09363
 11
7.44302
 21
1.10085
  0
LINE
  8
0
 10
7.44302
 20
1.10085
 11
7.48338
 21
1.09078
  0
LINE
  8
0
 10
7.48338
 20
1.09078
 11
7.51614
 21
1.06518
  0
LINE
  8
0
 10
7.51614
 20
1.06518
 11
7.53565
 21
1.02848
  0
LINE
  8
0
 10
7.53565
 20
1.02848
 11
7.53855
 21
0.986987
  0
LINE
  8
0
 10
7.19126
 20
2.95659
 11
7.17705
 21
2.91751
  0
LINE
  8
0
 10
7.17705
 20
2.91751
 11
7.14816
 21
2.8876
  0
LINE
  8
0
 10
7.14816
 20
2.8876
 11
7.10961
 21
2.87203
  0
LINE
  8
0
 10
7.10961
 20
2.87203
 11
7.06806
 21
2.87348
  0
LINE
  8
0
 10
7.06806
 20
2.87348
 11
7.03068
 21
2.89171
  0
LINE
  8
0
 10
7.03068
 20
2.89171
 11
7.00396
 21
2.92356
  0
LINE
  8
0
 10
7.00396
 20
2.92356
 11
6.9925
 21
2.96354
  0
LINE
  8
0
 10
6.9925
 20
2.96354
 11
6.99829
 21
3.00471
  0
LINE
  8
0
 10
6.99829
 20
3.00471
 11
7.02031
 21
3.03997
  0
LINE
  8
0
 10
7.02031
 20
3.03997
 11
7.05479
 21
3.06323
  0
LINE
  8
0
 10
7.05479
 20
3.06323
 11
7.09573
 21
3.07045
  0
LINE
  8
0
 10
7.09573
 20
3.07045
 11
7.13608
 21
3.06038
  0
LINE
  8
0
 10
7.13608
 20
3.06038
 11
7.16884
 21
3.03478
  0
LINE
  8
0
 10
7.16884
 20
3.03478
 11
7.18836
 21
2.99808
  0
LINE
  8
0
 10
7.18836
 20
2.99808
 11
7.19126
 21
2.95659
  0
LINE
  8
0
 10
8.34971
 20
2.14544
 11
8.3355
 21
2.10637
  0
LINE
  8
0
 10
8.3355
 20
2.10637
 11
8.30661
 21
2.07645
  0
LINE
  8
0
 10
8.30661
 20
2.07645
 11
8.26806
 21
2.06089
  0
LINE
  8
0
 10
8.26806
 20
2.06089
 11
8.2265
 21
2.06233
  0
LINE
  8
0
 10
8.2265
 20
2.06233
 11
8.18912
 21
2.08056
  0
LINE
  8
0
 10
8.18912
 20
2.08056
 11
8.1624
 21
2.11241
  0
LINE
  8
0
 10
8.1624
 20
2.11241
 11
8.15094
 21
2.15238
  0
LINE
  8
0
 10
8.15094
 20
2.15238
 11
8.15673
 21
2.19355
  0
LINE
  8
0
 10
8.15673
 20
2.19355
 11
8.17875
 21
2.22881
  0
LINE
  8
0
 10
8.17875
 20
2.22881
 11
8.21323
 21
2.25207
  0
LINE
  8
0
 10
8.21323
 20
2.25207
 11
8.25418
 21
2.25929
  0
LINE
  8
0
 10
8.25418
 20
2.25929
 11
8.29454
 21
2.24922
  0
LINE
  8
0
 10
8.29454
 20
2.24922
 11
8.3273
 21
2.22362
  0
LINE
  8
0
 10
8.3273
 20
2.22362
 11
8.34682
 21
2.18692
  0
LINE
  8
0
 10
8.34682
 20
2.18692
 11
8.34971
 21
2.14544
  0
LINE
  8
0
 10
13.9442
 20
7.05591
 11
13.9233
 21
7.02241
  0
LINE
  8
0
 10
13.9233
 20
7.02241
 11
13.8905
 21
7.00032
  0
LINE
  8
0
 10
13.8905
 20
7.00032
 11
13.8516
 21
6.99346
  0
LINE
  8
0
 10
13.8516
 20
6.99346
 11
13.8133
 21
7.00301
  0
LINE
  8
0
 10
13.8133
 20
7.00301
 11
13.7821
 21
7.02734
  0
LINE
  8
0
 10
13.7821
 20
7.02734
 11
13.7636
 21
7.06221
  0
LINE
  8
0
 10
13.7636
 20
7.06221
 11
13.7608
 21
7.10161
  0
LINE
  8
0
 10
13.7608
 20
7.10161
 11
13.7744
 21
7.13873
  0
LINE
  8
0
 10
13.7744
 20
7.13873
 11
13.8018
 21
7.16715
  0
LINE
  8
0
 10
13.8018
 20
7.16715
 11
13.8384
 21
7.18194
  0
LINE
  8
0
 10
13.8384
 20
7.18194
 11
13.8779
 21
7.18057
  0
LINE
  8
0
 10
13.8779
 20
7.18057
 11
13.9134
 21
7.16325
  0
LINE
  8
0
 10
13.9134
 20
7.16325
 11
13.9388
 21
7.13299
  0
LINE
  8
0
 10
13.9388
 20
7.13299
 11
13.9497
 21
7.09502
  0
LINE
  8
0
 10
13.9497
 20
7.09502
 11
13.9442
 21
7.05591
  0
LINE
  8
0
 10
14.2481
 20
5.33251
 11
14.2271
 21
5.29901
  0
LINE
  8
0
 10
14.2271
 20
5.29901
 11
14.1944
 21
5.27692
  0
LINE
  8
0
 10
14.1944
 20
5.27692
 11
14.1555
 21
5.27006
  0
LINE
  8
0
 10
14.1555
 20
5.27006
 11
14.1172
 21
5.27962
  0
LINE
  8
0
 10
14.1172
 20
5.27962
 11
14.086
 21
5.30394
  0
LINE
  8
0
 10
14.086
 20
5.30394
 11
14.0675
 21
5.33881
  0
LINE
  8
0
 10
14.0675
 20
5.33881
 11
14.0647
 21
5.37821
  0
LINE
  8
0
 10
14.0647
 20
5.37821
 11
14.0782
 21
5.41533
  0
LINE
  8
0
 10
14.0782
 20
5.41533
 11
14.1057
 21
5.44375
  0
LINE
  8
0
 10
14.1057
 20
5.44375
 11
14.1423
 21
5.45854
  0
LINE
  8
0
 10
14.1423
 20
5.45854
 11
14.1818
 21
5.45717
  0
LINE
  8
0
 10
14.1818
 20
5.45717
 11
14.2173
 21
5.43985
  0
LINE
  8
0
 10
14.2173
 20
5.43985
 11
14.2427
 21
5.40959
  0
LINE
  8
0
 10
14.2427
 20
5.40959
 11
14.2536
 21
5.37163
  0
LINE
  8
0
 10
14.2536
 20
5.37163
 11
14.2481
 21
5.33251
  0
LINE
  8
0
 10
14.929
 20
7.22956
 11
14.9081
 21
7.19605
  0
LINE
  8
0
 10
14.9081
 20
7.19605
 11
14.8753
 21
7.17397
  0
LINE
  8
0
 10
14.8753
 20
7.17397
 11
14.8364
 21
7.16711
  0
LINE
  8
0
 10
14.8364
 20
7.16711
 11
14.7981
 21
7.17666
  0
LINE
  8
0
 10
14.7981
 20
7.17666
 11
14.767
 21
7.20098
  0
LINE
  8
0
 10
14.767
 20
7.20098
 11
14.7484
 21
7.23586
  0
LINE
  8
0
 10
14.7484
 20
7.23586
 11
14.7456
 21
7.27526
  0
LINE
  8
0
 10
14.7456
 20
7.27526
 11
14.7592
 21
7.31238
  0
LINE
  8
0
 10
14.7592
 20
7.31238
 11
14.7866
 21
7.3408
  0
LINE
  8
0
 10
14.7866
 20
7.3408
 11
14.8232
 21
7.35559
  0
LINE
  8
0
 10
14.8232
 20
7.35559
 11
14.8627
 21
7.35422
  0
LINE
  8
0
 10
14.8627
 20
7.35422
 11
14.8982
 21
7.3369
  0
LINE
  8
0
 10
14.8982
 20
7.3369
 11
14.9236
 21
7.30664
  0
LINE
  8
0
 10
14.9236
 20
7.30664
 11
14.9345
 21
7.26867
  0
LINE
  8
0
 10
14.9345
 20
7.26867
 11
14.929
 21
7.22956
  0
LINE
  8
0
 10
15.2329
 20
5.50616
 11
15.2119
 21
5.47266
  0
LINE
  8
0
 10
15.2119
 20
5.47266
 11
15.1792
 21
5.45057
  0
LINE
  8
0
 10
15.1792
 20
5.45057
 11
15.1403
 21
5.44371
  0
LINE
  8
0
 10
15.1403
 20
5.44371
 11
15.102
 21
5.45326
  0
LINE
  8
0
 10
15.102
 20
5.45326
 11
15.0708
 21
5.47759
  0
LINE
  8
0
 10
15.0708
 20
5.47759
 11
15.0523
 21
5.51246
  0
LINE
  8
0
 10
15.0523
 20
5.51246
 11
15.0495
 21
5.55186
  0
LINE
  8
0
 10
15.0495
 20
5.55186
 11
15.063
 21
5.58898
  0
LINE
  8
0
 10
15.063
 20
5.58898
 11
15.0905
 21
5.6174
  0
LINE
  8
0
 10
15.0905
 20
5.6174
 11
15.1271
 21
5.63219
  0
LINE
  8
0
 10
15.1271
 20
5.63219
 11
15.1666
 21
5.63082
  0
LINE
  8
0
 10
15.1666
 20
5.63082
 11
15.2021
 21
5.6135
  0
LINE
  8
0
 10
15.2021
 20
5.6135
 11
15.2275
 21
5.58324
  0
LINE
  8
0
 10
15.2275
 20
5.58324
 11
15.2384
 21
5.54527
  0
LINE
  8
0
 10
15.2384
 20
5.54527
 11
15.2329
 21
5.50616
  0
LINE
  8
0
 10
15.0672
 20
8.57494
 11
15.6875
 21
5.05727
  0
LINE
  8
0
 10
15.6875
 20
5.05727
 11
8.59489
 21
3.80667
  0
LINE
  8
0
 10
8.59489
 20
3.80667
 11
9.02901
 21
1.34467
  0
LINE
  8
0
 10
9.02901
 20
1.34467
 11
16.1216
 21
2.59526
  0
LINE
  8
0
 10
16.1216
 20
2.59526
 11
16.5557
 21
0.133227
  0
LINE
  8
0
 10
16.5557
 20
0.133227
 11
18.0329
 21
0.393699
  0
LINE
  8
0
 10
18.0329
 20
0.393699
 11
18.376
 21
0.463505
  0
LINE
  8
0
 10
18.376
 20
0.463505
 11
18.715
 21
0.551162
  0
LINE
  8
0
 10
18.715
 20
0.551162
 11
19.0489
 21
0.656445
  0
LINE
  8
0
 10
19.0489
 20
0.656445
 11
19.3768
 21
0.779067
  0
LINE
  8
0
 10
19.3768
 20
0.779067
 11
19.6979
 21
0.918671
  0
LINE
  8
0
 10
19.6979
 20
0.918671
 11
20.0112
 21
1.07489
  0
LINE
  8
0
 10
20.0112
 20
1.07489
 11
20.3159
 21
1.2473
  0
LINE
  8
0
 10
20.3159
 20
1.2473
 11
20.6112
 21
1.43542
  0
LINE
  8
0
 10
20.6112
 20
1.43542
 11
20.8963
 21
1.63873
  0
LINE
  8
0
 10
20.8963
 20
1.63873
 11
21.1703
 21
1.85669
  0
LINE
  8
0
 10
21.1703
 20
1.85669
 11
21.4325
 21
2.08869
  0
LINE
  8
0
 10
21.4325
 20
2.08869
 11
21.6822
 21
2.33408
  0
LINE
  8
0
 10
21.6822
 20
2.33408
 11
21.9188
 21
2.59221
  0
LINE
  8
0
 10
21.9188
 20
2.59221
 11
22.1415
 21
2.86237
  0
LINE
  8
0
 10
22.1415
 20
2.86237
 11
22.3497
 21
3.14381
  0
LINE
  8
0
 10
22.3497
 20
3.14381
 11
22.543
 21
3.43577
  0
LINE
  8
0
 10
22.543
 20
3.43577
 11
22.7207
 21
3.73744
  0
LINE
  8
0
 10
22.7207
 20
3.73744
 11
22.8823
 21
4.048
  0
LINE
  8
0
 10
22.8823
 20
4.048
 11
23.0275
 21
4.36658
  0
LINE
  8
0
 10
23.0275
 20
4.36658
 11
23.1558
 21
4.69234
  0
LINE
  8
0
 10
23.1558
 20
4.69234
 11
23.2669
 21
5.02437
  0
LINE
  8
0
 10
23.2669
 20
5.02437
 11
23.3605
 21
5.36175
  0
LINE
  8
0
 10
23.3605
 20
5.36175
 11
23.4363
 21
5.70357
  0
LINE
  8
0
 10
23.4363
 20
5.70357
 11
23.4941
 21
6.04889
  0
LINE
  8
0
 10
23.4941
 20
6.04889
 11
23.5337
 21
6.39675
  0
LINE
  8
0
 10
23.5337
 20
6.39675
 11
23.5551
 21
6.74621
  0
LINE
  8
0
 10
23.5551
 20
6.74621
 11
23.5581
 21
7.09631
  0
LINE
  8
0
 10
23.5581
 20
7.09631
 11
23.5428
 21
7.4461
  0
LINE
  8
0
 10
23.5428
 20
7.4461
 11
23.5093
 21
7.79459
  0
LINE
  8
0
 10
23.5093
 20
7.79459
 11
23.4575
 21
8.14086
  0
LINE
  8
0
 10
23.4575
 20
8.14086
 11
15.0672
 21
8.57494
  0
LINE
  8
0
 10
9.3919
 20
1.69007
 11
9.37838
 21
1.65295
  0
LINE
  8
0
 10
9.37838
 20
1.65295
 11
9.35095
 21
1.62453
  0
LINE
  8
0
 10
9.35095
 20
1.62453
 11
9.31433
 21
1.60974
  0
LINE
  8
0
 10
9.31433
 20
1.60974
 11
9.27484
 21
1.61111
  0
LINE
  8
0
 10
9.27484
 20
1.61111
 11
9.23934
 21
1.62843
  0
LINE
  8
0
 10
9.23934
 20
1.62843
 11
9.21394
 21
1.65869
  0
LINE
  8
0
 10
9.21394
 20
1.65869
 11
9.20306
 21
1.69666
  0
LINE
  8
0
 10
9.20306
 20
1.69666
 11
9.20856
 21
1.73577
  0
LINE
  8
0
 10
9.20856
 20
1.73577
 11
9.22949
 21
1.76928
  0
LINE
  8
0
 10
9.22949
 20
1.76928
 11
9.26224
 21
1.79136
  0
LINE
  8
0
 10
9.26224
 20
1.79136
 11
9.30114
 21
1.79822
  0
LINE
  8
0
 10
9.30114
 20
1.79822
 11
9.33947
 21
1.78867
  0
LINE
  8
0
 10
9.33947
 20
1.78867
 11
9.37059
 21
1.76435
  0
LINE
  8
0
 10
9.37059
 20
1.76435
 11
9.38914
 21
1.72947
  0
LINE
  8
0
 10
9.38914
 20
1.72947
 11
9.3919
 21
1.69007
  0
LINE
  8
0
 10
9.08802
 20
3.41347
 11
9.0745
 21
3.37635
  0
LINE
  8
0
 10
9.0745
 20
3.37635
 11
9.04707
 21
3.34793
  0
LINE
  8
0
 10
9.04707
 20
3.34793
 11
9.01044
 21
3.33314
  0
LINE
  8
0
 10
9.01044
 20
3.33314
 11
8.97096
 21
3.33451
  0
LINE
  8
0
 10
8.97096
 20
3.33451
 11
8.93546
 21
3.35183
  0
LINE
  8
0
 10
8.93546
 20
3.35183
 11
8.91006
 21
3.38209
  0
LINE
  8
0
 10
8.91006
 20
3.38209
 11
8.89918
 21
3.42006
  0
LINE
  8
0
 10
8.89918
 20
3.42006
 11
8.90468
 21
3.45917
  0
LINE
  8
0
 10
8.90468
 20
3.45917
 11
8.9256
 21
3.49267
  0
LINE
  8
0
 10
8.9256
 20
3.49267
 11
8.95835
 21
3.51476
  0
LINE
  8
0
 10
8.95835
 20
3.51476
 11
8.99726
 21
3.52162
  0
LINE
  8
0
 10
8.99726
 20
3.52162
 11
9.03559
 21
3.51207
  0
LINE
  8
0
 10
9.03559
 20
3.51207
 11
9.06671
 21
3.48774
  0
LINE
  8
0
 10
9.06671
 20
3.48774
 11
9.08526
 21
3.45287
  0
LINE
  8
0
 10
9.08526
 20
3.45287
 11
9.08802
 21
3.41347
  0
LINE
  8
0
 10
10.0728
 20
3.58712
 11
10.0593
 21
3.55
  0
LINE
  8
0
 10
10.0593
 20
3.55
 11
10.0319
 21
3.52158
  0
LINE
  8
0
 10
10.0319
 20
3.52158
 11
9.99525
 21
3.50679
  0
LINE
  8
0
 10
9.99525
 20
3.50679
 11
9.95576
 21
3.50816
  0
LINE
  8
0
 10
9.95576
 20
3.50816
 11
9.92026
 21
3.52548
  0
LINE
  8
0
 10
9.92026
 20
3.52548
 11
9.89486
 21
3.55574
  0
LINE
  8
0
 10
9.89486
 20
3.55574
 11
9.88399
 21
3.5937
  0
LINE
  8
0
 10
9.88399
 20
3.5937
 11
9.88948
 21
3.63282
  0
LINE
  8
0
 10
9.88948
 20
3.63282
 11
9.91041
 21
3.66632
  0
LINE
  8
0
 10
9.91041
 20
3.66632
 11
9.94316
 21
3.68841
  0
LINE
  8
0
 10
9.94316
 20
3.68841
 11
9.98207
 21
3.69527
  0
LINE
  8
0
 10
9.98207
 20
3.69527
 11
10.0204
 21
3.68571
  0
LINE
  8
0
 10
10.0204
 20
3.68571
 11
10.0515
 21
3.66139
  0
LINE
  8
0
 10
10.0515
 20
3.66139
 11
10.0701
 21
3.62652
  0
LINE
  8
0
 10
10.0701
 20
3.62652
 11
10.0728
 21
3.58712
  0
LINE
  8
0
 10
10.3767
 20
1.86371
 11
10.3632
 21
1.82659
  0
LINE
  8
0
 10
10.3632
 20
1.82659
 11
10.3358
 21
1.79817
  0
LINE
  8
0
 10
10.3358
 20
1.79817
 11
10.2991
 21
1.78337
  0
LINE
  8
0
 10
10.2991
 20
1.78337
 11
10.2596
 21
1.78475
  0
LINE
  8
0
 10
10.2596
 20
1.78475
 11
10.2241
 21
1.80207
  0
LINE
  8
0
 10
10.2241
 20
1.80207
 11
10.1987
 21
1.83234
  0
LINE
  8
0
 10
10.1987
 20
1.83234
 11
10.1879
 21
1.87031
  0
LINE
  8
0
 10
10.1879
 20
1.87031
 11
10.1934
 21
1.90942
  0
LINE
  8
0
 10
10.1934
 20
1.90942
 11
10.2143
 21
1.94291
  0
LINE
  8
0
 10
10.2143
 20
1.94291
 11
10.247
 21
1.965
  0
LINE
  8
0
 10
10.247
 20
1.965
 11
10.286
 21
1.97186
  0
LINE
  8
0
 10
10.286
 20
1.97186
 11
10.3243
 21
1.9623
  0
LINE
  8
0
 10
10.3243
 20
1.9623
 11
10.3554
 21
1.93798
  0
LINE
  8
0
 10
10.3554
 20
1.93798
 11
10.3739
 21
1.9031
  0
LINE
  8
0
 10
10.3739
 20
1.9031
 11
10.3767
 21
1.86371
  0
LINE
  8
0
 10
15.9808
 20
6.77175
 11
15.9588
 21
6.73649
  0
LINE
  8
0
 10
15.9588
 20
6.73649
 11
15.9243
 21
6.71323
  0
LINE
  8
0
 10
15.9243
 20
6.71323
 11
15.8834
 21
6.70601
  0
LINE
  8
0
 10
15.8834
 20
6.70601
 11
15.843
 21
6.71607
  0
LINE
  8
0
 10
15.843
 20
6.71607
 11
15.8102
 21
6.74167
  0
LINE
  8
0
 10
15.8102
 20
6.74167
 11
15.7907
 21
6.77838
  0
LINE
  8
0
 10
15.7907
 20
6.77838
 11
15.7878
 21
6.81985
  0
LINE
  8
0
 10
15.7878
 20
6.81985
 11
15.802
 21
6.85893
  0
LINE
  8
0
 10
15.802
 20
6.85893
 11
15.8309
 21
6.88884
  0
LINE
  8
0
 10
15.8309
 20
6.88884
 11
15.8695
 21
6.90441
  0
LINE
  8
0
 10
15.8695
 20
6.90441
 11
15.911
 21
6.90297
  0
LINE
  8
0
 10
15.911
 20
6.90297
 11
15.9484
 21
6.88474
  0
LINE
  8
0
 10
15.9484
 20
6.88474
 11
15.9751
 21
6.85288
  0
LINE
  8
0
 10
15.9751
 20
6.85288
 11
15.9866
 21
6.81291
  0
LINE
  8
0
 10
15.9866
 20
6.81291
 11
15.9808
 21
6.77175
  0
LINE
  8
0
 10
17.4303
 20
7.01865
 11
17.4313
 21
6.96005
  0
LINE
  8
0
 10
17.4313
 20
6.96005
 11
17.4262
 21
6.90166
  0
LINE
  8
0
 10
17.4262
 20
6.90166
 11
17.415
 21
6.84411
  0
LINE
  8
0
 10
17.415
 20
6.84411
 11
17.3979
 21
6.78805
  0
LINE
  8
0
 10
17.3979
 20
6.78805
 11
17.375
 21
6.73411
  0
LINE
  8
0
 10
17.375
 20
6.73411
 11
17.3465
 21
6.68283
  0
LINE
  8
0
 10
17.3465
 20
6.68283
 11
17.3129
 21
6.63482
  0
LINE
  8
0
 10
17.3129
 20
6.63482
 11
17.2745
 21
6.59058
  0
LINE
  8
0
 10
17.2745
 20
6.59058
 11
17.2316
 21
6.5506
  0
LINE
  8
0
 10
17.2316
 20
6.5506
 11
17.1848
 21
6.51533
  0
LINE
  8
0
 10
17.1848
 20
6.51533
 11
17.1345
 21
6.48515
  0
LINE
  8
0
 10
17.1345
 20
6.48515
 11
17.0814
 21
6.46036
  0
LINE
  8
0
 10
17.0814
 20
6.46036
 11
17.026
 21
6.44128
  0
LINE
  8
0
 10
17.026
 20
6.44128
 11
16.9689
 21
6.4281
  0
LINE
  8
0
 10
16.9689
 20
6.4281
 11
16.9107
 21
6.42095
  0
LINE
  8
0
 10
16.9107
 20
6.42095
 11
16.8521
 21
6.41993
  0
LINE
  8
0
 10
16.8521
 20
6.41993
 11
16.7937
 21
6.42505
  0
LINE
  8
0
 10
16.7937
 20
6.42505
 11
16.7362
 21
6.43622
  0
LINE
  8
0
 10
16.7362
 20
6.43622
 11
16.6801
 21
6.45336
  0
LINE
  8
0
 10
16.6801
 20
6.45336
 11
16.6262
 21
6.47626
  0
LINE
  8
0
 10
16.6262
 20
6.47626
 11
16.5749
 21
6.50469
  0
LINE
  8
0
 10
16.5749
 20
6.50469
 11
16.5269
 21
6.5383
  0
LINE
  8
0
 10
16.5269
 20
6.5383
 11
16.4826
 21
6.57677
  0
LINE
  8
0
 10
16.4826
 20
6.57677
 11
16.4427
 21
6.61963
  0
LINE
  8
0
 10
16.4427
 20
6.61963
 11
16.4074
 21
6.66644
  0
LINE
  8
0
 10
16.4074
 20
6.66644
 11
16.3772
 21
6.7167
  0
LINE
  8
0
 10
16.3772
 20
6.7167
 11
16.3524
 21
6.76981
  0
LINE
  8
0
 10
16.3524
 20
6.76981
 11
16.3333
 21
6.82523
  0
LINE
  8
0
 10
16.3333
 20
6.82523
 11
16.3202
 21
6.88234
  0
LINE
  8
0
 10
16.3202
 20
6.88234
 11
16.313
 21
6.94052
  0
LINE
  8
0
 10
16.313
 20
6.94052
 11
16.312
 21
6.99912
  0
LINE
  8
0
 10
16.312
 20
6.99912
 11
16.3171
 21
7.05751
  0
LINE
  8
0
 10
16.3171
 20
7.05751
 11
16.3283
 21
7.11506
  0
LINE
  8
0
 10
16.3283
 20
7.11506
 11
16.3454
 21
7.17112
  0
LINE
  8
0
 10
16.3454
 20
7.17112
 11
16.3683
 21
7.22506
  0
LINE
  8
0
 10
16.3683
 20
7.22506
 11
16.3967
 21
7.27634
  0
LINE
  8
0
 10
16.3967
 20
7.27634
 11
16.4304
 21
7.32435
  0
LINE
  8
0
 10
16.4304
 20
7.32435
 11
16.4688
 21
7.3686
  0
LINE
  8
0
 10
16.4688
 20
7.3686
 11
16.5117
 21
7.40857
  0
LINE
  8
0
 10
16.5117
 20
7.40857
 11
16.5585
 21
7.44384
  0
LINE
  8
0
 10
16.5585
 20
7.44384
 11
16.6088
 21
7.47403
  0
LINE
  8
0
 10
16.6088
 20
7.47403
 11
16.6619
 21
7.49881
  0
LINE
  8
0
 10
16.6619
 20
7.49881
 11
16.7173
 21
7.51789
  0
LINE
  8
0
 10
16.7173
 20
7.51789
 11
16.7744
 21
7.53108
  0
LINE
  8
0
 10
16.7744
 20
7.53108
 11
16.8326
 21
7.53822
  0
LINE
  8
0
 10
16.8326
 20
7.53822
 11
16.8912
 21
7.53924
  0
LINE
  8
0
 10
16.8912
 20
7.53924
 11
16.9496
 21
7.53412
  0
LINE
  8
0
 10
16.9496
 20
7.53412
 11
17.0071
 21
7.52295
  0
LINE
  8
0
 10
17.0071
 20
7.52295
 11
17.0632
 21
7.50581
  0
LINE
  8
0
 10
17.0632
 20
7.50581
 11
17.1171
 21
7.48291
  0
LINE
  8
0
 10
17.1171
 20
7.48291
 11
17.1684
 21
7.45448
  0
LINE
  8
0
 10
17.1684
 20
7.45448
 11
17.2164
 21
7.42087
  0
LINE
  8
0
 10
17.2164
 20
7.42087
 11
17.2607
 21
7.3824
  0
LINE
  8
0
 10
17.2607
 20
7.3824
 11
17.3006
 21
7.33954
  0
LINE
  8
0
 10
17.3006
 20
7.33954
 11
17.3359
 21
7.29273
  0
LINE
  8
0
 10
17.3359
 20
7.29273
 11
17.3661
 21
7.24247
  0
LINE
  8
0
 10
17.3661
 20
7.24247
 11
17.3909
 21
7.18936
  0
LINE
  8
0
 10
17.3909
 20
7.18936
 11
17.4099
 21
7.13394
  0
LINE
  8
0
 10
17.4099
 20
7.13394
 11
17.4231
 21
7.07683
  0
LINE
  8
0
 10
17.4231
 20
7.07683
 11
17.4303
 21
7.01865
  0
LINE
  8
0
 10
16.792
 20
7.93019
 11
16.7699
 21
7.89493
  0
LINE
  8
0
 10
16.7699
 20
7.89493
 11
16.7354
 21
7.87166
  0
LINE
  8
0
 10
16.7354
 20
7.87166
 11
16.6945
 21
7.86445
  0
LINE
  8
0
 10
16.6945
 20
7.86445
 11
16.6542
 21
7.87451
  0
LINE
  8
0
 10
16.6542
 20
7.87451
 11
16.6214
 21
7.90011
  0
LINE
  8
0
 10
16.6214
 20
7.90011
 11
16.6019
 21
7.93682
  0
LINE
  8
0
 10
16.6019
 20
7.93682
 11
16.599
 21
7.97831
  0
LINE
  8
0
 10
16.599
 20
7.97831
 11
16.6132
 21
8.01738
  0
LINE
  8
0
 10
16.6132
 20
8.01738
 11
16.6421
 21
8.0473
  0
LINE
  8
0
 10
16.6421
 20
8.0473
 11
16.6806
 21
8.06287
  0
LINE
  8
0
 10
16.6806
 20
8.06287
 11
16.7222
 21
8.06142
  0
LINE
  8
0
 10
16.7222
 20
8.06142
 11
16.7596
 21
8.04319
  0
LINE
  8
0
 10
16.7596
 20
8.04319
 11
16.7863
 21
8.01134
  0
LINE
  8
0
 10
16.7863
 20
8.01134
 11
16.7977
 21
7.97135
  0
LINE
  8
0
 10
16.7977
 20
7.97135
 11
16.792
 21
7.93019
  0
LINE
  8
0
 10
17.1393
 20
5.96059
 11
17.1172
 21
5.92533
  0
LINE
  8
0
 10
17.1172
 20
5.92533
 11
17.0827
 21
5.90206
  0
LINE
  8
0
 10
17.0827
 20
5.90206
 11
17.0418
 21
5.89485
  0
LINE
  8
0
 10
17.0418
 20
5.89485
 11
17.0015
 21
5.90491
  0
LINE
  8
0
 10
17.0015
 20
5.90491
 11
16.9687
 21
5.93051
  0
LINE
  8
0
 10
16.9687
 20
5.93051
 11
16.9492
 21
5.96722
  0
LINE
  8
0
 10
16.9492
 20
5.96722
 11
16.9463
 21
6.00871
  0
LINE
  8
0
 10
16.9463
 20
6.00871
 11
16.9605
 21
6.04778
  0
LINE
  8
0
 10
16.9605
 20
6.04778
 11
16.9894
 21
6.0777
  0
LINE
  8
0
 10
16.9894
 20
6.0777
 11
17.0279
 21
6.09326
  0
LINE
  8
0
 10
17.0279
 20
6.09326
 11
17.0695
 21
6.09182
  0
LINE
  8
0
 10
17.0695
 20
6.09182
 11
17.1069
 21
6.07359
  0
LINE
  8
0
 10
17.1069
 20
6.07359
 11
17.1336
 21
6.04174
  0
LINE
  8
0
 10
17.1336
 20
6.04174
 11
17.145
 21
6.00175
  0
LINE
  8
0
 10
17.145
 20
6.00175
 11
17.1393
 21
5.96059
  0
LINE
  8
0
 10
17.9504
 20
7.11904
 11
17.9284
 21
7.08378
  0
LINE
  8
0
 10
17.9284
 20
7.08378
 11
17.8939
 21
7.06052
  0
LINE
  8
0
 10
17.8939
 20
7.06052
 11
17.853
 21
7.0533
  0
LINE
  8
0
 10
17.853
 20
7.0533
 11
17.8126
 21
7.06337
  0
LINE
  8
0
 10
17.8126
 20
7.06337
 11
17.7798
 21
7.08897
  0
LINE
  8
0
 10
17.7798
 20
7.08897
 11
17.7603
 21
7.12567
  0
LINE
  8
0
 10
17.7603
 20
7.12567
 11
17.7574
 21
7.16715
  0
LINE
  8
0
 10
17.7574
 20
7.16715
 11
17.7716
 21
7.20622
  0
LINE
  8
0
 10
17.7716
 20
7.20622
 11
17.8005
 21
7.23614
  0
LINE
  8
0
 10
17.8005
 20
7.23614
 11
17.8391
 21
7.25171
  0
LINE
  8
0
 10
17.8391
 20
7.25171
 11
17.8806
 21
7.25026
  0
LINE
  8
0
 10
17.8806
 20
7.25026
 11
17.918
 21
7.23203
  0
LINE
  8
0
 10
17.918
 20
7.23203
 11
17.9447
 21
7.20018
  0
LINE
  8
0
 10
17.9447
 20
7.20018
 11
17.9562
 21
7.16021
  0
LINE
  8
0
 10
17.9562
 20
7.16021
 11
17.9504
 21
7.11904
  0
ENDSEC
  0
SECTION
  2
OBJECTS
  0
DICTIONARY
  0
ENDSEC
  0
EOF
