  0
SECTION
  2
BLOCKS
  0
ENDSEC
  0
SECTION
  2
ENTITIES
  0
LINE
  8
0
 10
23.8875
 20
12.3
 11
23.887
 21
12.384
  0
LINE
  8
0
 10
23.887
 20
12.384
 11
23.8743
 21
12.7199
  0
LINE
  8
0
 10
23.8743
 20
12.7199
 11
23.8448
 21
13.0547
  0
LINE
  8
0
 10
23.8448
 20
13.0547
 11
23.7984
 21
13.3876
  0
LINE
  8
0
 10
23.7984
 20
13.3876
 11
23.7355
 21
13.7178
  0
LINE
  8
0
 10
23.7355
 20
13.7178
 11
23.656
 21
14.0444
  0
LINE
  8
0
 10
23.656
 20
14.0444
 11
23.5602
 21
14.3665
  0
LINE
  8
0
 10
23.5602
 20
14.3665
 11
23.4483
 21
14.6835
  0
LINE
  8
0
 10
23.4483
 20
14.6835
 11
23.3207
 21
14.9944
  0
LINE
  8
0
 10
23.3207
 20
14.9944
 11
23.1776
 21
15.2985
  0
LINE
  8
0
 10
23.1776
 20
15.2985
 11
23.0193
 21
15.5951
  0
LINE
  8
0
 10
23.0193
 20
15.5951
 11
22.8464
 21
15.8833
  0
LINE
  8
0
 10
22.8464
 20
15.8833
 11
22.6593
 21
16.1625
  0
LINE
  8
0
 10
22.6593
 20
16.1625
 11
22.4583
 21
16.4319
  0
LINE
  8
0
 10
22.4583
 20
16.4319
 11
22.244
 21
16.6909
  0
LINE
  8
0
 10
22.244
 20
16.6909
 11
22.0171
 21
16.9388
  0
LINE
  8
0
 10
22.0171
 20
16.9388
 11
21.7779
 21
17.175
  0
LINE
  8
0
 10
21.7779
 20
17.175
 11
21.5272
 21
17.3988
  0
LINE
  8
0
 10
21.5272
 20
17.3988
 11
21.2655
 21
17.6098
  0
LINE
  8
0
 10
21.2655
 20
17.6098
 11
20.9936
 21
17.8074
  0
LINE
  8
0
 10
20.9936
 20
17.8074
 11
20.7121
 21
17.991
  0
LINE
  8
0
 10
20.7121
 20
17.991
 11
20.4217
 21
18.1603
  0
LINE
  8
0
 10
20.4217
 20
18.1603
 11
20.1232
 21
18.3148
  0
LINE
  8
0
 10
20.1232
 20
18.3148
 11
19.8173
 21
18.454
  0
LINE
  8
0
 10
19.8173
 20
18.454
 11
19.5048
 21
18.5778
  0
LINE
  8
0
 10
19.5048
 20
18.5778
 11
19.1865
 21
18.6856
  0
LINE
  8
0
 10
19.1865
 20
18.6856
 11
18.8631
 21
18.7774
  0
LINE
  8
0
 10
18.8631
 20
18.7774
 11
18.5356
 21
18.8528
  0
LINE
  8
0
 10
18.5356
 20
18.8528
 11
18.2046
 21
18.9116
  0
LINE
  8
0
 10
18.2046
 20
18.9116
 11
17.8712
 21
18.9537
  0
LINE
  8
0
 10
17.8712
 20
18.9537
 11
17.536
 21
18.979
  0
LINE
  8
0
 10
17.536
 20
18.979
 11
17.2
 21
18.9875
  0
LINE
  8
0
 10
17.2
 20
18.9875
 11
9.325
 21
18.9875
  0
LINE
  8
0
 10
9.325
 20
18.9875
 11
9.325
 21
13.9875
  0
LINE
  8
0
 10
9.325
 20
13.9875
 11
15.7
 21
13.9875
  0
LINE
  8
0
 10
15.7
 20
13.9875
 11
15.7
 21
10.4155
  0
LINE
  8
0
 10
15.7
 20
10.4155
 11
23.8875
 21
12.3
  0
LINE
  8
0
 10
16.9395
 20
11.8043
 11
16.7966
 21
11.9115
  0
LINE
  8
0
 10
16.7966
 20
11.9115
 11
16.701
 21
12.0458
  0
LINE
  8
0
 10
16.701
 20
12.0458
 11
16.6436
 21
12.2368
  0
LINE
  8
0
 10
16.6436
 20
12.2368
 11
16.701
 21
12.5542
  0
LINE
  8
0
 10
16.701
 20
12.5542
 11
16.7043
 21
12.5605
  0
LINE
  8
0
 10
16.7043
 20
12.5605
 11
16.8116
 21
12.7034
  0
LINE
  8
0
 10
16.8116
 20
12.7034
 11
16.9458
 21
12.799
  0
LINE
  8
0
 10
16.9458
 20
12.799
 11
17.1473
 21
12.8575
  0
LINE
  8
0
 10
17.1473
 20
12.8575
 11
17.4605
 21
12.7957
  0
LINE
  8
0
 10
17.4605
 20
12.7957
 11
17.6034
 21
12.6884
  0
LINE
  8
0
 10
17.6034
 20
12.6884
 11
17.699
 21
12.5542
  0
LINE
  8
0
 10
17.699
 20
12.5542
 11
17.7575
 21
12.3527
  0
LINE
  8
0
 10
17.7575
 20
12.3527
 11
17.6957
 21
12.0395
  0
LINE
  8
0
 10
17.6957
 20
12.0395
 11
17.5884
 21
11.8966
  0
LINE
  8
0
 10
17.5884
 20
11.8966
 11
17.4542
 21
11.801
  0
LINE
  8
0
 10
17.4542
 20
11.801
 11
17.2527
 21
11.7425
  0
LINE
  8
0
 10
17.2527
 20
11.7425
 11
16.9395
 21
11.8043
  0
LINE
  8
0
 10
15.475
 20
13.8125
 11
9.09999
 21
13.8125
  0
LINE
  8
0
 10
9.09999
 20
13.8125
 11
9.09999
 21
17.3845
  0
LINE
  8
0
 10
9.09999
 20
17.3845
 11
0.912491
 21
15.5
  0
LINE
  8
0
 10
0.912491
 20
15.5
 11
0.913025
 21
15.416
  0
LINE
  8
0
 10
0.913025
 20
15.416
 11
0.92569
 21
15.0801
  0
LINE
  8
0
 10
0.92569
 20
15.0801
 11
0.955215
 21
14.7453
  0
LINE
  8
0
 10
0.955215
 20
14.7453
 11
1.00154
 21
14.4124
  0
LINE
  8
0
 10
1.00154
 20
14.4124
 11
1.06451
 21
14.0822
  0
LINE
  8
0
 10
1.06451
 20
14.0822
 11
1.14401
 21
13.7556
  0
LINE
  8
0
 10
1.14401
 20
13.7556
 11
1.23981
 21
13.4334
  0
LINE
  8
0
 10
1.23981
 20
13.4334
 11
1.35167
 21
13.1165
  0
LINE
  8
0
 10
1.35167
 20
13.1165
 11
1.47932
 21
12.8056
  0
LINE
  8
0
 10
1.47932
 20
12.8056
 11
1.62244
 21
12.5014
  0
LINE
  8
0
 10
1.62244
 20
12.5014
 11
1.78064
 21
12.2049
  0
LINE
  8
0
 10
1.78064
 20
12.2049
 11
1.95355
 21
11.9167
  0
LINE
  8
0
 10
1.95355
 20
11.9167
 11
2.14073
 21
11.6375
  0
LINE
  8
0
 10
2.14073
 20
11.6375
 11
2.34169
 21
11.3681
  0
LINE
  8
0
 10
2.34169
 20
11.3681
 11
2.55594
 21
11.1091
  0
LINE
  8
0
 10
2.55594
 20
11.1091
 11
2.78293
 21
10.8612
  0
LINE
  8
0
 10
2.78293
 20
10.8612
 11
3.02209
 21
10.625
  0
LINE
  8
0
 10
3.02209
 20
10.625
 11
3.27281
 21
10.4012
  0
LINE
  8
0
 10
3.27281
 20
10.4012
 11
3.53447
 21
10.1902
  0
LINE
  8
0
 10
3.53447
 20
10.1902
 11
3.80638
 21
9.99261
  0
LINE
  8
0
 10
3.80638
 20
9.99261
 11
4.08789
 21
9.80898
  0
LINE
  8
0
 10
4.08789
 20
9.80898
 11
4.37827
 21
9.63971
  0
LINE
  8
0
 10
4.37827
 20
9.63971
 11
4.67679
 21
9.48523
  0
LINE
  8
0
 10
4.67679
 20
9.48523
 11
4.98268
 21
9.34596
  0
LINE
  8
0
 10
4.98268
 20
9.34596
 11
5.2952
 21
9.22223
  0
LINE
  8
0
 10
5.2952
 20
9.22223
 11
5.61353
 21
9.11435
  0
LINE
  8
0
 10
5.61353
 20
9.11435
 11
5.93689
 21
9.02261
  0
LINE
  8
0
 10
5.93689
 20
9.02261
 11
6.26443
 21
8.94722
  0
LINE
  8
0
 10
6.26443
 20
8.94722
 11
6.59537
 21
8.8884
  0
LINE
  8
0
 10
6.59537
 20
8.8884
 11
6.92883
 21
8.84627
  0
LINE
  8
0
 10
6.92883
 20
8.84627
 11
7.26399
 21
8.82095
  0
LINE
  8
0
 10
7.26399
 20
8.82095
 11
7.59999
 21
8.8125
  0
LINE
  8
0
 10
7.59999
 20
8.8125
 11
15.475
 21
8.8125
  0
LINE
  8
0
 10
15.475
 20
8.8125
 11
15.475
 21
13.8125
  0
LINE
  8
0
 10
7.33951
 20
15.0043
 11
7.19662
 21
15.1115
  0
LINE
  8
0
 10
7.19662
 20
15.1115
 11
7.10103
 21
15.2458
  0
LINE
  8
0
 10
7.10103
 20
15.2458
 11
7.04248
 21
15.4473
  0
LINE
  8
0
 10
7.04248
 20
15.4473
 11
7.10426
 21
15.7605
  0
LINE
  8
0
 10
7.10426
 20
15.7605
 11
7.21155
 21
15.9034
  0
LINE
  8
0
 10
7.21155
 20
15.9034
 11
7.34576
 21
15.9989
  0
LINE
  8
0
 10
7.34576
 20
15.9989
 11
7.5473
 21
16.0575
  0
LINE
  8
0
 10
7.5473
 20
16.0575
 11
7.86047
 21
15.9957
  0
LINE
  8
0
 10
7.86047
 20
15.9957
 11
8.00336
 21
15.8884
  0
LINE
  8
0
 10
8.00336
 20
15.8884
 11
8.09895
 21
15.7542
  0
LINE
  8
0
 10
8.09895
 20
15.7542
 11
8.1564
 21
15.5632
  0
LINE
  8
0
 10
8.1564
 20
15.5632
 11
8.09895
 21
15.2458
  0
LINE
  8
0
 10
8.09895
 20
15.2458
 11
8.09572
 21
15.2395
  0
LINE
  8
0
 10
8.09572
 20
15.2395
 11
7.98843
 21
15.0966
  0
LINE
  8
0
 10
7.98843
 20
15.0966
 11
7.85422
 21
15.001
  0
LINE
  8
0
 10
7.85422
 20
15.001
 11
7.65268
 21
14.9425
  0
LINE
  8
0
 10
7.65268
 20
14.9425
 11
7.33951
 21
15.0043
  0
LINE
  8
0
 10
38.325
 20
14.3898
 11
24.075
 21
14.3898
  0
LINE
  8
0
 10
24.075
 20
14.3898
 11
24.075
 21
0.660172
  0
LINE
  8
0
 10
24.075
 20
0.660172
 11
38.325
 21
0.660172
  0
LINE
  8
0
 10
38.325
 20
0.660172
 11
38.325
 21
14.3898
  0
LINE
  8
0
 10
34.0125
 20
4.34746
 11
34.0125
 21
8.08983
  0
LINE
  8
0
 10
34.0125
 20
8.08983
 11
32.075
 21
8.08983
  0
LINE
  8
0
 10
32.075
 20
8.08983
 11
32.075
 21
8.33983
  0
LINE
  8
0
 10
32.075
 20
8.33983
 11
31.95
 21
8.33983
  0
LINE
  8
0
 10
31.95
 20
8.33983
 11
31.95
 21
13.3398
  0
LINE
  8
0
 10
31.95
 20
13.3398
 11
37.2
 21
13.3398
  0
LINE
  8
0
 10
37.2
 20
13.3398
 11
37.2
 21
10.8398
  0
LINE
  8
0
 10
37.2
 20
10.8398
 11
37.325
 21
10.8398
  0
LINE
  8
0
 10
37.325
 20
10.8398
 11
37.325
 21
8.33983
  0
LINE
  8
0
 10
37.325
 20
8.33983
 11
37.2
 21
8.33983
  0
LINE
  8
0
 10
37.2
 20
8.33983
 11
37.2
 21
8.08983
  0
LINE
  8
0
 10
37.2
 20
8.08983
 11
35.2625
 21
8.08983
  0
LINE
  8
0
 10
35.2625
 20
8.08983
 11
35.2625
 21
4.34746
  0
LINE
  8
0
 10
35.2625
 20
4.34746
 11
34.0125
 21
4.34746
  0
LINE
  8
0
 10
27.1375
 20
4.34746
 11
27.1375
 21
8.08983
  0
LINE
  8
0
 10
27.1375
 20
8.08983
 11
25.2
 21
8.08983
  0
LINE
  8
0
 10
25.2
 20
8.08983
 11
25.2
 21
8.33983
  0
LINE
  8
0
 10
25.2
 20
8.33983
 11
25.075
 21
8.33983
  0
LINE
  8
0
 10
25.075
 20
8.33983
 11
25.075
 21
10.8398
  0
LINE
  8
0
 10
25.075
 20
10.8398
 11
25.2
 21
10.8398
  0
LINE
  8
0
 10
25.2
 20
10.8398
 11
25.2
 21
13.3398
  0
LINE
  8
0
 10
25.2
 20
13.3398
 11
30.45
 21
13.3398
  0
LINE
  8
0
 10
30.45
 20
13.3398
 11
30.45
 21
8.33983
  0
LINE
  8
0
 10
30.45
 20
8.33983
 11
30.325
 21
8.33983
  0
LINE
  8
0
 10
30.325
 20
8.33983
 11
30.325
 21
8.08983
  0
LINE
  8
0
 10
30.325
 20
8.08983
 11
28.3875
 21
8.08983
  0
LINE
  8
0
 10
28.3875
 20
8.08983
 11
28.3875
 21
4.34746
  0
LINE
  8
0
 10
28.3875
 20
4.34746
 11
27.1375
 21
4.34746
  0
LINE
  8
0
 10
30.825
 20
1.66017
 11
30.825
 21
11.6445
  0
LINE
  8
0
 10
30.825
 20
11.6445
 11
31.575
 21
11.6445
  0
LINE
  8
0
 10
31.575
 20
11.6445
 11
31.575
 21
1.66017
  0
LINE
  8
0
 10
31.575
 20
1.66017
 11
30.825
 21
1.66017
  0
LINE
  8
0
 10
23.8875
 20
3.59999
 11
23.8869
 21
3.68402
  0
LINE
  8
0
 10
23.8869
 20
3.68402
 11
23.8743
 21
4.0199
  0
LINE
  8
0
 10
23.8743
 20
4.0199
 11
23.8448
 21
4.35471
  0
LINE
  8
0
 10
23.8448
 20
4.35471
 11
23.7984
 21
4.68762
  0
LINE
  8
0
 10
23.7984
 20
4.68762
 11
23.7355
 21
5.01778
  0
LINE
  8
0
 10
23.7355
 20
5.01778
 11
23.656
 21
5.34436
  0
LINE
  8
0
 10
23.656
 20
5.34436
 11
23.5602
 21
5.66653
  0
LINE
  8
0
 10
23.5602
 20
5.66653
 11
23.4483
 21
5.98349
  0
LINE
  8
0
 10
23.4483
 20
5.98349
 11
23.3206
 21
6.29442
  0
LINE
  8
0
 10
23.3206
 20
6.29442
 11
23.1775
 21
6.59854
  0
LINE
  8
0
 10
23.1775
 20
6.59854
 11
23.0193
 21
6.8951
  0
LINE
  8
0
 10
23.0193
 20
6.8951
 11
22.8464
 21
7.18332
  0
LINE
  8
0
 10
22.8464
 20
7.18332
 11
22.6592
 21
7.46249
  0
LINE
  8
0
 10
22.6592
 20
7.46249
 11
22.4583
 21
7.73192
  0
LINE
  8
0
 10
22.4583
 20
7.73192
 11
22.244
 21
7.99091
  0
LINE
  8
0
 10
22.244
 20
7.99091
 11
22.0171
 21
8.23878
  0
LINE
  8
0
 10
22.0171
 20
8.23878
 11
21.7779
 21
8.47496
  0
LINE
  8
0
 10
21.7779
 20
8.47496
 11
21.5272
 21
8.69882
  0
LINE
  8
0
 10
21.5272
 20
8.69882
 11
21.2655
 21
8.90979
  0
LINE
  8
0
 10
21.2655
 20
8.90979
 11
20.9936
 21
9.10736
  0
LINE
  8
0
 10
20.9936
 20
9.10736
 11
20.7121
 21
9.29102
  0
LINE
  8
0
 10
20.7121
 20
9.29102
 11
20.4217
 21
9.46028
  0
LINE
  8
0
 10
20.4217
 20
9.46028
 11
20.1232
 21
9.61476
  0
LINE
  8
0
 10
20.1232
 20
9.61476
 11
19.8173
 21
9.75403
  0
LINE
  8
0
 10
19.8173
 20
9.75403
 11
19.5048
 21
9.87776
  0
LINE
  8
0
 10
19.5048
 20
9.87776
 11
19.1865
 21
9.98564
  0
LINE
  8
0
 10
19.1865
 20
9.98564
 11
18.8631
 21
10.0774
  0
LINE
  8
0
 10
18.8631
 20
10.0774
 11
18.5356
 21
10.1528
  0
LINE
  8
0
 10
18.5356
 20
10.1528
 11
18.2046
 21
10.2116
  0
LINE
  8
0
 10
18.2046
 20
10.2116
 11
17.8712
 21
10.2537
  0
LINE
  8
0
 10
17.8712
 20
10.2537
 11
17.536
 21
10.279
  0
LINE
  8
0
 10
17.536
 20
10.279
 11
17.2
 21
10.2875
  0
LINE
  8
0
 10
17.2
 20
10.2875
 11
15.7
 21
10.2875
  0
LINE
  8
0
 10
15.7
 20
10.2875
 11
15.7
 21
7.78748
  0
LINE
  8
0
 10
15.7
 20
7.78748
 11
8.498
 21
7.78748
  0
LINE
  8
0
 10
8.498
 20
7.78748
 11
8.498
 21
5.28749
  0
LINE
  8
0
 10
8.498
 20
5.28749
 11
15.7
 21
5.28749
  0
LINE
  8
0
 10
15.7
 20
5.28749
 11
15.7
 21
1.71553
  0
LINE
  8
0
 10
15.7
 20
1.71553
 11
23.8875
 21
3.59999
  0
LINE
  8
0
 10
9.73689
 20
7.44545
 11
9.76584
 21
7.55531
  0
LINE
  8
0
 10
9.76584
 20
7.55531
 11
9.82858
 21
7.57591
  0
LINE
  8
0
 10
9.82858
 20
7.57591
 11
9.90854
 21
7.52623
  0
LINE
  8
0
 10
9.90854
 20
7.52623
 11
9.89934
 21
7.42181
  0
LINE
  8
0
 10
9.89934
 20
7.42181
 11
9.82143
 21
7.38605
  0
LINE
  8
0
 10
9.82143
 20
7.38605
 11
9.73689
 21
7.44545
  0
LINE
  8
0
 10
8.73689
 20
7.44545
 11
8.76584
 21
7.55531
  0
LINE
  8
0
 10
8.76584
 20
7.55531
 11
8.82858
 21
7.57591
  0
LINE
  8
0
 10
8.82858
 20
7.57591
 11
8.90854
 21
7.52623
  0
LINE
  8
0
 10
8.90854
 20
7.52623
 11
8.89934
 21
7.42181
  0
LINE
  8
0
 10
8.89934
 20
7.42181
 11
8.82143
 21
7.38605
  0
LINE
  8
0
 10
8.82143
 20
7.38605
 11
8.73689
 21
7.44545
  0
LINE
  8
0
 10
9.73689
 20
5.69547
 11
9.76584
 21
5.80533
  0
LINE
  8
0
 10
9.76584
 20
5.80533
 11
9.82858
 21
5.82593
  0
LINE
  8
0
 10
9.82858
 20
5.82593
 11
9.90854
 21
5.77625
  0
LINE
  8
0
 10
9.90854
 20
5.77625
 11
9.89934
 21
5.67183
  0
LINE
  8
0
 10
9.89934
 20
5.67183
 11
9.82143
 21
5.63606
  0
LINE
  8
0
 10
9.82143
 20
5.63606
 11
9.73689
 21
5.69547
  0
LINE
  8
0
 10
8.73689
 20
5.69547
 11
8.76584
 21
5.80533
  0
LINE
  8
0
 10
8.76584
 20
5.80533
 11
8.82858
 21
5.82593
  0
LINE
  8
0
 10
8.82858
 20
5.82593
 11
8.90854
 21
5.77625
  0
LINE
  8
0
 10
8.90854
 20
5.77625
 11
8.89934
 21
5.67183
  0
LINE
  8
0
 10
8.89934
 20
5.67183
 11
8.82143
 21
5.63606
  0
LINE
  8
0
 10
8.82143
 20
5.63606
 11
8.73689
 21
5.69547
  0
LINE
  8
0
 10
17.1233
 20
4.53575
 11
17.1214
 21
4.53819
  0
LINE
  8
0
 10
17.1214
 20
4.53819
 11
17.1001
 21
4.60564
  0
LINE
  8
0
 10
17.1001
 20
4.60564
 11
17.1358
 21
4.67664
  0
LINE
  8
0
 10
17.1358
 20
4.67664
 11
17.2056
 21
4.69983
  0
LINE
  8
0
 10
17.2056
 20
4.69983
 11
17.2766
 21
4.66422
  0
LINE
  8
0
 10
17.2766
 20
4.66422
 11
17.2998
 21
4.59433
  0
LINE
  8
0
 10
17.2998
 20
4.59433
 11
17.2642
 21
4.52333
  0
LINE
  8
0
 10
17.2642
 20
4.52333
 11
17.1943
 21
4.50014
  0
LINE
  8
0
 10
17.1943
 20
4.50014
 11
17.1233
 21
4.53575
  0
LINE
  8
0
 10
16.9395
 20
3.10426
 11
16.7966
 21
3.21155
  0
LINE
  8
0
 10
16.7966
 20
3.21155
 11
16.701
 21
3.34576
  0
LINE
  8
0
 10
16.701
 20
3.34576
 11
16.6436
 21
3.5368
  0
LINE
  8
0
 10
16.6436
 20
3.5368
 11
16.701
 21
3.85422
  0
LINE
  8
0
 10
16.701
 20
3.85422
 11
16.7043
 21
3.86047
  0
LINE
  8
0
 10
16.7043
 20
3.86047
 11
16.8115
 21
4.00336
  0
LINE
  8
0
 10
16.8115
 20
4.00336
 11
16.9458
 21
4.09895
  0
LINE
  8
0
 10
16.9458
 20
4.09895
 11
17.1473
 21
4.1575
  0
LINE
  8
0
 10
17.1473
 20
4.1575
 11
17.4605
 21
4.09572
  0
LINE
  8
0
 10
17.4605
 20
4.09572
 11
17.6033
 21
3.98843
  0
LINE
  8
0
 10
17.6033
 20
3.98843
 11
17.6989
 21
3.85422
  0
LINE
  8
0
 10
17.6989
 20
3.85422
 11
17.7575
 21
3.65268
  0
LINE
  8
0
 10
17.7575
 20
3.65268
 11
17.6957
 21
3.33951
  0
LINE
  8
0
 10
17.6957
 20
3.33951
 11
17.5884
 21
3.19662
  0
LINE
  8
0
 10
17.5884
 20
3.19662
 11
17.4542
 21
3.10103
  0
LINE
  8
0
 10
17.4542
 20
3.10103
 11
17.2527
 21
3.04248
  0
LINE
  8
0
 10
17.2527
 20
3.04248
 11
16.9395
 21
3.10426
  0
LINE
  8
0
 10
18.1233
 20
3.53577
 11
18.1213
 21
3.53821
  0
LINE
  8
0
 10
18.1213
 20
3.53821
 11
18.1001
 21
3.60564
  0
LINE
  8
0
 10
18.1001
 20
3.60564
 11
18.1357
 21
3.67664
  0
LINE
  8
0
 10
18.1357
 20
3.67664
 11
18.2056
 21
3.69983
  0
LINE
  8
0
 10
18.2056
 20
3.69983
 11
18.2766
 21
3.66422
  0
LINE
  8
0
 10
18.2766
 20
3.66422
 11
18.2998
 21
3.59435
  0
LINE
  8
0
 10
18.2998
 20
3.59435
 11
18.2642
 21
3.52335
  0
LINE
  8
0
 10
18.2642
 20
3.52335
 11
18.1943
 21
3.50015
  0
LINE
  8
0
 10
18.1943
 20
3.50015
 11
18.1233
 21
3.53577
  0
LINE
  8
0
 10
16.1233
 20
3.53577
 11
16.1214
 21
3.53821
  0
LINE
  8
0
 10
16.1214
 20
3.53821
 11
16.1001
 21
3.60564
  0
LINE
  8
0
 10
16.1001
 20
3.60564
 11
16.1358
 21
3.67664
  0
LINE
  8
0
 10
16.1358
 20
3.67664
 11
16.2056
 21
3.69983
  0
LINE
  8
0
 10
16.2056
 20
3.69983
 11
16.2766
 21
3.66422
  0
LINE
  8
0
 10
16.2766
 20
3.66422
 11
16.2998
 21
3.59435
  0
LINE
  8
0
 10
16.2998
 20
3.59435
 11
16.2642
 21
3.52335
  0
LINE
  8
0
 10
16.2642
 20
3.52335
 11
16.1943
 21
3.50015
  0
LINE
  8
0
 10
16.1943
 20
3.50015
 11
16.1233
 21
3.53577
  0
LINE
  8
0
 10
17.1233
 20
2.53577
 11
17.1214
 21
2.53821
  0
LINE
  8
0
 10
17.1214
 20
2.53821
 11
17.1001
 21
2.60565
  0
LINE
  8
0
 10
17.1001
 20
2.60565
 11
17.1358
 21
2.67665
  0
LINE
  8
0
 10
17.1358
 20
2.67665
 11
17.2056
 21
2.69984
  0
LINE
  8
0
 10
17.2056
 20
2.69984
 11
17.2766
 21
2.66423
  0
LINE
  8
0
 10
17.2766
 20
2.66423
 11
17.2998
 21
2.59435
  0
LINE
  8
0
 10
17.2998
 20
2.59435
 11
17.2642
 21
2.52335
  0
LINE
  8
0
 10
17.2642
 20
2.52335
 11
17.1943
 21
2.50015
  0
LINE
  8
0
 10
17.1943
 20
2.50015
 11
17.1233
 21
2.53577
  0
LINE
  8
0
 10
8.29997
 20
2.6125
 11
15.502
 21
2.6125
  0
LINE
  8
0
 10
15.502
 20
2.6125
 11
15.502
 21
5.11249
  0
LINE
  8
0
 10
15.502
 20
5.11249
 11
8.29999
 21
5.11249
  0
LINE
  8
0
 10
8.29999
 20
5.11249
 11
8.29999
 21
8.68445
  0
LINE
  8
0
 10
8.29999
 20
8.68445
 11
0.112488
 21
6.79997
  0
LINE
  8
0
 10
0.112488
 20
6.79997
 11
0.113022
 21
6.71594
  0
LINE
  8
0
 10
0.113022
 20
6.71594
 11
0.125687
 21
6.38007
  0
LINE
  8
0
 10
0.125687
 20
6.38007
 11
0.155212
 21
6.04526
  0
LINE
  8
0
 10
0.155212
 20
6.04526
 11
0.201538
 21
5.71234
  0
LINE
  8
0
 10
0.201538
 20
5.71234
 11
0.264511
 21
5.38219
  0
LINE
  8
0
 10
0.264511
 20
5.38219
 11
0.344009
 21
5.0556
  0
LINE
  8
0
 10
0.344009
 20
5.0556
 11
0.439804
 21
4.73343
  0
LINE
  8
0
 10
0.439804
 20
4.73343
 11
0.551666
 21
4.41647
  0
LINE
  8
0
 10
0.551666
 20
4.41647
 11
0.679321
 21
4.10555
  0
LINE
  8
0
 10
0.679321
 20
4.10555
 11
0.822433
 21
3.80142
  0
LINE
  8
0
 10
0.822433
 20
3.80142
 11
0.980637
 21
3.50487
  0
LINE
  8
0
 10
0.980637
 20
3.50487
 11
1.15355
 21
3.21664
  0
LINE
  8
0
 10
1.15355
 20
3.21664
 11
1.34073
 21
2.93748
  0
LINE
  8
0
 10
1.34073
 20
2.93748
 11
1.54169
 21
2.66806
  0
LINE
  8
0
 10
1.54169
 20
2.66806
 11
1.75594
 21
2.40907
  0
LINE
  8
0
 10
1.75594
 20
2.40907
 11
1.98293
 21
2.16119
  0
LINE
  8
0
 10
1.98293
 20
2.16119
 11
2.22209
 21
1.92502
  0
LINE
  8
0
 10
2.22209
 20
1.92502
 11
2.47281
 21
1.70116
  0
LINE
  8
0
 10
2.47281
 20
1.70116
 11
2.73447
 21
1.49019
  0
LINE
  8
0
 10
2.73447
 20
1.49019
 11
3.00636
 21
1.29262
  0
LINE
  8
0
 10
3.00636
 20
1.29262
 11
3.28787
 21
1.10896
  0
LINE
  8
0
 10
3.28787
 20
1.10896
 11
3.57825
 21
0.939697
  0
LINE
  8
0
 10
3.57825
 20
0.939697
 11
3.87677
 21
0.785217
  0
LINE
  8
0
 10
3.87677
 20
0.785217
 11
4.18266
 21
0.64595
  0
LINE
  8
0
 10
4.18266
 20
0.64595
 11
4.49518
 21
0.522217
  0
LINE
  8
0
 10
4.49518
 20
0.522217
 11
4.81351
 21
0.414337
  0
LINE
  8
0
 10
4.81351
 20
0.414337
 11
5.13687
 21
0.322601
  0
LINE
  8
0
 10
5.13687
 20
0.322601
 11
5.46442
 21
0.247208
  0
LINE
  8
0
 10
5.46442
 20
0.247208
 11
5.79535
 21
0.188385
  0
LINE
  8
0
 10
5.79535
 20
0.188385
 11
6.12881
 21
0.146255
  0
LINE
  8
0
 10
6.12881
 20
0.146255
 11
6.46397
 21
0.120941
  0
LINE
  8
0
 10
6.46397
 20
0.120941
 11
6.79997
 21
0.112488
  0
LINE
  8
0
 10
6.79997
 20
0.112488
 11
8.29997
 21
0.112488
  0
LINE
  8
0
 10
8.29997
 20
0.112488
 11
8.29997
 21
2.6125
  0
LINE
  8
0
 10
6.72334
 20
7.73575
 11
6.70015
 21
7.80563
  0
LINE
  8
0
 10
6.70015
 20
7.80563
 11
6.73576
 21
7.87663
  0
LINE
  8
0
 10
6.73576
 20
7.87663
 11
6.80563
 21
7.89983
  0
LINE
  8
0
 10
6.80563
 20
7.89983
 11
6.87663
 21
7.86421
  0
LINE
  8
0
 10
6.87663
 20
7.86421
 11
6.87862
 21
7.86177
  0
LINE
  8
0
 10
6.87862
 20
7.86177
 11
6.89983
 21
7.79433
  0
LINE
  8
0
 10
6.89983
 20
7.79433
 11
6.86421
 21
7.72333
  0
LINE
  8
0
 10
6.86421
 20
7.72333
 11
6.79434
 21
7.70013
  0
LINE
  8
0
 10
6.79434
 20
7.70013
 11
6.72334
 21
7.73575
  0
LINE
  8
0
 10
6.53951
 20
6.30426
 11
6.39662
 21
6.41154
  0
LINE
  8
0
 10
6.39662
 20
6.41154
 11
6.30103
 21
6.54576
  0
LINE
  8
0
 10
6.30103
 20
6.54576
 11
6.24248
 21
6.7473
  0
LINE
  8
0
 10
6.24248
 20
6.7473
 11
6.30426
 21
7.06047
  0
LINE
  8
0
 10
6.30426
 20
7.06047
 11
6.41154
 21
7.20335
  0
LINE
  8
0
 10
6.41154
 20
7.20335
 11
6.54576
 21
7.29895
  0
LINE
  8
0
 10
6.54576
 20
7.29895
 11
6.7473
 21
7.3575
  0
LINE
  8
0
 10
6.7473
 20
7.3575
 11
7.06047
 21
7.29572
  0
LINE
  8
0
 10
7.06047
 20
7.29572
 11
7.20335
 21
7.18843
  0
LINE
  8
0
 10
7.20335
 20
7.18843
 11
7.29895
 21
7.05421
  0
LINE
  8
0
 10
7.29895
 20
7.05421
 11
7.3564
 21
6.86317
  0
LINE
  8
0
 10
7.3564
 20
6.86317
 11
7.29895
 21
6.54576
  0
LINE
  8
0
 10
7.29895
 20
6.54576
 11
7.29572
 21
6.53951
  0
LINE
  8
0
 10
7.29572
 20
6.53951
 11
7.18843
 21
6.39662
  0
LINE
  8
0
 10
7.18843
 20
6.39662
 11
7.05421
 21
6.30103
  0
LINE
  8
0
 10
7.05421
 20
6.30103
 11
6.85268
 21
6.24248
  0
LINE
  8
0
 10
6.85268
 20
6.24248
 11
6.53951
 21
6.30426
  0
LINE
  8
0
 10
7.72333
 20
6.73576
 11
7.70013
 21
6.80563
  0
LINE
  8
0
 10
7.70013
 20
6.80563
 11
7.73575
 21
6.87663
  0
LINE
  8
0
 10
7.73575
 20
6.87663
 11
7.80563
 21
6.89983
  0
LINE
  8
0
 10
7.80563
 20
6.89983
 11
7.87663
 21
6.86421
  0
LINE
  8
0
 10
7.87663
 20
6.86421
 11
7.87862
 21
6.86177
  0
LINE
  8
0
 10
7.87862
 20
6.86177
 11
7.89983
 21
6.79434
  0
LINE
  8
0
 10
7.89983
 20
6.79434
 11
7.86421
 21
6.72334
  0
LINE
  8
0
 10
7.86421
 20
6.72334
 11
7.79433
 21
6.70015
  0
LINE
  8
0
 10
7.79433
 20
6.70015
 11
7.72333
 21
6.73576
  0
LINE
  8
0
 10
5.72334
 20
6.73575
 11
5.70015
 21
6.80562
  0
LINE
  8
0
 10
5.70015
 20
6.80562
 11
5.73576
 21
6.87662
  0
LINE
  8
0
 10
5.73576
 20
6.87662
 11
5.80565
 21
6.89981
  0
LINE
  8
0
 10
5.80565
 20
6.89981
 11
5.87665
 21
6.8642
  0
LINE
  8
0
 10
5.87665
 20
6.8642
 11
5.87863
 21
6.86176
  0
LINE
  8
0
 10
5.87863
 20
6.86176
 11
5.89984
 21
6.79433
  0
LINE
  8
0
 10
5.89984
 20
6.79433
 11
5.86423
 21
6.72333
  0
LINE
  8
0
 10
5.86423
 20
6.72333
 11
5.79434
 21
6.70013
  0
LINE
  8
0
 10
5.79434
 20
6.70013
 11
5.72334
 21
6.73575
  0
LINE
  8
0
 10
6.72333
 20
5.73576
 11
6.70013
 21
5.80565
  0
LINE
  8
0
 10
6.70013
 20
5.80565
 11
6.73575
 21
5.87665
  0
LINE
  8
0
 10
6.73575
 20
5.87665
 11
6.80562
 21
5.89984
  0
LINE
  8
0
 10
6.80562
 20
5.89984
 11
6.87662
 21
5.86423
  0
LINE
  8
0
 10
6.87662
 20
5.86423
 11
6.8786
 21
5.86179
  0
LINE
  8
0
 10
6.8786
 20
5.86179
 11
6.89981
 21
5.79434
  0
LINE
  8
0
 10
6.89981
 20
5.79434
 11
6.8642
 21
5.72334
  0
LINE
  8
0
 10
6.8642
 20
5.72334
 11
6.79433
 21
5.70015
  0
LINE
  8
0
 10
6.79433
 20
5.70015
 11
6.72333
 21
5.73576
  0
LINE
  8
0
 10
14.0914
 20
4.62373
 11
14.1006
 21
4.72815
  0
LINE
  8
0
 10
14.1006
 20
4.72815
 11
14.1785
 21
4.76392
  0
LINE
  8
0
 10
14.1785
 20
4.76392
 11
14.2631
 21
4.70451
  0
LINE
  8
0
 10
14.2631
 20
4.70451
 11
14.2341
 21
4.59465
  0
LINE
  8
0
 10
14.2341
 20
4.59465
 11
14.1714
 21
4.57405
  0
LINE
  8
0
 10
14.1714
 20
4.57405
 11
14.0914
 21
4.62373
  0
LINE
  8
0
 10
15.0914
 20
4.62373
 11
15.1006
 21
4.72815
  0
LINE
  8
0
 10
15.1006
 20
4.72815
 11
15.1785
 21
4.76392
  0
LINE
  8
0
 10
15.1785
 20
4.76392
 11
15.2631
 21
4.70451
  0
LINE
  8
0
 10
15.2631
 20
4.70451
 11
15.2341
 21
4.59465
  0
LINE
  8
0
 10
15.2341
 20
4.59465
 11
15.1714
 21
4.57405
  0
LINE
  8
0
 10
15.1714
 20
4.57405
 11
15.0914
 21
4.62373
  0
LINE
  8
0
 10
14.0914
 20
2.87375
 11
14.1006
 21
2.97816
  0
LINE
  8
0
 10
14.1006
 20
2.97816
 11
14.1785
 21
3.01393
  0
LINE
  8
0
 10
14.1785
 20
3.01393
 11
14.2631
 21
2.95453
  0
LINE
  8
0
 10
14.2631
 20
2.95453
 11
14.2341
 21
2.84467
  0
LINE
  8
0
 10
14.2341
 20
2.84467
 11
14.1714
 21
2.82407
  0
LINE
  8
0
 10
14.1714
 20
2.82407
 11
14.0914
 21
2.87375
  0
LINE
  8
0
 10
15.0914
 20
2.87375
 11
15.1006
 21
2.97816
  0
LINE
  8
0
 10
15.1006
 20
2.97816
 11
15.1785
 21
3.01393
  0
LINE
  8
0
 10
15.1785
 20
3.01393
 11
15.2631
 21
2.95453
  0
LINE
  8
0
 10
15.2631
 20
2.95453
 11
15.2341
 21
2.84467
  0
LINE
  8
0
 10
15.2341
 20
2.84467
 11
15.1714
 21
2.82407
  0
LINE
  8
0
 10
15.1714
 20
2.82407
 11
15.0914
 21
2.87375
  0
ENDSEC
  0
SECTION
  2
OBJECTS
  0
DICTIONARY
  0
ENDSEC
  0
EOF
