  0
SECTION
  2
BLOCKS
  0
ENDSEC
  0
SECTION
  2
ENTITIES
  0
LINE
  8
0
 10
15.35
 20
15.6125
 11
9.09999
 21
15.6125
  0
LINE
  8
0
 10
9.09999
 20
15.6125
 11
9.09999
 21
23.9875
  0
LINE
  8
0
 10
9.09999
 20
23.9875
 11
7.59999
 21
23.9875
  0
LINE
  8
0
 10
7.59999
 20
23.9875
 11
7.42494
 21
23.9852
  0
LINE
  8
0
 10
7.42494
 20
23.9852
 11
7.25
 21
23.9783
  0
LINE
  8
0
 10
7.25
 20
23.9783
 11
7.0753
 21
23.9668
  0
LINE
  8
0
 10
7.0753
 20
23.9668
 11
6.90097
 21
23.9508
  0
LINE
  8
0
 10
6.90097
 20
23.9508
 11
6.72711
 21
23.9303
  0
LINE
  8
0
 10
6.72711
 20
23.9303
 11
6.55385
 21
23.9051
  0
LINE
  8
0
 10
6.55385
 20
23.9051
 11
6.3813
 21
23.8755
  0
LINE
  8
0
 10
6.3813
 20
23.8755
 11
6.20959
 21
23.8413
  0
LINE
  8
0
 10
6.20959
 20
23.8413
 11
6.03883
 21
23.8027
  0
LINE
  8
0
 10
6.03883
 20
23.8027
 11
5.86914
 21
23.7596
  0
LINE
  8
0
 10
5.86914
 20
23.7596
 11
5.70065
 21
23.7121
  0
LINE
  8
0
 10
5.70065
 20
23.7121
 11
5.53345
 21
23.6602
  0
LINE
  8
0
 10
5.53345
 20
23.6602
 11
5.36766
 21
23.6039
  0
LINE
  8
0
 10
5.36766
 20
23.6039
 11
5.20341
 21
23.5433
  0
LINE
  8
0
 10
5.20341
 20
23.5433
 11
5.0408
 21
23.4784
  0
LINE
  8
0
 10
5.0408
 20
23.4784
 11
4.87994
 21
23.4093
  0
LINE
  8
0
 10
4.87994
 20
23.4093
 11
4.72096
 21
23.336
  0
LINE
  8
0
 10
4.72096
 20
23.336
 11
4.56393
 21
23.2586
  0
LINE
  8
0
 10
4.56393
 20
23.2586
 11
4.409
 21
23.177
  0
LINE
  8
0
 10
4.409
 20
23.177
 11
4.25626
 21
23.0915
  0
LINE
  8
0
 10
4.25626
 20
23.0915
 11
4.10579
 21
23.002
  0
LINE
  8
0
 10
4.10579
 20
23.002
 11
3.95772
 21
22.9086
  0
LINE
  8
0
 10
3.95772
 20
22.9086
 11
3.81216
 21
22.8113
  0
LINE
  8
0
 10
3.81216
 20
22.8113
 11
3.66919
 21
22.7103
  0
LINE
  8
0
 10
3.66919
 20
22.7103
 11
3.5289
 21
22.6055
  0
LINE
  8
0
 10
3.5289
 20
22.6055
 11
3.39142
 21
22.4971
  0
LINE
  8
0
 10
3.39142
 20
22.4971
 11
3.25682
 21
22.3852
  0
LINE
  8
0
 10
3.25682
 20
22.3852
 11
3.12518
 21
22.2697
  0
LINE
  8
0
 10
3.12518
 20
22.2697
 11
2.99663
 21
22.1509
  0
LINE
  8
0
 10
2.99663
 20
22.1509
 11
2.87122
 21
22.0287
  0
LINE
  8
0
 10
2.87122
 20
22.0287
 11
2.74905
 21
21.9033
  0
LINE
  8
0
 10
2.74905
 20
21.9033
 11
2.63022
 21
21.7748
  0
LINE
  8
0
 10
2.63022
 20
21.7748
 11
2.51479
 21
21.6431
  0
LINE
  8
0
 10
2.51479
 20
21.6431
 11
2.40283
 21
21.5085
  0
LINE
  8
0
 10
2.40283
 20
21.5085
 11
2.29445
 21
21.3711
  0
LINE
  8
0
 10
2.29445
 20
21.3711
 11
2.1897
 21
21.2308
  0
LINE
  8
0
 10
2.1897
 20
21.2308
 11
2.08865
 21
21.0878
  0
LINE
  8
0
 10
2.08865
 20
21.0878
 11
1.99139
 21
20.9422
  0
LINE
  8
0
 10
1.99139
 20
20.9422
 11
1.89796
 21
20.7942
  0
LINE
  8
0
 10
1.89796
 20
20.7942
 11
1.80846
 21
20.6437
  0
LINE
  8
0
 10
1.80846
 20
20.6437
 11
1.72292
 21
20.491
  0
LINE
  8
0
 10
1.72292
 20
20.491
 11
1.64139
 21
20.336
  0
LINE
  8
0
 10
1.64139
 20
20.336
 11
1.56396
 21
20.179
  0
LINE
  8
0
 10
1.56396
 20
20.179
 11
1.49066
 21
20.02
  0
LINE
  8
0
 10
1.49066
 20
20.02
 11
1.42155
 21
19.8592
  0
LINE
  8
0
 10
1.42155
 20
19.8592
 11
1.35667
 21
19.6965
  0
LINE
  8
0
 10
1.35667
 20
19.6965
 11
1.29608
 21
19.5323
  0
LINE
  8
0
 10
1.29608
 20
19.5323
 11
1.23981
 21
19.3665
  0
LINE
  8
0
 10
1.23981
 20
19.3665
 11
1.1879
 21
19.1993
  0
LINE
  8
0
 10
1.1879
 20
19.1993
 11
1.14037
 21
19.0308
  0
LINE
  8
0
 10
1.14037
 20
19.0308
 11
1.09727
 21
18.8611
  0
LINE
  8
0
 10
1.09727
 20
18.8611
 11
1.05864
 21
18.6904
  0
LINE
  8
0
 10
1.05864
 20
18.6904
 11
1.02448
 21
18.5187
  0
LINE
  8
0
 10
1.02448
 20
18.5187
 11
0.994827
 21
18.3461
  0
LINE
  8
0
 10
0.994827
 20
18.3461
 11
0.969711
 21
18.1729
  0
LINE
  8
0
 10
0.969711
 20
18.1729
 11
0.949127
 21
17.999
  0
LINE
  8
0
 10
0.949127
 20
17.999
 11
0.933121
 21
17.8247
  0
LINE
  8
0
 10
0.933121
 20
17.8247
 11
0.921661
 21
17.65
  0
LINE
  8
0
 10
0.921661
 20
17.65
 11
0.914795
 21
17.475
  0
LINE
  8
0
 10
0.914795
 20
17.475
 11
0.912491
 21
17.3
  0
LINE
  8
0
 10
0.912491
 20
17.3
 11
0.914795
 21
17.1249
  0
LINE
  8
0
 10
0.914795
 20
17.1249
 11
0.921661
 21
16.95
  0
LINE
  8
0
 10
0.921661
 20
16.95
 11
0.933121
 21
16.7753
  0
LINE
  8
0
 10
0.933121
 20
16.7753
 11
0.949127
 21
16.601
  0
LINE
  8
0
 10
0.949127
 20
16.601
 11
0.969711
 21
16.4271
  0
LINE
  8
0
 10
0.969711
 20
16.4271
 11
0.994827
 21
16.2538
  0
LINE
  8
0
 10
0.994827
 20
16.2538
 11
1.02448
 21
16.0813
  0
LINE
  8
0
 10
1.02448
 20
16.0813
 11
1.05864
 21
15.9096
  0
LINE
  8
0
 10
1.05864
 20
15.9096
 11
1.09727
 21
15.7388
  0
LINE
  8
0
 10
1.09727
 20
15.7388
 11
1.14037
 21
15.5691
  0
LINE
  8
0
 10
1.14037
 20
15.5691
 11
1.1879
 21
15.4006
  0
LINE
  8
0
 10
1.1879
 20
15.4006
 11
1.23981
 21
15.2334
  0
LINE
  8
0
 10
1.23981
 20
15.2334
 11
1.29608
 21
15.0676
  0
LINE
  8
0
 10
1.29608
 20
15.0676
 11
1.35667
 21
14.9034
  0
LINE
  8
0
 10
1.35667
 20
14.9034
 11
1.42155
 21
14.7408
  0
LINE
  8
0
 10
1.42155
 20
14.7408
 11
1.49066
 21
14.5799
  0
LINE
  8
0
 10
1.49066
 20
14.5799
 11
1.56396
 21
14.4209
  0
LINE
  8
0
 10
1.56396
 20
14.4209
 11
1.64139
 21
14.2639
  0
LINE
  8
0
 10
1.64139
 20
14.2639
 11
1.72292
 21
14.109
  0
LINE
  8
0
 10
1.72292
 20
14.109
 11
1.80846
 21
13.9562
  0
LINE
  8
0
 10
1.80846
 20
13.9562
 11
1.89796
 21
13.8058
  0
LINE
  8
0
 10
1.89796
 20
13.8058
 11
1.99139
 21
13.6577
  0
LINE
  8
0
 10
1.99139
 20
13.6577
 11
2.08865
 21
13.5121
  0
LINE
  8
0
 10
2.08865
 20
13.5121
 11
2.1897
 21
13.3692
  0
LINE
  8
0
 10
2.1897
 20
13.3692
 11
2.29445
 21
13.2289
  0
LINE
  8
0
 10
2.29445
 20
13.2289
 11
2.40283
 21
13.0914
  0
LINE
  8
0
 10
2.40283
 20
13.0914
 11
2.51479
 21
12.9568
  0
LINE
  8
0
 10
2.51479
 20
12.9568
 11
2.63022
 21
12.8252
  0
LINE
  8
0
 10
2.63022
 20
12.8252
 11
2.74905
 21
12.6966
  0
LINE
  8
0
 10
2.74905
 20
12.6966
 11
2.87122
 21
12.5712
  0
LINE
  8
0
 10
2.87122
 20
12.5712
 11
2.99663
 21
12.449
  0
LINE
  8
0
 10
2.99663
 20
12.449
 11
3.12518
 21
12.3302
  0
LINE
  8
0
 10
3.12518
 20
12.3302
 11
3.25682
 21
12.2148
  0
LINE
  8
0
 10
3.25682
 20
12.2148
 11
3.39142
 21
12.1028
  0
LINE
  8
0
 10
3.39142
 20
12.1028
 11
3.5289
 21
11.9944
  0
LINE
  8
0
 10
3.5289
 20
11.9944
 11
3.66919
 21
11.8897
  0
LINE
  8
0
 10
3.66919
 20
11.8897
 11
3.81216
 21
11.7886
  0
LINE
  8
0
 10
3.81216
 20
11.7886
 11
3.95772
 21
11.6914
  0
LINE
  8
0
 10
3.95772
 20
11.6914
 11
4.10579
 21
11.598
  0
LINE
  8
0
 10
4.10579
 20
11.598
 11
4.25626
 21
11.5085
  0
LINE
  8
0
 10
4.25626
 20
11.5085
 11
4.409
 21
11.4229
  0
LINE
  8
0
 10
4.409
 20
11.4229
 11
4.56393
 21
11.3414
  0
LINE
  8
0
 10
4.56393
 20
11.3414
 11
4.72096
 21
11.264
  0
LINE
  8
0
 10
4.72096
 20
11.264
 11
4.87994
 21
11.1907
  0
LINE
  8
0
 10
4.87994
 20
11.1907
 11
5.0408
 21
11.1216
  0
LINE
  8
0
 10
5.0408
 20
11.1216
 11
5.20341
 21
11.0567
  0
LINE
  8
0
 10
5.20341
 20
11.0567
 11
5.36766
 21
10.9961
  0
LINE
  8
0
 10
5.36766
 20
10.9961
 11
5.53345
 21
10.9398
  0
LINE
  8
0
 10
5.53345
 20
10.9398
 11
5.70065
 21
10.8879
  0
LINE
  8
0
 10
5.70065
 20
10.8879
 11
5.86914
 21
10.8404
  0
LINE
  8
0
 10
5.86914
 20
10.8404
 11
6.03883
 21
10.7973
  0
LINE
  8
0
 10
6.03883
 20
10.7973
 11
6.20959
 21
10.7586
  0
LINE
  8
0
 10
6.20959
 20
10.7586
 11
6.3813
 21
10.7245
  0
LINE
  8
0
 10
6.3813
 20
10.7245
 11
6.55385
 21
10.6948
  0
LINE
  8
0
 10
6.55385
 20
10.6948
 11
6.72711
 21
10.6697
  0
LINE
  8
0
 10
6.72711
 20
10.6697
 11
6.90097
 21
10.6491
  0
LINE
  8
0
 10
6.90097
 20
10.6491
 11
7.0753
 21
10.6331
  0
LINE
  8
0
 10
7.0753
 20
10.6331
 11
7.25
 21
10.6217
  0
LINE
  8
0
 10
7.25
 20
10.6217
 11
7.42494
 21
10.6148
  0
LINE
  8
0
 10
7.42494
 20
10.6148
 11
7.59999
 21
10.6125
  0
LINE
  8
0
 10
7.59999
 20
10.6125
 11
15.35
 21
10.6125
  0
LINE
  8
0
 10
15.35
 20
10.6125
 11
15.35
 21
15.6125
  0
LINE
  8
0
 10
7.54146
 20
16.743
 11
7.45506
 21
16.7591
  0
LINE
  8
0
 10
7.45506
 20
16.7591
 11
7.37222
 21
16.7884
  0
LINE
  8
0
 10
7.37222
 20
16.7884
 11
7.295
 21
16.8303
  0
LINE
  8
0
 10
7.295
 20
16.8303
 11
7.22528
 21
16.8838
  0
LINE
  8
0
 10
7.22528
 20
16.8838
 11
7.16479
 21
16.9476
  0
LINE
  8
0
 10
7.16479
 20
16.9476
 11
7.11502
 21
17.02
  0
LINE
  8
0
 10
7.11502
 20
17.02
 11
7.07719
 21
17.0993
  0
LINE
  8
0
 10
7.07719
 20
17.0993
 11
7.05223
 21
17.1835
  0
LINE
  8
0
 10
7.05223
 20
17.1835
 11
7.04077
 21
17.2707
  0
LINE
  8
0
 10
7.04077
 20
17.2707
 11
7.04306
 21
17.3585
  0
LINE
  8
0
 10
7.04306
 20
17.3585
 11
7.05908
 21
17.4449
  0
LINE
  8
0
 10
7.05908
 20
17.4449
 11
7.08841
 21
17.5277
  0
LINE
  8
0
 10
7.08841
 20
17.5277
 11
7.13034
 21
17.605
  0
LINE
  8
0
 10
7.13034
 20
17.605
 11
7.18384
 21
17.6747
  0
LINE
  8
0
 10
7.18384
 20
17.6747
 11
7.24757
 21
17.7352
  0
LINE
  8
0
 10
7.24757
 20
17.7352
 11
7.31999
 21
17.7849
  0
LINE
  8
0
 10
7.31999
 20
17.7849
 11
7.39931
 21
17.8228
  0
LINE
  8
0
 10
7.39931
 20
17.8228
 11
7.48357
 21
17.8477
  0
LINE
  8
0
 10
7.48357
 20
17.8477
 11
7.57069
 21
17.8592
  0
LINE
  8
0
 10
7.57069
 20
17.8592
 11
7.65852
 21
17.8569
  0
LINE
  8
0
 10
7.65852
 20
17.8569
 11
7.74492
 21
17.8409
  0
LINE
  8
0
 10
7.74492
 20
17.8409
 11
7.82776
 21
17.8116
  0
LINE
  8
0
 10
7.82776
 20
17.8116
 11
7.90498
 21
17.7696
  0
LINE
  8
0
 10
7.90498
 20
17.7696
 11
7.9747
 21
17.7161
  0
LINE
  8
0
 10
7.9747
 20
17.7161
 11
8.03519
 21
17.6524
  0
LINE
  8
0
 10
8.03519
 20
17.6524
 11
8.08496
 21
17.58
  0
LINE
  8
0
 10
8.08496
 20
17.58
 11
8.12279
 21
17.5007
  0
LINE
  8
0
 10
8.12279
 20
17.5007
 11
8.14775
 21
17.4164
  0
LINE
  8
0
 10
8.14775
 20
17.4164
 11
8.15921
 21
17.3293
  0
LINE
  8
0
 10
8.15921
 20
17.3293
 11
8.15692
 21
17.2415
  0
LINE
  8
0
 10
8.15692
 20
17.2415
 11
8.1409
 21
17.1551
  0
LINE
  8
0
 10
8.1409
 20
17.1551
 11
8.11157
 21
17.0722
  0
LINE
  8
0
 10
8.11157
 20
17.0722
 11
8.06964
 21
16.995
  0
LINE
  8
0
 10
8.06964
 20
16.995
 11
8.01614
 21
16.9253
  0
LINE
  8
0
 10
8.01614
 20
16.9253
 11
7.95241
 21
16.8648
  0
LINE
  8
0
 10
7.95241
 20
16.8648
 11
7.87999
 21
16.815
  0
LINE
  8
0
 10
7.87999
 20
16.815
 11
7.80067
 21
16.7772
  0
LINE
  8
0
 10
7.80067
 20
16.7772
 11
7.71642
 21
16.7522
  0
LINE
  8
0
 10
7.71642
 20
16.7522
 11
7.62929
 21
16.7408
  0
LINE
  8
0
 10
7.62929
 20
16.7408
 11
7.54146
 21
16.743
  0
LINE
  8
0
 10
17.375
 20
10.6148
 11
17.55
 21
10.6217
  0
LINE
  8
0
 10
17.55
 20
10.6217
 11
17.7247
 21
10.6331
  0
LINE
  8
0
 10
17.7247
 20
10.6331
 11
17.899
 21
10.6491
  0
LINE
  8
0
 10
17.899
 20
10.6491
 11
18.0729
 21
10.6697
  0
LINE
  8
0
 10
18.0729
 20
10.6697
 11
18.2461
 21
10.6948
  0
LINE
  8
0
 10
18.2461
 20
10.6948
 11
18.4187
 21
10.7245
  0
LINE
  8
0
 10
18.4187
 20
10.7245
 11
18.5904
 21
10.7586
  0
LINE
  8
0
 10
18.5904
 20
10.7586
 11
18.7612
 21
10.7973
  0
LINE
  8
0
 10
18.7612
 20
10.7973
 11
18.9308
 21
10.8404
  0
LINE
  8
0
 10
18.9308
 20
10.8404
 11
19.0993
 21
10.8879
  0
LINE
  8
0
 10
19.0993
 20
10.8879
 11
19.2665
 21
10.9398
  0
LINE
  8
0
 10
19.2665
 20
10.9398
 11
19.4323
 21
10.9961
  0
LINE
  8
0
 10
19.4323
 20
10.9961
 11
19.5966
 21
11.0567
  0
LINE
  8
0
 10
19.5966
 20
11.0567
 11
19.7592
 21
11.1216
  0
LINE
  8
0
 10
19.7592
 20
11.1216
 11
19.92
 21
11.1907
  0
LINE
  8
0
 10
19.92
 20
11.1907
 11
20.079
 21
11.264
  0
LINE
  8
0
 10
20.079
 20
11.264
 11
20.2361
 21
11.3414
  0
LINE
  8
0
 10
20.2361
 20
11.3414
 11
20.391
 21
11.4229
  0
LINE
  8
0
 10
20.391
 20
11.4229
 11
20.5437
 21
11.5085
  0
LINE
  8
0
 10
20.5437
 20
11.5085
 11
20.6942
 21
11.598
  0
LINE
  8
0
 10
20.6942
 20
11.598
 11
20.8423
 21
11.6914
  0
LINE
  8
0
 10
20.8423
 20
11.6914
 11
20.9878
 21
11.7887
  0
LINE
  8
0
 10
20.9878
 20
11.7887
 11
21.1308
 21
11.8897
  0
LINE
  8
0
 10
21.1308
 20
11.8897
 11
21.2711
 21
11.9944
  0
LINE
  8
0
 10
21.2711
 20
11.9944
 11
21.4086
 21
12.1028
  0
LINE
  8
0
 10
21.4086
 20
12.1028
 11
21.5432
 21
12.2148
  0
LINE
  8
0
 10
21.5432
 20
12.2148
 11
21.6748
 21
12.3302
  0
LINE
  8
0
 10
21.6748
 20
12.3302
 11
21.8034
 21
12.4491
  0
LINE
  8
0
 10
21.8034
 20
12.4491
 11
21.9288
 21
12.5712
  0
LINE
  8
0
 10
21.9288
 20
12.5712
 11
22.0509
 21
12.6966
  0
LINE
  8
0
 10
22.0509
 20
12.6966
 11
22.1698
 21
12.8252
  0
LINE
  8
0
 10
22.1698
 20
12.8252
 11
22.2852
 21
12.9568
  0
LINE
  8
0
 10
22.2852
 20
12.9568
 11
22.3972
 21
13.0914
  0
LINE
  8
0
 10
22.3972
 20
13.0914
 11
22.5055
 21
13.2289
  0
LINE
  8
0
 10
22.5055
 20
13.2289
 11
22.6103
 21
13.3692
  0
LINE
  8
0
 10
22.6103
 20
13.3692
 11
22.7113
 21
13.5122
  0
LINE
  8
0
 10
22.7113
 20
13.5122
 11
22.8086
 21
13.6577
  0
LINE
  8
0
 10
22.8086
 20
13.6577
 11
22.902
 21
13.8058
  0
LINE
  8
0
 10
22.902
 20
13.8058
 11
22.9915
 21
13.9563
  0
LINE
  8
0
 10
22.9915
 20
13.9563
 11
23.0771
 21
14.109
  0
LINE
  8
0
 10
23.0771
 20
14.109
 11
23.1586
 21
14.2639
  0
LINE
  8
0
 10
23.1586
 20
14.2639
 11
23.236
 21
14.421
  0
LINE
  8
0
 10
23.236
 20
14.421
 11
23.3093
 21
14.5799
  0
LINE
  8
0
 10
23.3093
 20
14.5799
 11
23.3784
 21
14.7408
  0
LINE
  8
0
 10
23.3784
 20
14.7408
 11
23.4433
 21
14.9034
  0
LINE
  8
0
 10
23.4433
 20
14.9034
 11
23.5039
 21
15.0677
  0
LINE
  8
0
 10
23.5039
 20
15.0677
 11
23.5602
 21
15.2334
  0
LINE
  8
0
 10
23.5602
 20
15.2334
 11
23.6121
 21
15.4007
  0
LINE
  8
0
 10
23.6121
 20
15.4007
 11
23.6596
 21
15.5691
  0
LINE
  8
0
 10
23.6596
 20
15.5691
 11
23.7027
 21
15.7388
  0
LINE
  8
0
 10
23.7027
 20
15.7388
 11
23.7413
 21
15.9096
  0
LINE
  8
0
 10
23.7413
 20
15.9096
 11
23.7755
 21
16.0813
  0
LINE
  8
0
 10
23.7755
 20
16.0813
 11
23.8052
 21
16.2538
  0
LINE
  8
0
 10
23.8052
 20
16.2538
 11
23.8303
 21
16.4271
  0
LINE
  8
0
 10
23.8303
 20
16.4271
 11
23.8509
 21
16.601
  0
LINE
  8
0
 10
23.8509
 20
16.601
 11
23.8669
 21
16.7753
  0
LINE
  8
0
 10
23.8669
 20
16.7753
 11
23.8783
 21
16.95
  0
LINE
  8
0
 10
23.8783
 20
16.95
 11
23.8852
 21
17.1249
  0
LINE
  8
0
 10
23.8852
 20
17.1249
 11
23.8875
 21
17.3
  0
LINE
  8
0
 10
23.8875
 20
17.3
 11
23.8852
 21
17.475
  0
LINE
  8
0
 10
23.8852
 20
17.475
 11
23.8783
 21
17.65
  0
LINE
  8
0
 10
23.8783
 20
17.65
 11
23.8669
 21
17.8247
  0
LINE
  8
0
 10
23.8669
 20
17.8247
 11
23.8509
 21
17.999
  0
LINE
  8
0
 10
23.8509
 20
17.999
 11
23.8303
 21
18.1729
  0
LINE
  8
0
 10
23.8303
 20
18.1729
 11
23.8052
 21
18.3461
  0
LINE
  8
0
 10
23.8052
 20
18.3461
 11
23.7755
 21
18.5187
  0
LINE
  8
0
 10
23.7755
 20
18.5187
 11
23.7413
 21
18.6904
  0
LINE
  8
0
 10
23.7413
 20
18.6904
 11
23.7027
 21
18.8611
  0
LINE
  8
0
 10
23.7027
 20
18.8611
 11
23.6596
 21
19.0308
  0
LINE
  8
0
 10
23.6596
 20
19.0308
 11
23.6121
 21
19.1993
  0
LINE
  8
0
 10
23.6121
 20
19.1993
 11
23.5602
 21
19.3665
  0
LINE
  8
0
 10
23.5602
 20
19.3665
 11
23.5039
 21
19.5323
  0
LINE
  8
0
 10
23.5039
 20
19.5323
 11
23.4433
 21
19.6966
  0
LINE
  8
0
 10
23.4433
 20
19.6966
 11
23.3784
 21
19.8592
  0
LINE
  8
0
 10
23.3784
 20
19.8592
 11
23.3093
 21
20.02
  0
LINE
  8
0
 10
23.3093
 20
20.02
 11
23.236
 21
20.179
  0
LINE
  8
0
 10
23.236
 20
20.179
 11
23.1586
 21
20.336
  0
LINE
  8
0
 10
23.1586
 20
20.336
 11
23.0771
 21
20.491
  0
LINE
  8
0
 10
23.0771
 20
20.491
 11
22.9915
 21
20.6437
  0
LINE
  8
0
 10
22.9915
 20
20.6437
 11
22.902
 21
20.7942
  0
LINE
  8
0
 10
22.902
 20
20.7942
 11
22.8086
 21
20.9423
  0
LINE
  8
0
 10
22.8086
 20
20.9423
 11
22.7113
 21
21.0878
  0
LINE
  8
0
 10
22.7113
 20
21.0878
 11
22.6103
 21
21.2308
  0
LINE
  8
0
 10
22.6103
 20
21.2308
 11
22.5055
 21
21.3711
  0
LINE
  8
0
 10
22.5055
 20
21.3711
 11
22.3972
 21
21.5086
  0
LINE
  8
0
 10
22.3972
 20
21.5086
 11
22.2852
 21
21.6432
  0
LINE
  8
0
 10
22.2852
 20
21.6432
 11
22.1698
 21
21.7748
  0
LINE
  8
0
 10
22.1698
 20
21.7748
 11
22.0509
 21
21.9034
  0
LINE
  8
0
 10
22.0509
 20
21.9034
 11
21.9288
 21
22.0288
  0
LINE
  8
0
 10
21.9288
 20
22.0288
 11
21.8034
 21
22.1509
  0
LINE
  8
0
 10
21.8034
 20
22.1509
 11
21.6748
 21
22.2698
  0
LINE
  8
0
 10
21.6748
 20
22.2698
 11
21.5432
 21
22.3852
  0
LINE
  8
0
 10
21.5432
 20
22.3852
 11
21.4086
 21
22.4971
  0
LINE
  8
0
 10
21.4086
 20
22.4971
 11
21.2711
 21
22.6055
  0
LINE
  8
0
 10
21.2711
 20
22.6055
 11
21.1308
 21
22.7103
  0
LINE
  8
0
 10
21.1308
 20
22.7103
 11
20.9878
 21
22.8113
  0
LINE
  8
0
 10
20.9878
 20
22.8113
 11
20.8423
 21
22.9086
  0
LINE
  8
0
 10
20.8423
 20
22.9086
 11
20.6942
 21
23.002
  0
LINE
  8
0
 10
20.6942
 20
23.002
 11
20.5437
 21
23.0915
  0
LINE
  8
0
 10
20.5437
 20
23.0915
 11
20.391
 21
23.1771
  0
LINE
  8
0
 10
20.391
 20
23.1771
 11
20.2361
 21
23.2586
  0
LINE
  8
0
 10
20.2361
 20
23.2586
 11
20.079
 21
23.336
  0
LINE
  8
0
 10
20.079
 20
23.336
 11
19.92
 21
23.4093
  0
LINE
  8
0
 10
19.92
 20
23.4093
 11
19.7592
 21
23.4784
  0
LINE
  8
0
 10
19.7592
 20
23.4784
 11
19.5966
 21
23.5433
  0
LINE
  8
0
 10
19.5966
 20
23.5433
 11
19.4323
 21
23.6039
  0
LINE
  8
0
 10
19.4323
 20
23.6039
 11
19.2665
 21
23.6602
  0
LINE
  8
0
 10
19.2665
 20
23.6602
 11
19.0993
 21
23.7121
  0
LINE
  8
0
 10
19.0993
 20
23.7121
 11
18.9308
 21
23.7596
  0
LINE
  8
0
 10
18.9308
 20
23.7596
 11
18.7612
 21
23.8027
  0
LINE
  8
0
 10
18.7612
 20
23.8027
 11
18.5904
 21
23.8413
  0
LINE
  8
0
 10
18.5904
 20
23.8413
 11
18.4187
 21
23.8755
  0
LINE
  8
0
 10
18.4187
 20
23.8755
 11
18.2461
 21
23.9052
  0
LINE
  8
0
 10
18.2461
 20
23.9052
 11
18.0729
 21
23.9303
  0
LINE
  8
0
 10
18.0729
 20
23.9303
 11
17.899
 21
23.9509
  0
LINE
  8
0
 10
17.899
 20
23.9509
 11
17.7247
 21
23.9669
  0
LINE
  8
0
 10
17.7247
 20
23.9669
 11
17.55
 21
23.9783
  0
LINE
  8
0
 10
17.55
 20
23.9783
 11
17.375
 21
23.9852
  0
LINE
  8
0
 10
17.375
 20
23.9852
 11
17.2
 21
23.9875
  0
LINE
  8
0
 10
17.2
 20
23.9875
 11
9.45
 21
23.9875
  0
LINE
  8
0
 10
9.45
 20
23.9875
 11
9.45
 21
18.9875
  0
LINE
  8
0
 10
9.45
 20
18.9875
 11
15.7
 21
18.9875
  0
LINE
  8
0
 10
15.7
 20
18.9875
 11
15.7
 21
10.6125
  0
LINE
  8
0
 10
15.7
 20
10.6125
 11
17.2
 21
10.6125
  0
LINE
  8
0
 10
17.2
 20
10.6125
 11
17.375
 21
10.6148
  0
LINE
  8
0
 10
17.1415
 20
16.7431
 11
17.0551
 21
16.7591
  0
LINE
  8
0
 10
17.0551
 20
16.7591
 11
16.9722
 21
16.7884
  0
LINE
  8
0
 10
16.9722
 20
16.7884
 11
16.895
 21
16.8303
  0
LINE
  8
0
 10
16.895
 20
16.8303
 11
16.8253
 21
16.8838
  0
LINE
  8
0
 10
16.8253
 20
16.8838
 11
16.7648
 21
16.9476
  0
LINE
  8
0
 10
16.7648
 20
16.9476
 11
16.715
 21
17.02
  0
LINE
  8
0
 10
16.715
 20
17.02
 11
16.6772
 21
17.0993
  0
LINE
  8
0
 10
16.6772
 20
17.0993
 11
16.6522
 21
17.1836
  0
LINE
  8
0
 10
16.6522
 20
17.1836
 11
16.6408
 21
17.2707
  0
LINE
  8
0
 10
16.6408
 20
17.2707
 11
16.6431
 21
17.3585
  0
LINE
  8
0
 10
16.6431
 20
17.3585
 11
16.6591
 21
17.4449
  0
LINE
  8
0
 10
16.6591
 20
17.4449
 11
16.6884
 21
17.5278
  0
LINE
  8
0
 10
16.6884
 20
17.5278
 11
16.7303
 21
17.605
  0
LINE
  8
0
 10
16.7303
 20
17.605
 11
16.7838
 21
17.6747
  0
LINE
  8
0
 10
16.7838
 20
17.6747
 11
16.8476
 21
17.7352
  0
LINE
  8
0
 10
16.8476
 20
17.7352
 11
16.92
 21
17.785
  0
LINE
  8
0
 10
16.92
 20
17.785
 11
16.9993
 21
17.8228
  0
LINE
  8
0
 10
16.9993
 20
17.8228
 11
17.0836
 21
17.8477
  0
LINE
  8
0
 10
17.0836
 20
17.8477
 11
17.1707
 21
17.8592
  0
LINE
  8
0
 10
17.1707
 20
17.8592
 11
17.2585
 21
17.8569
  0
LINE
  8
0
 10
17.2585
 20
17.8569
 11
17.3449
 21
17.8409
  0
LINE
  8
0
 10
17.3449
 20
17.8409
 11
17.4278
 21
17.8116
  0
LINE
  8
0
 10
17.4278
 20
17.8116
 11
17.505
 21
17.7696
  0
LINE
  8
0
 10
17.505
 20
17.7696
 11
17.5747
 21
17.7161
  0
LINE
  8
0
 10
17.5747
 20
17.7161
 11
17.6352
 21
17.6524
  0
LINE
  8
0
 10
17.6352
 20
17.6524
 11
17.685
 21
17.58
  0
LINE
  8
0
 10
17.685
 20
17.58
 11
17.7228
 21
17.5007
  0
LINE
  8
0
 10
17.7228
 20
17.5007
 11
17.7478
 21
17.4164
  0
LINE
  8
0
 10
17.7478
 20
17.4164
 11
17.7592
 21
17.3293
  0
LINE
  8
0
 10
17.7592
 20
17.3293
 11
17.7569
 21
17.2415
  0
LINE
  8
0
 10
17.7569
 20
17.2415
 11
17.7409
 21
17.1551
  0
LINE
  8
0
 10
17.7409
 20
17.1551
 11
17.7116
 21
17.0722
  0
LINE
  8
0
 10
17.7116
 20
17.0722
 11
17.6696
 21
16.995
  0
LINE
  8
0
 10
17.6696
 20
16.995
 11
17.6161
 21
16.9253
  0
LINE
  8
0
 10
17.6161
 20
16.9253
 11
17.5524
 21
16.8648
  0
LINE
  8
0
 10
17.5524
 20
16.8648
 11
17.48
 21
16.815
  0
LINE
  8
0
 10
17.48
 20
16.815
 11
17.4007
 21
16.7772
  0
LINE
  8
0
 10
17.4007
 20
16.7772
 11
17.3164
 21
16.7522
  0
LINE
  8
0
 10
17.3164
 20
16.7522
 11
17.2293
 21
16.7408
  0
LINE
  8
0
 10
17.2293
 20
16.7408
 11
17.1415
 21
16.7431
  0
LINE
  8
0
 10
32.2
 20
3.94511
 11
38.325
 21
3.94511
  0
LINE
  8
0
 10
38.325
 20
3.94511
 11
38.325
 21
14.8125
  0
LINE
  8
0
 10
38.325
 20
14.8125
 11
24.075
 21
14.8125
  0
LINE
  8
0
 10
24.075
 20
14.8125
 11
24.075
 21
3.94511
  0
LINE
  8
0
 10
24.075
 20
3.94511
 11
30.2
 21
3.94511
  0
LINE
  8
0
 10
30.2
 20
3.94511
 11
30.2
 21
0.3125
  0
LINE
  8
0
 10
30.2
 20
0.3125
 11
32.2
 21
0.3125
  0
LINE
  8
0
 10
32.2
 20
0.3125
 11
32.2
 21
3.94511
  0
LINE
  8
0
 10
37.7764
 20
14.1314
 11
37.707
 21
14.1668
  0
LINE
  8
0
 10
37.707
 20
14.1668
 11
37.6579
 21
14.2274
  0
LINE
  8
0
 10
37.6579
 20
14.2274
 11
37.6377
 21
14.3027
  0
LINE
  8
0
 10
37.6377
 20
14.3027
 11
37.6499
 21
14.3797
  0
LINE
  8
0
 10
37.6499
 20
14.3797
 11
37.6924
 21
14.4451
  0
LINE
  8
0
 10
37.6924
 20
14.4451
 11
37.7578
 21
14.4875
  0
LINE
  8
0
 10
37.7578
 20
14.4875
 11
37.8348
 21
14.4997
  0
LINE
  8
0
 10
37.8348
 20
14.4997
 11
37.9101
 21
14.4796
  0
LINE
  8
0
 10
37.9101
 20
14.4796
 11
37.9707
 21
14.4305
  0
LINE
  8
0
 10
37.9707
 20
14.4305
 11
38.0061
 21
14.361
  0
LINE
  8
0
 10
38.0061
 20
14.361
 11
38.0102
 21
14.2832
  0
LINE
  8
0
 10
38.0102
 20
14.2832
 11
37.9822
 21
14.2104
  0
LINE
  8
0
 10
37.9822
 20
14.2104
 11
37.9271
 21
14.1552
  0
LINE
  8
0
 10
37.9271
 20
14.1552
 11
37.8543
 21
14.1273
  0
LINE
  8
0
 10
37.8543
 20
14.1273
 11
37.7764
 21
14.1314
  0
LINE
  8
0
 10
31.1515
 20
14.1314
 11
31.082
 21
14.1668
  0
LINE
  8
0
 10
31.082
 20
14.1668
 11
31.0329
 21
14.2274
  0
LINE
  8
0
 10
31.0329
 20
14.2274
 11
31.0127
 21
14.3027
  0
LINE
  8
0
 10
31.0127
 20
14.3027
 11
31.0249
 21
14.3797
  0
LINE
  8
0
 10
31.0249
 20
14.3797
 11
31.0674
 21
14.4451
  0
LINE
  8
0
 10
31.0674
 20
14.4451
 11
31.1328
 21
14.4875
  0
LINE
  8
0
 10
31.1328
 20
14.4875
 11
31.2098
 21
14.4997
  0
LINE
  8
0
 10
31.2098
 20
14.4997
 11
31.2851
 21
14.4796
  0
LINE
  8
0
 10
31.2851
 20
14.4796
 11
31.3457
 21
14.4305
  0
LINE
  8
0
 10
31.3457
 20
14.4305
 11
31.3811
 21
14.361
  0
LINE
  8
0
 10
31.3811
 20
14.361
 11
31.3852
 21
14.2832
  0
LINE
  8
0
 10
31.3852
 20
14.2832
 11
31.3572
 21
14.2104
  0
LINE
  8
0
 10
31.3572
 20
14.2104
 11
31.3021
 21
14.1552
  0
LINE
  8
0
 10
31.3021
 20
14.1552
 11
31.2293
 21
14.1273
  0
LINE
  8
0
 10
31.2293
 20
14.1273
 11
31.1515
 21
14.1314
  0
LINE
  8
0
 10
24.5265
 20
14.1314
 11
24.457
 21
14.1668
  0
LINE
  8
0
 10
24.457
 20
14.1668
 11
24.4079
 21
14.2274
  0
LINE
  8
0
 10
24.4079
 20
14.2274
 11
24.3877
 21
14.3027
  0
LINE
  8
0
 10
24.3877
 20
14.3027
 11
24.3999
 21
14.3797
  0
LINE
  8
0
 10
24.3999
 20
14.3797
 11
24.4424
 21
14.4451
  0
LINE
  8
0
 10
24.4424
 20
14.4451
 11
24.5078
 21
14.4875
  0
LINE
  8
0
 10
24.5078
 20
14.4875
 11
24.5848
 21
14.4997
  0
LINE
  8
0
 10
24.5848
 20
14.4997
 11
24.6601
 21
14.4796
  0
LINE
  8
0
 10
24.6601
 20
14.4796
 11
24.7207
 21
14.4305
  0
LINE
  8
0
 10
24.7207
 20
14.4305
 11
24.7561
 21
14.361
  0
LINE
  8
0
 10
24.7561
 20
14.361
 11
24.7602
 21
14.2832
  0
LINE
  8
0
 10
24.7602
 20
14.2832
 11
24.7322
 21
14.2104
  0
LINE
  8
0
 10
24.7322
 20
14.2104
 11
24.6771
 21
14.1552
  0
LINE
  8
0
 10
24.6771
 20
14.1552
 11
24.6043
 21
14.1273
  0
LINE
  8
0
 10
24.6043
 20
14.1273
 11
24.5265
 21
14.1314
  0
LINE
  8
0
 10
34.1375
 20
4.69511
 11
34.1375
 21
8.4375
  0
LINE
  8
0
 10
34.1375
 20
8.4375
 11
32.2
 21
8.4375
  0
LINE
  8
0
 10
32.2
 20
8.4375
 11
32.2
 21
8.6875
  0
LINE
  8
0
 10
32.2
 20
8.6875
 11
32.075
 21
8.6875
  0
LINE
  8
0
 10
32.075
 20
8.6875
 11
32.075
 21
13.6875
  0
LINE
  8
0
 10
32.075
 20
13.6875
 11
37.325
 21
13.6875
  0
LINE
  8
0
 10
37.325
 20
13.6875
 11
37.325
 21
11.1875
  0
LINE
  8
0
 10
37.325
 20
11.1875
 11
37.45
 21
11.1875
  0
LINE
  8
0
 10
37.45
 20
11.1875
 11
37.45
 21
8.6875
  0
LINE
  8
0
 10
37.45
 20
8.6875
 11
37.325
 21
8.6875
  0
LINE
  8
0
 10
37.325
 20
8.6875
 11
37.325
 21
8.4375
  0
LINE
  8
0
 10
37.325
 20
8.4375
 11
35.3875
 21
8.4375
  0
LINE
  8
0
 10
35.3875
 20
8.4375
 11
35.3875
 21
4.69511
  0
LINE
  8
0
 10
35.3875
 20
4.69511
 11
34.1375
 21
4.69511
  0
LINE
  8
0
 10
27.0125
 20
4.69511
 11
27.0125
 21
8.4375
  0
LINE
  8
0
 10
27.0125
 20
8.4375
 11
25.075
 21
8.4375
  0
LINE
  8
0
 10
25.075
 20
8.4375
 11
25.075
 21
8.6875
  0
LINE
  8
0
 10
25.075
 20
8.6875
 11
24.95
 21
8.6875
  0
LINE
  8
0
 10
24.95
 20
8.6875
 11
24.95
 21
11.1875
  0
LINE
  8
0
 10
24.95
 20
11.1875
 11
25.075
 21
11.1875
  0
LINE
  8
0
 10
25.075
 20
11.1875
 11
25.075
 21
13.6875
  0
LINE
  8
0
 10
25.075
 20
13.6875
 11
30.325
 21
13.6875
  0
LINE
  8
0
 10
30.325
 20
13.6875
 11
30.325
 21
8.6875
  0
LINE
  8
0
 10
30.325
 20
8.6875
 11
30.2
 21
8.6875
  0
LINE
  8
0
 10
30.2
 20
8.6875
 11
30.2
 21
8.4375
  0
LINE
  8
0
 10
30.2
 20
8.4375
 11
28.2625
 21
8.4375
  0
LINE
  8
0
 10
28.2625
 20
8.4375
 11
28.2625
 21
4.69511
  0
LINE
  8
0
 10
28.2625
 20
4.69511
 11
27.0125
 21
4.69511
  0
LINE
  8
0
 10
30.825
 20
1.9375
 11
30.825
 21
12.0625
  0
LINE
  8
0
 10
30.825
 20
12.0625
 11
31.575
 21
12.0625
  0
LINE
  8
0
 10
31.575
 20
12.0625
 11
31.575
 21
1.9375
  0
LINE
  8
0
 10
31.575
 20
1.9375
 11
30.825
 21
1.9375
  0
LINE
  8
0
 10
23.8875
 20
3.59999
 11
23.8852
 21
3.77504
  0
LINE
  8
0
 10
23.8852
 20
3.77504
 11
23.8783
 21
3.94998
  0
LINE
  8
0
 10
23.8783
 20
3.94998
 11
23.8669
 21
4.12468
  0
LINE
  8
0
 10
23.8669
 20
4.12468
 11
23.8508
 21
4.29901
  0
LINE
  8
0
 10
23.8508
 20
4.29901
 11
23.8303
 21
4.47287
  0
LINE
  8
0
 10
23.8303
 20
4.47287
 11
23.8051
 21
4.64613
  0
LINE
  8
0
 10
23.8051
 20
4.64613
 11
23.7755
 21
4.81868
  0
LINE
  8
0
 10
23.7755
 20
4.81868
 11
23.7413
 21
4.99039
  0
LINE
  8
0
 10
23.7413
 20
4.99039
 11
23.7027
 21
5.16115
  0
LINE
  8
0
 10
23.7027
 20
5.16115
 11
23.6596
 21
5.33084
  0
LINE
  8
0
 10
23.6596
 20
5.33084
 11
23.6121
 21
5.49933
  0
LINE
  8
0
 10
23.6121
 20
5.49933
 11
23.5602
 21
5.66653
  0
LINE
  8
0
 10
23.5602
 20
5.66653
 11
23.5039
 21
5.83232
  0
LINE
  8
0
 10
23.5039
 20
5.83232
 11
23.4433
 21
5.99657
  0
LINE
  8
0
 10
23.4433
 20
5.99657
 11
23.3784
 21
6.15918
  0
LINE
  8
0
 10
23.3784
 20
6.15918
 11
23.3093
 21
6.32004
  0
LINE
  8
0
 10
23.3093
 20
6.32004
 11
23.236
 21
6.47902
  0
LINE
  8
0
 10
23.236
 20
6.47902
 11
23.1586
 21
6.63605
  0
LINE
  8
0
 10
23.1586
 20
6.63605
 11
23.0771
 21
6.79099
  0
LINE
  8
0
 10
23.0771
 20
6.79099
 11
22.9915
 21
6.94374
  0
LINE
  8
0
 10
22.9915
 20
6.94374
 11
22.902
 21
7.09419
  0
LINE
  8
0
 10
22.902
 20
7.09419
 11
22.8086
 21
7.24226
  0
LINE
  8
0
 10
22.8086
 20
7.24226
 11
22.7113
 21
7.38782
  0
LINE
  8
0
 10
22.7113
 20
7.38782
 11
22.6103
 21
7.53079
  0
LINE
  8
0
 10
22.6103
 20
7.53079
 11
22.5055
 21
7.67108
  0
LINE
  8
0
 10
22.5055
 20
7.67108
 11
22.3971
 21
7.80856
  0
LINE
  8
0
 10
22.3971
 20
7.80856
 11
22.2852
 21
7.94316
  0
LINE
  8
0
 10
22.2852
 20
7.94316
 11
22.1698
 21
8.0748
  0
LINE
  8
0
 10
22.1698
 20
8.0748
 11
22.0509
 21
8.20335
  0
LINE
  8
0
 10
22.0509
 20
8.20335
 11
21.9288
 21
8.32877
  0
LINE
  8
0
 10
21.9288
 20
8.32877
 11
21.8034
 21
8.45093
  0
LINE
  8
0
 10
21.8034
 20
8.45093
 11
21.6748
 21
8.56976
  0
LINE
  8
0
 10
21.6748
 20
8.56976
 11
21.5432
 21
8.6852
  0
LINE
  8
0
 10
21.5432
 20
8.6852
 11
21.4086
 21
8.79715
  0
LINE
  8
0
 10
21.4086
 20
8.79715
 11
21.2711
 21
8.90553
  0
LINE
  8
0
 10
21.2711
 20
8.90553
 11
21.1308
 21
9.01028
  0
LINE
  8
0
 10
21.1308
 20
9.01028
 11
20.9878
 21
9.11133
  0
LINE
  8
0
 10
20.9878
 20
9.11133
 11
20.8423
 21
9.20859
  0
LINE
  8
0
 10
20.8423
 20
9.20859
 11
20.6942
 21
9.30202
  0
LINE
  8
0
 10
20.6942
 20
9.30202
 11
20.5437
 21
9.39153
  0
LINE
  8
0
 10
20.5437
 20
9.39153
 11
20.391
 21
9.47707
  0
LINE
  8
0
 10
20.391
 20
9.47707
 11
20.2361
 21
9.55859
  0
LINE
  8
0
 10
20.2361
 20
9.55859
 11
20.079
 21
9.63602
  0
LINE
  8
0
 10
20.079
 20
9.63602
 11
19.92
 21
9.70932
  0
LINE
  8
0
 10
19.92
 20
9.70932
 11
19.7592
 21
9.77843
  0
LINE
  8
0
 10
19.7592
 20
9.77843
 11
19.5966
 21
9.84331
  0
LINE
  8
0
 10
19.5966
 20
9.84331
 11
19.4323
 21
9.9039
  0
LINE
  8
0
 10
19.4323
 20
9.9039
 11
19.2665
 21
9.96017
  0
LINE
  8
0
 10
19.2665
 20
9.96017
 11
19.0993
 21
10.0121
  0
LINE
  8
0
 10
19.0993
 20
10.0121
 11
18.9308
 21
10.0596
  0
LINE
  8
0
 10
18.9308
 20
10.0596
 11
18.7612
 21
10.1027
  0
LINE
  8
0
 10
18.7612
 20
10.1027
 11
18.5904
 21
10.1413
  0
LINE
  8
0
 10
18.5904
 20
10.1413
 11
18.4187
 21
10.1755
  0
LINE
  8
0
 10
18.4187
 20
10.1755
 11
18.2461
 21
10.2052
  0
LINE
  8
0
 10
18.2461
 20
10.2052
 11
18.0729
 21
10.2303
  0
LINE
  8
0
 10
18.0729
 20
10.2303
 11
17.899
 21
10.2509
  0
LINE
  8
0
 10
17.899
 20
10.2509
 11
17.7247
 21
10.2669
  0
LINE
  8
0
 10
17.7247
 20
10.2669
 11
17.55
 21
10.2783
  0
LINE
  8
0
 10
17.55
 20
10.2783
 11
17.375
 21
10.2852
  0
LINE
  8
0
 10
17.375
 20
10.2852
 11
17.2
 21
10.2875
  0
LINE
  8
0
 10
17.2
 20
10.2875
 11
15.7
 21
10.2875
  0
LINE
  8
0
 10
15.7
 20
10.2875
 11
15.7
 21
7.78748
  0
LINE
  8
0
 10
15.7
 20
7.78748
 11
8.623
 21
7.78748
  0
LINE
  8
0
 10
8.623
 20
7.78748
 11
8.623
 21
5.28749
  0
LINE
  8
0
 10
8.623
 20
5.28749
 11
15.7
 21
5.28749
  0
LINE
  8
0
 10
15.7
 20
5.28749
 11
15.7
 21
1.71553
  0
LINE
  8
0
 10
15.7
 20
1.71553
 11
23.8875
 21
3.59999
  0
LINE
  8
0
 10
8.89023
 20
7.40715
 11
8.85513
 21
7.47601
  0
LINE
  8
0
 10
8.85513
 20
7.47601
 11
8.88283
 21
7.54816
  0
LINE
  8
0
 10
8.88283
 20
7.54816
 11
8.91595
 21
7.56967
  0
LINE
  8
0
 10
8.91595
 20
7.56967
 11
8.99313
 21
7.56563
  0
LINE
  8
0
 10
8.99313
 20
7.56563
 11
9.04176
 21
7.50557
  0
LINE
  8
0
 10
9.04176
 20
7.50557
 11
9.02968
 21
7.42924
  0
LINE
  8
0
 10
9.02968
 20
7.42924
 11
8.96487
 21
7.38715
  0
LINE
  8
0
 10
8.96487
 20
7.38715
 11
8.89023
 21
7.40715
  0
LINE
  8
0
 10
9.89023
 20
7.40715
 11
9.85513
 21
7.47601
  0
LINE
  8
0
 10
9.85513
 20
7.47601
 11
9.88283
 21
7.54816
  0
LINE
  8
0
 10
9.88283
 20
7.54816
 11
9.91595
 21
7.56967
  0
LINE
  8
0
 10
9.91595
 20
7.56967
 11
9.99313
 21
7.56563
  0
LINE
  8
0
 10
9.99313
 20
7.56563
 11
10.0418
 21
7.50557
  0
LINE
  8
0
 10
10.0418
 20
7.50557
 11
10.0297
 21
7.42924
  0
LINE
  8
0
 10
10.0297
 20
7.42924
 11
9.96487
 21
7.38715
  0
LINE
  8
0
 10
9.96487
 20
7.38715
 11
9.89023
 21
7.40715
  0
LINE
  8
0
 10
8.89023
 20
5.65717
 11
8.85513
 21
5.72603
  0
LINE
  8
0
 10
8.85513
 20
5.72603
 11
8.88283
 21
5.79817
  0
LINE
  8
0
 10
8.88283
 20
5.79817
 11
8.91595
 21
5.81969
  0
LINE
  8
0
 10
8.91595
 20
5.81969
 11
8.99313
 21
5.81564
  0
LINE
  8
0
 10
8.99313
 20
5.81564
 11
9.04176
 21
5.75558
  0
LINE
  8
0
 10
9.04176
 20
5.75558
 11
9.02968
 21
5.67926
  0
LINE
  8
0
 10
9.02968
 20
5.67926
 11
8.96487
 21
5.63716
  0
LINE
  8
0
 10
8.96487
 20
5.63716
 11
8.89023
 21
5.65717
  0
LINE
  8
0
 10
9.89023
 20
5.65717
 11
9.85513
 21
5.72603
  0
LINE
  8
0
 10
9.85513
 20
5.72603
 11
9.88283
 21
5.79817
  0
LINE
  8
0
 10
9.88283
 20
5.79817
 11
9.91595
 21
5.81969
  0
LINE
  8
0
 10
9.91595
 20
5.81969
 11
9.99313
 21
5.81564
  0
LINE
  8
0
 10
9.99313
 20
5.81564
 11
10.0418
 21
5.75558
  0
LINE
  8
0
 10
10.0418
 20
5.75558
 11
10.0297
 21
5.67926
  0
LINE
  8
0
 10
10.0297
 20
5.67926
 11
9.96487
 21
5.63716
  0
LINE
  8
0
 10
9.96487
 20
5.63716
 11
9.89023
 21
5.65717
  0
LINE
  8
0
 10
17.1257
 20
4.53307
 11
17.1001
 21
4.60521
  0
LINE
  8
0
 10
17.1001
 20
4.60521
 11
17.1331
 21
4.6743
  0
LINE
  8
0
 10
17.1331
 20
4.6743
 11
17.2052
 21
4.69984
  0
LINE
  8
0
 10
17.2052
 20
4.69984
 11
17.2743
 21
4.6669
  0
LINE
  8
0
 10
17.2743
 20
4.6669
 11
17.2998
 21
4.59476
  0
LINE
  8
0
 10
17.2998
 20
4.59476
 11
17.2669
 21
4.52567
  0
LINE
  8
0
 10
17.2669
 20
4.52567
 11
17.1948
 21
4.50012
  0
LINE
  8
0
 10
17.1948
 20
4.50012
 11
17.1257
 21
4.53307
  0
LINE
  8
0
 10
17.1414
 20
3.04306
 11
17.0551
 21
3.05908
  0
LINE
  8
0
 10
17.0551
 20
3.05908
 11
16.9722
 21
3.08841
  0
LINE
  8
0
 10
16.9722
 20
3.08841
 11
16.895
 21
3.13034
  0
LINE
  8
0
 10
16.895
 20
3.13034
 11
16.8253
 21
3.18384
  0
LINE
  8
0
 10
16.8253
 20
3.18384
 11
16.7648
 21
3.24757
  0
LINE
  8
0
 10
16.7648
 20
3.24757
 11
16.715
 21
3.31999
  0
LINE
  8
0
 10
16.715
 20
3.31999
 11
16.6772
 21
3.39931
  0
LINE
  8
0
 10
16.6772
 20
3.39931
 11
16.6522
 21
3.48357
  0
LINE
  8
0
 10
16.6522
 20
3.48357
 11
16.6408
 21
3.57069
  0
LINE
  8
0
 10
16.6408
 20
3.57069
 11
16.6431
 21
3.65852
  0
LINE
  8
0
 10
16.6431
 20
3.65852
 11
16.6591
 21
3.74492
  0
LINE
  8
0
 10
16.6591
 20
3.74492
 11
16.6884
 21
3.82776
  0
LINE
  8
0
 10
16.6884
 20
3.82776
 11
16.7303
 21
3.90498
  0
LINE
  8
0
 10
16.7303
 20
3.90498
 11
16.7838
 21
3.9747
  0
LINE
  8
0
 10
16.7838
 20
3.9747
 11
16.8476
 21
4.03519
  0
LINE
  8
0
 10
16.8476
 20
4.03519
 11
16.92
 21
4.08496
  0
LINE
  8
0
 10
16.92
 20
4.08496
 11
16.9993
 21
4.12279
  0
LINE
  8
0
 10
16.9993
 20
4.12279
 11
17.0836
 21
4.14775
  0
LINE
  8
0
 10
17.0836
 20
4.14775
 11
17.1707
 21
4.15921
  0
LINE
  8
0
 10
17.1707
 20
4.15921
 11
17.2585
 21
4.15692
  0
LINE
  8
0
 10
17.2585
 20
4.15692
 11
17.3449
 21
4.1409
  0
LINE
  8
0
 10
17.3449
 20
4.1409
 11
17.4277
 21
4.11157
  0
LINE
  8
0
 10
17.4277
 20
4.11157
 11
17.505
 21
4.06964
  0
LINE
  8
0
 10
17.505
 20
4.06964
 11
17.5747
 21
4.01614
  0
LINE
  8
0
 10
17.5747
 20
4.01614
 11
17.6352
 21
3.95241
  0
LINE
  8
0
 10
17.6352
 20
3.95241
 11
17.685
 21
3.87999
  0
LINE
  8
0
 10
17.685
 20
3.87999
 11
17.7228
 21
3.80067
  0
LINE
  8
0
 10
17.7228
 20
3.80067
 11
17.7477
 21
3.71642
  0
LINE
  8
0
 10
17.7477
 20
3.71642
 11
17.7592
 21
3.62929
  0
LINE
  8
0
 10
17.7592
 20
3.62929
 11
17.7569
 21
3.54146
  0
LINE
  8
0
 10
17.7569
 20
3.54146
 11
17.7409
 21
3.45506
  0
LINE
  8
0
 10
17.7409
 20
3.45506
 11
17.7116
 21
3.37222
  0
LINE
  8
0
 10
17.7116
 20
3.37222
 11
17.6696
 21
3.295
  0
LINE
  8
0
 10
17.6696
 20
3.295
 11
17.6161
 21
3.22528
  0
LINE
  8
0
 10
17.6161
 20
3.22528
 11
17.5524
 21
3.16479
  0
LINE
  8
0
 10
17.5524
 20
3.16479
 11
17.48
 21
3.11502
  0
LINE
  8
0
 10
17.48
 20
3.11502
 11
17.4007
 21
3.07719
  0
LINE
  8
0
 10
17.4007
 20
3.07719
 11
17.3164
 21
3.05223
  0
LINE
  8
0
 10
17.3164
 20
3.05223
 11
17.2293
 21
3.04077
  0
LINE
  8
0
 10
17.2293
 20
3.04077
 11
17.1414
 21
3.04306
  0
LINE
  8
0
 10
18.1257
 20
3.53308
 11
18.1001
 21
3.60521
  0
LINE
  8
0
 10
18.1001
 20
3.60521
 11
18.1331
 21
3.6743
  0
LINE
  8
0
 10
18.1331
 20
3.6743
 11
18.2052
 21
3.69984
  0
LINE
  8
0
 10
18.2052
 20
3.69984
 11
18.2743
 21
3.6669
  0
LINE
  8
0
 10
18.2743
 20
3.6669
 11
18.2998
 21
3.59477
  0
LINE
  8
0
 10
18.2998
 20
3.59477
 11
18.2669
 21
3.52568
  0
LINE
  8
0
 10
18.2669
 20
3.52568
 11
18.1947
 21
3.50014
  0
LINE
  8
0
 10
18.1947
 20
3.50014
 11
18.1257
 21
3.53308
  0
LINE
  8
0
 10
16.1257
 20
3.53308
 11
16.1001
 21
3.60521
  0
LINE
  8
0
 10
16.1001
 20
3.60521
 11
16.1331
 21
3.6743
  0
LINE
  8
0
 10
16.1331
 20
3.6743
 11
16.2052
 21
3.69984
  0
LINE
  8
0
 10
16.2052
 20
3.69984
 11
16.2743
 21
3.6669
  0
LINE
  8
0
 10
16.2743
 20
3.6669
 11
16.2999
 21
3.59477
  0
LINE
  8
0
 10
16.2999
 20
3.59477
 11
16.2669
 21
3.52568
  0
LINE
  8
0
 10
16.2669
 20
3.52568
 11
16.1948
 21
3.50014
  0
LINE
  8
0
 10
16.1948
 20
3.50014
 11
16.1257
 21
3.53308
  0
LINE
  8
0
 10
17.1257
 20
2.53308
 11
17.1001
 21
2.60522
  0
LINE
  8
0
 10
17.1001
 20
2.60522
 11
17.1331
 21
2.67432
  0
LINE
  8
0
 10
17.1331
 20
2.67432
 11
17.2052
 21
2.69986
  0
LINE
  8
0
 10
17.2052
 20
2.69986
 11
17.2743
 21
2.66692
  0
LINE
  8
0
 10
17.2743
 20
2.66692
 11
17.2998
 21
2.59477
  0
LINE
  8
0
 10
17.2998
 20
2.59477
 11
17.2669
 21
2.52568
  0
LINE
  8
0
 10
17.2669
 20
2.52568
 11
17.1948
 21
2.50014
  0
LINE
  8
0
 10
17.1948
 20
2.50014
 11
17.1257
 21
2.53308
  0
LINE
  8
0
 10
8.29997
 20
2.6125
 11
15.377
 21
2.6125
  0
LINE
  8
0
 10
15.377
 20
2.6125
 11
15.377
 21
5.11249
  0
LINE
  8
0
 10
15.377
 20
5.11249
 11
8.29999
 21
5.11249
  0
LINE
  8
0
 10
8.29999
 20
5.11249
 11
8.29999
 21
8.68445
  0
LINE
  8
0
 10
8.29999
 20
8.68445
 11
0.112488
 21
6.79997
  0
LINE
  8
0
 10
0.112488
 20
6.79997
 11
0.114792
 21
6.62492
  0
LINE
  8
0
 10
0.114792
 20
6.62492
 11
0.121658
 21
6.44998
  0
LINE
  8
0
 10
0.121658
 20
6.44998
 11
0.133118
 21
6.27528
  0
LINE
  8
0
 10
0.133118
 20
6.27528
 11
0.149124
 21
6.10095
  0
LINE
  8
0
 10
0.149124
 20
6.10095
 11
0.169708
 21
5.92709
  0
LINE
  8
0
 10
0.169708
 20
5.92709
 11
0.194824
 21
5.75383
  0
LINE
  8
0
 10
0.194824
 20
5.75383
 11
0.224472
 21
5.58128
  0
LINE
  8
0
 10
0.224472
 20
5.58128
 11
0.258636
 21
5.40958
  0
LINE
  8
0
 10
0.258636
 20
5.40958
 11
0.297272
 21
5.23882
  0
LINE
  8
0
 10
0.297272
 20
5.23882
 11
0.340363
 21
5.06912
  0
LINE
  8
0
 10
0.340363
 20
5.06912
 11
0.387894
 21
4.90063
  0
LINE
  8
0
 10
0.387894
 20
4.90063
 11
0.439804
 21
4.73343
  0
LINE
  8
0
 10
0.439804
 20
4.73343
 11
0.496078
 21
4.56764
  0
LINE
  8
0
 10
0.496078
 20
4.56764
 11
0.556671
 21
4.4034
  0
LINE
  8
0
 10
0.556671
 20
4.4034
 11
0.621552
 21
4.24078
  0
LINE
  8
0
 10
0.621552
 20
4.24078
 11
0.690659
 21
4.07993
  0
LINE
  8
0
 10
0.690659
 20
4.07993
 11
0.763962
 21
3.92094
  0
LINE
  8
0
 10
0.763962
 20
3.92094
 11
0.841385
 21
3.76392
  0
LINE
  8
0
 10
0.841385
 20
3.76392
 11
0.922913
 21
3.60898
  0
LINE
  8
0
 10
0.922913
 20
3.60898
 11
1.00845
 21
3.45622
  0
LINE
  8
0
 10
1.00845
 20
3.45622
 11
1.09796
 21
3.30577
  0
LINE
  8
0
 10
1.09796
 20
3.30577
 11
1.19139
 21
3.1577
  0
LINE
  8
0
 10
1.19139
 20
3.1577
 11
1.28865
 21
3.01215
  0
LINE
  8
0
 10
1.28865
 20
3.01215
 11
1.38969
 21
2.86919
  0
LINE
  8
0
 10
1.38969
 20
2.86919
 11
1.49445
 21
2.7289
  0
LINE
  8
0
 10
1.49445
 20
2.7289
 11
1.60283
 21
2.59142
  0
LINE
  8
0
 10
1.60283
 20
2.59142
 11
1.71478
 21
2.45682
  0
LINE
  8
0
 10
1.71478
 20
2.45682
 11
1.83022
 21
2.32518
  0
LINE
  8
0
 10
1.83022
 20
2.32518
 11
1.94905
 21
2.19662
  0
LINE
  8
0
 10
1.94905
 20
2.19662
 11
2.07121
 21
2.07121
  0
LINE
  8
0
 10
2.07121
 20
2.07121
 11
2.19662
 21
1.94905
  0
LINE
  8
0
 10
2.19662
 20
1.94905
 11
2.32518
 21
1.83022
  0
LINE
  8
0
 10
2.32518
 20
1.83022
 11
2.45682
 21
1.71478
  0
LINE
  8
0
 10
2.45682
 20
1.71478
 11
2.59142
 21
1.60283
  0
LINE
  8
0
 10
2.59142
 20
1.60283
 11
2.7289
 21
1.49445
  0
LINE
  8
0
 10
2.7289
 20
1.49445
 11
2.86919
 21
1.38969
  0
LINE
  8
0
 10
2.86919
 20
1.38969
 11
3.01215
 21
1.28865
  0
LINE
  8
0
 10
3.01215
 20
1.28865
 11
3.1577
 21
1.19139
  0
LINE
  8
0
 10
3.1577
 20
1.19139
 11
3.30577
 21
1.09796
  0
LINE
  8
0
 10
3.30577
 20
1.09796
 11
3.45624
 21
1.00845
  0
LINE
  8
0
 10
3.45624
 20
1.00845
 11
3.60898
 21
0.922913
  0
LINE
  8
0
 10
3.60898
 20
0.922913
 11
3.76392
 21
0.841385
  0
LINE
  8
0
 10
3.76392
 20
0.841385
 11
3.92094
 21
0.763962
  0
LINE
  8
0
 10
3.92094
 20
0.763962
 11
4.07993
 21
0.690659
  0
LINE
  8
0
 10
4.07993
 20
0.690659
 11
4.24078
 21
0.621552
  0
LINE
  8
0
 10
4.24078
 20
0.621552
 11
4.4034
 21
0.556671
  0
LINE
  8
0
 10
4.4034
 20
0.556671
 11
4.56764
 21
0.496078
  0
LINE
  8
0
 10
4.56764
 20
0.496078
 11
4.73343
 21
0.439804
  0
LINE
  8
0
 10
4.73343
 20
0.439804
 11
4.90063
 21
0.387894
  0
LINE
  8
0
 10
4.90063
 20
0.387894
 11
5.06912
 21
0.340363
  0
LINE
  8
0
 10
5.06912
 20
0.340363
 11
5.23882
 21
0.297272
  0
LINE
  8
0
 10
5.23882
 20
0.297272
 11
5.40958
 21
0.258636
  0
LINE
  8
0
 10
5.40958
 20
0.258636
 11
5.58128
 21
0.224472
  0
LINE
  8
0
 10
5.58128
 20
0.224472
 11
5.75383
 21
0.194824
  0
LINE
  8
0
 10
5.75383
 20
0.194824
 11
5.92709
 21
0.169708
  0
LINE
  8
0
 10
5.92709
 20
0.169708
 11
6.10095
 21
0.149124
  0
LINE
  8
0
 10
6.10095
 20
0.149124
 11
6.27528
 21
0.133118
  0
LINE
  8
0
 10
6.27528
 20
0.133118
 11
6.44998
 21
0.121658
  0
LINE
  8
0
 10
6.44998
 20
0.121658
 11
6.62492
 21
0.114792
  0
LINE
  8
0
 10
6.62492
 20
0.114792
 11
6.79997
 21
0.112488
  0
LINE
  8
0
 10
6.79997
 20
0.112488
 11
8.29997
 21
0.112488
  0
LINE
  8
0
 10
8.29997
 20
0.112488
 11
8.29997
 21
2.6125
  0
LINE
  8
0
 10
6.72568
 20
7.73306
 11
6.70013
 21
7.80521
  0
LINE
  8
0
 10
6.70013
 20
7.80521
 11
6.73308
 21
7.8743
  0
LINE
  8
0
 10
6.73308
 20
7.8743
 11
6.80521
 21
7.89984
  0
LINE
  8
0
 10
6.80521
 20
7.89984
 11
6.8743
 21
7.8669
  0
LINE
  8
0
 10
6.8743
 20
7.8669
 11
6.89984
 21
7.79475
  0
LINE
  8
0
 10
6.89984
 20
7.79475
 11
6.8669
 21
7.72566
  0
LINE
  8
0
 10
6.8669
 20
7.72566
 11
6.79477
 21
7.70012
  0
LINE
  8
0
 10
6.79477
 20
7.70012
 11
6.72568
 21
7.73306
  0
LINE
  8
0
 10
6.74146
 20
6.24306
 11
6.65506
 21
6.25908
  0
LINE
  8
0
 10
6.65506
 20
6.25908
 11
6.57222
 21
6.28841
  0
LINE
  8
0
 10
6.57222
 20
6.28841
 11
6.495
 21
6.33034
  0
LINE
  8
0
 10
6.495
 20
6.33034
 11
6.42528
 21
6.38383
  0
LINE
  8
0
 10
6.42528
 20
6.38383
 11
6.36479
 21
6.44757
  0
LINE
  8
0
 10
6.36479
 20
6.44757
 11
6.31502
 21
6.51999
  0
LINE
  8
0
 10
6.31502
 20
6.51999
 11
6.27719
 21
6.5993
  0
LINE
  8
0
 10
6.27719
 20
6.5993
 11
6.25223
 21
6.68356
  0
LINE
  8
0
 10
6.25223
 20
6.68356
 11
6.24077
 21
6.77069
  0
LINE
  8
0
 10
6.24077
 20
6.77069
 11
6.24306
 21
6.85852
  0
LINE
  8
0
 10
6.24306
 20
6.85852
 11
6.25908
 21
6.94492
  0
LINE
  8
0
 10
6.25908
 20
6.94492
 11
6.28841
 21
7.02776
  0
LINE
  8
0
 10
6.28841
 20
7.02776
 11
6.33034
 21
7.10498
  0
LINE
  8
0
 10
6.33034
 20
7.10498
 11
6.38383
 21
7.1747
  0
LINE
  8
0
 10
6.38383
 20
7.1747
 11
6.44757
 21
7.23518
  0
LINE
  8
0
 10
6.44757
 20
7.23518
 11
6.51999
 21
7.28496
  0
LINE
  8
0
 10
6.51999
 20
7.28496
 11
6.5993
 21
7.32278
  0
LINE
  8
0
 10
6.5993
 20
7.32278
 11
6.68356
 21
7.34775
  0
LINE
  8
0
 10
6.68356
 20
7.34775
 11
6.77069
 21
7.35921
  0
LINE
  8
0
 10
6.77069
 20
7.35921
 11
6.85852
 21
7.35692
  0
LINE
  8
0
 10
6.85852
 20
7.35692
 11
6.94492
 21
7.3409
  0
LINE
  8
0
 10
6.94492
 20
7.3409
 11
7.02776
 21
7.31157
  0
LINE
  8
0
 10
7.02776
 20
7.31157
 11
7.10498
 21
7.26964
  0
LINE
  8
0
 10
7.10498
 20
7.26964
 11
7.1747
 21
7.21614
  0
LINE
  8
0
 10
7.1747
 20
7.21614
 11
7.23518
 21
7.1524
  0
LINE
  8
0
 10
7.23518
 20
7.1524
 11
7.28496
 21
7.07999
  0
LINE
  8
0
 10
7.28496
 20
7.07999
 11
7.32278
 21
7.00067
  0
LINE
  8
0
 10
7.32278
 20
7.00067
 11
7.34775
 21
6.91641
  0
LINE
  8
0
 10
7.34775
 20
6.91641
 11
7.35921
 21
6.82928
  0
LINE
  8
0
 10
7.35921
 20
6.82928
 11
7.35692
 21
6.74146
  0
LINE
  8
0
 10
7.35692
 20
6.74146
 11
7.3409
 21
6.65506
  0
LINE
  8
0
 10
7.3409
 20
6.65506
 11
7.31157
 21
6.57222
  0
LINE
  8
0
 10
7.31157
 20
6.57222
 11
7.26964
 21
6.495
  0
LINE
  8
0
 10
7.26964
 20
6.495
 11
7.21614
 21
6.42528
  0
LINE
  8
0
 10
7.21614
 20
6.42528
 11
7.1524
 21
6.36479
  0
LINE
  8
0
 10
7.1524
 20
6.36479
 11
7.07999
 21
6.31502
  0
LINE
  8
0
 10
7.07999
 20
6.31502
 11
7.00067
 21
6.27719
  0
LINE
  8
0
 10
7.00067
 20
6.27719
 11
6.91641
 21
6.25223
  0
LINE
  8
0
 10
6.91641
 20
6.25223
 11
6.82928
 21
6.24077
  0
LINE
  8
0
 10
6.82928
 20
6.24077
 11
6.74146
 21
6.24306
  0
LINE
  8
0
 10
7.72566
 20
6.73308
 11
7.70012
 21
6.80521
  0
LINE
  8
0
 10
7.70012
 20
6.80521
 11
7.73306
 21
6.8743
  0
LINE
  8
0
 10
7.73306
 20
6.8743
 11
7.80521
 21
6.89984
  0
LINE
  8
0
 10
7.80521
 20
6.89984
 11
7.8743
 21
6.8669
  0
LINE
  8
0
 10
7.8743
 20
6.8669
 11
7.89984
 21
6.79477
  0
LINE
  8
0
 10
7.89984
 20
6.79477
 11
7.8669
 21
6.72568
  0
LINE
  8
0
 10
7.8669
 20
6.72568
 11
7.79475
 21
6.70013
  0
LINE
  8
0
 10
7.79475
 20
6.70013
 11
7.72566
 21
6.73308
  0
LINE
  8
0
 10
5.72568
 20
6.73306
 11
5.70013
 21
6.80519
  0
LINE
  8
0
 10
5.70013
 20
6.80519
 11
5.73308
 21
6.87428
  0
LINE
  8
0
 10
5.73308
 20
6.87428
 11
5.80522
 21
6.89983
  0
LINE
  8
0
 10
5.80522
 20
6.89983
 11
5.87431
 21
6.86688
  0
LINE
  8
0
 10
5.87431
 20
6.86688
 11
5.89986
 21
6.79475
  0
LINE
  8
0
 10
5.89986
 20
6.79475
 11
5.86691
 21
6.72566
  0
LINE
  8
0
 10
5.86691
 20
6.72566
 11
5.79477
 21
6.70012
  0
LINE
  8
0
 10
5.79477
 20
6.70012
 11
5.72568
 21
6.73306
  0
LINE
  8
0
 10
6.72566
 20
5.73308
 11
6.70012
 21
5.80522
  0
LINE
  8
0
 10
6.70012
 20
5.80522
 11
6.73306
 21
5.87431
  0
LINE
  8
0
 10
6.73306
 20
5.87431
 11
6.80519
 21
5.89986
  0
LINE
  8
0
 10
6.80519
 20
5.89986
 11
6.87428
 21
5.86691
  0
LINE
  8
0
 10
6.87428
 20
5.86691
 11
6.89983
 21
5.79477
  0
LINE
  8
0
 10
6.89983
 20
5.79477
 11
6.86688
 21
5.72568
  0
LINE
  8
0
 10
6.86688
 20
5.72568
 11
6.79475
 21
5.70013
  0
LINE
  8
0
 10
6.79475
 20
5.70013
 11
6.72566
 21
5.73308
  0
LINE
  8
0
 10
15.0068
 20
4.58434
 11
14.9582
 21
4.64439
  0
LINE
  8
0
 10
14.9582
 20
4.64439
 11
14.9703
 21
4.72072
  0
LINE
  8
0
 10
14.9703
 20
4.72072
 11
15.0351
 21
4.76282
  0
LINE
  8
0
 10
15.0351
 20
4.76282
 11
15.1097
 21
4.74281
  0
LINE
  8
0
 10
15.1097
 20
4.74281
 11
15.1448
 21
4.67395
  0
LINE
  8
0
 10
15.1448
 20
4.67395
 11
15.1171
 21
4.60181
  0
LINE
  8
0
 10
15.1171
 20
4.60181
 11
15.084
 21
4.58029
  0
LINE
  8
0
 10
15.084
 20
4.58029
 11
15.0068
 21
4.58434
  0
LINE
  8
0
 10
14.0068
 20
4.58434
 11
13.9582
 21
4.64439
  0
LINE
  8
0
 10
13.9582
 20
4.64439
 11
13.9703
 21
4.72072
  0
LINE
  8
0
 10
13.9703
 20
4.72072
 11
14.0351
 21
4.76282
  0
LINE
  8
0
 10
14.0351
 20
4.76282
 11
14.1097
 21
4.74281
  0
LINE
  8
0
 10
14.1097
 20
4.74281
 11
14.1448
 21
4.67395
  0
LINE
  8
0
 10
14.1448
 20
4.67395
 11
14.1171
 21
4.60181
  0
LINE
  8
0
 10
14.1171
 20
4.60181
 11
14.084
 21
4.58029
  0
LINE
  8
0
 10
14.084
 20
4.58029
 11
14.0068
 21
4.58434
  0
LINE
  8
0
 10
14.0068
 20
2.83435
 11
13.9582
 21
2.89441
  0
LINE
  8
0
 10
13.9582
 20
2.89441
 11
13.9703
 21
2.97073
  0
LINE
  8
0
 10
13.9703
 20
2.97073
 11
14.0351
 21
3.01283
  0
LINE
  8
0
 10
14.0351
 20
3.01283
 11
14.1097
 21
2.99283
  0
LINE
  8
0
 10
14.1097
 20
2.99283
 11
14.1448
 21
2.92397
  0
LINE
  8
0
 10
14.1448
 20
2.92397
 11
14.1171
 21
2.85182
  0
LINE
  8
0
 10
14.1171
 20
2.85182
 11
14.084
 21
2.83031
  0
LINE
  8
0
 10
14.084
 20
2.83031
 11
14.0068
 21
2.83435
  0
LINE
  8
0
 10
15.0068
 20
2.83435
 11
14.9582
 21
2.89441
  0
LINE
  8
0
 10
14.9582
 20
2.89441
 11
14.9703
 21
2.97073
  0
LINE
  8
0
 10
14.9703
 20
2.97073
 11
15.0351
 21
3.01283
  0
LINE
  8
0
 10
15.0351
 20
3.01283
 11
15.1097
 21
2.99283
  0
LINE
  8
0
 10
15.1097
 20
2.99283
 11
15.1448
 21
2.92397
  0
LINE
  8
0
 10
15.1448
 20
2.92397
 11
15.1171
 21
2.85182
  0
LINE
  8
0
 10
15.1171
 20
2.85182
 11
15.084
 21
2.83031
  0
LINE
  8
0
 10
15.084
 20
2.83031
 11
15.0068
 21
2.83435
  0
ENDSEC
  0
SECTION
  2
OBJECTS
  0
DICTIONARY
  0
ENDSEC
  0
EOF
