  0
SECTION
  2
BLOCKS
  0
ENDSEC
  0
SECTION
  2
ENTITIES
  0
LINE
  8
0
 10
15.35
 20
15.6125
 11
9.09999
 21
15.6125
  0
LINE
  8
0
 10
9.09999
 20
15.6125
 11
9.09999
 21
23.9875
  0
LINE
  8
0
 10
9.09999
 20
23.9875
 11
7.59999
 21
23.9875
  0
LINE
  8
0
 10
7.59999
 20
23.9875
 11
7.25
 21
23.9783
  0
LINE
  8
0
 10
7.25
 20
23.9783
 11
6.90097
 21
23.9508
  0
LINE
  8
0
 10
6.90097
 20
23.9508
 11
6.55385
 21
23.9051
  0
LINE
  8
0
 10
6.55385
 20
23.9051
 11
6.20959
 21
23.8413
  0
LINE
  8
0
 10
6.20959
 20
23.8413
 11
5.86914
 21
23.7596
  0
LINE
  8
0
 10
5.86914
 20
23.7596
 11
5.53345
 21
23.6602
  0
LINE
  8
0
 10
5.53345
 20
23.6602
 11
5.20341
 21
23.5433
  0
LINE
  8
0
 10
5.20341
 20
23.5433
 11
4.87994
 21
23.4093
  0
LINE
  8
0
 10
4.87994
 20
23.4093
 11
4.56393
 21
23.2586
  0
LINE
  8
0
 10
4.56393
 20
23.2586
 11
4.25626
 21
23.0915
  0
LINE
  8
0
 10
4.25626
 20
23.0915
 11
3.95772
 21
22.9086
  0
LINE
  8
0
 10
3.95772
 20
22.9086
 11
3.66919
 21
22.7103
  0
LINE
  8
0
 10
3.66919
 20
22.7103
 11
3.39142
 21
22.4971
  0
LINE
  8
0
 10
3.39142
 20
22.4971
 11
3.12518
 21
22.2697
  0
LINE
  8
0
 10
3.12518
 20
22.2697
 11
2.87122
 21
22.0287
  0
LINE
  8
0
 10
2.87122
 20
22.0287
 11
2.63022
 21
21.7748
  0
LINE
  8
0
 10
2.63022
 20
21.7748
 11
2.40283
 21
21.5085
  0
LINE
  8
0
 10
2.40283
 20
21.5085
 11
2.1897
 21
21.2308
  0
LINE
  8
0
 10
2.1897
 20
21.2308
 11
1.99139
 21
20.9422
  0
LINE
  8
0
 10
1.99139
 20
20.9422
 11
1.80846
 21
20.6437
  0
LINE
  8
0
 10
1.80846
 20
20.6437
 11
1.64139
 21
20.336
  0
LINE
  8
0
 10
1.64139
 20
20.336
 11
1.49066
 21
20.02
  0
LINE
  8
0
 10
1.49066
 20
20.02
 11
1.35667
 21
19.6965
  0
LINE
  8
0
 10
1.35667
 20
19.6965
 11
1.23981
 21
19.3665
  0
LINE
  8
0
 10
1.23981
 20
19.3665
 11
1.14037
 21
19.0308
  0
LINE
  8
0
 10
1.14037
 20
19.0308
 11
1.05864
 21
18.6904
  0
LINE
  8
0
 10
1.05864
 20
18.6904
 11
0.994827
 21
18.3461
  0
LINE
  8
0
 10
0.994827
 20
18.3461
 11
0.949127
 21
17.999
  0
LINE
  8
0
 10
0.949127
 20
17.999
 11
0.921661
 21
17.65
  0
LINE
  8
0
 10
0.921661
 20
17.65
 11
0.912491
 21
17.3
  0
LINE
  8
0
 10
0.912491
 20
17.3
 11
0.921661
 21
16.95
  0
LINE
  8
0
 10
0.921661
 20
16.95
 11
0.949127
 21
16.601
  0
LINE
  8
0
 10
0.949127
 20
16.601
 11
0.994827
 21
16.2538
  0
LINE
  8
0
 10
0.994827
 20
16.2538
 11
1.05864
 21
15.9096
  0
LINE
  8
0
 10
1.05864
 20
15.9096
 11
1.14037
 21
15.5691
  0
LINE
  8
0
 10
1.14037
 20
15.5691
 11
1.23981
 21
15.2334
  0
LINE
  8
0
 10
1.23981
 20
15.2334
 11
1.35667
 21
14.9034
  0
LINE
  8
0
 10
1.35667
 20
14.9034
 11
1.49066
 21
14.5799
  0
LINE
  8
0
 10
1.49066
 20
14.5799
 11
1.64139
 21
14.2639
  0
LINE
  8
0
 10
1.64139
 20
14.2639
 11
1.80846
 21
13.9562
  0
LINE
  8
0
 10
1.80846
 20
13.9562
 11
1.99139
 21
13.6577
  0
LINE
  8
0
 10
1.99139
 20
13.6577
 11
2.1897
 21
13.3692
  0
LINE
  8
0
 10
2.1897
 20
13.3692
 11
2.40283
 21
13.0914
  0
LINE
  8
0
 10
2.40283
 20
13.0914
 11
2.63022
 21
12.8252
  0
LINE
  8
0
 10
2.63022
 20
12.8252
 11
2.87122
 21
12.5712
  0
LINE
  8
0
 10
2.87122
 20
12.5712
 11
3.12518
 21
12.3302
  0
LINE
  8
0
 10
3.12518
 20
12.3302
 11
3.39142
 21
12.1028
  0
LINE
  8
0
 10
3.39142
 20
12.1028
 11
3.66919
 21
11.8897
  0
LINE
  8
0
 10
3.66919
 20
11.8897
 11
3.95772
 21
11.6914
  0
LINE
  8
0
 10
3.95772
 20
11.6914
 11
4.25626
 21
11.5085
  0
LINE
  8
0
 10
4.25626
 20
11.5085
 11
4.56393
 21
11.3414
  0
LINE
  8
0
 10
4.56393
 20
11.3414
 11
4.87994
 21
11.1907
  0
LINE
  8
0
 10
4.87994
 20
11.1907
 11
5.20341
 21
11.0567
  0
LINE
  8
0
 10
5.20341
 20
11.0567
 11
5.53345
 21
10.9398
  0
LINE
  8
0
 10
5.53345
 20
10.9398
 11
5.86914
 21
10.8404
  0
LINE
  8
0
 10
5.86914
 20
10.8404
 11
6.20959
 21
10.7586
  0
LINE
  8
0
 10
6.20959
 20
10.7586
 11
6.55385
 21
10.6948
  0
LINE
  8
0
 10
6.55385
 20
10.6948
 11
6.90097
 21
10.6491
  0
LINE
  8
0
 10
6.90097
 20
10.6491
 11
7.25
 21
10.6217
  0
LINE
  8
0
 10
7.25
 20
10.6217
 11
7.59999
 21
10.6125
  0
LINE
  8
0
 10
7.59999
 20
10.6125
 11
15.35
 21
10.6125
  0
LINE
  8
0
 10
15.35
 20
10.6125
 11
15.35
 21
15.6125
  0
LINE
  8
0
 10
7.54146
 20
16.743
 11
7.48357
 21
16.7522
  0
LINE
  8
0
 10
7.48357
 20
16.7522
 11
7.42696
 21
16.7674
  0
LINE
  8
0
 10
7.42696
 20
16.7674
 11
7.37222
 21
16.7884
  0
LINE
  8
0
 10
7.37222
 20
16.7884
 11
7.31999
 21
16.815
  0
LINE
  8
0
 10
7.31999
 20
16.815
 11
7.27084
 21
16.8469
  0
LINE
  8
0
 10
7.27084
 20
16.8469
 11
7.22528
 21
16.8838
  0
LINE
  8
0
 10
7.22528
 20
16.8838
 11
7.18384
 21
16.9253
  0
LINE
  8
0
 10
7.18384
 20
16.9253
 11
7.14694
 21
16.9708
  0
LINE
  8
0
 10
7.14694
 20
16.9708
 11
7.11502
 21
17.02
  0
LINE
  8
0
 10
7.11502
 20
17.02
 11
7.08841
 21
17.0722
  0
LINE
  8
0
 10
7.08841
 20
17.0722
 11
7.06741
 21
17.1269
  0
LINE
  8
0
 10
7.06741
 20
17.1269
 11
7.05223
 21
17.1835
  0
LINE
  8
0
 10
7.05223
 20
17.1835
 11
7.04306
 21
17.2414
  0
LINE
  8
0
 10
7.04306
 20
17.2414
 11
7.03999
 21
17.3
  0
LINE
  8
0
 10
7.03999
 20
17.3
 11
7.04306
 21
17.3585
  0
LINE
  8
0
 10
7.04306
 20
17.3585
 11
7.05223
 21
17.4164
  0
LINE
  8
0
 10
7.05223
 20
17.4164
 11
7.06741
 21
17.473
  0
LINE
  8
0
 10
7.06741
 20
17.473
 11
7.08841
 21
17.5277
  0
LINE
  8
0
 10
7.08841
 20
17.5277
 11
7.11502
 21
17.58
  0
LINE
  8
0
 10
7.11502
 20
17.58
 11
7.14694
 21
17.6291
  0
LINE
  8
0
 10
7.14694
 20
17.6291
 11
7.18384
 21
17.6747
  0
LINE
  8
0
 10
7.18384
 20
17.6747
 11
7.22528
 21
17.7161
  0
LINE
  8
0
 10
7.22528
 20
17.7161
 11
7.27084
 21
17.753
  0
LINE
  8
0
 10
7.27084
 20
17.753
 11
7.31999
 21
17.7849
  0
LINE
  8
0
 10
7.31999
 20
17.7849
 11
7.37222
 21
17.8116
  0
LINE
  8
0
 10
7.37222
 20
17.8116
 11
7.42696
 21
17.8326
  0
LINE
  8
0
 10
7.42696
 20
17.8326
 11
7.48357
 21
17.8477
  0
LINE
  8
0
 10
7.48357
 20
17.8477
 11
7.54146
 21
17.8569
  0
LINE
  8
0
 10
7.54146
 20
17.8569
 11
7.59999
 21
17.86
  0
LINE
  8
0
 10
7.59999
 20
17.86
 11
7.65852
 21
17.8569
  0
LINE
  8
0
 10
7.65852
 20
17.8569
 11
7.71642
 21
17.8477
  0
LINE
  8
0
 10
7.71642
 20
17.8477
 11
7.77303
 21
17.8326
  0
LINE
  8
0
 10
7.77303
 20
17.8326
 11
7.82776
 21
17.8116
  0
LINE
  8
0
 10
7.82776
 20
17.8116
 11
7.87999
 21
17.7849
  0
LINE
  8
0
 10
7.87999
 20
17.7849
 11
7.92914
 21
17.753
  0
LINE
  8
0
 10
7.92914
 20
17.753
 11
7.9747
 21
17.7161
  0
LINE
  8
0
 10
7.9747
 20
17.7161
 11
8.01614
 21
17.6747
  0
LINE
  8
0
 10
8.01614
 20
17.6747
 11
8.05304
 21
17.6291
  0
LINE
  8
0
 10
8.05304
 20
17.6291
 11
8.08496
 21
17.58
  0
LINE
  8
0
 10
8.08496
 20
17.58
 11
8.11157
 21
17.5278
  0
LINE
  8
0
 10
8.11157
 20
17.5278
 11
8.13257
 21
17.473
  0
LINE
  8
0
 10
8.13257
 20
17.473
 11
8.14775
 21
17.4164
  0
LINE
  8
0
 10
8.14775
 20
17.4164
 11
8.15692
 21
17.3585
  0
LINE
  8
0
 10
8.15692
 20
17.3585
 11
8.15999
 21
17.3
  0
LINE
  8
0
 10
8.15999
 20
17.3
 11
8.15692
 21
17.2415
  0
LINE
  8
0
 10
8.15692
 20
17.2415
 11
8.14775
 21
17.1836
  0
LINE
  8
0
 10
8.14775
 20
17.1836
 11
8.13257
 21
17.127
  0
LINE
  8
0
 10
8.13257
 20
17.127
 11
8.11157
 21
17.0722
  0
LINE
  8
0
 10
8.11157
 20
17.0722
 11
8.08496
 21
17.02
  0
LINE
  8
0
 10
8.08496
 20
17.02
 11
8.05304
 21
16.9708
  0
LINE
  8
0
 10
8.05304
 20
16.9708
 11
8.01614
 21
16.9253
  0
LINE
  8
0
 10
8.01614
 20
16.9253
 11
7.9747
 21
16.8838
  0
LINE
  8
0
 10
7.9747
 20
16.8838
 11
7.92914
 21
16.8469
  0
LINE
  8
0
 10
7.92914
 20
16.8469
 11
7.87999
 21
16.815
  0
LINE
  8
0
 10
7.87999
 20
16.815
 11
7.82776
 21
16.7884
  0
LINE
  8
0
 10
7.82776
 20
16.7884
 11
7.77303
 21
16.7674
  0
LINE
  8
0
 10
7.77303
 20
16.7674
 11
7.71642
 21
16.7522
  0
LINE
  8
0
 10
7.71642
 20
16.7522
 11
7.65852
 21
16.743
  0
LINE
  8
0
 10
7.65852
 20
16.743
 11
7.59999
 21
16.74
  0
LINE
  8
0
 10
7.59999
 20
16.74
 11
7.54146
 21
16.743
  0
LINE
  8
0
 10
17.55
 20
10.6217
 11
17.899
 21
10.6491
  0
LINE
  8
0
 10
17.899
 20
10.6491
 11
18.2461
 21
10.6948
  0
LINE
  8
0
 10
18.2461
 20
10.6948
 11
18.5904
 21
10.7586
  0
LINE
  8
0
 10
18.5904
 20
10.7586
 11
18.9308
 21
10.8404
  0
LINE
  8
0
 10
18.9308
 20
10.8404
 11
19.2665
 21
10.9398
  0
LINE
  8
0
 10
19.2665
 20
10.9398
 11
19.5966
 21
11.0567
  0
LINE
  8
0
 10
19.5966
 20
11.0567
 11
19.92
 21
11.1907
  0
LINE
  8
0
 10
19.92
 20
11.1907
 11
20.2361
 21
11.3414
  0
LINE
  8
0
 10
20.2361
 20
11.3414
 11
20.5437
 21
11.5085
  0
LINE
  8
0
 10
20.5437
 20
11.5085
 11
20.8423
 21
11.6914
  0
LINE
  8
0
 10
20.8423
 20
11.6914
 11
21.1308
 21
11.8897
  0
LINE
  8
0
 10
21.1308
 20
11.8897
 11
21.4086
 21
12.1028
  0
LINE
  8
0
 10
21.4086
 20
12.1028
 11
21.6748
 21
12.3302
  0
LINE
  8
0
 10
21.6748
 20
12.3302
 11
21.9288
 21
12.5712
  0
LINE
  8
0
 10
21.9288
 20
12.5712
 11
22.1698
 21
12.8252
  0
LINE
  8
0
 10
22.1698
 20
12.8252
 11
22.3972
 21
13.0914
  0
LINE
  8
0
 10
22.3972
 20
13.0914
 11
22.6103
 21
13.3692
  0
LINE
  8
0
 10
22.6103
 20
13.3692
 11
22.8086
 21
13.6577
  0
LINE
  8
0
 10
22.8086
 20
13.6577
 11
22.9915
 21
13.9563
  0
LINE
  8
0
 10
22.9915
 20
13.9563
 11
23.1586
 21
14.2639
  0
LINE
  8
0
 10
23.1586
 20
14.2639
 11
23.3093
 21
14.5799
  0
LINE
  8
0
 10
23.3093
 20
14.5799
 11
23.4433
 21
14.9034
  0
LINE
  8
0
 10
23.4433
 20
14.9034
 11
23.5602
 21
15.2334
  0
LINE
  8
0
 10
23.5602
 20
15.2334
 11
23.6596
 21
15.5691
  0
LINE
  8
0
 10
23.6596
 20
15.5691
 11
23.7413
 21
15.9096
  0
LINE
  8
0
 10
23.7413
 20
15.9096
 11
23.8052
 21
16.2538
  0
LINE
  8
0
 10
23.8052
 20
16.2538
 11
23.8509
 21
16.601
  0
LINE
  8
0
 10
23.8509
 20
16.601
 11
23.8783
 21
16.95
  0
LINE
  8
0
 10
23.8783
 20
16.95
 11
23.8875
 21
17.3
  0
LINE
  8
0
 10
23.8875
 20
17.3
 11
23.8783
 21
17.65
  0
LINE
  8
0
 10
23.8783
 20
17.65
 11
23.8509
 21
17.999
  0
LINE
  8
0
 10
23.8509
 20
17.999
 11
23.8052
 21
18.3461
  0
LINE
  8
0
 10
23.8052
 20
18.3461
 11
23.7413
 21
18.6904
  0
LINE
  8
0
 10
23.7413
 20
18.6904
 11
23.6596
 21
19.0308
  0
LINE
  8
0
 10
23.6596
 20
19.0308
 11
23.5602
 21
19.3665
  0
LINE
  8
0
 10
23.5602
 20
19.3665
 11
23.4433
 21
19.6966
  0
LINE
  8
0
 10
23.4433
 20
19.6966
 11
23.3093
 21
20.02
  0
LINE
  8
0
 10
23.3093
 20
20.02
 11
23.1586
 21
20.336
  0
LINE
  8
0
 10
23.1586
 20
20.336
 11
22.9915
 21
20.6437
  0
LINE
  8
0
 10
22.9915
 20
20.6437
 11
22.8086
 21
20.9423
  0
LINE
  8
0
 10
22.8086
 20
20.9423
 11
22.6103
 21
21.2308
  0
LINE
  8
0
 10
22.6103
 20
21.2308
 11
22.3972
 21
21.5086
  0
LINE
  8
0
 10
22.3972
 20
21.5086
 11
22.1698
 21
21.7748
  0
LINE
  8
0
 10
22.1698
 20
21.7748
 11
21.9288
 21
22.0288
  0
LINE
  8
0
 10
21.9288
 20
22.0288
 11
21.6748
 21
22.2698
  0
LINE
  8
0
 10
21.6748
 20
22.2698
 11
21.4086
 21
22.4971
  0
LINE
  8
0
 10
21.4086
 20
22.4971
 11
21.1308
 21
22.7103
  0
LINE
  8
0
 10
21.1308
 20
22.7103
 11
20.8423
 21
22.9086
  0
LINE
  8
0
 10
20.8423
 20
22.9086
 11
20.5437
 21
23.0915
  0
LINE
  8
0
 10
20.5437
 20
23.0915
 11
20.2361
 21
23.2586
  0
LINE
  8
0
 10
20.2361
 20
23.2586
 11
19.92
 21
23.4093
  0
LINE
  8
0
 10
19.92
 20
23.4093
 11
19.5966
 21
23.5433
  0
LINE
  8
0
 10
19.5966
 20
23.5433
 11
19.2665
 21
23.6602
  0
LINE
  8
0
 10
19.2665
 20
23.6602
 11
18.9308
 21
23.7596
  0
LINE
  8
0
 10
18.9308
 20
23.7596
 11
18.5904
 21
23.8413
  0
LINE
  8
0
 10
18.5904
 20
23.8413
 11
18.2461
 21
23.9052
  0
LINE
  8
0
 10
18.2461
 20
23.9052
 11
17.899
 21
23.9509
  0
LINE
  8
0
 10
17.899
 20
23.9509
 11
17.55
 21
23.9783
  0
LINE
  8
0
 10
17.55
 20
23.9783
 11
17.2
 21
23.9875
  0
LINE
  8
0
 10
17.2
 20
23.9875
 11
9.45
 21
23.9875
  0
LINE
  8
0
 10
9.45
 20
23.9875
 11
9.45
 21
18.9875
  0
LINE
  8
0
 10
9.45
 20
18.9875
 11
15.7
 21
18.9875
  0
LINE
  8
0
 10
15.7
 20
18.9875
 11
15.7
 21
10.6125
  0
LINE
  8
0
 10
15.7
 20
10.6125
 11
17.2
 21
10.6125
  0
LINE
  8
0
 10
17.2
 20
10.6125
 11
17.55
 21
10.6217
  0
LINE
  8
0
 10
17.1415
 20
16.7431
 11
17.0836
 21
16.7522
  0
LINE
  8
0
 10
17.0836
 20
16.7522
 11
17.027
 21
16.7674
  0
LINE
  8
0
 10
17.027
 20
16.7674
 11
16.9722
 21
16.7884
  0
LINE
  8
0
 10
16.9722
 20
16.7884
 11
16.92
 21
16.815
  0
LINE
  8
0
 10
16.92
 20
16.815
 11
16.8708
 21
16.8469
  0
LINE
  8
0
 10
16.8708
 20
16.8469
 11
16.8253
 21
16.8838
  0
LINE
  8
0
 10
16.8253
 20
16.8838
 11
16.7838
 21
16.9253
  0
LINE
  8
0
 10
16.7838
 20
16.9253
 11
16.7469
 21
16.9708
  0
LINE
  8
0
 10
16.7469
 20
16.9708
 11
16.715
 21
17.02
  0
LINE
  8
0
 10
16.715
 20
17.02
 11
16.6884
 21
17.0722
  0
LINE
  8
0
 10
16.6884
 20
17.0722
 11
16.6674
 21
17.127
  0
LINE
  8
0
 10
16.6674
 20
17.127
 11
16.6522
 21
17.1836
  0
LINE
  8
0
 10
16.6522
 20
17.1836
 11
16.6431
 21
17.2415
  0
LINE
  8
0
 10
16.6431
 20
17.2415
 11
16.64
 21
17.3
  0
LINE
  8
0
 10
16.64
 20
17.3
 11
16.6431
 21
17.3585
  0
LINE
  8
0
 10
16.6431
 20
17.3585
 11
16.6522
 21
17.4164
  0
LINE
  8
0
 10
16.6522
 20
17.4164
 11
16.6674
 21
17.473
  0
LINE
  8
0
 10
16.6674
 20
17.473
 11
16.6884
 21
17.5278
  0
LINE
  8
0
 10
16.6884
 20
17.5278
 11
16.715
 21
17.58
  0
LINE
  8
0
 10
16.715
 20
17.58
 11
16.7469
 21
17.6291
  0
LINE
  8
0
 10
16.7469
 20
17.6291
 11
16.7838
 21
17.6747
  0
LINE
  8
0
 10
16.7838
 20
17.6747
 11
16.8253
 21
17.7161
  0
LINE
  8
0
 10
16.8253
 20
17.7161
 11
16.8708
 21
17.753
  0
LINE
  8
0
 10
16.8708
 20
17.753
 11
16.92
 21
17.785
  0
LINE
  8
0
 10
16.92
 20
17.785
 11
16.9722
 21
17.8116
  0
LINE
  8
0
 10
16.9722
 20
17.8116
 11
17.027
 21
17.8326
  0
LINE
  8
0
 10
17.027
 20
17.8326
 11
17.0836
 21
17.8477
  0
LINE
  8
0
 10
17.0836
 20
17.8477
 11
17.1415
 21
17.8569
  0
LINE
  8
0
 10
17.1415
 20
17.8569
 11
17.2
 21
17.86
  0
LINE
  8
0
 10
17.2
 20
17.86
 11
17.2585
 21
17.8569
  0
LINE
  8
0
 10
17.2585
 20
17.8569
 11
17.3164
 21
17.8477
  0
LINE
  8
0
 10
17.3164
 20
17.8477
 11
17.373
 21
17.8326
  0
LINE
  8
0
 10
17.373
 20
17.8326
 11
17.4278
 21
17.8116
  0
LINE
  8
0
 10
17.4278
 20
17.8116
 11
17.48
 21
17.785
  0
LINE
  8
0
 10
17.48
 20
17.785
 11
17.5291
 21
17.753
  0
LINE
  8
0
 10
17.5291
 20
17.753
 11
17.5747
 21
17.7161
  0
LINE
  8
0
 10
17.5747
 20
17.7161
 11
17.6161
 21
17.6747
  0
LINE
  8
0
 10
17.6161
 20
17.6747
 11
17.653
 21
17.6291
  0
LINE
  8
0
 10
17.653
 20
17.6291
 11
17.685
 21
17.58
  0
LINE
  8
0
 10
17.685
 20
17.58
 11
17.7116
 21
17.5278
  0
LINE
  8
0
 10
17.7116
 20
17.5278
 11
17.7326
 21
17.473
  0
LINE
  8
0
 10
17.7326
 20
17.473
 11
17.7478
 21
17.4164
  0
LINE
  8
0
 10
17.7478
 20
17.4164
 11
17.7569
 21
17.3585
  0
LINE
  8
0
 10
17.7569
 20
17.3585
 11
17.76
 21
17.3
  0
LINE
  8
0
 10
17.76
 20
17.3
 11
17.7569
 21
17.2415
  0
LINE
  8
0
 10
17.7569
 20
17.2415
 11
17.7478
 21
17.1836
  0
LINE
  8
0
 10
17.7478
 20
17.1836
 11
17.7326
 21
17.127
  0
LINE
  8
0
 10
17.7326
 20
17.127
 11
17.7116
 21
17.0722
  0
LINE
  8
0
 10
17.7116
 20
17.0722
 11
17.685
 21
17.02
  0
LINE
  8
0
 10
17.685
 20
17.02
 11
17.653
 21
16.9708
  0
LINE
  8
0
 10
17.653
 20
16.9708
 11
17.6161
 21
16.9253
  0
LINE
  8
0
 10
17.6161
 20
16.9253
 11
17.5747
 21
16.8838
  0
LINE
  8
0
 10
17.5747
 20
16.8838
 11
17.5291
 21
16.8469
  0
LINE
  8
0
 10
17.5291
 20
16.8469
 11
17.48
 21
16.815
  0
LINE
  8
0
 10
17.48
 20
16.815
 11
17.4278
 21
16.7884
  0
LINE
  8
0
 10
17.4278
 20
16.7884
 11
17.373
 21
16.7674
  0
LINE
  8
0
 10
17.373
 20
16.7674
 11
17.3164
 21
16.7522
  0
LINE
  8
0
 10
17.3164
 20
16.7522
 11
17.2585
 21
16.7431
  0
LINE
  8
0
 10
17.2585
 20
16.7431
 11
17.2
 21
16.74
  0
LINE
  8
0
 10
17.2
 20
16.74
 11
17.1415
 21
16.7431
  0
LINE
  8
0
 10
32.2
 20
3.94511
 11
38.2625
 21
3.94511
  0
LINE
  8
0
 10
38.2625
 20
3.94511
 11
38.2625
 21
14.8125
  0
LINE
  8
0
 10
38.2625
 20
14.8125
 11
24.1375
 21
14.8125
  0
LINE
  8
0
 10
24.1375
 20
14.8125
 11
24.1375
 21
3.94511
  0
LINE
  8
0
 10
24.1375
 20
3.94511
 11
30.2
 21
3.94511
  0
LINE
  8
0
 10
30.2
 20
3.94511
 11
30.2
 21
0.3125
  0
LINE
  8
0
 10
30.2
 20
0.3125
 11
32.2
 21
0.3125
  0
LINE
  8
0
 10
32.2
 20
0.3125
 11
32.2
 21
3.94511
  0
LINE
  8
0
 10
37.7235
 20
14.1291
 11
37.6862
 21
14.1412
  0
LINE
  8
0
 10
37.6862
 20
14.1412
 11
37.6523
 21
14.1608
  0
LINE
  8
0
 10
37.6523
 20
14.1608
 11
37.6231
 21
14.187
  0
LINE
  8
0
 10
37.6231
 20
14.187
 11
37.6001
 21
14.2188
  0
LINE
  8
0
 10
37.6001
 20
14.2188
 11
37.5842
 21
14.2545
  0
LINE
  8
0
 10
37.5842
 20
14.2545
 11
37.576
 21
14.2929
  0
LINE
  8
0
 10
37.576
 20
14.2929
 11
37.576
 21
14.3321
  0
LINE
  8
0
 10
37.576
 20
14.3321
 11
37.5842
 21
14.3704
  0
LINE
  8
0
 10
37.5842
 20
14.3704
 11
37.6001
 21
14.4062
  0
LINE
  8
0
 10
37.6001
 20
14.4062
 11
37.6231
 21
14.438
  0
LINE
  8
0
 10
37.6231
 20
14.438
 11
37.6523
 21
14.4642
  0
LINE
  8
0
 10
37.6523
 20
14.4642
 11
37.6862
 21
14.4838
  0
LINE
  8
0
 10
37.6862
 20
14.4838
 11
37.7235
 21
14.4959
  0
LINE
  8
0
 10
37.7235
 20
14.4959
 11
37.7625
 21
14.5
  0
LINE
  8
0
 10
37.7625
 20
14.5
 11
37.8015
 21
14.4959
  0
LINE
  8
0
 10
37.8015
 20
14.4959
 11
37.8387
 21
14.4838
  0
LINE
  8
0
 10
37.8387
 20
14.4838
 11
37.8727
 21
14.4642
  0
LINE
  8
0
 10
37.8727
 20
14.4642
 11
37.9018
 21
14.438
  0
LINE
  8
0
 10
37.9018
 20
14.438
 11
37.9249
 21
14.4062
  0
LINE
  8
0
 10
37.9249
 20
14.4062
 11
37.9408
 21
14.3704
  0
LINE
  8
0
 10
37.9408
 20
14.3704
 11
37.9489
 21
14.3321
  0
LINE
  8
0
 10
37.9489
 20
14.3321
 11
37.9489
 21
14.2929
  0
LINE
  8
0
 10
37.9489
 20
14.2929
 11
37.9408
 21
14.2545
  0
LINE
  8
0
 10
37.9408
 20
14.2545
 11
37.9249
 21
14.2188
  0
LINE
  8
0
 10
37.9249
 20
14.2188
 11
37.9018
 21
14.187
  0
LINE
  8
0
 10
37.9018
 20
14.187
 11
37.8727
 21
14.1608
  0
LINE
  8
0
 10
37.8727
 20
14.1608
 11
37.8387
 21
14.1412
  0
LINE
  8
0
 10
37.8387
 20
14.1412
 11
37.8015
 21
14.1291
  0
LINE
  8
0
 10
37.8015
 20
14.1291
 11
37.7625
 21
14.125
  0
LINE
  8
0
 10
37.7625
 20
14.125
 11
37.7235
 21
14.1291
  0
LINE
  8
0
 10
31.161
 20
14.1291
 11
31.1237
 21
14.1412
  0
LINE
  8
0
 10
31.1237
 20
14.1412
 11
31.0898
 21
14.1608
  0
LINE
  8
0
 10
31.0898
 20
14.1608
 11
31.0607
 21
14.187
  0
LINE
  8
0
 10
31.0607
 20
14.187
 11
31.0376
 21
14.2188
  0
LINE
  8
0
 10
31.0376
 20
14.2188
 11
31.0217
 21
14.2545
  0
LINE
  8
0
 10
31.0217
 20
14.2545
 11
31.0135
 21
14.2929
  0
LINE
  8
0
 10
31.0135
 20
14.2929
 11
31.0135
 21
14.3321
  0
LINE
  8
0
 10
31.0135
 20
14.3321
 11
31.0217
 21
14.3704
  0
LINE
  8
0
 10
31.0217
 20
14.3704
 11
31.0376
 21
14.4062
  0
LINE
  8
0
 10
31.0376
 20
14.4062
 11
31.0607
 21
14.438
  0
LINE
  8
0
 10
31.0607
 20
14.438
 11
31.0898
 21
14.4642
  0
LINE
  8
0
 10
31.0898
 20
14.4642
 11
31.1237
 21
14.4838
  0
LINE
  8
0
 10
31.1237
 20
14.4838
 11
31.161
 21
14.4959
  0
LINE
  8
0
 10
31.161
 20
14.4959
 11
31.2
 21
14.5
  0
LINE
  8
0
 10
31.2
 20
14.5
 11
31.239
 21
14.4959
  0
LINE
  8
0
 10
31.239
 20
14.4959
 11
31.2762
 21
14.4838
  0
LINE
  8
0
 10
31.2762
 20
14.4838
 11
31.3102
 21
14.4642
  0
LINE
  8
0
 10
31.3102
 20
14.4642
 11
31.3393
 21
14.438
  0
LINE
  8
0
 10
31.3393
 20
14.438
 11
31.3624
 21
14.4062
  0
LINE
  8
0
 10
31.3624
 20
14.4062
 11
31.3783
 21
14.3704
  0
LINE
  8
0
 10
31.3783
 20
14.3704
 11
31.3864
 21
14.3321
  0
LINE
  8
0
 10
31.3864
 20
14.3321
 11
31.3864
 21
14.2929
  0
LINE
  8
0
 10
31.3864
 20
14.2929
 11
31.3783
 21
14.2545
  0
LINE
  8
0
 10
31.3783
 20
14.2545
 11
31.3624
 21
14.2188
  0
LINE
  8
0
 10
31.3624
 20
14.2188
 11
31.3393
 21
14.187
  0
LINE
  8
0
 10
31.3393
 20
14.187
 11
31.3102
 21
14.1608
  0
LINE
  8
0
 10
31.3102
 20
14.1608
 11
31.2762
 21
14.1412
  0
LINE
  8
0
 10
31.2762
 20
14.1412
 11
31.239
 21
14.1291
  0
LINE
  8
0
 10
31.239
 20
14.1291
 11
31.2
 21
14.125
  0
LINE
  8
0
 10
31.2
 20
14.125
 11
31.161
 21
14.1291
  0
LINE
  8
0
 10
24.5985
 20
14.1291
 11
24.5612
 21
14.1412
  0
LINE
  8
0
 10
24.5612
 20
14.1412
 11
24.5273
 21
14.1608
  0
LINE
  8
0
 10
24.5273
 20
14.1608
 11
24.4982
 21
14.187
  0
LINE
  8
0
 10
24.4982
 20
14.187
 11
24.4751
 21
14.2188
  0
LINE
  8
0
 10
24.4751
 20
14.2188
 11
24.4592
 21
14.2545
  0
LINE
  8
0
 10
24.4592
 20
14.2545
 11
24.451
 21
14.2929
  0
LINE
  8
0
 10
24.451
 20
14.2929
 11
24.451
 21
14.3321
  0
LINE
  8
0
 10
24.451
 20
14.3321
 11
24.4592
 21
14.3704
  0
LINE
  8
0
 10
24.4592
 20
14.3704
 11
24.4751
 21
14.4062
  0
LINE
  8
0
 10
24.4751
 20
14.4062
 11
24.4982
 21
14.438
  0
LINE
  8
0
 10
24.4982
 20
14.438
 11
24.5273
 21
14.4642
  0
LINE
  8
0
 10
24.5273
 20
14.4642
 11
24.5612
 21
14.4838
  0
LINE
  8
0
 10
24.5612
 20
14.4838
 11
24.5985
 21
14.4959
  0
LINE
  8
0
 10
24.5985
 20
14.4959
 11
24.6375
 21
14.5
  0
LINE
  8
0
 10
24.6375
 20
14.5
 11
24.6765
 21
14.4959
  0
LINE
  8
0
 10
24.6765
 20
14.4959
 11
24.7137
 21
14.4838
  0
LINE
  8
0
 10
24.7137
 20
14.4838
 11
24.7477
 21
14.4642
  0
LINE
  8
0
 10
24.7477
 20
14.4642
 11
24.7768
 21
14.438
  0
LINE
  8
0
 10
24.7768
 20
14.438
 11
24.7999
 21
14.4062
  0
LINE
  8
0
 10
24.7999
 20
14.4062
 11
24.8158
 21
14.3704
  0
LINE
  8
0
 10
24.8158
 20
14.3704
 11
24.824
 21
14.3321
  0
LINE
  8
0
 10
24.824
 20
14.3321
 11
24.824
 21
14.2929
  0
LINE
  8
0
 10
24.824
 20
14.2929
 11
24.8158
 21
14.2545
  0
LINE
  8
0
 10
24.8158
 20
14.2545
 11
24.7999
 21
14.2188
  0
LINE
  8
0
 10
24.7999
 20
14.2188
 11
24.7768
 21
14.187
  0
LINE
  8
0
 10
24.7768
 20
14.187
 11
24.7477
 21
14.1608
  0
LINE
  8
0
 10
24.7477
 20
14.1608
 11
24.7137
 21
14.1412
  0
LINE
  8
0
 10
24.7137
 20
14.1412
 11
24.6765
 21
14.1291
  0
LINE
  8
0
 10
24.6765
 20
14.1291
 11
24.6375
 21
14.125
  0
LINE
  8
0
 10
24.6375
 20
14.125
 11
24.5985
 21
14.1291
  0
LINE
  8
0
 10
34.1062
 20
4.69511
 11
34.1062
 21
8.4375
  0
LINE
  8
0
 10
34.1062
 20
8.4375
 11
32.2
 21
8.4375
  0
LINE
  8
0
 10
32.2
 20
8.4375
 11
32.2
 21
8.6875
  0
LINE
  8
0
 10
32.2
 20
8.6875
 11
32.075
 21
8.6875
  0
LINE
  8
0
 10
32.075
 20
8.6875
 11
32.075
 21
13.6875
  0
LINE
  8
0
 10
32.075
 20
13.6875
 11
37.2625
 21
13.6875
  0
LINE
  8
0
 10
37.2625
 20
13.6875
 11
37.2625
 21
11.1875
  0
LINE
  8
0
 10
37.2625
 20
11.1875
 11
37.3875
 21
11.1875
  0
LINE
  8
0
 10
37.3875
 20
11.1875
 11
37.3875
 21
8.6875
  0
LINE
  8
0
 10
37.3875
 20
8.6875
 11
37.2625
 21
8.6875
  0
LINE
  8
0
 10
37.2625
 20
8.6875
 11
37.2625
 21
8.4375
  0
LINE
  8
0
 10
37.2625
 20
8.4375
 11
35.3562
 21
8.4375
  0
LINE
  8
0
 10
35.3562
 20
8.4375
 11
35.3562
 21
4.69511
  0
LINE
  8
0
 10
35.3562
 20
4.69511
 11
34.1062
 21
4.69511
  0
LINE
  8
0
 10
27.0437
 20
4.69511
 11
27.0437
 21
8.4375
  0
LINE
  8
0
 10
27.0437
 20
8.4375
 11
25.1375
 21
8.4375
  0
LINE
  8
0
 10
25.1375
 20
8.4375
 11
25.1375
 21
8.6875
  0
LINE
  8
0
 10
25.1375
 20
8.6875
 11
25.0125
 21
8.6875
  0
LINE
  8
0
 10
25.0125
 20
8.6875
 11
25.0125
 21
11.1875
  0
LINE
  8
0
 10
25.0125
 20
11.1875
 11
25.1375
 21
11.1875
  0
LINE
  8
0
 10
25.1375
 20
11.1875
 11
25.1375
 21
13.6875
  0
LINE
  8
0
 10
25.1375
 20
13.6875
 11
30.325
 21
13.6875
  0
LINE
  8
0
 10
30.325
 20
13.6875
 11
30.325
 21
8.6875
  0
LINE
  8
0
 10
30.325
 20
8.6875
 11
30.2
 21
8.6875
  0
LINE
  8
0
 10
30.2
 20
8.6875
 11
30.2
 21
8.4375
  0
LINE
  8
0
 10
30.2
 20
8.4375
 11
28.2937
 21
8.4375
  0
LINE
  8
0
 10
28.2937
 20
8.4375
 11
28.2937
 21
4.69511
  0
LINE
  8
0
 10
28.2937
 20
4.69511
 11
27.0437
 21
4.69511
  0
LINE
  8
0
 10
30.825
 20
1.9375
 11
30.825
 21
12.0625
  0
LINE
  8
0
 10
30.825
 20
12.0625
 11
31.575
 21
12.0625
  0
LINE
  8
0
 10
31.575
 20
12.0625
 11
31.575
 21
1.9375
  0
LINE
  8
0
 10
31.575
 20
1.9375
 11
30.825
 21
1.9375
  0
LINE
  8
0
 10
23.8875
 20
3.59999
 11
23.8783
 21
3.94998
  0
LINE
  8
0
 10
23.8783
 20
3.94998
 11
23.8508
 21
4.29901
  0
LINE
  8
0
 10
23.8508
 20
4.29901
 11
23.8051
 21
4.64613
  0
LINE
  8
0
 10
23.8051
 20
4.64613
 11
23.7413
 21
4.99039
  0
LINE
  8
0
 10
23.7413
 20
4.99039
 11
23.6596
 21
5.33084
  0
LINE
  8
0
 10
23.6596
 20
5.33084
 11
23.5602
 21
5.66653
  0
LINE
  8
0
 10
23.5602
 20
5.66653
 11
23.4433
 21
5.99657
  0
LINE
  8
0
 10
23.4433
 20
5.99657
 11
23.3093
 21
6.32004
  0
LINE
  8
0
 10
23.3093
 20
6.32004
 11
23.1586
 21
6.63605
  0
LINE
  8
0
 10
23.1586
 20
6.63605
 11
22.9915
 21
6.94374
  0
LINE
  8
0
 10
22.9915
 20
6.94374
 11
22.8086
 21
7.24226
  0
LINE
  8
0
 10
22.8086
 20
7.24226
 11
22.6103
 21
7.53079
  0
LINE
  8
0
 10
22.6103
 20
7.53079
 11
22.3971
 21
7.80856
  0
LINE
  8
0
 10
22.3971
 20
7.80856
 11
22.1698
 21
8.0748
  0
LINE
  8
0
 10
22.1698
 20
8.0748
 11
21.9288
 21
8.32877
  0
LINE
  8
0
 10
21.9288
 20
8.32877
 11
21.6748
 21
8.56976
  0
LINE
  8
0
 10
21.6748
 20
8.56976
 11
21.4086
 21
8.79715
  0
LINE
  8
0
 10
21.4086
 20
8.79715
 11
21.1308
 21
9.01028
  0
LINE
  8
0
 10
21.1308
 20
9.01028
 11
20.8423
 21
9.20859
  0
LINE
  8
0
 10
20.8423
 20
9.20859
 11
20.5437
 21
9.39153
  0
LINE
  8
0
 10
20.5437
 20
9.39153
 11
20.2361
 21
9.55859
  0
LINE
  8
0
 10
20.2361
 20
9.55859
 11
19.92
 21
9.70932
  0
LINE
  8
0
 10
19.92
 20
9.70932
 11
19.5966
 21
9.84331
  0
LINE
  8
0
 10
19.5966
 20
9.84331
 11
19.2665
 21
9.96017
  0
LINE
  8
0
 10
19.2665
 20
9.96017
 11
18.9308
 21
10.0596
  0
LINE
  8
0
 10
18.9308
 20
10.0596
 11
18.5904
 21
10.1413
  0
LINE
  8
0
 10
18.5904
 20
10.1413
 11
18.2461
 21
10.2052
  0
LINE
  8
0
 10
18.2461
 20
10.2052
 11
17.899
 21
10.2509
  0
LINE
  8
0
 10
17.899
 20
10.2509
 11
17.55
 21
10.2783
  0
LINE
  8
0
 10
17.55
 20
10.2783
 11
17.2
 21
10.2875
  0
LINE
  8
0
 10
17.2
 20
10.2875
 11
15.7
 21
10.2875
  0
LINE
  8
0
 10
15.7
 20
10.2875
 11
15.7
 21
7.78748
  0
LINE
  8
0
 10
15.7
 20
7.78748
 11
8.623
 21
7.78748
  0
LINE
  8
0
 10
8.623
 20
7.78748
 11
8.623
 21
5.28749
  0
LINE
  8
0
 10
8.623
 20
5.28749
 11
15.7
 21
5.28749
  0
LINE
  8
0
 10
15.7
 20
5.28749
 11
15.7
 21
1.71553
  0
LINE
  8
0
 10
15.7
 20
1.71553
 11
23.8875
 21
3.59999
  0
LINE
  8
0
 10
8.93025
 20
7.38806
 11
8.89417
 21
7.40413
  0
LINE
  8
0
 10
8.89417
 20
7.40413
 11
8.86774
 21
7.43349
  0
LINE
  8
0
 10
8.86774
 20
7.43349
 11
8.85553
 21
7.47105
  0
LINE
  8
0
 10
8.85553
 20
7.47105
 11
8.85965
 21
7.51033
  0
LINE
  8
0
 10
8.85965
 20
7.51033
 11
8.87941
 21
7.54454
  0
LINE
  8
0
 10
8.87941
 20
7.54454
 11
8.91136
 21
7.56776
  0
LINE
  8
0
 10
8.91136
 20
7.56776
 11
8.95001
 21
7.57597
  0
LINE
  8
0
 10
8.95001
 20
7.57597
 11
8.98865
 21
7.56776
  0
LINE
  8
0
 10
8.98865
 20
7.56776
 11
9.0206
 21
7.54454
  0
LINE
  8
0
 10
9.0206
 20
7.54454
 11
9.04036
 21
7.51033
  0
LINE
  8
0
 10
9.04036
 20
7.51033
 11
9.04448
 21
7.47105
  0
LINE
  8
0
 10
9.04448
 20
7.47105
 11
9.03227
 21
7.43349
  0
LINE
  8
0
 10
9.03227
 20
7.43349
 11
9.00584
 21
7.40413
  0
LINE
  8
0
 10
9.00584
 20
7.40413
 11
8.96976
 21
7.38806
  0
LINE
  8
0
 10
8.96976
 20
7.38806
 11
8.93025
 21
7.38806
  0
LINE
  8
0
 10
9.93025
 20
7.38806
 11
9.89417
 21
7.40413
  0
LINE
  8
0
 10
9.89417
 20
7.40413
 11
9.86774
 21
7.43349
  0
LINE
  8
0
 10
9.86774
 20
7.43349
 11
9.85553
 21
7.47105
  0
LINE
  8
0
 10
9.85553
 20
7.47105
 11
9.85965
 21
7.51033
  0
LINE
  8
0
 10
9.85965
 20
7.51033
 11
9.87941
 21
7.54454
  0
LINE
  8
0
 10
9.87941
 20
7.54454
 11
9.91136
 21
7.56776
  0
LINE
  8
0
 10
9.91136
 20
7.56776
 11
9.95001
 21
7.57597
  0
LINE
  8
0
 10
9.95001
 20
7.57597
 11
9.98865
 21
7.56776
  0
LINE
  8
0
 10
9.98865
 20
7.56776
 11
10.0206
 21
7.54454
  0
LINE
  8
0
 10
10.0206
 20
7.54454
 11
10.0404
 21
7.51033
  0
LINE
  8
0
 10
10.0404
 20
7.51033
 11
10.0445
 21
7.47105
  0
LINE
  8
0
 10
10.0445
 20
7.47105
 11
10.0323
 21
7.43349
  0
LINE
  8
0
 10
10.0323
 20
7.43349
 11
10.0058
 21
7.40413
  0
LINE
  8
0
 10
10.0058
 20
7.40413
 11
9.96976
 21
7.38806
  0
LINE
  8
0
 10
9.96976
 20
7.38806
 11
9.93025
 21
7.38806
  0
LINE
  8
0
 10
8.93025
 20
5.63808
 11
8.89417
 21
5.65414
  0
LINE
  8
0
 10
8.89417
 20
5.65414
 11
8.86774
 21
5.6835
  0
LINE
  8
0
 10
8.86774
 20
5.6835
 11
8.85553
 21
5.72107
  0
LINE
  8
0
 10
8.85553
 20
5.72107
 11
8.85965
 21
5.76035
  0
LINE
  8
0
 10
8.85965
 20
5.76035
 11
8.87941
 21
5.79456
  0
LINE
  8
0
 10
8.87941
 20
5.79456
 11
8.91136
 21
5.81778
  0
LINE
  8
0
 10
8.91136
 20
5.81778
 11
8.95001
 21
5.82599
  0
LINE
  8
0
 10
8.95001
 20
5.82599
 11
8.98865
 21
5.81778
  0
LINE
  8
0
 10
8.98865
 20
5.81778
 11
9.0206
 21
5.79456
  0
LINE
  8
0
 10
9.0206
 20
5.79456
 11
9.04036
 21
5.76035
  0
LINE
  8
0
 10
9.04036
 20
5.76035
 11
9.04448
 21
5.72107
  0
LINE
  8
0
 10
9.04448
 20
5.72107
 11
9.03227
 21
5.6835
  0
LINE
  8
0
 10
9.03227
 20
5.6835
 11
9.00584
 21
5.65414
  0
LINE
  8
0
 10
9.00584
 20
5.65414
 11
8.96976
 21
5.63808
  0
LINE
  8
0
 10
8.96976
 20
5.63808
 11
8.93025
 21
5.63808
  0
LINE
  8
0
 10
9.93025
 20
5.63808
 11
9.89417
 21
5.65414
  0
LINE
  8
0
 10
9.89417
 20
5.65414
 11
9.86774
 21
5.6835
  0
LINE
  8
0
 10
9.86774
 20
5.6835
 11
9.85553
 21
5.72107
  0
LINE
  8
0
 10
9.85553
 20
5.72107
 11
9.85965
 21
5.76035
  0
LINE
  8
0
 10
9.85965
 20
5.76035
 11
9.87941
 21
5.79456
  0
LINE
  8
0
 10
9.87941
 20
5.79456
 11
9.91136
 21
5.81778
  0
LINE
  8
0
 10
9.91136
 20
5.81778
 11
9.95001
 21
5.82599
  0
LINE
  8
0
 10
9.95001
 20
5.82599
 11
9.98865
 21
5.81778
  0
LINE
  8
0
 10
9.98865
 20
5.81778
 11
10.0206
 21
5.79456
  0
LINE
  8
0
 10
10.0206
 20
5.79456
 11
10.0404
 21
5.76035
  0
LINE
  8
0
 10
10.0404
 20
5.76035
 11
10.0445
 21
5.72107
  0
LINE
  8
0
 10
10.0445
 20
5.72107
 11
10.0323
 21
5.6835
  0
LINE
  8
0
 10
10.0323
 20
5.6835
 11
10.0058
 21
5.65414
  0
LINE
  8
0
 10
10.0058
 20
5.65414
 11
9.96976
 21
5.63808
  0
LINE
  8
0
 10
9.96976
 20
5.63808
 11
9.93025
 21
5.63808
  0
LINE
  8
0
 10
17.1593
 20
4.50862
 11
17.1257
 21
4.53307
  0
LINE
  8
0
 10
17.1257
 20
4.53307
 11
17.1049
 21
4.56908
  0
LINE
  8
0
 10
17.1049
 20
4.56908
 11
17.1005
 21
4.61044
  0
LINE
  8
0
 10
17.1005
 20
4.61044
 11
17.1134
 21
4.64998
  0
LINE
  8
0
 10
17.1134
 20
4.64998
 11
17.1412
 21
4.68088
  0
LINE
  8
0
 10
17.1412
 20
4.68088
 11
17.1792
 21
4.6978
  0
LINE
  8
0
 10
17.1792
 20
4.6978
 11
17.2208
 21
4.6978
  0
LINE
  8
0
 10
17.2208
 20
4.6978
 11
17.2588
 21
4.68088
  0
LINE
  8
0
 10
17.2588
 20
4.68088
 11
17.2866
 21
4.64998
  0
LINE
  8
0
 10
17.2866
 20
4.64998
 11
17.2994
 21
4.61044
  0
LINE
  8
0
 10
17.2994
 20
4.61044
 11
17.2951
 21
4.56908
  0
LINE
  8
0
 10
17.2951
 20
4.56908
 11
17.2743
 21
4.53307
  0
LINE
  8
0
 10
17.2743
 20
4.53307
 11
17.2406
 21
4.50862
  0
LINE
  8
0
 10
17.2406
 20
4.50862
 11
17.2
 21
4.49998
  0
LINE
  8
0
 10
17.2
 20
4.49998
 11
17.1593
 21
4.50862
  0
LINE
  8
0
 10
17.1414
 20
3.04306
 11
17.0836
 21
3.05223
  0
LINE
  8
0
 10
17.0836
 20
3.05223
 11
17.0269
 21
3.06741
  0
LINE
  8
0
 10
17.0269
 20
3.06741
 11
16.9722
 21
3.08841
  0
LINE
  8
0
 10
16.9722
 20
3.08841
 11
16.92
 21
3.11502
  0
LINE
  8
0
 10
16.92
 20
3.11502
 11
16.8708
 21
3.14694
  0
LINE
  8
0
 10
16.8708
 20
3.14694
 11
16.8253
 21
3.18384
  0
LINE
  8
0
 10
16.8253
 20
3.18384
 11
16.7838
 21
3.22528
  0
LINE
  8
0
 10
16.7838
 20
3.22528
 11
16.7469
 21
3.27084
  0
LINE
  8
0
 10
16.7469
 20
3.27084
 11
16.715
 21
3.31999
  0
LINE
  8
0
 10
16.715
 20
3.31999
 11
16.6884
 21
3.37222
  0
LINE
  8
0
 10
16.6884
 20
3.37222
 11
16.6674
 21
3.42696
  0
LINE
  8
0
 10
16.6674
 20
3.42696
 11
16.6522
 21
3.48357
  0
LINE
  8
0
 10
16.6522
 20
3.48357
 11
16.6431
 21
3.54146
  0
LINE
  8
0
 10
16.6431
 20
3.54146
 11
16.64
 21
3.59999
  0
LINE
  8
0
 10
16.64
 20
3.59999
 11
16.6431
 21
3.65852
  0
LINE
  8
0
 10
16.6431
 20
3.65852
 11
16.6522
 21
3.71642
  0
LINE
  8
0
 10
16.6522
 20
3.71642
 11
16.6674
 21
3.77303
  0
LINE
  8
0
 10
16.6674
 20
3.77303
 11
16.6884
 21
3.82776
  0
LINE
  8
0
 10
16.6884
 20
3.82776
 11
16.715
 21
3.87999
  0
LINE
  8
0
 10
16.715
 20
3.87999
 11
16.7469
 21
3.92914
  0
LINE
  8
0
 10
16.7469
 20
3.92914
 11
16.7838
 21
3.9747
  0
LINE
  8
0
 10
16.7838
 20
3.9747
 11
16.8253
 21
4.01614
  0
LINE
  8
0
 10
16.8253
 20
4.01614
 11
16.8708
 21
4.05304
  0
LINE
  8
0
 10
16.8708
 20
4.05304
 11
16.92
 21
4.08496
  0
LINE
  8
0
 10
16.92
 20
4.08496
 11
16.9722
 21
4.11157
  0
LINE
  8
0
 10
16.9722
 20
4.11157
 11
17.0269
 21
4.13257
  0
LINE
  8
0
 10
17.0269
 20
4.13257
 11
17.0836
 21
4.14775
  0
LINE
  8
0
 10
17.0836
 20
4.14775
 11
17.1414
 21
4.15692
  0
LINE
  8
0
 10
17.1414
 20
4.15692
 11
17.2
 21
4.15999
  0
LINE
  8
0
 10
17.2
 20
4.15999
 11
17.2585
 21
4.15692
  0
LINE
  8
0
 10
17.2585
 20
4.15692
 11
17.3164
 21
4.14775
  0
LINE
  8
0
 10
17.3164
 20
4.14775
 11
17.373
 21
4.13257
  0
LINE
  8
0
 10
17.373
 20
4.13257
 11
17.4277
 21
4.11157
  0
LINE
  8
0
 10
17.4277
 20
4.11157
 11
17.48
 21
4.08496
  0
LINE
  8
0
 10
17.48
 20
4.08496
 11
17.5291
 21
4.05304
  0
LINE
  8
0
 10
17.5291
 20
4.05304
 11
17.5747
 21
4.01614
  0
LINE
  8
0
 10
17.5747
 20
4.01614
 11
17.6161
 21
3.9747
  0
LINE
  8
0
 10
17.6161
 20
3.9747
 11
17.653
 21
3.92914
  0
LINE
  8
0
 10
17.653
 20
3.92914
 11
17.685
 21
3.87999
  0
LINE
  8
0
 10
17.685
 20
3.87999
 11
17.7116
 21
3.82776
  0
LINE
  8
0
 10
17.7116
 20
3.82776
 11
17.7326
 21
3.77303
  0
LINE
  8
0
 10
17.7326
 20
3.77303
 11
17.7477
 21
3.71642
  0
LINE
  8
0
 10
17.7477
 20
3.71642
 11
17.7569
 21
3.65852
  0
LINE
  8
0
 10
17.7569
 20
3.65852
 11
17.76
 21
3.59999
  0
LINE
  8
0
 10
17.76
 20
3.59999
 11
17.7569
 21
3.54146
  0
LINE
  8
0
 10
17.7569
 20
3.54146
 11
17.7477
 21
3.48357
  0
LINE
  8
0
 10
17.7477
 20
3.48357
 11
17.7326
 21
3.42696
  0
LINE
  8
0
 10
17.7326
 20
3.42696
 11
17.7116
 21
3.37222
  0
LINE
  8
0
 10
17.7116
 20
3.37222
 11
17.685
 21
3.31999
  0
LINE
  8
0
 10
17.685
 20
3.31999
 11
17.653
 21
3.27084
  0
LINE
  8
0
 10
17.653
 20
3.27084
 11
17.6161
 21
3.22528
  0
LINE
  8
0
 10
17.6161
 20
3.22528
 11
17.5747
 21
3.18384
  0
LINE
  8
0
 10
17.5747
 20
3.18384
 11
17.5291
 21
3.14694
  0
LINE
  8
0
 10
17.5291
 20
3.14694
 11
17.48
 21
3.11502
  0
LINE
  8
0
 10
17.48
 20
3.11502
 11
17.4277
 21
3.08841
  0
LINE
  8
0
 10
17.4277
 20
3.08841
 11
17.373
 21
3.06741
  0
LINE
  8
0
 10
17.373
 20
3.06741
 11
17.3164
 21
3.05223
  0
LINE
  8
0
 10
17.3164
 20
3.05223
 11
17.2585
 21
3.04306
  0
LINE
  8
0
 10
17.2585
 20
3.04306
 11
17.2
 21
3.03999
  0
LINE
  8
0
 10
17.2
 20
3.03999
 11
17.1414
 21
3.04306
  0
LINE
  8
0
 10
18.1593
 20
3.50864
 11
18.1257
 21
3.53308
  0
LINE
  8
0
 10
18.1257
 20
3.53308
 11
18.1049
 21
3.56909
  0
LINE
  8
0
 10
18.1049
 20
3.56909
 11
18.1005
 21
3.61044
  0
LINE
  8
0
 10
18.1005
 20
3.61044
 11
18.1134
 21
3.64998
  0
LINE
  8
0
 10
18.1134
 20
3.64998
 11
18.1412
 21
3.68088
  0
LINE
  8
0
 10
18.1412
 20
3.68088
 11
18.1792
 21
3.6978
  0
LINE
  8
0
 10
18.1792
 20
3.6978
 11
18.2208
 21
3.6978
  0
LINE
  8
0
 10
18.2208
 20
3.6978
 11
18.2588
 21
3.68088
  0
LINE
  8
0
 10
18.2588
 20
3.68088
 11
18.2866
 21
3.64998
  0
LINE
  8
0
 10
18.2866
 20
3.64998
 11
18.2994
 21
3.61044
  0
LINE
  8
0
 10
18.2994
 20
3.61044
 11
18.2951
 21
3.56909
  0
LINE
  8
0
 10
18.2951
 20
3.56909
 11
18.2743
 21
3.53308
  0
LINE
  8
0
 10
18.2743
 20
3.53308
 11
18.2406
 21
3.50864
  0
LINE
  8
0
 10
18.2406
 20
3.50864
 11
18.2
 21
3.5
  0
LINE
  8
0
 10
18.2
 20
3.5
 11
18.1593
 21
3.50864
  0
LINE
  8
0
 10
16.1593
 20
3.50864
 11
16.1257
 21
3.53308
  0
LINE
  8
0
 10
16.1257
 20
3.53308
 11
16.1049
 21
3.56909
  0
LINE
  8
0
 10
16.1049
 20
3.56909
 11
16.1005
 21
3.61044
  0
LINE
  8
0
 10
16.1005
 20
3.61044
 11
16.1134
 21
3.64998
  0
LINE
  8
0
 10
16.1134
 20
3.64998
 11
16.1412
 21
3.68088
  0
LINE
  8
0
 10
16.1412
 20
3.68088
 11
16.1792
 21
3.6978
  0
LINE
  8
0
 10
16.1792
 20
3.6978
 11
16.2208
 21
3.6978
  0
LINE
  8
0
 10
16.2208
 20
3.6978
 11
16.2588
 21
3.68088
  0
LINE
  8
0
 10
16.2588
 20
3.68088
 11
16.2866
 21
3.64998
  0
LINE
  8
0
 10
16.2866
 20
3.64998
 11
16.2994
 21
3.61044
  0
LINE
  8
0
 10
16.2994
 20
3.61044
 11
16.2951
 21
3.56909
  0
LINE
  8
0
 10
16.2951
 20
3.56909
 11
16.2743
 21
3.53308
  0
LINE
  8
0
 10
16.2743
 20
3.53308
 11
16.2407
 21
3.50864
  0
LINE
  8
0
 10
16.2407
 20
3.50864
 11
16.2
 21
3.5
  0
LINE
  8
0
 10
16.2
 20
3.5
 11
16.1593
 21
3.50864
  0
LINE
  8
0
 10
17.1593
 20
2.50864
 11
17.1257
 21
2.53308
  0
LINE
  8
0
 10
17.1257
 20
2.53308
 11
17.1049
 21
2.56909
  0
LINE
  8
0
 10
17.1049
 20
2.56909
 11
17.1005
 21
2.61046
  0
LINE
  8
0
 10
17.1005
 20
2.61046
 11
17.1134
 21
2.64999
  0
LINE
  8
0
 10
17.1134
 20
2.64999
 11
17.1412
 21
2.68089
  0
LINE
  8
0
 10
17.1412
 20
2.68089
 11
17.1792
 21
2.69781
  0
LINE
  8
0
 10
17.1792
 20
2.69781
 11
17.2208
 21
2.69781
  0
LINE
  8
0
 10
17.2208
 20
2.69781
 11
17.2588
 21
2.68089
  0
LINE
  8
0
 10
17.2588
 20
2.68089
 11
17.2866
 21
2.64999
  0
LINE
  8
0
 10
17.2866
 20
2.64999
 11
17.2994
 21
2.61046
  0
LINE
  8
0
 10
17.2994
 20
2.61046
 11
17.2951
 21
2.56909
  0
LINE
  8
0
 10
17.2951
 20
2.56909
 11
17.2743
 21
2.53308
  0
LINE
  8
0
 10
17.2743
 20
2.53308
 11
17.2406
 21
2.50864
  0
LINE
  8
0
 10
17.2406
 20
2.50864
 11
17.2
 21
2.5
  0
LINE
  8
0
 10
17.2
 20
2.5
 11
17.1593
 21
2.50864
  0
LINE
  8
0
 10
8.29997
 20
2.6125
 11
15.377
 21
2.6125
  0
LINE
  8
0
 10
15.377
 20
2.6125
 11
15.377
 21
5.11249
  0
LINE
  8
0
 10
15.377
 20
5.11249
 11
8.29999
 21
5.11249
  0
LINE
  8
0
 10
8.29999
 20
5.11249
 11
8.29999
 21
8.68445
  0
LINE
  8
0
 10
8.29999
 20
8.68445
 11
0.112488
 21
6.79997
  0
LINE
  8
0
 10
0.112488
 20
6.79997
 11
0.121658
 21
6.44998
  0
LINE
  8
0
 10
0.121658
 20
6.44998
 11
0.149124
 21
6.10095
  0
LINE
  8
0
 10
0.149124
 20
6.10095
 11
0.194824
 21
5.75383
  0
LINE
  8
0
 10
0.194824
 20
5.75383
 11
0.258636
 21
5.40958
  0
LINE
  8
0
 10
0.258636
 20
5.40958
 11
0.340363
 21
5.06912
  0
LINE
  8
0
 10
0.340363
 20
5.06912
 11
0.439804
 21
4.73343
  0
LINE
  8
0
 10
0.439804
 20
4.73343
 11
0.556671
 21
4.4034
  0
LINE
  8
0
 10
0.556671
 20
4.4034
 11
0.690659
 21
4.07993
  0
LINE
  8
0
 10
0.690659
 20
4.07993
 11
0.841385
 21
3.76392
  0
LINE
  8
0
 10
0.841385
 20
3.76392
 11
1.00845
 21
3.45622
  0
LINE
  8
0
 10
1.00845
 20
3.45622
 11
1.19139
 21
3.1577
  0
LINE
  8
0
 10
1.19139
 20
3.1577
 11
1.38969
 21
2.86919
  0
LINE
  8
0
 10
1.38969
 20
2.86919
 11
1.60283
 21
2.59142
  0
LINE
  8
0
 10
1.60283
 20
2.59142
 11
1.83022
 21
2.32518
  0
LINE
  8
0
 10
1.83022
 20
2.32518
 11
2.07121
 21
2.07121
  0
LINE
  8
0
 10
2.07121
 20
2.07121
 11
2.32518
 21
1.83022
  0
LINE
  8
0
 10
2.32518
 20
1.83022
 11
2.59142
 21
1.60283
  0
LINE
  8
0
 10
2.59142
 20
1.60283
 11
2.86919
 21
1.38969
  0
LINE
  8
0
 10
2.86919
 20
1.38969
 11
3.1577
 21
1.19139
  0
LINE
  8
0
 10
3.1577
 20
1.19139
 11
3.45624
 21
1.00845
  0
LINE
  8
0
 10
3.45624
 20
1.00845
 11
3.76392
 21
0.841385
  0
LINE
  8
0
 10
3.76392
 20
0.841385
 11
4.07993
 21
0.690659
  0
LINE
  8
0
 10
4.07993
 20
0.690659
 11
4.4034
 21
0.556671
  0
LINE
  8
0
 10
4.4034
 20
0.556671
 11
4.73343
 21
0.439804
  0
LINE
  8
0
 10
4.73343
 20
0.439804
 11
5.06912
 21
0.340363
  0
LINE
  8
0
 10
5.06912
 20
0.340363
 11
5.40958
 21
0.258636
  0
LINE
  8
0
 10
5.40958
 20
0.258636
 11
5.75383
 21
0.194824
  0
LINE
  8
0
 10
5.75383
 20
0.194824
 11
6.10095
 21
0.149124
  0
LINE
  8
0
 10
6.10095
 20
0.149124
 11
6.44998
 21
0.121658
  0
LINE
  8
0
 10
6.44998
 20
0.121658
 11
6.79997
 21
0.112488
  0
LINE
  8
0
 10
6.79997
 20
0.112488
 11
8.29997
 21
0.112488
  0
LINE
  8
0
 10
8.29997
 20
0.112488
 11
8.29997
 21
2.6125
  0
LINE
  8
0
 10
6.77921
 20
7.70216
 11
6.74121
 21
7.71909
  0
LINE
  8
0
 10
6.74121
 20
7.71909
 11
6.71339
 21
7.74998
  0
LINE
  8
0
 10
6.71339
 20
7.74998
 11
6.70055
 21
7.78952
  0
LINE
  8
0
 10
6.70055
 20
7.78952
 11
6.7049
 21
7.83089
  0
LINE
  8
0
 10
6.7049
 20
7.83089
 11
6.72568
 21
7.8669
  0
LINE
  8
0
 10
6.72568
 20
7.8669
 11
6.75932
 21
7.89134
  0
LINE
  8
0
 10
6.75932
 20
7.89134
 11
6.79999
 21
7.89998
  0
LINE
  8
0
 10
6.79999
 20
7.89998
 11
6.84065
 21
7.89134
  0
LINE
  8
0
 10
6.84065
 20
7.89134
 11
6.8743
 21
7.8669
  0
LINE
  8
0
 10
6.8743
 20
7.8669
 11
6.89508
 21
7.83089
  0
LINE
  8
0
 10
6.89508
 20
7.83089
 11
6.89943
 21
7.78952
  0
LINE
  8
0
 10
6.89943
 20
7.78952
 11
6.88658
 21
7.74998
  0
LINE
  8
0
 10
6.88658
 20
7.74998
 11
6.85876
 21
7.71909
  0
LINE
  8
0
 10
6.85876
 20
7.71909
 11
6.82077
 21
7.70216
  0
LINE
  8
0
 10
6.82077
 20
7.70216
 11
6.77921
 21
7.70216
  0
LINE
  8
0
 10
6.74146
 20
6.24306
 11
6.68356
 21
6.25223
  0
LINE
  8
0
 10
6.68356
 20
6.25223
 11
6.62695
 21
6.26741
  0
LINE
  8
0
 10
6.62695
 20
6.26741
 11
6.57222
 21
6.28841
  0
LINE
  8
0
 10
6.57222
 20
6.28841
 11
6.51999
 21
6.31502
  0
LINE
  8
0
 10
6.51999
 20
6.31502
 11
6.47084
 21
6.34694
  0
LINE
  8
0
 10
6.47084
 20
6.34694
 11
6.42528
 21
6.38383
  0
LINE
  8
0
 10
6.42528
 20
6.38383
 11
6.38383
 21
6.42528
  0
LINE
  8
0
 10
6.38383
 20
6.42528
 11
6.34694
 21
6.47084
  0
LINE
  8
0
 10
6.34694
 20
6.47084
 11
6.31502
 21
6.51999
  0
LINE
  8
0
 10
6.31502
 20
6.51999
 11
6.28841
 21
6.57222
  0
LINE
  8
0
 10
6.28841
 20
6.57222
 11
6.26741
 21
6.62695
  0
LINE
  8
0
 10
6.26741
 20
6.62695
 11
6.25223
 21
6.68356
  0
LINE
  8
0
 10
6.25223
 20
6.68356
 11
6.24306
 21
6.74146
  0
LINE
  8
0
 10
6.24306
 20
6.74146
 11
6.23999
 21
6.79999
  0
LINE
  8
0
 10
6.23999
 20
6.79999
 11
6.24306
 21
6.85852
  0
LINE
  8
0
 10
6.24306
 20
6.85852
 11
6.25223
 21
6.91641
  0
LINE
  8
0
 10
6.25223
 20
6.91641
 11
6.26741
 21
6.97302
  0
LINE
  8
0
 10
6.26741
 20
6.97302
 11
6.28841
 21
7.02776
  0
LINE
  8
0
 10
6.28841
 20
7.02776
 11
6.31502
 21
7.07999
  0
LINE
  8
0
 10
6.31502
 20
7.07999
 11
6.34694
 21
7.12914
  0
LINE
  8
0
 10
6.34694
 20
7.12914
 11
6.38383
 21
7.1747
  0
LINE
  8
0
 10
6.38383
 20
7.1747
 11
6.42528
 21
7.21614
  0
LINE
  8
0
 10
6.42528
 20
7.21614
 11
6.47084
 21
7.25304
  0
LINE
  8
0
 10
6.47084
 20
7.25304
 11
6.51999
 21
7.28496
  0
LINE
  8
0
 10
6.51999
 20
7.28496
 11
6.57222
 21
7.31157
  0
LINE
  8
0
 10
6.57222
 20
7.31157
 11
6.62695
 21
7.33257
  0
LINE
  8
0
 10
6.62695
 20
7.33257
 11
6.68356
 21
7.34775
  0
LINE
  8
0
 10
6.68356
 20
7.34775
 11
6.74146
 21
7.35692
  0
LINE
  8
0
 10
6.74146
 20
7.35692
 11
6.79999
 21
7.35999
  0
LINE
  8
0
 10
6.79999
 20
7.35999
 11
6.85852
 21
7.35692
  0
LINE
  8
0
 10
6.85852
 20
7.35692
 11
6.91641
 21
7.34775
  0
LINE
  8
0
 10
6.91641
 20
7.34775
 11
6.97302
 21
7.33257
  0
LINE
  8
0
 10
6.97302
 20
7.33257
 11
7.02776
 21
7.31157
  0
LINE
  8
0
 10
7.02776
 20
7.31157
 11
7.07999
 21
7.28496
  0
LINE
  8
0
 10
7.07999
 20
7.28496
 11
7.12914
 21
7.25304
  0
LINE
  8
0
 10
7.12914
 20
7.25304
 11
7.1747
 21
7.21614
  0
LINE
  8
0
 10
7.1747
 20
7.21614
 11
7.21614
 21
7.1747
  0
LINE
  8
0
 10
7.21614
 20
7.1747
 11
7.25304
 21
7.12914
  0
LINE
  8
0
 10
7.25304
 20
7.12914
 11
7.28496
 21
7.07999
  0
LINE
  8
0
 10
7.28496
 20
7.07999
 11
7.31157
 21
7.02776
  0
LINE
  8
0
 10
7.31157
 20
7.02776
 11
7.33257
 21
6.97302
  0
LINE
  8
0
 10
7.33257
 20
6.97302
 11
7.34775
 21
6.91641
  0
LINE
  8
0
 10
7.34775
 20
6.91641
 11
7.35692
 21
6.85852
  0
LINE
  8
0
 10
7.35692
 20
6.85852
 11
7.35999
 21
6.79999
  0
LINE
  8
0
 10
7.35999
 20
6.79999
 11
7.35692
 21
6.74146
  0
LINE
  8
0
 10
7.35692
 20
6.74146
 11
7.34775
 21
6.68356
  0
LINE
  8
0
 10
7.34775
 20
6.68356
 11
7.33257
 21
6.62695
  0
LINE
  8
0
 10
7.33257
 20
6.62695
 11
7.31157
 21
6.57222
  0
LINE
  8
0
 10
7.31157
 20
6.57222
 11
7.28496
 21
6.51999
  0
LINE
  8
0
 10
7.28496
 20
6.51999
 11
7.25304
 21
6.47084
  0
LINE
  8
0
 10
7.25304
 20
6.47084
 11
7.21614
 21
6.42528
  0
LINE
  8
0
 10
7.21614
 20
6.42528
 11
7.1747
 21
6.38383
  0
LINE
  8
0
 10
7.1747
 20
6.38383
 11
7.12914
 21
6.34694
  0
LINE
  8
0
 10
7.12914
 20
6.34694
 11
7.07999
 21
6.31502
  0
LINE
  8
0
 10
7.07999
 20
6.31502
 11
7.02776
 21
6.28841
  0
LINE
  8
0
 10
7.02776
 20
6.28841
 11
6.97302
 21
6.26741
  0
LINE
  8
0
 10
6.97302
 20
6.26741
 11
6.91641
 21
6.25223
  0
LINE
  8
0
 10
6.91641
 20
6.25223
 11
6.85852
 21
6.24306
  0
LINE
  8
0
 10
6.85852
 20
6.24306
 11
6.79999
 21
6.23999
  0
LINE
  8
0
 10
6.79999
 20
6.23999
 11
6.74146
 21
6.24306
  0
LINE
  8
0
 10
7.77919
 20
6.70218
 11
7.7412
 21
6.7191
  0
LINE
  8
0
 10
7.7412
 20
6.7191
 11
7.71338
 21
6.75
  0
LINE
  8
0
 10
7.71338
 20
6.75
 11
7.70053
 21
6.78954
  0
LINE
  8
0
 10
7.70053
 20
6.78954
 11
7.70488
 21
6.83089
  0
LINE
  8
0
 10
7.70488
 20
6.83089
 11
7.72566
 21
6.8669
  0
LINE
  8
0
 10
7.72566
 20
6.8669
 11
7.75931
 21
6.89134
  0
LINE
  8
0
 10
7.75931
 20
6.89134
 11
7.79999
 21
6.89998
  0
LINE
  8
0
 10
7.79999
 20
6.89998
 11
7.84065
 21
6.89134
  0
LINE
  8
0
 10
7.84065
 20
6.89134
 11
7.8743
 21
6.8669
  0
LINE
  8
0
 10
7.8743
 20
6.8669
 11
7.89508
 21
6.83089
  0
LINE
  8
0
 10
7.89508
 20
6.83089
 11
7.89943
 21
6.78954
  0
LINE
  8
0
 10
7.89943
 20
6.78954
 11
7.88658
 21
6.75
  0
LINE
  8
0
 10
7.88658
 20
6.75
 11
7.85876
 21
6.7191
  0
LINE
  8
0
 10
7.85876
 20
6.7191
 11
7.82077
 21
6.70218
  0
LINE
  8
0
 10
7.82077
 20
6.70218
 11
7.77919
 21
6.70218
  0
LINE
  8
0
 10
5.77921
 20
6.70216
 11
5.74121
 21
6.71909
  0
LINE
  8
0
 10
5.74121
 20
6.71909
 11
5.71339
 21
6.74998
  0
LINE
  8
0
 10
5.71339
 20
6.74998
 11
5.70055
 21
6.78952
  0
LINE
  8
0
 10
5.70055
 20
6.78952
 11
5.7049
 21
6.83087
  0
LINE
  8
0
 10
5.7049
 20
6.83087
 11
5.72568
 21
6.86688
  0
LINE
  8
0
 10
5.72568
 20
6.86688
 11
5.75932
 21
6.89133
  0
LINE
  8
0
 10
5.75932
 20
6.89133
 11
5.79999
 21
6.89996
  0
LINE
  8
0
 10
5.79999
 20
6.89996
 11
5.84067
 21
6.89133
  0
LINE
  8
0
 10
5.84067
 20
6.89133
 11
5.87431
 21
6.86688
  0
LINE
  8
0
 10
5.87431
 20
6.86688
 11
5.8951
 21
6.83087
  0
LINE
  8
0
 10
5.8951
 20
6.83087
 11
5.89944
 21
6.78952
  0
LINE
  8
0
 10
5.89944
 20
6.78952
 11
5.8866
 21
6.74998
  0
LINE
  8
0
 10
5.8866
 20
6.74998
 11
5.85878
 21
6.71909
  0
LINE
  8
0
 10
5.85878
 20
6.71909
 11
5.82079
 21
6.70216
  0
LINE
  8
0
 10
5.82079
 20
6.70216
 11
5.77921
 21
6.70216
  0
LINE
  8
0
 10
6.77919
 20
5.70218
 11
6.7412
 21
5.7191
  0
LINE
  8
0
 10
6.7412
 20
5.7191
 11
6.71338
 21
5.75
  0
LINE
  8
0
 10
6.71338
 20
5.75
 11
6.70053
 21
5.78954
  0
LINE
  8
0
 10
6.70053
 20
5.78954
 11
6.70488
 21
5.8309
  0
LINE
  8
0
 10
6.70488
 20
5.8309
 11
6.72566
 21
5.86691
  0
LINE
  8
0
 10
6.72566
 20
5.86691
 11
6.75931
 21
5.89136
  0
LINE
  8
0
 10
6.75931
 20
5.89136
 11
6.79997
 21
5.89999
  0
LINE
  8
0
 10
6.79997
 20
5.89999
 11
6.84064
 21
5.89136
  0
LINE
  8
0
 10
6.84064
 20
5.89136
 11
6.87428
 21
5.86691
  0
LINE
  8
0
 10
6.87428
 20
5.86691
 11
6.89507
 21
5.8309
  0
LINE
  8
0
 10
6.89507
 20
5.8309
 11
6.89941
 21
5.78954
  0
LINE
  8
0
 10
6.89941
 20
5.78954
 11
6.88657
 21
5.75
  0
LINE
  8
0
 10
6.88657
 20
5.75
 11
6.85875
 21
5.7191
  0
LINE
  8
0
 10
6.85875
 20
5.7191
 11
6.82076
 21
5.70218
  0
LINE
  8
0
 10
6.82076
 20
5.70218
 11
6.77919
 21
5.70218
  0
LINE
  8
0
 10
15.0113
 20
4.5822
 11
14.9794
 21
4.60542
  0
LINE
  8
0
 10
14.9794
 20
4.60542
 11
14.9596
 21
4.63963
  0
LINE
  8
0
 10
14.9596
 20
4.63963
 11
14.9555
 21
4.67891
  0
LINE
  8
0
 10
14.9555
 20
4.67891
 11
14.9677
 21
4.71648
  0
LINE
  8
0
 10
14.9677
 20
4.71648
 11
14.9941
 21
4.74583
  0
LINE
  8
0
 10
14.9941
 20
4.74583
 11
15.0302
 21
4.7619
  0
LINE
  8
0
 10
15.0302
 20
4.7619
 11
15.0697
 21
4.7619
  0
LINE
  8
0
 10
15.0697
 20
4.7619
 11
15.1058
 21
4.74583
  0
LINE
  8
0
 10
15.1058
 20
4.74583
 11
15.1322
 21
4.71648
  0
LINE
  8
0
 10
15.1322
 20
4.71648
 11
15.1444
 21
4.67891
  0
LINE
  8
0
 10
15.1444
 20
4.67891
 11
15.1403
 21
4.63963
  0
LINE
  8
0
 10
15.1403
 20
4.63963
 11
15.1206
 21
4.60542
  0
LINE
  8
0
 10
15.1206
 20
4.60542
 11
15.0886
 21
4.5822
  0
LINE
  8
0
 10
15.0886
 20
4.5822
 11
15.05
 21
4.57399
  0
LINE
  8
0
 10
15.05
 20
4.57399
 11
15.0113
 21
4.5822
  0
LINE
  8
0
 10
14.0113
 20
4.5822
 11
13.9794
 21
4.60542
  0
LINE
  8
0
 10
13.9794
 20
4.60542
 11
13.9596
 21
4.63963
  0
LINE
  8
0
 10
13.9596
 20
4.63963
 11
13.9555
 21
4.67891
  0
LINE
  8
0
 10
13.9555
 20
4.67891
 11
13.9677
 21
4.71648
  0
LINE
  8
0
 10
13.9677
 20
4.71648
 11
13.9941
 21
4.74583
  0
LINE
  8
0
 10
13.9941
 20
4.74583
 11
14.0302
 21
4.7619
  0
LINE
  8
0
 10
14.0302
 20
4.7619
 11
14.0697
 21
4.7619
  0
LINE
  8
0
 10
14.0697
 20
4.7619
 11
14.1058
 21
4.74583
  0
LINE
  8
0
 10
14.1058
 20
4.74583
 11
14.1322
 21
4.71648
  0
LINE
  8
0
 10
14.1322
 20
4.71648
 11
14.1444
 21
4.67891
  0
LINE
  8
0
 10
14.1444
 20
4.67891
 11
14.1403
 21
4.63963
  0
LINE
  8
0
 10
14.1403
 20
4.63963
 11
14.1206
 21
4.60542
  0
LINE
  8
0
 10
14.1206
 20
4.60542
 11
14.0886
 21
4.5822
  0
LINE
  8
0
 10
14.0886
 20
4.5822
 11
14.05
 21
4.57399
  0
LINE
  8
0
 10
14.05
 20
4.57399
 11
14.0113
 21
4.5822
  0
LINE
  8
0
 10
14.0113
 20
2.83221
 11
13.9794
 21
2.85544
  0
LINE
  8
0
 10
13.9794
 20
2.85544
 11
13.9596
 21
2.88965
  0
LINE
  8
0
 10
13.9596
 20
2.88965
 11
13.9555
 21
2.92892
  0
LINE
  8
0
 10
13.9555
 20
2.92892
 11
13.9677
 21
2.96649
  0
LINE
  8
0
 10
13.9677
 20
2.96649
 11
13.9941
 21
2.99585
  0
LINE
  8
0
 10
13.9941
 20
2.99585
 11
14.0302
 21
3.01192
  0
LINE
  8
0
 10
14.0302
 20
3.01192
 11
14.0697
 21
3.01192
  0
LINE
  8
0
 10
14.0697
 20
3.01192
 11
14.1058
 21
2.99585
  0
LINE
  8
0
 10
14.1058
 20
2.99585
 11
14.1322
 21
2.96649
  0
LINE
  8
0
 10
14.1322
 20
2.96649
 11
14.1444
 21
2.92892
  0
LINE
  8
0
 10
14.1444
 20
2.92892
 11
14.1403
 21
2.88965
  0
LINE
  8
0
 10
14.1403
 20
2.88965
 11
14.1206
 21
2.85544
  0
LINE
  8
0
 10
14.1206
 20
2.85544
 11
14.0886
 21
2.83221
  0
LINE
  8
0
 10
14.0886
 20
2.83221
 11
14.05
 21
2.82401
  0
LINE
  8
0
 10
14.05
 20
2.82401
 11
14.0113
 21
2.83221
  0
LINE
  8
0
 10
15.0113
 20
2.83221
 11
14.9794
 21
2.85544
  0
LINE
  8
0
 10
14.9794
 20
2.85544
 11
14.9596
 21
2.88965
  0
LINE
  8
0
 10
14.9596
 20
2.88965
 11
14.9555
 21
2.92892
  0
LINE
  8
0
 10
14.9555
 20
2.92892
 11
14.9677
 21
2.96649
  0
LINE
  8
0
 10
14.9677
 20
2.96649
 11
14.9941
 21
2.99585
  0
LINE
  8
0
 10
14.9941
 20
2.99585
 11
15.0302
 21
3.01192
  0
LINE
  8
0
 10
15.0302
 20
3.01192
 11
15.0697
 21
3.01192
  0
LINE
  8
0
 10
15.0697
 20
3.01192
 11
15.1058
 21
2.99585
  0
LINE
  8
0
 10
15.1058
 20
2.99585
 11
15.1322
 21
2.96649
  0
LINE
  8
0
 10
15.1322
 20
2.96649
 11
15.1444
 21
2.92892
  0
LINE
  8
0
 10
15.1444
 20
2.92892
 11
15.1403
 21
2.88965
  0
LINE
  8
0
 10
15.1403
 20
2.88965
 11
15.1206
 21
2.85544
  0
LINE
  8
0
 10
15.1206
 20
2.85544
 11
15.0886
 21
2.83221
  0
LINE
  8
0
 10
15.0886
 20
2.83221
 11
15.05
 21
2.82401
  0
LINE
  8
0
 10
15.05
 20
2.82401
 11
15.0113
 21
2.83221
  0
ENDSEC
  0
SECTION
  2
OBJECTS
  0
DICTIONARY
  0
ENDSEC
  0
EOF
