  0
SECTION
  2
BLOCKS
  0
ENDSEC
  0
SECTION
  2
ENTITIES
  0
LINE
  8
0
 10
2.32399
 20
-1.21597
 11
2.36
 21
-1.11998
  0
LINE
  8
0
 10
2.36
 20
-1.11998
 11
2.36
 21
-0.995712
  0
LINE
  8
0
 10
2.36
 20
-0.995712
 11
2.44363
 21
-0.984802
  0
LINE
  8
0
 10
2.44363
 20
-0.984802
 11
2.52596
 21
-0.966446
  0
LINE
  8
0
 10
2.52596
 20
-0.966446
 11
2.56848
 21
-1.08322
  0
LINE
  8
0
 10
2.56848
 20
-1.08322
 11
2.63513
 21
-1.1611
  0
LINE
  8
0
 10
2.63513
 20
-1.1611
 11
2.67294
 21
-1.1729
  0
LINE
  8
0
 10
2.67294
 20
-1.1729
 11
2.71521
 21
-1.1575
  0
LINE
  8
0
 10
2.71521
 20
-1.1575
 11
2.7366
 21
-1.12418
  0
LINE
  8
0
 10
2.7366
 20
-1.12418
 11
2.73763
 21
-1.02165
  0
LINE
  8
0
 10
2.73763
 20
-1.02165
 11
2.69495
 21
-0.904404
  0
LINE
  8
0
 10
2.69495
 20
-0.904404
 11
2.73946
 21
-0.882935
  0
LINE
  8
0
 10
2.73946
 20
-0.882935
 11
2.80728
 21
-0.843384
  0
LINE
  8
0
 10
2.80728
 20
-0.843384
 11
2.84073
 21
-0.820175
  0
LINE
  8
0
 10
2.84073
 20
-0.820175
 11
2.92096
 21
-0.915802
  0
LINE
  8
0
 10
2.92096
 20
-0.915802
 11
3.01025
 21
-0.966187
  0
LINE
  8
0
 10
3.01025
 20
-0.966187
 11
3.0498
 21
-0.964325
  0
LINE
  8
0
 10
3.0498
 20
-0.964325
 11
3.08426
 21
-0.93541
  0
LINE
  8
0
 10
3.08426
 20
-0.93541
 11
3.09296
 21
-0.89679
  0
LINE
  8
0
 10
3.09296
 20
-0.89679
 11
3.05884
 21
-0.80011
  0
LINE
  8
0
 10
3.05884
 20
-0.80011
 11
2.97881
 21
-0.704712
  0
LINE
  8
0
 10
2.97881
 20
-0.704712
 11
3.04161
 21
-0.636063
  0
LINE
  8
0
 10
3.04161
 20
-0.636063
 11
3.08739
 21
-0.575836
  0
LINE
  8
0
 10
3.08739
 20
-0.575836
 11
3.19493
 21
-0.637924
  0
LINE
  8
0
 10
3.19493
 20
-0.637924
 11
3.29607
 21
-0.654724
  0
LINE
  8
0
 10
3.29607
 20
-0.654724
 11
3.3326
 21
-0.63945
  0
LINE
  8
0
 10
3.3326
 20
-0.63945
 11
3.3551
 21
-0.60051
  0
LINE
  8
0
 10
3.3551
 20
-0.60051
 11
3.35007
 21
-0.561234
  0
LINE
  8
0
 10
3.35007
 20
-0.561234
 11
3.28493
 21
-0.48204
  0
LINE
  8
0
 10
3.28493
 20
-0.48204
 11
3.17697
 21
-0.419724
  0
LINE
  8
0
 10
3.17697
 20
-0.419724
 11
3.20039
 21
-0.366486
  0
LINE
  8
0
 10
3.20039
 20
-0.366486
 11
3.22629
 21
-0.292358
  0
LINE
  8
0
 10
3.22629
 20
-0.292358
 11
3.23444
 21
-0.261429
  0
LINE
  8
0
 10
3.23444
 20
-0.261429
 11
3.35735
 21
-0.283096
  0
LINE
  8
0
 10
3.35735
 20
-0.283096
 11
3.45811
 21
-0.264313
  0
LINE
  8
0
 10
3.45811
 20
-0.264313
 11
3.48724
 21
-0.237457
  0
LINE
  8
0
 10
3.48724
 20
-0.237457
 11
3.49504
 21
-0.193146
  0
LINE
  8
0
 10
3.49504
 20
-0.193146
 11
3.47688
 21
-0.157974
  0
LINE
  8
0
 10
3.47688
 20
-0.157974
 11
3.38858
 21
-0.105835
  0
LINE
  8
0
 10
3.38858
 20
-0.105835
 11
3.26579
 21
-0.0841827
  0
LINE
  8
0
 10
3.26579
 20
-0.0841827
 11
3.26813
 21
-0.0610352
  0
LINE
  8
0
 10
3.26813
 20
-0.0610352
 11
3.26984
 21
0.0174408
  0
LINE
  8
0
 10
3.26984
 20
0.0174408
 11
3.26604
 21
0.0842438
  0
LINE
  8
0
 10
3.26604
 20
0.0842438
 11
3.3886
 21
0.10585
  0
LINE
  8
0
 10
3.3886
 20
0.10585
 11
3.47688
 21
0.157974
  0
LINE
  8
0
 10
3.47688
 20
0.157974
 11
3.49506
 21
0.193161
  0
LINE
  8
0
 10
3.49506
 20
0.193161
 11
3.48724
 21
0.237442
  0
LINE
  8
0
 10
3.48724
 20
0.237442
 11
3.45813
 21
0.264297
  0
LINE
  8
0
 10
3.45813
 20
0.264297
 11
3.35735
 21
0.283096
  0
LINE
  8
0
 10
3.35735
 20
0.283096
 11
3.23479
 21
0.261475
  0
LINE
  8
0
 10
3.23479
 20
0.261475
 11
3.21552
 21
0.325562
  0
LINE
  8
0
 10
3.21552
 20
0.325562
 11
3.18704
 21
0.398743
  0
LINE
  8
0
 10
3.18704
 20
0.398743
 11
3.17694
 21
0.419693
  0
LINE
  8
0
 10
3.17694
 20
0.419693
 11
3.28493
 21
0.48204
  0
LINE
  8
0
 10
3.28493
 20
0.48204
 11
3.35007
 21
0.561234
  0
LINE
  8
0
 10
3.35007
 20
0.561234
 11
3.3551
 21
0.600494
  0
LINE
  8
0
 10
3.3551
 20
0.600494
 11
3.33261
 21
0.639465
  0
LINE
  8
0
 10
3.33261
 20
0.639465
 11
3.29607
 21
0.654724
  0
LINE
  8
0
 10
3.29607
 20
0.654724
 11
3.19493
 21
0.637924
  0
LINE
  8
0
 10
3.19493
 20
0.637924
 11
3.08685
 21
0.575531
  0
LINE
  8
0
 10
3.08685
 20
0.575531
 11
3.06863
 21
0.601791
  0
LINE
  8
0
 10
3.06863
 20
0.601791
 11
3.01894
 21
0.662598
  0
LINE
  8
0
 10
3.01894
 20
0.662598
 11
2.97871
 21
0.704605
  0
LINE
  8
0
 10
2.97871
 20
0.704605
 11
3.05884
 21
0.800095
  0
LINE
  8
0
 10
3.05884
 20
0.800095
 11
3.09297
 21
0.89679
  0
LINE
  8
0
 10
3.09297
 20
0.89679
 11
3.08427
 21
0.93541
  0
LINE
  8
0
 10
3.08427
 20
0.93541
 11
3.0498
 21
0.964325
  0
LINE
  8
0
 10
3.0498
 20
0.964325
 11
3.01025
 21
0.966187
  0
LINE
  8
0
 10
3.01025
 20
0.966187
 11
2.92096
 21
0.915802
  0
LINE
  8
0
 10
2.92096
 20
0.915802
 11
2.84114
 21
0.820663
  0
LINE
  8
0
 10
2.84114
 20
0.820663
 11
2.77753
 21
0.861603
  0
LINE
  8
0
 10
2.77753
 20
0.861603
 11
2.69502
 21
0.904633
  0
LINE
  8
0
 10
2.69502
 20
0.904633
 11
2.73761
 21
1.02165
  0
LINE
  8
0
 10
2.73761
 20
1.02165
 11
2.7366
 21
1.12418
  0
LINE
  8
0
 10
2.7366
 20
1.12418
 11
2.71523
 21
1.1575
  0
LINE
  8
0
 10
2.71523
 20
1.1575
 11
2.67296
 21
1.17288
  0
LINE
  8
0
 10
2.67296
 20
1.17288
 11
2.63515
 21
1.1611
  0
LINE
  8
0
 10
2.63515
 20
1.1611
 11
2.56848
 21
1.08322
  0
LINE
  8
0
 10
2.56848
 20
1.08322
 11
2.52579
 21
0.965912
  0
LINE
  8
0
 10
2.52579
 20
0.965912
 11
2.48642
 21
0.976288
  0
LINE
  8
0
 10
2.48642
 20
0.976288
 11
2.40915
 21
0.99025
  0
LINE
  8
0
 10
2.40915
 20
0.99025
 11
2.35999
 21
0.995209
  0
LINE
  8
0
 10
2.35999
 20
0.995209
 11
2.35999
 21
1.11998
  0
LINE
  8
0
 10
2.35999
 20
1.11998
 11
2.32397
 21
1.21596
  0
LINE
  8
0
 10
2.32397
 20
1.21596
 11
2.29247
 21
1.23997
  0
LINE
  8
0
 10
2.29247
 20
1.23997
 11
2.2475
 21
1.23997
  0
LINE
  8
0
 10
2.2475
 20
1.23997
 11
2.21599
 21
1.21597
  0
LINE
  8
0
 10
2.21599
 20
1.21597
 11
2.17999
 21
1.11998
  0
LINE
  8
0
 10
2.17999
 20
1.11998
 11
2.17998
 21
0.995712
  0
LINE
  8
0
 10
2.17998
 20
0.995712
 11
2.09634
 21
0.984802
  0
LINE
  8
0
 10
2.09634
 20
0.984802
 11
2.01402
 21
0.966446
  0
LINE
  8
0
 10
2.01402
 20
0.966446
 11
1.97151
 21
1.08322
  0
LINE
  8
0
 10
1.97151
 20
1.08322
 11
1.90485
 21
1.1611
  0
LINE
  8
0
 10
1.90485
 20
1.1611
 11
1.86703
 21
1.1729
  0
LINE
  8
0
 10
1.86703
 20
1.1729
 11
1.82477
 21
1.1575
  0
LINE
  8
0
 10
1.82477
 20
1.1575
 11
1.80338
 21
1.12418
  0
LINE
  8
0
 10
1.80338
 20
1.12418
 11
1.80237
 21
1.02165
  0
LINE
  8
0
 10
1.80237
 20
1.02165
 11
1.84505
 21
0.904404
  0
LINE
  8
0
 10
1.84505
 20
0.904404
 11
1.80054
 21
0.882935
  0
LINE
  8
0
 10
1.80054
 20
0.882935
 11
1.7327
 21
0.843384
  0
LINE
  8
0
 10
1.7327
 20
0.843384
 11
1.69925
 21
0.820175
  0
LINE
  8
0
 10
1.69925
 20
0.820175
 11
1.61902
 21
0.915802
  0
LINE
  8
0
 10
1.61902
 20
0.915802
 11
1.52974
 21
0.966187
  0
LINE
  8
0
 10
1.52974
 20
0.966187
 11
1.49017
 21
0.964325
  0
LINE
  8
0
 10
1.49017
 20
0.964325
 11
1.45572
 21
0.93541
  0
LINE
  8
0
 10
1.45572
 20
0.93541
 11
1.44702
 21
0.89679
  0
LINE
  8
0
 10
1.44702
 20
0.89679
 11
1.48114
 21
0.80011
  0
LINE
  8
0
 10
1.48114
 20
0.80011
 11
1.56119
 21
0.704712
  0
LINE
  8
0
 10
1.56119
 20
0.704712
 11
1.49837
 21
0.636063
  0
LINE
  8
0
 10
1.49837
 20
0.636063
 11
1.45259
 21
0.575836
  0
LINE
  8
0
 10
1.45259
 20
0.575836
 11
1.34506
 21
0.637924
  0
LINE
  8
0
 10
1.34506
 20
0.637924
 11
1.24393
 21
0.654724
  0
LINE
  8
0
 10
1.24393
 20
0.654724
 11
1.20738
 21
0.63945
  0
LINE
  8
0
 10
1.20738
 20
0.63945
 11
1.18489
 21
0.60051
  0
LINE
  8
0
 10
1.18489
 20
0.60051
 11
1.18993
 21
0.561234
  0
LINE
  8
0
 10
1.18993
 20
0.561234
 11
1.25507
 21
0.48204
  0
LINE
  8
0
 10
1.25507
 20
0.48204
 11
1.36302
 21
0.419724
  0
LINE
  8
0
 10
1.36302
 20
0.419724
 11
1.33958
 21
0.366486
  0
LINE
  8
0
 10
1.33958
 20
0.366486
 11
1.31369
 21
0.292358
  0
LINE
  8
0
 10
1.31369
 20
0.292358
 11
1.30556
 21
0.261429
  0
LINE
  8
0
 10
1.30556
 20
0.261429
 11
1.18265
 21
0.283096
  0
LINE
  8
0
 10
1.18265
 20
0.283096
 11
1.08186
 21
0.264313
  0
LINE
  8
0
 10
1.08186
 20
0.264313
 11
1.05275
 21
0.237457
  0
LINE
  8
0
 10
1.05275
 20
0.237457
 11
1.04494
 21
0.193146
  0
LINE
  8
0
 10
1.04494
 20
0.193146
 11
1.06311
 21
0.157974
  0
LINE
  8
0
 10
1.06311
 20
0.157974
 11
1.1514
 21
0.105835
  0
LINE
  8
0
 10
1.1514
 20
0.105835
 11
1.2742
 21
0.0841827
  0
LINE
  8
0
 10
1.2742
 20
0.0841827
 11
1.27187
 21
0.0610352
  0
LINE
  8
0
 10
1.27187
 20
0.0610352
 11
1.27014
 21
-0.0174408
  0
LINE
  8
0
 10
1.27014
 20
-0.0174408
 11
1.27394
 21
-0.0842438
  0
LINE
  8
0
 10
1.27394
 20
-0.0842438
 11
1.15138
 21
-0.10585
  0
LINE
  8
0
 10
1.15138
 20
-0.10585
 11
1.06311
 21
-0.157974
  0
LINE
  8
0
 10
1.06311
 20
-0.157974
 11
1.04494
 21
-0.193161
  0
LINE
  8
0
 10
1.04494
 20
-0.193161
 11
1.05275
 21
-0.237442
  0
LINE
  8
0
 10
1.05275
 20
-0.237442
 11
1.08185
 21
-0.264297
  0
LINE
  8
0
 10
1.08185
 20
-0.264297
 11
1.18263
 21
-0.283096
  0
LINE
  8
0
 10
1.18263
 20
-0.283096
 11
1.30519
 21
-0.261475
  0
LINE
  8
0
 10
1.30519
 20
-0.261475
 11
1.32448
 21
-0.325562
  0
LINE
  8
0
 10
1.32448
 20
-0.325562
 11
1.35294
 21
-0.398743
  0
LINE
  8
0
 10
1.35294
 20
-0.398743
 11
1.36304
 21
-0.419693
  0
LINE
  8
0
 10
1.36304
 20
-0.419693
 11
1.25505
 21
-0.48204
  0
LINE
  8
0
 10
1.25505
 20
-0.48204
 11
1.18993
 21
-0.561234
  0
LINE
  8
0
 10
1.18993
 20
-0.561234
 11
1.18489
 21
-0.600494
  0
LINE
  8
0
 10
1.18489
 20
-0.600494
 11
1.20738
 21
-0.639465
  0
LINE
  8
0
 10
1.20738
 20
-0.639465
 11
1.24393
 21
-0.654724
  0
LINE
  8
0
 10
1.24393
 20
-0.654724
 11
1.34505
 21
-0.637924
  0
LINE
  8
0
 10
1.34505
 20
-0.637924
 11
1.45314
 21
-0.575531
  0
LINE
  8
0
 10
1.45314
 20
-0.575531
 11
1.47136
 21
-0.601791
  0
LINE
  8
0
 10
1.47136
 20
-0.601791
 11
1.52104
 21
-0.662598
  0
LINE
  8
0
 10
1.52104
 20
-0.662598
 11
1.56126
 21
-0.704605
  0
LINE
  8
0
 10
1.56126
 20
-0.704605
 11
1.48114
 21
-0.800095
  0
LINE
  8
0
 10
1.48114
 20
-0.800095
 11
1.44702
 21
-0.89679
  0
LINE
  8
0
 10
1.44702
 20
-0.89679
 11
1.45572
 21
-0.93541
  0
LINE
  8
0
 10
1.45572
 20
-0.93541
 11
1.49017
 21
-0.964325
  0
LINE
  8
0
 10
1.49017
 20
-0.964325
 11
1.52974
 21
-0.966187
  0
LINE
  8
0
 10
1.52974
 20
-0.966187
 11
1.61902
 21
-0.915802
  0
LINE
  8
0
 10
1.61902
 20
-0.915802
 11
1.69884
 21
-0.820663
  0
LINE
  8
0
 10
1.69884
 20
-0.820663
 11
1.76245
 21
-0.861603
  0
LINE
  8
0
 10
1.76245
 20
-0.861603
 11
1.84496
 21
-0.904633
  0
LINE
  8
0
 10
1.84496
 20
-0.904633
 11
1.80237
 21
-1.02165
  0
LINE
  8
0
 10
1.80237
 20
-1.02165
 11
1.80338
 21
-1.12418
  0
LINE
  8
0
 10
1.80338
 20
-1.12418
 11
1.82477
 21
-1.1575
  0
LINE
  8
0
 10
1.82477
 20
-1.1575
 11
1.86703
 21
-1.17288
  0
LINE
  8
0
 10
1.86703
 20
-1.17288
 11
1.90483
 21
-1.1611
  0
LINE
  8
0
 10
1.90483
 20
-1.1611
 11
1.9715
 21
-1.08322
  0
LINE
  8
0
 10
1.9715
 20
-1.08322
 11
2.01419
 21
-0.965912
  0
LINE
  8
0
 10
2.01419
 20
-0.965912
 11
2.05356
 21
-0.976288
  0
LINE
  8
0
 10
2.05356
 20
-0.976288
 11
2.13083
 21
-0.99025
  0
LINE
  8
0
 10
2.13083
 20
-0.99025
 11
2.17999
 21
-0.995209
  0
LINE
  8
0
 10
2.17999
 20
-0.995209
 11
2.17999
 21
-1.11998
  0
LINE
  8
0
 10
2.17999
 20
-1.11998
 11
2.216
 21
-1.21596
  0
LINE
  8
0
 10
2.216
 20
-1.21596
 11
2.24751
 21
-1.23997
  0
LINE
  8
0
 10
2.24751
 20
-1.23997
 11
2.2925
 21
-1.23997
  0
LINE
  8
0
 10
2.2925
 20
-1.23997
 11
2.32399
 21
-1.21597
  0
LINE
  8
0
 10
2.37993
 20
0.279114
 11
2.33492
 21
0.292877
  0
LINE
  8
0
 10
2.33492
 20
0.292877
 11
2.31938
 21
0.295685
  0
LINE
  8
0
 10
2.31938
 20
0.295685
 11
2.222
 21
0.847977
  0
LINE
  8
0
 10
2.222
 20
0.847977
 11
2.25516
 21
0.849854
  0
LINE
  8
0
 10
2.25516
 20
0.849854
 11
2.32188
 21
0.848404
  0
LINE
  8
0
 10
2.32188
 20
0.848404
 11
2.38828
 21
0.841721
  0
LINE
  8
0
 10
2.38828
 20
0.841721
 11
2.45396
 21
0.829834
  0
LINE
  8
0
 10
2.45396
 20
0.829834
 11
2.51849
 21
0.812851
  0
LINE
  8
0
 10
2.51849
 20
0.812851
 11
2.58151
 21
0.790833
  0
LINE
  8
0
 10
2.58151
 20
0.790833
 11
2.64259
 21
0.763947
  0
LINE
  8
0
 10
2.64259
 20
0.763947
 11
2.70139
 21
0.732361
  0
LINE
  8
0
 10
2.70139
 20
0.732361
 11
2.75752
 21
0.696259
  0
LINE
  8
0
 10
2.75752
 20
0.696259
 11
2.81065
 21
0.655853
  0
LINE
  8
0
 10
2.81065
 20
0.655853
 11
2.85204
 21
0.618927
  0
LINE
  8
0
 10
2.85204
 20
0.618927
 11
2.42238
 21
0.258392
  0
LINE
  8
0
 10
2.42238
 20
0.258392
 11
2.37993
 21
0.279114
  0
LINE
  8
0
 10
1.51137
 20
0.382523
 11
1.53763
 21
0.431396
  0
LINE
  8
0
 10
1.53763
 20
0.431396
 11
1.57373
 21
0.487518
  0
LINE
  8
0
 10
1.57373
 20
0.487518
 11
1.61412
 21
0.540649
  0
LINE
  8
0
 10
1.61412
 20
0.540649
 11
1.65857
 21
0.590439
  0
LINE
  8
0
 10
1.65857
 20
0.590439
 11
1.70677
 21
0.636597
  0
LINE
  8
0
 10
1.70677
 20
0.636597
 11
1.75847
 21
0.678833
  0
LINE
  8
0
 10
1.75847
 20
0.678833
 11
1.81329
 21
0.716873
  0
LINE
  8
0
 10
1.81329
 20
0.716873
 11
1.87096
 21
0.750504
  0
LINE
  8
0
 10
1.87096
 20
0.750504
 11
1.93106
 21
0.77948
  0
LINE
  8
0
 10
1.93106
 20
0.77948
 11
1.99327
 21
0.803665
  0
LINE
  8
0
 10
1.99327
 20
0.803665
 11
2.02505
 21
0.813248
  0
LINE
  8
0
 10
2.02505
 20
0.813248
 11
2.12244
 21
0.260956
  0
LINE
  8
0
 10
2.12244
 20
0.260956
 11
2.08946
 21
0.239578
  0
LINE
  8
0
 10
2.08946
 20
0.239578
 11
2.0542
 21
0.208374
  0
LINE
  8
0
 10
2.0542
 20
0.208374
 11
2.03841
 21
0.190689
  0
LINE
  8
0
 10
2.03841
 20
0.190689
 11
1.51137
 21
0.382523
  0
LINE
  8
0
 10
2.56976
 20
-0.00270081
 11
2.5686
 21
0.0287476
  0
LINE
  8
0
 10
2.5686
 20
0.0287476
 11
2.56044
 21
0.0751038
  0
LINE
  8
0
 10
2.56044
 20
0.0751038
 11
2.55077
 21
0.105057
  0
LINE
  8
0
 10
2.55077
 20
0.105057
 11
2.98061
 21
0.465729
  0
LINE
  8
0
 10
2.98061
 20
0.465729
 11
3.02049
 21
0.399033
  0
LINE
  8
0
 10
3.02049
 20
0.399033
 11
3.04948
 21
0.338928
  0
LINE
  8
0
 10
3.04948
 20
0.338928
 11
3.07367
 21
0.276718
  0
LINE
  8
0
 10
3.07367
 20
0.276718
 11
3.09291
 21
0.212799
  0
LINE
  8
0
 10
3.09291
 20
0.212799
 11
3.10707
 21
0.147598
  0
LINE
  8
0
 10
3.10707
 20
0.147598
 11
3.11606
 21
0.0814667
  0
LINE
  8
0
 10
3.11606
 20
0.0814667
 11
3.11986
 21
0.0148315
  0
LINE
  8
0
 10
3.11986
 20
0.0148315
 11
3.11839
 21
-0.0518799
  0
LINE
  8
0
 10
3.11839
 20
-0.0518799
 11
3.11171
 21
-0.118271
  0
LINE
  8
0
 10
3.11171
 20
-0.118271
 11
3.09703
 21
-0.194595
  0
LINE
  8
0
 10
3.09703
 20
-0.194595
 11
2.56976
 21
-0.00270081
  0
LINE
  8
0
 10
1.51949
 20
-0.399033
 11
1.49049
 21
-0.338928
  0
LINE
  8
0
 10
1.49049
 20
-0.338928
 11
1.46631
 21
-0.276718
  0
LINE
  8
0
 10
1.46631
 20
-0.276718
 11
1.44708
 21
-0.212799
  0
LINE
  8
0
 10
1.44708
 20
-0.212799
 11
1.43292
 21
-0.147598
  0
LINE
  8
0
 10
1.43292
 20
-0.147598
 11
1.42392
 21
-0.0814667
  0
LINE
  8
0
 10
1.42392
 20
-0.0814667
 11
1.42014
 21
-0.0148315
  0
LINE
  8
0
 10
1.42014
 20
-0.0148315
 11
1.42159
 21
0.0518799
  0
LINE
  8
0
 10
1.42159
 20
0.0518799
 11
1.42827
 21
0.118271
  0
LINE
  8
0
 10
1.42827
 20
0.118271
 11
1.44295
 21
0.194595
  0
LINE
  8
0
 10
1.44295
 20
0.194595
 11
1.97021
 21
0.00270081
  0
LINE
  8
0
 10
1.97021
 20
0.00270081
 11
1.97137
 21
-0.0287476
  0
LINE
  8
0
 10
1.97137
 20
-0.0287476
 11
1.97955
 21
-0.0751038
  0
LINE
  8
0
 10
1.97955
 20
-0.0751038
 11
1.98921
 21
-0.105057
  0
LINE
  8
0
 10
1.98921
 20
-0.105057
 11
1.55939
 21
-0.465729
  0
LINE
  8
0
 10
1.55939
 20
-0.465729
 11
1.51949
 21
-0.399033
  0
LINE
  8
0
 10
2.25357
 20
-0.116943
 11
2.22672
 21
-0.109863
  0
LINE
  8
0
 10
2.22672
 20
-0.109863
 11
2.20226
 21
-0.0967407
  0
LINE
  8
0
 10
2.20226
 20
-0.0967407
 11
2.18155
 21
-0.0782471
  0
LINE
  8
0
 10
2.18155
 20
-0.0782471
 11
2.16571
 21
-0.0554199
  0
LINE
  8
0
 10
2.16571
 20
-0.0554199
 11
2.15565
 21
-0.0295563
  0
LINE
  8
0
 10
2.15565
 20
-0.0295563
 11
2.1519
 21
-0.00205994
  0
LINE
  8
0
 10
2.1519
 20
-0.00205994
 11
2.15469
 21
0.0255585
  0
LINE
  8
0
 10
2.15469
 20
0.0255585
 11
2.16383
 21
0.0517578
  0
LINE
  8
0
 10
2.16383
 20
0.0517578
 11
2.17886
 21
0.0751038
  0
LINE
  8
0
 10
2.17886
 20
0.0751038
 11
2.19891
 21
0.0943146
  0
LINE
  8
0
 10
2.19891
 20
0.0943146
 11
2.22292
 21
0.108307
  0
LINE
  8
0
 10
2.22292
 20
0.108307
 11
2.24948
 21
0.116302
  0
LINE
  8
0
 10
2.24948
 20
0.116302
 11
2.27719
 21
0.117874
  0
LINE
  8
0
 10
2.27719
 20
0.117874
 11
2.30452
 21
0.11293
  0
LINE
  8
0
 10
2.30452
 20
0.11293
 11
2.32994
 21
0.101746
  0
LINE
  8
0
 10
2.32994
 20
0.101746
 11
2.35561
 21
0.0812073
  0
LINE
  8
0
 10
2.35561
 20
0.0812073
 11
2.37822
 21
-0.0470276
  0
LINE
  8
0
 10
2.37822
 20
-0.0470276
 11
2.37175
 21
-0.0599365
  0
LINE
  8
0
 10
2.37175
 20
-0.0599365
 11
2.35493
 21
-0.0820312
  0
LINE
  8
0
 10
2.35493
 20
-0.0820312
 11
2.33345
 21
-0.0996094
  0
LINE
  8
0
 10
2.33345
 20
-0.0996094
 11
2.30843
 21
-0.111664
  0
LINE
  8
0
 10
2.30843
 20
-0.111664
 11
2.28131
 21
-0.117554
  0
LINE
  8
0
 10
2.28131
 20
-0.117554
 11
2.25357
 21
-0.116943
  0
LINE
  8
0
 10
2.41754
 20
-0.260956
 11
2.45052
 21
-0.239578
  0
LINE
  8
0
 10
2.45052
 20
-0.239578
 11
2.48579
 21
-0.208374
  0
LINE
  8
0
 10
2.48579
 20
-0.208374
 11
2.50157
 21
-0.190689
  0
LINE
  8
0
 10
2.50157
 20
-0.190689
 11
3.02863
 21
-0.382523
  0
LINE
  8
0
 10
3.02863
 20
-0.382523
 11
3.00237
 21
-0.431396
  0
LINE
  8
0
 10
3.00237
 20
-0.431396
 11
2.96626
 21
-0.487518
  0
LINE
  8
0
 10
2.96626
 20
-0.487518
 11
2.92586
 21
-0.540649
  0
LINE
  8
0
 10
2.92586
 20
-0.540649
 11
2.88141
 21
-0.590439
  0
LINE
  8
0
 10
2.88141
 20
-0.590439
 11
2.83322
 21
-0.636597
  0
LINE
  8
0
 10
2.83322
 20
-0.636597
 11
2.78152
 21
-0.678833
  0
LINE
  8
0
 10
2.78152
 20
-0.678833
 11
2.72668
 21
-0.716873
  0
LINE
  8
0
 10
2.72668
 20
-0.716873
 11
2.66902
 21
-0.750504
  0
LINE
  8
0
 10
2.66902
 20
-0.750504
 11
2.60892
 21
-0.77948
  0
LINE
  8
0
 10
2.60892
 20
-0.77948
 11
2.54672
 21
-0.803665
  0
LINE
  8
0
 10
2.54672
 20
-0.803665
 11
2.51492
 21
-0.813248
  0
LINE
  8
0
 10
2.51492
 20
-0.813248
 11
2.41754
 21
-0.260956
  0
LINE
  8
0
 10
2.21811
 20
-0.848404
 11
2.1517
 21
-0.841721
  0
LINE
  8
0
 10
2.1517
 20
-0.841721
 11
2.08603
 21
-0.829834
  0
LINE
  8
0
 10
2.08603
 20
-0.829834
 11
2.02148
 21
-0.812851
  0
LINE
  8
0
 10
2.02148
 20
-0.812851
 11
1.95847
 21
-0.790833
  0
LINE
  8
0
 10
1.95847
 20
-0.790833
 11
1.89738
 21
-0.763947
  0
LINE
  8
0
 10
1.89738
 20
-0.763947
 11
1.83859
 21
-0.732361
  0
LINE
  8
0
 10
1.83859
 20
-0.732361
 11
1.78246
 21
-0.696259
  0
LINE
  8
0
 10
1.78246
 20
-0.696259
 11
1.72934
 21
-0.655853
  0
LINE
  8
0
 10
1.72934
 20
-0.655853
 11
1.68794
 21
-0.618927
  0
LINE
  8
0
 10
1.68794
 20
-0.618927
 11
2.11774
 21
-0.258484
  0
LINE
  8
0
 10
2.11774
 20
-0.258484
 11
2.16005
 21
-0.279114
  0
LINE
  8
0
 10
2.16005
 20
-0.279114
 11
2.20508
 21
-0.292877
  0
LINE
  8
0
 10
2.20508
 20
-0.292877
 11
2.2206
 21
-0.295685
  0
LINE
  8
0
 10
2.2206
 20
-0.295685
 11
2.31798
 21
-0.847977
  0
LINE
  8
0
 10
2.31798
 20
-0.847977
 11
2.28484
 21
-0.849854
  0
LINE
  8
0
 10
2.28484
 20
-0.849854
 11
2.21811
 21
-0.848404
  0
LINE
  8
0
 10
0.237457
 20
-1.21724
 11
0.264313
 21
-1.18813
  0
LINE
  8
0
 10
0.264313
 20
-1.18813
 11
0.283112
 21
-1.08734
  0
LINE
  8
0
 10
0.283112
 20
-1.08734
 11
0.261444
 21
-0.964462
  0
LINE
  8
0
 10
0.261444
 20
-0.964462
 11
0.309006
 21
-0.95105
  0
LINE
  8
0
 10
0.309006
 20
-0.95105
 11
0.382675
 21
-0.923874
  0
LINE
  8
0
 10
0.382675
 20
-0.923874
 11
0.419647
 21
-0.90683
  0
LINE
  8
0
 10
0.419647
 20
-0.90683
 11
0.482056
 21
-1.01494
  0
LINE
  8
0
 10
0.482056
 20
-1.01494
 11
0.561234
 21
-1.08006
  0
LINE
  8
0
 10
0.561234
 20
-1.08006
 11
0.60051
 21
-1.0851
  0
LINE
  8
0
 10
0.60051
 20
-1.0851
 11
0.639465
 21
-1.06261
  0
LINE
  8
0
 10
0.639465
 20
-1.06261
 11
0.654739
 21
-1.02608
  0
LINE
  8
0
 10
0.654739
 20
-1.02608
 11
0.637924
 21
-0.924942
  0
LINE
  8
0
 10
0.637924
 20
-0.924942
 11
0.575668
 21
-0.817093
  0
LINE
  8
0
 10
0.575668
 20
-0.817093
 11
0.649445
 21
-0.760391
  0
LINE
  8
0
 10
0.649445
 20
-0.760391
 11
0.704987
 21
-0.70903
  0
LINE
  8
0
 10
0.704987
 20
-0.70903
 11
0.80011
 21
-0.788849
  0
LINE
  8
0
 10
0.80011
 20
-0.788849
 11
0.89679
 21
-0.822968
  0
LINE
  8
0
 10
0.89679
 20
-0.822968
 11
0.935425
 21
-0.81427
  0
LINE
  8
0
 10
0.935425
 20
-0.81427
 11
0.96434
 21
-0.779816
  0
LINE
  8
0
 10
0.96434
 20
-0.779816
 11
0.966202
 21
-0.740265
  0
LINE
  8
0
 10
0.966202
 20
-0.740265
 11
0.915802
 21
-0.65097
  0
LINE
  8
0
 10
0.915802
 20
-0.65097
 11
0.820312
 21
-0.570847
  0
LINE
  8
0
 10
0.820312
 20
-0.570847
 11
0.852631
 21
-0.522491
  0
LINE
  8
0
 10
0.852631
 20
-0.522491
 11
0.891006
 21
-0.453979
  0
LINE
  8
0
 10
0.891006
 20
-0.453979
 11
0.904388
 21
-0.424942
  0
LINE
  8
0
 10
0.904388
 20
-0.424942
 11
1.02167
 21
-0.467621
  0
LINE
  8
0
 10
1.02167
 20
-0.467621
 11
1.12418
 21
-0.466614
  0
LINE
  8
0
 10
1.12418
 20
-0.466614
 11
1.15752
 21
-0.445236
  0
LINE
  8
0
 10
1.15752
 20
-0.445236
 11
1.1729
 21
-0.402954
  0
LINE
  8
0
 10
1.1729
 20
-0.402954
 11
1.16112
 21
-0.365158
  0
LINE
  8
0
 10
1.16112
 20
-0.365158
 11
1.08322
 21
-0.298477
  0
LINE
  8
0
 10
1.08322
 20
-0.298477
 11
0.966049
 21
-0.255829
  0
LINE
  8
0
 10
0.966049
 20
-0.255829
 11
0.972366
 21
-0.233444
  0
LINE
  8
0
 10
0.972366
 20
-0.233444
 11
0.987686
 21
-0.156433
  0
LINE
  8
0
 10
0.987686
 20
-0.156433
 11
0.995544
 21
-0.0899963
  0
LINE
  8
0
 10
0.995544
 20
-0.0899963
 11
1.12
 21
-0.0899963
  0
LINE
  8
0
 10
1.12
 20
-0.0899963
 11
1.21599
 21
-0.0539856
  0
LINE
  8
0
 10
1.21599
 20
-0.0539856
 11
1.23999
 21
-0.0224915
  0
LINE
  8
0
 10
1.23999
 20
-0.0224915
 11
1.23999
 21
0.0224762
  0
LINE
  8
0
 10
1.23999
 20
0.0224762
 11
1.21599
 21
0.0539703
  0
LINE
  8
0
 10
1.21599
 20
0.0539703
 11
1.12
 21
0.0899811
  0
LINE
  8
0
 10
1.12
 20
0.0899811
 11
0.995544
 21
0.0899811
  0
LINE
  8
0
 10
0.995544
 20
0.0899811
 11
0.987686
 21
0.156433
  0
LINE
  8
0
 10
0.987686
 20
0.156433
 11
0.972366
 21
0.233444
  0
LINE
  8
0
 10
0.972366
 20
0.233444
 11
0.966049
 21
0.255829
  0
LINE
  8
0
 10
0.966049
 20
0.255829
 11
1.08322
 21
0.298477
  0
LINE
  8
0
 10
1.08322
 20
0.298477
 11
1.16112
 21
0.365158
  0
LINE
  8
0
 10
1.16112
 20
0.365158
 11
1.1729
 21
0.402954
  0
LINE
  8
0
 10
1.1729
 20
0.402954
 11
1.15752
 21
0.445236
  0
LINE
  8
0
 10
1.15752
 20
0.445236
 11
1.12418
 21
0.466614
  0
LINE
  8
0
 10
1.12418
 20
0.466614
 11
1.02167
 21
0.467621
  0
LINE
  8
0
 10
1.02167
 20
0.467621
 11
0.904388
 21
0.424942
  0
LINE
  8
0
 10
0.904388
 20
0.424942
 11
0.891006
 21
0.453979
  0
LINE
  8
0
 10
0.891006
 20
0.453979
 11
0.852631
 21
0.522491
  0
LINE
  8
0
 10
0.852631
 20
0.522491
 11
0.820312
 21
0.570847
  0
LINE
  8
0
 10
0.820312
 20
0.570847
 11
0.915802
 21
0.65097
  0
LINE
  8
0
 10
0.915802
 20
0.65097
 11
0.966202
 21
0.740265
  0
LINE
  8
0
 10
0.966202
 20
0.740265
 11
0.96434
 21
0.779816
  0
LINE
  8
0
 10
0.96434
 20
0.779816
 11
0.935425
 21
0.81427
  0
LINE
  8
0
 10
0.935425
 20
0.81427
 11
0.89679
 21
0.822968
  0
LINE
  8
0
 10
0.89679
 20
0.822968
 11
0.80011
 21
0.788849
  0
LINE
  8
0
 10
0.80011
 20
0.788849
 11
0.704987
 21
0.70903
  0
LINE
  8
0
 10
0.704987
 20
0.70903
 11
0.649445
 21
0.760391
  0
LINE
  8
0
 10
0.649445
 20
0.760391
 11
0.575668
 21
0.817093
  0
LINE
  8
0
 10
0.575668
 20
0.817093
 11
0.637924
 21
0.924942
  0
LINE
  8
0
 10
0.637924
 20
0.924942
 11
0.654739
 21
1.02608
  0
LINE
  8
0
 10
0.654739
 20
1.02608
 11
0.639465
 21
1.06261
  0
LINE
  8
0
 10
0.639465
 20
1.06261
 11
0.60051
 21
1.0851
  0
LINE
  8
0
 10
0.60051
 20
1.0851
 11
0.561234
 21
1.08006
  0
LINE
  8
0
 10
0.561234
 20
1.08006
 11
0.482056
 21
1.01494
  0
LINE
  8
0
 10
0.482056
 20
1.01494
 11
0.419647
 21
0.90683
  0
LINE
  8
0
 10
0.419647
 20
0.90683
 11
0.382675
 21
0.923874
  0
LINE
  8
0
 10
0.382675
 20
0.923874
 11
0.309006
 21
0.95105
  0
LINE
  8
0
 10
0.309006
 20
0.95105
 11
0.261444
 21
0.964462
  0
LINE
  8
0
 10
0.261444
 20
0.964462
 11
0.283112
 21
1.08734
  0
LINE
  8
0
 10
0.283112
 20
1.08734
 11
0.264313
 21
1.18813
  0
LINE
  8
0
 10
0.264313
 20
1.18813
 11
0.237457
 21
1.21724
  0
LINE
  8
0
 10
0.237457
 20
1.21724
 11
0.193161
 21
1.22505
  0
LINE
  8
0
 10
0.193161
 20
1.22505
 11
0.157974
 21
1.20688
  0
LINE
  8
0
 10
0.157974
 20
1.20688
 11
0.10585
 21
1.11861
  0
LINE
  8
0
 10
0.10585
 20
1.11861
 11
0.084259
 21
0.996216
  0
LINE
  8
0
 10
0.084259
 20
0.996216
 11
0
 21
1
  0
LINE
  8
0
 10
0
 20
1
 11
-0.084259
 21
0.996216
  0
LINE
  8
0
 10
-0.084259
 20
0.996216
 11
-0.10585
 21
1.11861
  0
LINE
  8
0
 10
-0.10585
 20
1.11861
 11
-0.157974
 21
1.20688
  0
LINE
  8
0
 10
-0.157974
 20
1.20688
 11
-0.193161
 21
1.22505
  0
LINE
  8
0
 10
-0.193161
 20
1.22505
 11
-0.237457
 21
1.21724
  0
LINE
  8
0
 10
-0.237457
 20
1.21724
 11
-0.264313
 21
1.18813
  0
LINE
  8
0
 10
-0.264313
 20
1.18813
 11
-0.283112
 21
1.08734
  0
LINE
  8
0
 10
-0.283112
 20
1.08734
 11
-0.261444
 21
0.964462
  0
LINE
  8
0
 10
-0.261444
 20
0.964462
 11
-0.309006
 21
0.95105
  0
LINE
  8
0
 10
-0.309006
 20
0.95105
 11
-0.382675
 21
0.923874
  0
LINE
  8
0
 10
-0.382675
 20
0.923874
 11
-0.419647
 21
0.90683
  0
LINE
  8
0
 10
-0.419647
 20
0.90683
 11
-0.482056
 21
1.01494
  0
LINE
  8
0
 10
-0.482056
 20
1.01494
 11
-0.561234
 21
1.08006
  0
LINE
  8
0
 10
-0.561234
 20
1.08006
 11
-0.60051
 21
1.0851
  0
LINE
  8
0
 10
-0.60051
 20
1.0851
 11
-0.639465
 21
1.06261
  0
LINE
  8
0
 10
-0.639465
 20
1.06261
 11
-0.654739
 21
1.02608
  0
LINE
  8
0
 10
-0.654739
 20
1.02608
 11
-0.637924
 21
0.924942
  0
LINE
  8
0
 10
-0.637924
 20
0.924942
 11
-0.575668
 21
0.817093
  0
LINE
  8
0
 10
-0.575668
 20
0.817093
 11
-0.649445
 21
0.760391
  0
LINE
  8
0
 10
-0.649445
 20
0.760391
 11
-0.704987
 21
0.70903
  0
LINE
  8
0
 10
-0.704987
 20
0.70903
 11
-0.80011
 21
0.788849
  0
LINE
  8
0
 10
-0.80011
 20
0.788849
 11
-0.89679
 21
0.822968
  0
LINE
  8
0
 10
-0.89679
 20
0.822968
 11
-0.935425
 21
0.81427
  0
LINE
  8
0
 10
-0.935425
 20
0.81427
 11
-0.96434
 21
0.779816
  0
LINE
  8
0
 10
-0.96434
 20
0.779816
 11
-0.966202
 21
0.740265
  0
LINE
  8
0
 10
-0.966202
 20
0.740265
 11
-0.915802
 21
0.65097
  0
LINE
  8
0
 10
-0.915802
 20
0.65097
 11
-0.820312
 21
0.570847
  0
LINE
  8
0
 10
-0.820312
 20
0.570847
 11
-0.852631
 21
0.522491
  0
LINE
  8
0
 10
-0.852631
 20
0.522491
 11
-0.891006
 21
0.453979
  0
LINE
  8
0
 10
-0.891006
 20
0.453979
 11
-0.904388
 21
0.424942
  0
LINE
  8
0
 10
-0.904388
 20
0.424942
 11
-1.02167
 21
0.467621
  0
LINE
  8
0
 10
-1.02167
 20
0.467621
 11
-1.12418
 21
0.466614
  0
LINE
  8
0
 10
-1.12418
 20
0.466614
 11
-1.15752
 21
0.445236
  0
LINE
  8
0
 10
-1.15752
 20
0.445236
 11
-1.1729
 21
0.402954
  0
LINE
  8
0
 10
-1.1729
 20
0.402954
 11
-1.16112
 21
0.365158
  0
LINE
  8
0
 10
-1.16112
 20
0.365158
 11
-1.08322
 21
0.298477
  0
LINE
  8
0
 10
-1.08322
 20
0.298477
 11
-0.966049
 21
0.255829
  0
LINE
  8
0
 10
-0.966049
 20
0.255829
 11
-0.972366
 21
0.233444
  0
LINE
  8
0
 10
-0.972366
 20
0.233444
 11
-0.987686
 21
0.156433
  0
LINE
  8
0
 10
-0.987686
 20
0.156433
 11
-0.995544
 21
0.0899963
  0
LINE
  8
0
 10
-0.995544
 20
0.0899963
 11
-1.12
 21
0.0899963
  0
LINE
  8
0
 10
-1.12
 20
0.0899963
 11
-1.21599
 21
0.0539856
  0
LINE
  8
0
 10
-1.21599
 20
0.0539856
 11
-1.23999
 21
0.0224915
  0
LINE
  8
0
 10
-1.23999
 20
0.0224915
 11
-1.23999
 21
-0.0224762
  0
LINE
  8
0
 10
-1.23999
 20
-0.0224762
 11
-1.21599
 21
-0.0539703
  0
LINE
  8
0
 10
-1.21599
 20
-0.0539703
 11
-1.12
 21
-0.0899811
  0
LINE
  8
0
 10
-1.12
 20
-0.0899811
 11
-0.995544
 21
-0.0899811
  0
LINE
  8
0
 10
-0.995544
 20
-0.0899811
 11
-0.987686
 21
-0.156433
  0
LINE
  8
0
 10
-0.987686
 20
-0.156433
 11
-0.972366
 21
-0.233444
  0
LINE
  8
0
 10
-0.972366
 20
-0.233444
 11
-0.966049
 21
-0.255829
  0
LINE
  8
0
 10
-0.966049
 20
-0.255829
 11
-1.08322
 21
-0.298477
  0
LINE
  8
0
 10
-1.08322
 20
-0.298477
 11
-1.16112
 21
-0.365158
  0
LINE
  8
0
 10
-1.16112
 20
-0.365158
 11
-1.1729
 21
-0.402954
  0
LINE
  8
0
 10
-1.1729
 20
-0.402954
 11
-1.15752
 21
-0.445236
  0
LINE
  8
0
 10
-1.15752
 20
-0.445236
 11
-1.12418
 21
-0.466614
  0
LINE
  8
0
 10
-1.12418
 20
-0.466614
 11
-1.02167
 21
-0.467621
  0
LINE
  8
0
 10
-1.02167
 20
-0.467621
 11
-0.904388
 21
-0.424942
  0
LINE
  8
0
 10
-0.904388
 20
-0.424942
 11
-0.891006
 21
-0.453979
  0
LINE
  8
0
 10
-0.891006
 20
-0.453979
 11
-0.852631
 21
-0.522491
  0
LINE
  8
0
 10
-0.852631
 20
-0.522491
 11
-0.820312
 21
-0.570847
  0
LINE
  8
0
 10
-0.820312
 20
-0.570847
 11
-0.915802
 21
-0.65097
  0
LINE
  8
0
 10
-0.915802
 20
-0.65097
 11
-0.966202
 21
-0.740265
  0
LINE
  8
0
 10
-0.966202
 20
-0.740265
 11
-0.96434
 21
-0.779816
  0
LINE
  8
0
 10
-0.96434
 20
-0.779816
 11
-0.935425
 21
-0.81427
  0
LINE
  8
0
 10
-0.935425
 20
-0.81427
 11
-0.89679
 21
-0.822968
  0
LINE
  8
0
 10
-0.89679
 20
-0.822968
 11
-0.80011
 21
-0.788849
  0
LINE
  8
0
 10
-0.80011
 20
-0.788849
 11
-0.704987
 21
-0.70903
  0
LINE
  8
0
 10
-0.704987
 20
-0.70903
 11
-0.649445
 21
-0.760391
  0
LINE
  8
0
 10
-0.649445
 20
-0.760391
 11
-0.575668
 21
-0.817093
  0
LINE
  8
0
 10
-0.575668
 20
-0.817093
 11
-0.637924
 21
-0.924942
  0
LINE
  8
0
 10
-0.637924
 20
-0.924942
 11
-0.654739
 21
-1.02608
  0
LINE
  8
0
 10
-0.654739
 20
-1.02608
 11
-0.639465
 21
-1.06261
  0
LINE
  8
0
 10
-0.639465
 20
-1.06261
 11
-0.60051
 21
-1.0851
  0
LINE
  8
0
 10
-0.60051
 20
-1.0851
 11
-0.561234
 21
-1.08006
  0
LINE
  8
0
 10
-0.561234
 20
-1.08006
 11
-0.482056
 21
-1.01494
  0
LINE
  8
0
 10
-0.482056
 20
-1.01494
 11
-0.419647
 21
-0.90683
  0
LINE
  8
0
 10
-0.419647
 20
-0.90683
 11
-0.382675
 21
-0.923874
  0
LINE
  8
0
 10
-0.382675
 20
-0.923874
 11
-0.309006
 21
-0.95105
  0
LINE
  8
0
 10
-0.309006
 20
-0.95105
 11
-0.261444
 21
-0.964462
  0
LINE
  8
0
 10
-0.261444
 20
-0.964462
 11
-0.283112
 21
-1.08734
  0
LINE
  8
0
 10
-0.283112
 20
-1.08734
 11
-0.264313
 21
-1.18813
  0
LINE
  8
0
 10
-0.264313
 20
-1.18813
 11
-0.237457
 21
-1.21724
  0
LINE
  8
0
 10
-0.237457
 20
-1.21724
 11
-0.193161
 21
-1.22505
  0
LINE
  8
0
 10
-0.193161
 20
-1.22505
 11
-0.157974
 21
-1.20688
  0
LINE
  8
0
 10
-0.157974
 20
-1.20688
 11
-0.10585
 21
-1.11861
  0
LINE
  8
0
 10
-0.10585
 20
-1.11861
 11
-0.084259
 21
-0.996216
  0
LINE
  8
0
 10
-0.084259
 20
-0.996216
 11
0
 21
-1
  0
LINE
  8
0
 10
0
 20
-1
 11
0.084259
 21
-0.996216
  0
LINE
  8
0
 10
0.084259
 20
-0.996216
 11
0.10585
 21
-1.11861
  0
LINE
  8
0
 10
0.10585
 20
-1.11861
 11
0.157974
 21
-1.20688
  0
LINE
  8
0
 10
0.157974
 20
-1.20688
 11
0.193161
 21
-1.22505
  0
LINE
  8
0
 10
0.193161
 20
-1.22505
 11
0.237457
 21
-1.21724
  0
LINE
  8
0
 10
0.339401
 20
0.339401
 11
0.311722
 21
0.36499
  0
LINE
  8
0
 10
0.311722
 20
0.36499
 11
0.282135
 21
0.388321
  0
LINE
  8
0
 10
0.282135
 20
0.388321
 11
0.250793
 21
0.409256
  0
LINE
  8
0
 10
0.250793
 20
0.409256
 11
0.217911
 21
0.427673
  0
LINE
  8
0
 10
0.217911
 20
0.427673
 11
0.183685
 21
0.443451
  0
LINE
  8
0
 10
0.183685
 20
0.443451
 11
0.148315
 21
0.456497
  0
LINE
  8
0
 10
0.148315
 20
0.456497
 11
0.0999908
 21
0.469131
  0
LINE
  8
0
 10
0.0999908
 20
0.469131
 11
0.0999908
 21
0.84343
  0
LINE
  8
0
 10
0.0999908
 20
0.84343
 11
0.132965
 21
0.839523
  0
LINE
  8
0
 10
0.132965
 20
0.839523
 11
0.198425
 21
0.826508
  0
LINE
  8
0
 10
0.198425
 20
0.826508
 11
0.26265
 21
0.808395
  0
LINE
  8
0
 10
0.26265
 20
0.808395
 11
0.325272
 21
0.785294
  0
LINE
  8
0
 10
0.325272
 20
0.785294
 11
0.38588
 21
0.757355
  0
LINE
  8
0
 10
0.38588
 20
0.757355
 11
0.444122
 21
0.724731
  0
LINE
  8
0
 10
0.444122
 20
0.724731
 11
0.499603
 21
0.687653
  0
LINE
  8
0
 10
0.499603
 20
0.687653
 11
0.552017
 21
0.646332
  0
LINE
  8
0
 10
0.552017
 20
0.646332
 11
0.601028
 21
0.601028
  0
LINE
  8
0
 10
0.601028
 20
0.601028
 11
0.646332
 21
0.552017
  0
LINE
  8
0
 10
0.646332
 20
0.552017
 11
0.680679
 21
0.508453
  0
LINE
  8
0
 10
0.680679
 20
0.508453
 11
0.356262
 21
0.321152
  0
LINE
  8
0
 10
0.356262
 20
0.321152
 11
0.339401
 21
0.339401
  0
LINE
  8
0
 10
-0.680679
 20
0.508453
 11
-0.646332
 21
0.552017
  0
LINE
  8
0
 10
-0.646332
 20
0.552017
 11
-0.601028
 21
0.601028
  0
LINE
  8
0
 10
-0.601028
 20
0.601028
 11
-0.552017
 21
0.646332
  0
LINE
  8
0
 10
-0.552017
 20
0.646332
 11
-0.499603
 21
0.687653
  0
LINE
  8
0
 10
-0.499603
 20
0.687653
 11
-0.444122
 21
0.724731
  0
LINE
  8
0
 10
-0.444122
 20
0.724731
 11
-0.38588
 21
0.757355
  0
LINE
  8
0
 10
-0.38588
 20
0.757355
 11
-0.325272
 21
0.785294
  0
LINE
  8
0
 10
-0.325272
 20
0.785294
 11
-0.26265
 21
0.808395
  0
LINE
  8
0
 10
-0.26265
 20
0.808395
 11
-0.198425
 21
0.826508
  0
LINE
  8
0
 10
-0.198425
 20
0.826508
 11
-0.132965
 21
0.839523
  0
LINE
  8
0
 10
-0.132965
 20
0.839523
 11
-0.0999908
 21
0.84343
  0
LINE
  8
0
 10
-0.0999908
 20
0.84343
 11
-0.0999908
 21
0.469131
  0
LINE
  8
0
 10
-0.0999908
 20
0.469131
 11
-0.148315
 21
0.456497
  0
LINE
  8
0
 10
-0.148315
 20
0.456497
 11
-0.183685
 21
0.443451
  0
LINE
  8
0
 10
-0.183685
 20
0.443451
 11
-0.217911
 21
0.427673
  0
LINE
  8
0
 10
-0.217911
 20
0.427673
 11
-0.250793
 21
0.409256
  0
LINE
  8
0
 10
-0.250793
 20
0.409256
 11
-0.282135
 21
0.388321
  0
LINE
  8
0
 10
-0.282135
 20
0.388321
 11
-0.311722
 21
0.36499
  0
LINE
  8
0
 10
-0.311722
 20
0.36499
 11
-0.339401
 21
0.339401
  0
LINE
  8
0
 10
-0.339401
 20
0.339401
 11
-0.356262
 21
0.321152
  0
LINE
  8
0
 10
-0.356262
 20
0.321152
 11
-0.680679
 21
0.508453
  0
LINE
  8
0
 10
0.456558
 20
-0.148132
 11
0.466736
 21
-0.112045
  0
LINE
  8
0
 10
0.466736
 20
-0.112045
 11
0.474075
 21
-0.0750885
  0
LINE
  8
0
 10
0.474075
 20
-0.0750885
 11
0.478516
 21
-0.0376587
  0
LINE
  8
0
 10
0.478516
 20
-0.0376587
 11
0.479996
 21
0
  0
LINE
  8
0
 10
0.479996
 20
0
 11
0.478516
 21
0.0376587
  0
LINE
  8
0
 10
0.478516
 20
0.0376587
 11
0.474075
 21
0.0750885
  0
LINE
  8
0
 10
0.474075
 20
0.0750885
 11
0.466736
 21
0.112045
  0
LINE
  8
0
 10
0.466736
 20
0.112045
 11
0.456558
 21
0.148132
  0
LINE
  8
0
 10
0.456558
 20
0.148132
 11
0.780685
 21
0.335266
  0
LINE
  8
0
 10
0.780685
 20
0.335266
 11
0.808395
 21
0.26265
  0
LINE
  8
0
 10
0.808395
 20
0.26265
 11
0.826508
 21
0.198425
  0
LINE
  8
0
 10
0.826508
 20
0.198425
 11
0.839523
 21
0.132965
  0
LINE
  8
0
 10
0.839523
 20
0.132965
 11
0.847366
 21
0.0666809
  0
LINE
  8
0
 10
0.847366
 20
0.0666809
 11
0.849991
 21
0
  0
LINE
  8
0
 10
0.849991
 20
0
 11
0.847366
 21
-0.0666809
  0
LINE
  8
0
 10
0.847366
 20
-0.0666809
 11
0.839523
 21
-0.132965
  0
LINE
  8
0
 10
0.839523
 20
-0.132965
 11
0.826508
 21
-0.198425
  0
LINE
  8
0
 10
0.826508
 20
-0.198425
 11
0.808395
 21
-0.26265
  0
LINE
  8
0
 10
0.808395
 20
-0.26265
 11
0.780685
 21
-0.335266
  0
LINE
  8
0
 10
0.780685
 20
-0.335266
 11
0.456558
 21
-0.148132
  0
LINE
  8
0
 10
-0.808395
 20
-0.26265
 11
-0.826508
 21
-0.198425
  0
LINE
  8
0
 10
-0.826508
 20
-0.198425
 11
-0.839523
 21
-0.132965
  0
LINE
  8
0
 10
-0.839523
 20
-0.132965
 11
-0.847366
 21
-0.0666809
  0
LINE
  8
0
 10
-0.847366
 20
-0.0666809
 11
-0.849991
 21
0
  0
LINE
  8
0
 10
-0.849991
 20
0
 11
-0.847366
 21
0.0666809
  0
LINE
  8
0
 10
-0.847366
 20
0.0666809
 11
-0.839523
 21
0.132965
  0
LINE
  8
0
 10
-0.839523
 20
0.132965
 11
-0.826508
 21
0.198425
  0
LINE
  8
0
 10
-0.826508
 20
0.198425
 11
-0.808395
 21
0.26265
  0
LINE
  8
0
 10
-0.808395
 20
0.26265
 11
-0.780685
 21
0.335266
  0
LINE
  8
0
 10
-0.780685
 20
0.335266
 11
-0.456558
 21
0.148132
  0
LINE
  8
0
 10
-0.456558
 20
0.148132
 11
-0.466736
 21
0.112045
  0
LINE
  8
0
 10
-0.466736
 20
0.112045
 11
-0.474075
 21
0.0750885
  0
LINE
  8
0
 10
-0.474075
 20
0.0750885
 11
-0.478516
 21
0.0376587
  0
LINE
  8
0
 10
-0.478516
 20
0.0376587
 11
-0.479996
 21
0
  0
LINE
  8
0
 10
-0.479996
 20
0
 11
-0.478516
 21
-0.0376587
  0
LINE
  8
0
 10
-0.478516
 20
-0.0376587
 11
-0.474075
 21
-0.0750885
  0
LINE
  8
0
 10
-0.474075
 20
-0.0750885
 11
-0.466736
 21
-0.112045
  0
LINE
  8
0
 10
-0.466736
 20
-0.112045
 11
-0.456558
 21
-0.148132
  0
LINE
  8
0
 10
-0.456558
 20
-0.148132
 11
-0.780685
 21
-0.335266
  0
LINE
  8
0
 10
-0.780685
 20
-0.335266
 11
-0.808395
 21
-0.26265
  0
LINE
  8
0
 10
-0.144333
 20
-0.249985
 11
-0.288666
 21
0
  0
LINE
  8
0
 10
-0.288666
 20
0
 11
-0.144333
 21
0.25
  0
LINE
  8
0
 10
-0.144333
 20
0.25
 11
0.144333
 21
0.25
  0
LINE
  8
0
 10
0.144333
 20
0.25
 11
0.288666
 21
0
  0
LINE
  8
0
 10
0.288666
 20
0
 11
0.144333
 21
-0.25
  0
LINE
  8
0
 10
0.144333
 20
-0.25
 11
-0.144333
 21
-0.249985
  0
LINE
  8
0
 10
-0.132965
 20
-0.839523
 11
-0.198425
 21
-0.826508
  0
LINE
  8
0
 10
-0.198425
 20
-0.826508
 11
-0.26265
 21
-0.808395
  0
LINE
  8
0
 10
-0.26265
 20
-0.808395
 11
-0.325272
 21
-0.785294
  0
LINE
  8
0
 10
-0.325272
 20
-0.785294
 11
-0.38588
 21
-0.757355
  0
LINE
  8
0
 10
-0.38588
 20
-0.757355
 11
-0.444122
 21
-0.724731
  0
LINE
  8
0
 10
-0.444122
 20
-0.724731
 11
-0.499603
 21
-0.687653
  0
LINE
  8
0
 10
-0.499603
 20
-0.687653
 11
-0.552017
 21
-0.646332
  0
LINE
  8
0
 10
-0.552017
 20
-0.646332
 11
-0.601028
 21
-0.601028
  0
LINE
  8
0
 10
-0.601028
 20
-0.601028
 11
-0.646332
 21
-0.552017
  0
LINE
  8
0
 10
-0.646332
 20
-0.552017
 11
-0.680679
 21
-0.508453
  0
LINE
  8
0
 10
-0.680679
 20
-0.508453
 11
-0.356262
 21
-0.321152
  0
LINE
  8
0
 10
-0.356262
 20
-0.321152
 11
-0.339401
 21
-0.339401
  0
LINE
  8
0
 10
-0.339401
 20
-0.339401
 11
-0.311722
 21
-0.36499
  0
LINE
  8
0
 10
-0.311722
 20
-0.36499
 11
-0.282135
 21
-0.388321
  0
LINE
  8
0
 10
-0.282135
 20
-0.388321
 11
-0.250793
 21
-0.409256
  0
LINE
  8
0
 10
-0.250793
 20
-0.409256
 11
-0.217911
 21
-0.427673
  0
LINE
  8
0
 10
-0.217911
 20
-0.427673
 11
-0.183685
 21
-0.443451
  0
LINE
  8
0
 10
-0.183685
 20
-0.443451
 11
-0.148315
 21
-0.456497
  0
LINE
  8
0
 10
-0.148315
 20
-0.456497
 11
-0.0999908
 21
-0.469131
  0
LINE
  8
0
 10
-0.0999908
 20
-0.469131
 11
-0.0999908
 21
-0.84343
  0
LINE
  8
0
 10
-0.0999908
 20
-0.84343
 11
-0.132965
 21
-0.839523
  0
LINE
  8
0
 10
0.0999908
 20
-0.469131
 11
0.148315
 21
-0.456497
  0
LINE
  8
0
 10
0.148315
 20
-0.456497
 11
0.183685
 21
-0.443451
  0
LINE
  8
0
 10
0.183685
 20
-0.443451
 11
0.217911
 21
-0.427673
  0
LINE
  8
0
 10
0.217911
 20
-0.427673
 11
0.250793
 21
-0.409256
  0
LINE
  8
0
 10
0.250793
 20
-0.409256
 11
0.282135
 21
-0.388321
  0
LINE
  8
0
 10
0.282135
 20
-0.388321
 11
0.311722
 21
-0.36499
  0
LINE
  8
0
 10
0.311722
 20
-0.36499
 11
0.339401
 21
-0.339401
  0
LINE
  8
0
 10
0.339401
 20
-0.339401
 11
0.356262
 21
-0.321152
  0
LINE
  8
0
 10
0.356262
 20
-0.321152
 11
0.680679
 21
-0.508453
  0
LINE
  8
0
 10
0.680679
 20
-0.508453
 11
0.646332
 21
-0.552017
  0
LINE
  8
0
 10
0.646332
 20
-0.552017
 11
0.601028
 21
-0.601028
  0
LINE
  8
0
 10
0.601028
 20
-0.601028
 11
0.552017
 21
-0.646332
  0
LINE
  8
0
 10
0.552017
 20
-0.646332
 11
0.499603
 21
-0.687653
  0
LINE
  8
0
 10
0.499603
 20
-0.687653
 11
0.444122
 21
-0.724731
  0
LINE
  8
0
 10
0.444122
 20
-0.724731
 11
0.38588
 21
-0.757355
  0
LINE
  8
0
 10
0.38588
 20
-0.757355
 11
0.325272
 21
-0.785294
  0
LINE
  8
0
 10
0.325272
 20
-0.785294
 11
0.26265
 21
-0.808395
  0
LINE
  8
0
 10
0.26265
 20
-0.808395
 11
0.198425
 21
-0.826508
  0
LINE
  8
0
 10
0.198425
 20
-0.826508
 11
0.132965
 21
-0.839523
  0
LINE
  8
0
 10
0.132965
 20
-0.839523
 11
0.0999908
 21
-0.84343
  0
LINE
  8
0
 10
0.0999908
 20
-0.84343
 11
0.0999908
 21
-0.469131
  0
ENDSEC
  0
SECTION
  2
OBJECTS
  0
DICTIONARY
  0
ENDSEC
  0
EOF
