  0
SECTION
  2
BLOCKS
  0
ENDSEC
  0
SECTION
  2
ENTITIES
  0
LINE
  8
0
 10
-5.64999
 20
0.204987
 11
-5.33983
 21
0.204987
  0
LINE
  8
0
 10
-5.33983
 20
0.204987
 11
-5.33983
 21
0.375
  0
LINE
  8
0
 10
-5.33983
 20
0.375
 11
4.64452
 21
0.375
  0
LINE
  8
0
 10
4.64452
 20
0.375
 11
4.64452
 21
-0.204987
  0
LINE
  8
0
 10
4.64452
 20
-0.204987
 11
5.00999
 21
-0.204987
  0
LINE
  8
0
 10
5.00999
 20
-0.204987
 11
5.00999
 21
0.204987
  0
LINE
  8
0
 10
5.00999
 20
0.204987
 11
5.42
 21
0.204987
  0
LINE
  8
0
 10
5.42
 20
0.204987
 11
5.42
 21
-0.204987
  0
LINE
  8
0
 10
5.42
 20
-0.204987
 11
5.82999
 21
-0.204987
  0
LINE
  8
0
 10
5.82999
 20
-0.204987
 11
5.82999
 21
0.204987
  0
LINE
  8
0
 10
5.82999
 20
0.204987
 11
6.23999
 21
0.204987
  0
LINE
  8
0
 10
6.23999
 20
0.204987
 11
6.23999
 21
-0.204987
  0
LINE
  8
0
 10
6.23999
 20
-0.204987
 11
6.64999
 21
-0.204987
  0
LINE
  8
0
 10
6.64999
 20
-0.204987
 11
6.64999
 21
0.204987
  0
LINE
  8
0
 10
6.64999
 20
0.204987
 11
7.06
 21
0.204987
  0
LINE
  8
0
 10
7.06
 20
0.204987
 11
7.06
 21
-0.204987
  0
LINE
  8
0
 10
7.06
 20
-0.204987
 11
7.38983
 21
-0.204987
  0
LINE
  8
0
 10
7.38983
 20
-0.204987
 11
7.38983
 21
7.125
  0
LINE
  8
0
 10
7.38983
 20
7.125
 11
-6.33983
 21
7.125
  0
LINE
  8
0
 10
-6.33983
 20
7.125
 11
-6.33983
 21
0.204987
  0
LINE
  8
0
 10
-6.33983
 20
0.204987
 11
-6.06
 21
0.204987
  0
LINE
  8
0
 10
-6.06
 20
0.204987
 11
-6.06
 21
-0.204987
  0
LINE
  8
0
 10
-6.06
 20
-0.204987
 11
-5.64999
 21
-0.204987
  0
LINE
  8
0
 10
-5.64999
 20
-0.204987
 11
-5.64999
 21
0.204987
  0
LINE
  8
0
 10
1.33983
 20
0.875
 11
1.33983
 21
1
  0
LINE
  8
0
 10
1.33983
 20
1
 11
1.08983
 21
1
  0
LINE
  8
0
 10
1.08983
 20
1
 11
1.08983
 21
2.9375
  0
LINE
  8
0
 10
1.08983
 20
2.9375
 11
-2.65254
 21
2.9375
  0
LINE
  8
0
 10
-2.65254
 20
2.9375
 11
-2.65254
 21
4.1875
  0
LINE
  8
0
 10
-2.65254
 20
4.1875
 11
1.08983
 21
4.1875
  0
LINE
  8
0
 10
1.08983
 20
4.1875
 11
1.08983
 21
6.125
  0
LINE
  8
0
 10
1.08983
 20
6.125
 11
1.33983
 21
6.125
  0
LINE
  8
0
 10
1.33983
 20
6.125
 11
1.33983
 21
6.25
  0
LINE
  8
0
 10
1.33983
 20
6.25
 11
3.83983
 21
6.25
  0
LINE
  8
0
 10
3.83983
 20
6.25
 11
3.83983
 21
6.125
  0
LINE
  8
0
 10
3.83983
 20
6.125
 11
6.33983
 21
6.125
  0
LINE
  8
0
 10
6.33983
 20
6.125
 11
6.33983
 21
0.875
  0
LINE
  8
0
 10
6.33983
 20
0.875
 11
1.33983
 21
0.875
  0
ENDSEC
  0
SECTION
  2
OBJECTS
  0
DICTIONARY
  0
ENDSEC
  0
EOF
