  0
SECTION
  2
BLOCKS
  0
ENDSEC
  0
SECTION
  2
ENTITIES
  0
LINE
  8
0
 10
14.5
 20
8.1875
 11
14.325
 21
8.1852
  0
LINE
  8
0
 10
14.325
 20
8.1852
 11
14.15
 21
8.17833
  0
LINE
  8
0
 10
14.15
 20
8.17833
 11
13.9753
 21
8.16687
  0
LINE
  8
0
 10
13.9753
 20
8.16687
 11
13.801
 21
8.15086
  0
LINE
  8
0
 10
13.801
 20
8.15086
 11
13.6271
 21
8.13028
  0
LINE
  8
0
 10
13.6271
 20
8.13028
 11
13.4539
 21
8.10516
  0
LINE
  8
0
 10
13.4539
 20
8.10516
 11
13.2813
 21
8.07552
  0
LINE
  8
0
 10
13.2813
 20
8.07552
 11
13.1096
 21
8.04135
  0
LINE
  8
0
 10
13.1096
 20
8.04135
 11
12.9388
 21
8.00272
  0
LINE
  8
0
 10
12.9388
 20
8.00272
 11
12.7691
 21
7.95963
  0
LINE
  8
0
 10
12.7691
 20
7.95963
 11
12.6007
 21
7.91209
  0
LINE
  8
0
 10
12.6007
 20
7.91209
 11
12.4335
 21
7.86018
  0
LINE
  8
0
 10
12.4335
 20
7.86018
 11
12.2677
 21
7.80391
  0
LINE
  8
0
 10
12.2677
 20
7.80391
 11
12.1034
 21
7.74332
  0
LINE
  8
0
 10
12.1034
 20
7.74332
 11
11.9408
 21
7.67844
  0
LINE
  8
0
 10
11.9408
 20
7.67844
 11
11.78
 21
7.60933
  0
LINE
  8
0
 10
11.78
 20
7.60933
 11
11.621
 21
7.53603
  0
LINE
  8
0
 10
11.621
 20
7.53603
 11
11.4639
 21
7.4586
  0
LINE
  8
0
 10
11.4639
 20
7.4586
 11
11.309
 21
7.37708
  0
LINE
  8
0
 10
11.309
 20
7.37708
 11
11.1563
 21
7.29153
  0
LINE
  8
0
 10
11.1563
 20
7.29153
 11
11.0058
 21
7.20203
  0
LINE
  8
0
 10
11.0058
 20
7.20203
 11
10.8577
 21
7.1086
  0
LINE
  8
0
 10
10.8577
 20
7.1086
 11
10.7122
 21
7.01134
  0
LINE
  8
0
 10
10.7122
 20
7.01134
 11
10.5692
 21
6.91029
  0
LINE
  8
0
 10
10.5692
 20
6.91029
 11
10.4289
 21
6.80554
  0
LINE
  8
0
 10
10.4289
 20
6.80554
 11
10.2914
 21
6.69716
  0
LINE
  8
0
 10
10.2914
 20
6.69716
 11
10.1568
 21
6.58521
  0
LINE
  8
0
 10
10.1568
 20
6.58521
 11
10.0252
 21
6.46977
  0
LINE
  8
0
 10
10.0252
 20
6.46977
 11
9.89664
 21
6.35094
  0
LINE
  8
0
 10
9.89664
 20
6.35094
 11
9.77122
 21
6.22878
  0
LINE
  8
0
 10
9.77122
 20
6.22878
 11
9.64906
 21
6.10336
  0
LINE
  8
0
 10
9.64906
 20
6.10336
 11
9.53023
 21
5.97481
  0
LINE
  8
0
 10
9.53023
 20
5.97481
 11
9.41479
 21
5.84317
  0
LINE
  8
0
 10
9.41479
 20
5.84317
 11
9.30284
 21
5.70857
  0
LINE
  8
0
 10
9.30284
 20
5.70857
 11
9.19446
 21
5.57109
  0
LINE
  8
0
 10
9.19446
 20
5.57109
 11
9.08971
 21
5.4308
  0
LINE
  8
0
 10
9.08971
 20
5.4308
 11
8.98866
 21
5.28783
  0
LINE
  8
0
 10
8.98866
 20
5.28783
 11
8.8914
 21
5.14227
  0
LINE
  8
0
 10
8.8914
 20
5.14227
 11
8.79797
 21
4.9942
  0
LINE
  8
0
 10
8.79797
 20
4.9942
 11
8.70847
 21
4.84373
  0
LINE
  8
0
 10
8.70847
 20
4.84373
 11
8.62292
 21
4.69099
  0
LINE
  8
0
 10
8.62292
 20
4.69099
 11
8.5414
 21
4.53606
  0
LINE
  8
0
 10
8.5414
 20
4.53606
 11
8.46397
 21
4.37903
  0
LINE
  8
0
 10
8.46397
 20
4.37903
 11
8.39067
 21
4.22005
  0
LINE
  8
0
 10
8.39067
 20
4.22005
 11
8.32156
 21
4.05919
  0
LINE
  8
0
 10
8.32156
 20
4.05919
 11
8.25668
 21
3.89658
  0
LINE
  8
0
 10
8.25668
 20
3.89658
 11
8.19609
 21
3.73233
  0
LINE
  8
0
 10
8.19609
 20
3.73233
 11
8.13982
 21
3.56654
  0
LINE
  8
0
 10
8.13982
 20
3.56654
 11
8.08791
 21
3.39934
  0
LINE
  8
0
 10
8.08791
 20
3.39934
 11
8.04037
 21
3.23085
  0
LINE
  8
0
 10
8.04037
 20
3.23085
 11
7.99728
 21
3.06116
  0
LINE
  8
0
 10
7.99728
 20
3.06116
 11
7.95865
 21
2.8904
  0
LINE
  8
0
 10
7.95865
 20
2.8904
 11
7.92448
 21
2.71869
  0
LINE
  8
0
 10
7.92448
 20
2.71869
 11
7.89484
 21
2.54614
  0
LINE
  8
0
 10
7.89484
 20
2.54614
 11
7.86972
 21
2.37288
  0
LINE
  8
0
 10
7.86972
 20
2.37288
 11
7.84914
 21
2.19902
  0
LINE
  8
0
 10
7.84914
 20
2.19902
 11
7.83313
 21
2.02469
  0
LINE
  8
0
 10
7.83313
 20
2.02469
 11
7.82167
 21
1.84999
  0
LINE
  8
0
 10
7.82167
 20
1.84999
 11
7.8148
 21
1.67505
  0
LINE
  8
0
 10
7.8148
 20
1.67505
 11
7.8125
 21
1.5
  0
LINE
  8
0
 10
7.8125
 20
1.5
 11
7.8125
 21
0
  0
LINE
  8
0
 10
7.8125
 20
0
 11
12.6155
 21
0
  0
LINE
  8
0
 10
12.6155
 20
0
 11
14.5
 21
8.1875
  0
LINE
  8
0
 10
20
 20
8.1875
 11
19.825
 21
8.1852
  0
LINE
  8
0
 10
19.825
 20
8.1852
 11
19.65
 21
8.17833
  0
LINE
  8
0
 10
19.65
 20
8.17833
 11
19.4753
 21
8.16687
  0
LINE
  8
0
 10
19.4753
 20
8.16687
 11
19.301
 21
8.15086
  0
LINE
  8
0
 10
19.301
 20
8.15086
 11
19.1271
 21
8.13028
  0
LINE
  8
0
 10
19.1271
 20
8.13028
 11
18.9539
 21
8.10516
  0
LINE
  8
0
 10
18.9539
 20
8.10516
 11
18.7813
 21
8.07552
  0
LINE
  8
0
 10
18.7813
 20
8.07552
 11
18.6096
 21
8.04135
  0
LINE
  8
0
 10
18.6096
 20
8.04135
 11
18.4388
 21
8.00272
  0
LINE
  8
0
 10
18.4388
 20
8.00272
 11
18.2691
 21
7.95963
  0
LINE
  8
0
 10
18.2691
 20
7.95963
 11
18.1007
 21
7.91209
  0
LINE
  8
0
 10
18.1007
 20
7.91209
 11
17.9335
 21
7.86018
  0
LINE
  8
0
 10
17.9335
 20
7.86018
 11
17.7677
 21
7.80391
  0
LINE
  8
0
 10
17.7677
 20
7.80391
 11
17.6034
 21
7.74332
  0
LINE
  8
0
 10
17.6034
 20
7.74332
 11
17.4408
 21
7.67844
  0
LINE
  8
0
 10
17.4408
 20
7.67844
 11
17.28
 21
7.60933
  0
LINE
  8
0
 10
17.28
 20
7.60933
 11
17.121
 21
7.53603
  0
LINE
  8
0
 10
17.121
 20
7.53603
 11
16.9639
 21
7.4586
  0
LINE
  8
0
 10
16.9639
 20
7.4586
 11
16.809
 21
7.37708
  0
LINE
  8
0
 10
16.809
 20
7.37708
 11
16.6563
 21
7.29153
  0
LINE
  8
0
 10
16.6563
 20
7.29153
 11
16.5058
 21
7.20203
  0
LINE
  8
0
 10
16.5058
 20
7.20203
 11
16.3577
 21
7.1086
  0
LINE
  8
0
 10
16.3577
 20
7.1086
 11
16.2122
 21
7.01134
  0
LINE
  8
0
 10
16.2122
 20
7.01134
 11
16.0692
 21
6.91029
  0
LINE
  8
0
 10
16.0692
 20
6.91029
 11
15.9289
 21
6.80554
  0
LINE
  8
0
 10
15.9289
 20
6.80554
 11
15.7914
 21
6.69716
  0
LINE
  8
0
 10
15.7914
 20
6.69716
 11
15.6568
 21
6.58521
  0
LINE
  8
0
 10
15.6568
 20
6.58521
 11
15.5252
 21
6.46977
  0
LINE
  8
0
 10
15.5252
 20
6.46977
 11
15.3966
 21
6.35094
  0
LINE
  8
0
 10
15.3966
 20
6.35094
 11
15.2712
 21
6.22878
  0
LINE
  8
0
 10
15.2712
 20
6.22878
 11
15.1491
 21
6.10336
  0
LINE
  8
0
 10
15.1491
 20
6.10336
 11
15.0302
 21
5.97481
  0
LINE
  8
0
 10
15.0302
 20
5.97481
 11
14.9148
 21
5.84317
  0
LINE
  8
0
 10
14.9148
 20
5.84317
 11
14.8028
 21
5.70857
  0
LINE
  8
0
 10
14.8028
 20
5.70857
 11
14.6945
 21
5.57109
  0
LINE
  8
0
 10
14.6945
 20
5.57109
 11
14.5897
 21
5.4308
  0
LINE
  8
0
 10
14.5897
 20
5.4308
 11
14.4887
 21
5.28783
  0
LINE
  8
0
 10
14.4887
 20
5.28783
 11
14.3914
 21
5.14227
  0
LINE
  8
0
 10
14.3914
 20
5.14227
 11
14.298
 21
4.9942
  0
LINE
  8
0
 10
14.298
 20
4.9942
 11
14.2085
 21
4.84373
  0
LINE
  8
0
 10
14.2085
 20
4.84373
 11
14.1229
 21
4.69099
  0
LINE
  8
0
 10
14.1229
 20
4.69099
 11
14.0414
 21
4.53606
  0
LINE
  8
0
 10
14.0414
 20
4.53606
 11
13.964
 21
4.37903
  0
LINE
  8
0
 10
13.964
 20
4.37903
 11
13.8907
 21
4.22005
  0
LINE
  8
0
 10
13.8907
 20
4.22005
 11
13.8216
 21
4.05919
  0
LINE
  8
0
 10
13.8216
 20
4.05919
 11
13.7567
 21
3.89658
  0
LINE
  8
0
 10
13.7567
 20
3.89658
 11
13.6961
 21
3.73233
  0
LINE
  8
0
 10
13.6961
 20
3.73233
 11
13.6398
 21
3.56654
  0
LINE
  8
0
 10
13.6398
 20
3.56654
 11
13.5879
 21
3.39934
  0
LINE
  8
0
 10
13.5879
 20
3.39934
 11
13.5404
 21
3.23085
  0
LINE
  8
0
 10
13.5404
 20
3.23085
 11
13.4973
 21
3.06116
  0
LINE
  8
0
 10
13.4973
 20
3.06116
 11
13.4586
 21
2.8904
  0
LINE
  8
0
 10
13.4586
 20
2.8904
 11
13.4245
 21
2.71869
  0
LINE
  8
0
 10
13.4245
 20
2.71869
 11
13.3948
 21
2.54614
  0
LINE
  8
0
 10
13.3948
 20
2.54614
 11
13.3697
 21
2.37288
  0
LINE
  8
0
 10
13.3697
 20
2.37288
 11
13.3491
 21
2.19902
  0
LINE
  8
0
 10
13.3491
 20
2.19902
 11
13.3331
 21
2.02469
  0
LINE
  8
0
 10
13.3331
 20
2.02469
 11
13.3217
 21
1.84999
  0
LINE
  8
0
 10
13.3217
 20
1.84999
 11
13.3148
 21
1.67505
  0
LINE
  8
0
 10
13.3148
 20
1.67505
 11
13.3125
 21
1.5
  0
LINE
  8
0
 10
13.3125
 20
1.5
 11
13.3125
 21
0
  0
LINE
  8
0
 10
13.3125
 20
0
 11
18.1155
 21
0
  0
LINE
  8
0
 10
18.1155
 20
0
 11
20
 21
8.1875
  0
LINE
  8
0
 10
3.6326
 20
6.125
 11
0
 21
6.125
  0
LINE
  8
0
 10
0
 20
6.125
 11
0
 21
0
  0
LINE
  8
0
 10
0
 20
0
 11
3.6326
 21
0
  0
LINE
  8
0
 10
3.6326
 20
0
 11
3.6326
 21
6.125
  0
LINE
  8
0
 10
7.6326
 20
6.125
 11
4
 21
6.125
  0
LINE
  8
0
 10
4
 20
6.125
 11
4
 21
0
  0
LINE
  8
0
 10
4
 20
0
 11
7.6326
 21
0
  0
LINE
  8
0
 10
7.6326
 20
0
 11
7.6326
 21
6.125
  0
LINE
  8
0
 10
20
 20
2.59801
 11
19.9948
 21
2.59985
  0
LINE
  8
0
 10
19.9948
 20
2.59985
 11
19.9257
 21
2.56691
  0
LINE
  8
0
 10
19.9257
 20
2.56691
 11
19.9001
 21
2.49477
  0
LINE
  8
0
 10
19.9001
 20
2.49477
 11
19.9331
 21
2.42567
  0
LINE
  8
0
 10
19.9331
 20
2.42567
 11
20
 21
2.40198
  0
LINE
  8
0
 10
20
 20
2.40198
 11
20
 21
2.59801
  0
LINE
  8
0
 10
19.0743
 20
1.43309
 11
19.0999
 21
1.50522
  0
LINE
  8
0
 10
19.0999
 20
1.50522
 11
19.0669
 21
1.57431
  0
LINE
  8
0
 10
19.0669
 20
1.57431
 11
18.9948
 21
1.59985
  0
LINE
  8
0
 10
18.9948
 20
1.59985
 11
18.9257
 21
1.56691
  0
LINE
  8
0
 10
18.9257
 20
1.56691
 11
18.9001
 21
1.49478
  0
LINE
  8
0
 10
18.9001
 20
1.49478
 11
18.9331
 21
1.42569
  0
LINE
  8
0
 10
18.9331
 20
1.42569
 11
19.0052
 21
1.40015
  0
LINE
  8
0
 10
19.0052
 20
1.40015
 11
19.0743
 21
1.43309
  0
LINE
  8
0
 10
20
 20
0.598022
 11
19.9948
 21
0.599869
  0
LINE
  8
0
 10
19.9948
 20
0.599869
 11
19.9257
 21
0.566925
  0
LINE
  8
0
 10
19.9257
 20
0.566925
 11
19.9001
 21
0.494781
  0
LINE
  8
0
 10
19.9001
 20
0.494781
 11
19.9331
 21
0.42569
  0
LINE
  8
0
 10
19.9331
 20
0.42569
 11
20
 21
0.401993
  0
LINE
  8
0
 10
20
 20
0.401993
 11
20
 21
0.598022
  0
ENDSEC
  0
SECTION
  2
OBJECTS
  0
DICTIONARY
  0
ENDSEC
  0
EOF
